M48
INCH,TZ
T1C0.0157
T2C0.0256
T3C0.0394
T4C0.0650
%
G90
G05
T1
X37106Y-18839
X37126Y-18346
X37126Y-27244
X37283Y-19528
X37394Y-19886
X37728Y-19575
X39685Y-14803
X40059Y-33740
X41220Y-14803
X42520Y-17421
X42756Y-14803
X42756Y-28110
X43248Y-28110
X43760Y-28110
X43996Y-22559
X44272Y-28091
X44291Y-14803
X44803Y-28091
X45276Y-28110
X45827Y-14803
X45925Y-33740
X46594Y-23415
X46605Y-22627
X46654Y-31949
X46732Y-27382
X46850Y-23839
X46890Y-22776
X47008Y-31663
X47257Y-28320
X47264Y-29075
X47362Y-14803
X47520Y-33268
X47618Y-34173
X48110Y-21280
X48130Y-30512
X48134Y-17268
X48150Y-33701
X48274Y-31109
X48425Y-24606
X48425Y-25000
X48425Y-25394
X48593Y-31427
X48616Y-21280
X48630Y-17268
X48701Y-33701
X48898Y-14803
X48917Y-24606
X48917Y-25000
X48917Y-25394
X49123Y-21280
X49134Y-17268
X49252Y-33701
X49606Y-17268
X49629Y-21280
X49724Y-27677
X49803Y-33701
X50000Y-28150
X50135Y-21280
X50157Y-17268
X50354Y-26181
X50374Y-26811
X50433Y-14803
X50453Y-31299
X50492Y-30886
X50512Y-23661
X50630Y-17268
X50641Y-21280
X50846Y-23799
X50846Y-28346
X50925Y-29075
X50965Y-29390
X51142Y-17268
X51147Y-21280
X51220Y-30453
X51230Y-23829
X51260Y-26161
X51358Y-30098
X51594Y-29843
X51654Y-17268
X51654Y-21280
X51890Y-29567
X51969Y-14803
X52244Y-29547
X52530Y-30728
X52618Y-29547
X52736Y-32923
X52746Y-26762
X52746Y-27608
X52766Y-31900
X52795Y-30925
X52953Y-21181
X53012Y-33189
X53130Y-27726
X53465Y-14803
X53996Y-25787
X54795Y-27307
X54925Y-23374
X55039Y-14803
X55181Y-23096
X55236Y-32008
X55425Y-22831
X55620Y-25069
X55673Y-22563
X55768Y-32283
X55945Y-22291
X56213Y-22024
X56240Y-27087
X56484Y-21756
X56575Y-14803
X56732Y-33661
X56807Y-21471
X56988Y-33445
X57244Y-33661
X57362Y-16909
X57362Y-17244
X57421Y-29774
X57437Y-32114
X57485Y-29029
X57569Y-25453
X57618Y-20256
X57697Y-29281
X57933Y-24016
X57953Y-25650
X57954Y-31491
X58079Y-31087
X58150Y-14803
X58205Y-32091
X58307Y-16909
X58524Y-18967
X58583Y-17106
X58760Y-17402
X58937Y-22884
X59567Y-22205
X59646Y-14803
X60030Y-28799
X60633Y-34380
X61004Y-26880
X61220Y-14803
X61280Y-17106
X61378Y-28583
X61417Y-22963
X61525Y-34454
X61535Y-25325
X61535Y-25748
X61594Y-17244
X61831Y-31535
X61949Y-32343
X61969Y-22894
X62106Y-30217
X62165Y-29370
X62598Y-22835
X62717Y-14803
X62894Y-22835
X62992Y-28248
X63012Y-34469
X63091Y-31890
X63780Y-18898
X63780Y-19291
X63780Y-19685
X64173Y-18898
X64173Y-19291
X64173Y-19685
X65236Y-14803
X65673Y-21132
X65689Y-17608
X65689Y-18136
X66024Y-17880
X66024Y-22362
X66024Y-26772
X66339Y-33957
X66535Y-21555
X66535Y-22146
X66732Y-33465
X66772Y-14803
X67096Y-18179
X67126Y-22146
X67283Y-24331
X67490Y-18435
X67520Y-27795
X67520Y-29547
X67549Y-29902
X67598Y-32067
X67835Y-18681
X67937Y-30287
X68159Y-18967
X68209Y-29626
X68232Y-29998
X68307Y-14803
X68358Y-30657
X68661Y-30490
X69665Y-32067
X69685Y-31457
X69803Y-14803
X69815Y-21579
X70012Y-21862
X70193Y-22130
X70366Y-22398
X70563Y-22669
X70630Y-32933
X70756Y-22953
X70768Y-33465
X70768Y-33957
X70933Y-23236
X71118Y-23524
X71339Y-14803
X72128Y-23974
X72128Y-24447
X72128Y-24959
X72128Y-25480
X72128Y-25982
X72128Y-26484
X72874Y-14803
X73425Y-29035
X74409Y-14803
X75069Y-21240
X75384Y-21240
X75728Y-21240
X75945Y-14843
X76083Y-21240
X76102Y-34094
X76437Y-21240
X76929Y-17274
X76929Y-21256
X77067Y-29429
X77431Y-21256
X77433Y-17274
X77559Y-14803
X77913Y-31811
X77933Y-21256
X77936Y-17274
X77992Y-33150
X78434Y-21256
X78439Y-17274
X78543Y-27953
X78642Y-24606
X78642Y-25000
X78720Y-28642
X78936Y-21256
X78943Y-17274
X79035Y-24606
X79035Y-25000
X79035Y-25394
X79094Y-14803
X79438Y-21256
X79446Y-17274
X79882Y-28415
X79939Y-21256
X79949Y-17274
X80020Y-30807
X80413Y-34350
X80441Y-21256
X80453Y-17274
X80630Y-14803
X80679Y-26162
X81102Y-28740
X81398Y-33366
X82126Y-14803
X82185Y-32343
X83504Y-28937
X83701Y-14803
X84508Y-32343
X85197Y-14803
X85984Y-30768
X86720Y-14823
X87126Y-31024
X87362Y-25591
X87992Y-32126
X88071Y-30000
X88406Y-14803
X88504Y-12165
X88504Y-12756
X88504Y-13346
X88583Y-16732
X88583Y-17224
X88583Y-17717
X88622Y-25591
X88622Y-26299
X89075Y-15650
X89094Y-12165
X89094Y-12756
X89094Y-13346
X89685Y-12165
X89685Y-12756
X89685Y-13346
X90059Y-33465
X90354Y-34449
X91437Y-31496
X92480Y-26220
X93209Y-12795
X93248Y-13917
X93268Y-23858
X93268Y-24882
X93504Y-17028
X94134Y-23858
X94134Y-24882
X90354Y-18701
X90354Y-19488
X90354Y-20276
X90354Y-21063
X91142Y-18701
X91142Y-21063
X91929Y-18701
X91929Y-21063
X92717Y-18701
X92717Y-19488
X92717Y-20276
X92717Y-21063
T2
X47980Y-29205
X47980Y-29705
X48480Y-29205
X48480Y-29705
X48980Y-29205
X48980Y-29705
X49480Y-29205
X49480Y-29705
X49980Y-29205
X49980Y-29705
T3
X36614Y-24803
X36614Y-26575
X39173Y-24803
X39173Y-26575
X36594Y-30512
X36594Y-32283
X39154Y-30512
X39154Y-32283
T4
X92126Y-28937
X92126Y-30496
X92126Y-32055
X92126Y-33614
T0
M30
