G04 #@! TF.GenerationSoftware,KiCad,Pcbnew,(5.0.2)-1*
G04 #@! TF.CreationDate,2019-03-20T17:04:55-04:00*
G04 #@! TF.ProjectId,FSAE Main Panel,46534145-204d-4616-996e-2050616e656c,rev?*
G04 #@! TF.SameCoordinates,Original*
G04 #@! TF.FileFunction,Legend,Bot*
G04 #@! TF.FilePolarity,Positive*
%FSLAX46Y46*%
G04 Gerber Fmt 4.6, Leading zero omitted, Abs format (unit mm)*
G04 Created by KiCad (PCBNEW (5.0.2)-1) date 3/20/2019 5:04:55 PM*
%MOMM*%
%LPD*%
G01*
G04 APERTURE LIST*
%ADD10C,0.200000*%
%ADD11C,0.150000*%
%ADD12C,1.000000*%
%ADD13C,0.250000*%
%ADD14C,0.300000*%
%ADD15C,0.120000*%
G04 APERTURE END LIST*
D10*
X129697619Y-82211904D02*
X129964285Y-81830952D01*
X130154761Y-82211904D02*
X130154761Y-81411904D01*
X129850000Y-81411904D01*
X129773809Y-81450000D01*
X129735714Y-81488095D01*
X129697619Y-81564285D01*
X129697619Y-81678571D01*
X129735714Y-81754761D01*
X129773809Y-81792857D01*
X129850000Y-81830952D01*
X130154761Y-81830952D01*
X129354761Y-81792857D02*
X129088095Y-81792857D01*
X128973809Y-82211904D02*
X129354761Y-82211904D01*
X129354761Y-81411904D01*
X128973809Y-81411904D01*
X128745238Y-81411904D02*
X128478571Y-82211904D01*
X128211904Y-81411904D01*
X126307142Y-82211904D02*
X126764285Y-82211904D01*
X126535714Y-82211904D02*
X126535714Y-81411904D01*
X126611904Y-81526190D01*
X126688095Y-81602380D01*
X126764285Y-81640476D01*
X131030952Y-82811904D02*
X130535714Y-82811904D01*
X130802380Y-83116666D01*
X130688095Y-83116666D01*
X130611904Y-83154761D01*
X130573809Y-83192857D01*
X130535714Y-83269047D01*
X130535714Y-83459523D01*
X130573809Y-83535714D01*
X130611904Y-83573809D01*
X130688095Y-83611904D01*
X130916666Y-83611904D01*
X130992857Y-83573809D01*
X131030952Y-83535714D01*
X130192857Y-83307142D02*
X129583333Y-83307142D01*
X128783333Y-83611904D02*
X129240476Y-83611904D01*
X129011904Y-83611904D02*
X129011904Y-82811904D01*
X129088095Y-82926190D01*
X129164285Y-83002380D01*
X129240476Y-83040476D01*
X128097619Y-82811904D02*
X128250000Y-82811904D01*
X128326190Y-82850000D01*
X128364285Y-82888095D01*
X128440476Y-83002380D01*
X128478571Y-83154761D01*
X128478571Y-83459523D01*
X128440476Y-83535714D01*
X128402380Y-83573809D01*
X128326190Y-83611904D01*
X128173809Y-83611904D01*
X128097619Y-83573809D01*
X128059523Y-83535714D01*
X128021428Y-83459523D01*
X128021428Y-83269047D01*
X128059523Y-83192857D01*
X128097619Y-83154761D01*
X128173809Y-83116666D01*
X128326190Y-83116666D01*
X128402380Y-83154761D01*
X128440476Y-83192857D01*
X128478571Y-83269047D01*
X127678571Y-83307142D02*
X127069047Y-83307142D01*
X126269047Y-83611904D02*
X126726190Y-83611904D01*
X126497619Y-83611904D02*
X126497619Y-82811904D01*
X126573809Y-82926190D01*
X126650000Y-83002380D01*
X126726190Y-83040476D01*
X125888095Y-83611904D02*
X125735714Y-83611904D01*
X125659523Y-83573809D01*
X125621428Y-83535714D01*
X125545238Y-83421428D01*
X125507142Y-83269047D01*
X125507142Y-82964285D01*
X125545238Y-82888095D01*
X125583333Y-82850000D01*
X125659523Y-82811904D01*
X125811904Y-82811904D01*
X125888095Y-82850000D01*
X125926190Y-82888095D01*
X125964285Y-82964285D01*
X125964285Y-83154761D01*
X125926190Y-83230952D01*
X125888095Y-83269047D01*
X125811904Y-83307142D01*
X125659523Y-83307142D01*
X125583333Y-83269047D01*
X125545238Y-83230952D01*
X125507142Y-83154761D01*
X129221428Y-84783333D02*
X128840476Y-84783333D01*
X129297619Y-85011904D02*
X129030952Y-84211904D01*
X128764285Y-85011904D01*
X128497619Y-84935714D02*
X128459523Y-84973809D01*
X128497619Y-85011904D01*
X128535714Y-84973809D01*
X128497619Y-84935714D01*
X128497619Y-85011904D01*
X128116666Y-85011904D02*
X128116666Y-84211904D01*
X127811904Y-84211904D01*
X127735714Y-84250000D01*
X127697619Y-84288095D01*
X127659523Y-84364285D01*
X127659523Y-84478571D01*
X127697619Y-84554761D01*
X127735714Y-84592857D01*
X127811904Y-84630952D01*
X128116666Y-84630952D01*
X127316666Y-84935714D02*
X127278571Y-84973809D01*
X127316666Y-85011904D01*
X127354761Y-84973809D01*
X127316666Y-84935714D01*
X127316666Y-85011904D01*
D11*
G36*
X168750000Y-34000000D02*
X171500000Y-34000000D01*
X171500000Y-34750000D01*
X169750000Y-35750000D01*
X168750000Y-35750000D01*
X169250000Y-36500000D01*
X170000000Y-36750000D01*
X170500000Y-36750000D01*
X171500000Y-36250000D01*
X172500000Y-35250000D01*
X172750000Y-34250000D01*
X172500000Y-33250000D01*
X171750000Y-32500000D01*
X170500000Y-32250000D01*
X169500000Y-32500000D01*
X169000000Y-33000000D01*
X168750000Y-34000000D01*
G37*
X168750000Y-34000000D02*
X171500000Y-34000000D01*
X171500000Y-34750000D01*
X169750000Y-35750000D01*
X168750000Y-35750000D01*
X169250000Y-36500000D01*
X170000000Y-36750000D01*
X170500000Y-36750000D01*
X171500000Y-36250000D01*
X172500000Y-35250000D01*
X172750000Y-34250000D01*
X172500000Y-33250000D01*
X171750000Y-32500000D01*
X170500000Y-32250000D01*
X169500000Y-32500000D01*
X169000000Y-33000000D01*
X168750000Y-34000000D01*
G36*
X168750000Y-35500000D02*
X168750000Y-34250000D01*
X171250000Y-34250000D01*
X171250000Y-34500000D01*
X169500000Y-35500000D01*
X168750000Y-35500000D01*
G37*
X168750000Y-35500000D02*
X168750000Y-34250000D01*
X171250000Y-34250000D01*
X171250000Y-34500000D01*
X169500000Y-35500000D01*
X168750000Y-35500000D01*
D12*
X183250000Y-37250000D02*
X187750000Y-40750000D01*
X175250000Y-32000000D02*
X183250000Y-37250000D01*
X174750000Y-32000000D02*
X175250000Y-32000000D01*
X174000000Y-32250000D02*
X174750000Y-32000000D01*
X173750000Y-32500000D02*
X174000000Y-32250000D01*
X161750000Y-35250000D02*
X167000000Y-37750000D01*
X149500000Y-37000000D02*
X160750000Y-35250000D01*
X172750000Y-40000000D02*
X173750000Y-32500000D01*
X172500000Y-40250000D02*
X172750000Y-40000000D01*
X172000000Y-40250000D02*
X172500000Y-40250000D01*
X171250000Y-40000000D02*
X172000000Y-40250000D01*
X169250000Y-39000000D02*
X171250000Y-40000000D01*
X167000000Y-37750000D02*
X169250000Y-39000000D01*
X161000000Y-35250000D02*
X161750000Y-35250000D01*
X145250000Y-38000000D02*
X149500000Y-37000000D01*
X144500000Y-38250000D02*
X145250000Y-38000000D01*
X143750000Y-39750000D02*
X143750000Y-39250000D01*
X143750000Y-39250000D02*
X144500000Y-38250000D01*
X144250000Y-40500000D02*
X143750000Y-39750000D01*
X144250000Y-40500000D02*
X145250000Y-41000000D01*
D10*
X125250000Y-34500000D02*
X110750000Y-34500000D01*
D13*
X109301785Y-33250000D02*
X108587500Y-33250000D01*
X109444642Y-33678571D02*
X108944642Y-32178571D01*
X108444642Y-33678571D01*
X107730357Y-33678571D02*
X107873214Y-33607142D01*
X107944642Y-33464285D01*
X107944642Y-32178571D01*
X106587500Y-33607142D02*
X106730357Y-33678571D01*
X107016071Y-33678571D01*
X107158928Y-33607142D01*
X107230357Y-33464285D01*
X107230357Y-32892857D01*
X107158928Y-32750000D01*
X107016071Y-32678571D01*
X106730357Y-32678571D01*
X106587500Y-32750000D01*
X106516071Y-32892857D01*
X106516071Y-33035714D01*
X107230357Y-33178571D01*
X106016071Y-33678571D02*
X105230357Y-32678571D01*
X106016071Y-32678571D02*
X105230357Y-33678571D01*
X103516071Y-33678571D02*
X103516071Y-32178571D01*
X102944642Y-32178571D01*
X102801785Y-32250000D01*
X102730357Y-32321428D01*
X102658928Y-32464285D01*
X102658928Y-32678571D01*
X102730357Y-32821428D01*
X102801785Y-32892857D01*
X102944642Y-32964285D01*
X103516071Y-32964285D01*
X101801785Y-33678571D02*
X101944642Y-33607142D01*
X102016071Y-33535714D01*
X102087500Y-33392857D01*
X102087500Y-32964285D01*
X102016071Y-32821428D01*
X101944642Y-32750000D01*
X101801785Y-32678571D01*
X101587500Y-32678571D01*
X101444642Y-32750000D01*
X101373214Y-32821428D01*
X101301785Y-32964285D01*
X101301785Y-33392857D01*
X101373214Y-33535714D01*
X101444642Y-33607142D01*
X101587500Y-33678571D01*
X101801785Y-33678571D01*
X100016071Y-33678571D02*
X100016071Y-32178571D01*
X100016071Y-33607142D02*
X100158928Y-33678571D01*
X100444642Y-33678571D01*
X100587500Y-33607142D01*
X100658928Y-33535714D01*
X100730357Y-33392857D01*
X100730357Y-32964285D01*
X100658928Y-32821428D01*
X100587500Y-32750000D01*
X100444642Y-32678571D01*
X100158928Y-32678571D01*
X100016071Y-32750000D01*
X98658928Y-32678571D02*
X98658928Y-33892857D01*
X98730357Y-34035714D01*
X98801785Y-34107142D01*
X98944642Y-34178571D01*
X99158928Y-34178571D01*
X99301785Y-34107142D01*
X98658928Y-33607142D02*
X98801785Y-33678571D01*
X99087500Y-33678571D01*
X99230357Y-33607142D01*
X99301785Y-33535714D01*
X99373214Y-33392857D01*
X99373214Y-32964285D01*
X99301785Y-32821428D01*
X99230357Y-32750000D01*
X99087500Y-32678571D01*
X98801785Y-32678571D01*
X98658928Y-32750000D01*
X97730357Y-33678571D02*
X97873214Y-33607142D01*
X97944642Y-33535714D01*
X98016071Y-33392857D01*
X98016071Y-32964285D01*
X97944642Y-32821428D01*
X97873214Y-32750000D01*
X97730357Y-32678571D01*
X97516071Y-32678571D01*
X97373214Y-32750000D01*
X97301785Y-32821428D01*
X97230357Y-32964285D01*
X97230357Y-33392857D01*
X97301785Y-33535714D01*
X97373214Y-33607142D01*
X97516071Y-33678571D01*
X97730357Y-33678571D01*
X96587500Y-33678571D02*
X96587500Y-32678571D01*
X96587500Y-32964285D02*
X96516071Y-32821428D01*
X96444642Y-32750000D01*
X96301785Y-32678571D01*
X96158928Y-32678571D01*
X95730357Y-33607142D02*
X95587500Y-33678571D01*
X95301785Y-33678571D01*
X95158928Y-33607142D01*
X95087500Y-33464285D01*
X95087500Y-33392857D01*
X95158928Y-33250000D01*
X95301785Y-33178571D01*
X95516071Y-33178571D01*
X95658928Y-33107142D01*
X95730357Y-32964285D01*
X95730357Y-32892857D01*
X95658928Y-32750000D01*
X95516071Y-32678571D01*
X95301785Y-32678571D01*
X95158928Y-32750000D01*
X94444642Y-33678571D02*
X94444642Y-32178571D01*
X94301785Y-33107142D02*
X93873214Y-33678571D01*
X93873214Y-32678571D02*
X94444642Y-33250000D01*
X93230357Y-33678571D02*
X93230357Y-32678571D01*
X93230357Y-32178571D02*
X93301785Y-32250000D01*
X93230357Y-32321428D01*
X93158928Y-32250000D01*
X93230357Y-32178571D01*
X93230357Y-32321428D01*
X108444642Y-34750000D02*
X108587500Y-34678571D01*
X108801785Y-34678571D01*
X109016071Y-34750000D01*
X109158928Y-34892857D01*
X109230357Y-35035714D01*
X109301785Y-35321428D01*
X109301785Y-35535714D01*
X109230357Y-35821428D01*
X109158928Y-35964285D01*
X109016071Y-36107142D01*
X108801785Y-36178571D01*
X108658928Y-36178571D01*
X108444642Y-36107142D01*
X108373214Y-36035714D01*
X108373214Y-35535714D01*
X108658928Y-35535714D01*
X107087500Y-36178571D02*
X107087500Y-35392857D01*
X107158928Y-35250000D01*
X107301785Y-35178571D01*
X107587500Y-35178571D01*
X107730357Y-35250000D01*
X107087500Y-36107142D02*
X107230357Y-36178571D01*
X107587500Y-36178571D01*
X107730357Y-36107142D01*
X107801785Y-35964285D01*
X107801785Y-35821428D01*
X107730357Y-35678571D01*
X107587500Y-35607142D01*
X107230357Y-35607142D01*
X107087500Y-35535714D01*
X106373214Y-36178571D02*
X106373214Y-35178571D01*
X106373214Y-35464285D02*
X106301785Y-35321428D01*
X106230357Y-35250000D01*
X106087500Y-35178571D01*
X105944642Y-35178571D01*
X105587500Y-35178571D02*
X105230357Y-36178571D01*
X104873214Y-35178571D02*
X105230357Y-36178571D01*
X105373214Y-36535714D01*
X105444642Y-36607142D01*
X105587500Y-36678571D01*
X102301785Y-36035714D02*
X102373214Y-36107142D01*
X102587500Y-36178571D01*
X102730357Y-36178571D01*
X102944642Y-36107142D01*
X103087500Y-35964285D01*
X103158928Y-35821428D01*
X103230357Y-35535714D01*
X103230357Y-35321428D01*
X103158928Y-35035714D01*
X103087500Y-34892857D01*
X102944642Y-34750000D01*
X102730357Y-34678571D01*
X102587500Y-34678571D01*
X102373214Y-34750000D01*
X102301785Y-34821428D01*
X101658928Y-36178571D02*
X101658928Y-34678571D01*
X101016071Y-36178571D02*
X101016071Y-35392857D01*
X101087500Y-35250000D01*
X101230357Y-35178571D01*
X101444642Y-35178571D01*
X101587500Y-35250000D01*
X101658928Y-35321428D01*
X100087500Y-36178571D02*
X100230357Y-36107142D01*
X100301785Y-36035714D01*
X100373214Y-35892857D01*
X100373214Y-35464285D01*
X100301785Y-35321428D01*
X100230357Y-35250000D01*
X100087500Y-35178571D01*
X99873214Y-35178571D01*
X99730357Y-35250000D01*
X99658928Y-35321428D01*
X99587500Y-35464285D01*
X99587500Y-35892857D01*
X99658928Y-36035714D01*
X99730357Y-36107142D01*
X99873214Y-36178571D01*
X100087500Y-36178571D01*
X99087500Y-35178571D02*
X98801785Y-36178571D01*
X98516071Y-35464285D01*
X98230357Y-36178571D01*
X97944642Y-35178571D01*
X109230357Y-38678571D02*
X109230357Y-37178571D01*
X108730357Y-38250000D01*
X108230357Y-37178571D01*
X108230357Y-38678571D01*
X106873214Y-38678571D02*
X106873214Y-37892857D01*
X106944642Y-37750000D01*
X107087500Y-37678571D01*
X107373214Y-37678571D01*
X107516071Y-37750000D01*
X106873214Y-38607142D02*
X107016071Y-38678571D01*
X107373214Y-38678571D01*
X107516071Y-38607142D01*
X107587500Y-38464285D01*
X107587500Y-38321428D01*
X107516071Y-38178571D01*
X107373214Y-38107142D01*
X107016071Y-38107142D01*
X106873214Y-38035714D01*
X106373214Y-37678571D02*
X105801785Y-37678571D01*
X106158928Y-37178571D02*
X106158928Y-38464285D01*
X106087500Y-38607142D01*
X105944642Y-38678571D01*
X105801785Y-38678571D01*
X105516071Y-37678571D02*
X104944642Y-37678571D01*
X105301785Y-37178571D02*
X105301785Y-38464285D01*
X105230357Y-38607142D01*
X105087500Y-38678571D01*
X104944642Y-38678571D01*
X102444642Y-38535714D02*
X102516071Y-38607142D01*
X102730357Y-38678571D01*
X102873214Y-38678571D01*
X103087500Y-38607142D01*
X103230357Y-38464285D01*
X103301785Y-38321428D01*
X103373214Y-38035714D01*
X103373214Y-37821428D01*
X103301785Y-37535714D01*
X103230357Y-37392857D01*
X103087500Y-37250000D01*
X102873214Y-37178571D01*
X102730357Y-37178571D01*
X102516071Y-37250000D01*
X102444642Y-37321428D01*
X101587500Y-38678571D02*
X101730357Y-38607142D01*
X101801785Y-38535714D01*
X101873214Y-38392857D01*
X101873214Y-37964285D01*
X101801785Y-37821428D01*
X101730357Y-37750000D01*
X101587500Y-37678571D01*
X101373214Y-37678571D01*
X101230357Y-37750000D01*
X101158928Y-37821428D01*
X101087500Y-37964285D01*
X101087500Y-38392857D01*
X101158928Y-38535714D01*
X101230357Y-38607142D01*
X101373214Y-38678571D01*
X101587500Y-38678571D01*
X100587500Y-38678571D02*
X99801785Y-37678571D01*
X100587500Y-37678571D02*
X99801785Y-38678571D01*
D14*
X124763214Y-33178571D02*
X124575714Y-31678571D01*
X124218571Y-31678571D01*
X124013214Y-31750000D01*
X123888214Y-31892857D01*
X123834642Y-32035714D01*
X123798928Y-32321428D01*
X123825714Y-32535714D01*
X123932857Y-32821428D01*
X124022142Y-32964285D01*
X124182857Y-33107142D01*
X124406071Y-33178571D01*
X124763214Y-33178571D01*
X122682857Y-33107142D02*
X122834642Y-33178571D01*
X123120357Y-33178571D01*
X123254285Y-33107142D01*
X123307857Y-32964285D01*
X123236428Y-32392857D01*
X123147142Y-32250000D01*
X122995357Y-32178571D01*
X122709642Y-32178571D01*
X122575714Y-32250000D01*
X122522142Y-32392857D01*
X122540000Y-32535714D01*
X123272142Y-32678571D01*
X122040000Y-33107142D02*
X121906071Y-33178571D01*
X121620357Y-33178571D01*
X121468571Y-33107142D01*
X121379285Y-32964285D01*
X121370357Y-32892857D01*
X121423928Y-32750000D01*
X121557857Y-32678571D01*
X121772142Y-32678571D01*
X121906071Y-32607142D01*
X121959642Y-32464285D01*
X121950714Y-32392857D01*
X121861428Y-32250000D01*
X121709642Y-32178571D01*
X121495357Y-32178571D01*
X121361428Y-32250000D01*
X120763214Y-33178571D02*
X120638214Y-32178571D01*
X120575714Y-31678571D02*
X120656071Y-31750000D01*
X120593571Y-31821428D01*
X120513214Y-31750000D01*
X120575714Y-31678571D01*
X120593571Y-31821428D01*
X119281071Y-32178571D02*
X119432857Y-33392857D01*
X119522142Y-33535714D01*
X119602500Y-33607142D01*
X119754285Y-33678571D01*
X119968571Y-33678571D01*
X120102500Y-33607142D01*
X119397142Y-33107142D02*
X119548928Y-33178571D01*
X119834642Y-33178571D01*
X119968571Y-33107142D01*
X120031071Y-33035714D01*
X120084642Y-32892857D01*
X120031071Y-32464285D01*
X119941785Y-32321428D01*
X119861428Y-32250000D01*
X119709642Y-32178571D01*
X119423928Y-32178571D01*
X119290000Y-32250000D01*
X118566785Y-32178571D02*
X118691785Y-33178571D01*
X118584642Y-32321428D02*
X118504285Y-32250000D01*
X118352500Y-32178571D01*
X118138214Y-32178571D01*
X118004285Y-32250000D01*
X117950714Y-32392857D01*
X118048928Y-33178571D01*
X116754285Y-33107142D02*
X116906071Y-33178571D01*
X117191785Y-33178571D01*
X117325714Y-33107142D01*
X117379285Y-32964285D01*
X117307857Y-32392857D01*
X117218571Y-32250000D01*
X117066785Y-32178571D01*
X116781071Y-32178571D01*
X116647142Y-32250000D01*
X116593571Y-32392857D01*
X116611428Y-32535714D01*
X117343571Y-32678571D01*
X115406071Y-33178571D02*
X115218571Y-31678571D01*
X115397142Y-33107142D02*
X115548928Y-33178571D01*
X115834642Y-33178571D01*
X115968571Y-33107142D01*
X116031071Y-33035714D01*
X116084642Y-32892857D01*
X116031071Y-32464285D01*
X115941785Y-32321428D01*
X115861428Y-32250000D01*
X115709642Y-32178571D01*
X115423928Y-32178571D01*
X115290000Y-32250000D01*
X113548928Y-33178571D02*
X113361428Y-31678571D01*
X113432857Y-32250000D02*
X113281071Y-32178571D01*
X112995357Y-32178571D01*
X112861428Y-32250000D01*
X112798928Y-32321428D01*
X112745357Y-32464285D01*
X112798928Y-32892857D01*
X112888214Y-33035714D01*
X112968571Y-33107142D01*
X113120357Y-33178571D01*
X113406071Y-33178571D01*
X113540000Y-33107142D01*
X112209642Y-32178571D02*
X111977500Y-33178571D01*
X111495357Y-32178571D02*
X111977500Y-33178571D01*
X112165000Y-33535714D01*
X112245357Y-33607142D01*
X112397142Y-33678571D01*
X111031071Y-33035714D02*
X110968571Y-33107142D01*
X111048928Y-33178571D01*
X111111428Y-33107142D01*
X111031071Y-33035714D01*
X111048928Y-33178571D01*
X110932857Y-32250000D02*
X110870357Y-32321428D01*
X110950714Y-32392857D01*
X111013214Y-32321428D01*
X110932857Y-32250000D01*
X110950714Y-32392857D01*
X182164255Y-41154761D02*
X182366636Y-42773809D01*
X182295208Y-42964285D01*
X182211875Y-43059523D01*
X182033303Y-43154761D01*
X181652351Y-43154761D01*
X181449970Y-43059523D01*
X181342827Y-42964285D01*
X181223779Y-42773809D01*
X181021398Y-41154761D01*
X179152351Y-42964285D02*
X179259494Y-43059523D01*
X179557113Y-43154761D01*
X179747589Y-43154761D01*
X180021398Y-43059523D01*
X180188065Y-42869047D01*
X180259494Y-42678571D01*
X180307113Y-42297619D01*
X180271398Y-42011904D01*
X180128541Y-41630952D01*
X180009494Y-41440476D01*
X179795208Y-41250000D01*
X179497589Y-41154761D01*
X179307113Y-41154761D01*
X179033303Y-41250000D01*
X178949970Y-41345238D01*
X177688065Y-41154761D02*
X177307113Y-41154761D01*
X177128541Y-41250000D01*
X176961875Y-41440476D01*
X176914255Y-41821428D01*
X176997589Y-42488095D01*
X177140446Y-42869047D01*
X177354732Y-43059523D01*
X177557113Y-43154761D01*
X177938065Y-43154761D01*
X178116636Y-43059523D01*
X178283303Y-42869047D01*
X178330922Y-42488095D01*
X178247589Y-41821428D01*
X178104732Y-41440476D01*
X177890446Y-41250000D01*
X177688065Y-41154761D01*
X176223779Y-43154761D02*
X175973779Y-41154761D01*
X175080922Y-43154761D01*
X174830922Y-41154761D01*
X174128541Y-43154761D02*
X173878541Y-41154761D01*
X172985684Y-43154761D01*
X172735684Y-41154761D01*
X169711875Y-42107142D02*
X170378541Y-42107142D01*
X170509494Y-43154761D02*
X170259494Y-41154761D01*
X169307113Y-41154761D01*
X168164255Y-41154761D02*
X167783303Y-41154761D01*
X167604732Y-41250000D01*
X167438065Y-41440476D01*
X167390446Y-41821428D01*
X167473779Y-42488095D01*
X167616636Y-42869047D01*
X167830922Y-43059523D01*
X168033303Y-43154761D01*
X168414255Y-43154761D01*
X168592827Y-43059523D01*
X168759494Y-42869047D01*
X168807113Y-42488095D01*
X168723779Y-41821428D01*
X168580922Y-41440476D01*
X168366636Y-41250000D01*
X168164255Y-41154761D01*
X165557113Y-43154761D02*
X166104732Y-42202380D01*
X166699970Y-43154761D02*
X166449970Y-41154761D01*
X165688065Y-41154761D01*
X165509494Y-41250000D01*
X165426160Y-41345238D01*
X165354732Y-41535714D01*
X165390446Y-41821428D01*
X165509494Y-42011904D01*
X165616636Y-42107142D01*
X165819017Y-42202380D01*
X166580922Y-42202380D01*
X164699970Y-43154761D02*
X164449970Y-41154761D01*
X163961875Y-42583333D01*
X163116636Y-41154761D01*
X163366636Y-43154761D01*
X162164255Y-41154761D02*
X162366636Y-42773809D01*
X162295208Y-42964285D01*
X162211875Y-43059523D01*
X162033303Y-43154761D01*
X161652351Y-43154761D01*
X161449970Y-43059523D01*
X161342827Y-42964285D01*
X161223779Y-42773809D01*
X161021398Y-41154761D01*
X159366636Y-43154761D02*
X160319017Y-43154761D01*
X160069017Y-41154761D01*
X158723779Y-42583333D02*
X157771398Y-42583333D01*
X158985684Y-43154761D02*
X158069017Y-41154761D01*
X157652351Y-43154761D01*
X155545208Y-43059523D02*
X155271398Y-43154761D01*
X154795208Y-43154761D01*
X154592827Y-43059523D01*
X154485684Y-42964285D01*
X154366636Y-42773809D01*
X154342827Y-42583333D01*
X154414255Y-42392857D01*
X154497589Y-42297619D01*
X154676160Y-42202380D01*
X155045208Y-42107142D01*
X155223779Y-42011904D01*
X155307113Y-41916666D01*
X155378541Y-41726190D01*
X155354732Y-41535714D01*
X155235684Y-41345238D01*
X155128541Y-41250000D01*
X154926160Y-41154761D01*
X154449970Y-41154761D01*
X154176160Y-41250000D01*
X153580922Y-42583333D02*
X152628541Y-42583333D01*
X153842827Y-43154761D02*
X152926160Y-41154761D01*
X152509494Y-43154761D01*
X151711875Y-42107142D02*
X151045208Y-42107142D01*
X150890446Y-43154761D02*
X151842827Y-43154761D01*
X151592827Y-41154761D01*
X150640446Y-41154761D01*
D15*
G04 #@! TO.C,U303*
X237600000Y-56050000D02*
X237600000Y-57550000D01*
X237600000Y-57550000D02*
X235790000Y-57550000D01*
X235790000Y-57550000D02*
X235790000Y-62675000D01*
X227200000Y-56050000D02*
X227200000Y-57550000D01*
X227200000Y-57550000D02*
X229010000Y-57550000D01*
X229010000Y-57550000D02*
X229010000Y-58650000D01*
G04 #@! TO.C,J203*
X232150000Y-73500000D02*
X232150000Y-71950000D01*
X232150000Y-71950000D02*
X234000000Y-71950000D01*
D11*
G04 #@! TO.C,RN509*
X175124000Y-70200000D02*
X175124000Y-71110000D01*
X175124000Y-71110000D02*
X181024000Y-71110000D01*
X181024000Y-71110000D02*
X181024000Y-70200000D01*
X175124000Y-60500000D02*
X175124000Y-59600000D01*
X175124000Y-59600000D02*
X181024000Y-59600000D01*
X181024000Y-59600000D02*
X181024000Y-60500000D01*
D15*
G04 #@! TO.C,Q501*
X117840000Y-85130000D02*
X117840000Y-84200000D01*
X117840000Y-81970000D02*
X117840000Y-82900000D01*
X117840000Y-81970000D02*
X120000000Y-81970000D01*
X117840000Y-85130000D02*
X119300000Y-85130000D01*
G04 #@! TO.C,Q502*
X170850000Y-57270000D02*
X169390000Y-57270000D01*
X170850000Y-60430000D02*
X168690000Y-60430000D01*
X170850000Y-60430000D02*
X170850000Y-59500000D01*
X170850000Y-57270000D02*
X170850000Y-58200000D01*
D11*
G04 #@! TO.C,U401*
X190675000Y-75568511D02*
X190675000Y-75818511D01*
X182925000Y-75568511D02*
X182925000Y-75913511D01*
X182925000Y-87468511D02*
X182925000Y-87123511D01*
X190675000Y-87468511D02*
X190675000Y-87123511D01*
X190675000Y-75568511D02*
X182925000Y-75568511D01*
X190675000Y-87468511D02*
X182925000Y-87468511D01*
X190675000Y-75818511D02*
X192500000Y-75818511D01*
G04 #@! TO.C,RN501*
X165245000Y-59900000D02*
X166620000Y-59900000D01*
X165245000Y-70025000D02*
X161095000Y-70025000D01*
X165245000Y-59875000D02*
X161095000Y-59875000D01*
X165245000Y-70025000D02*
X165245000Y-69920000D01*
X161095000Y-70025000D02*
X161095000Y-69920000D01*
X161095000Y-59875000D02*
X161095000Y-59980000D01*
X165245000Y-59875000D02*
X165245000Y-59900000D01*
G04 #@! TO.C,J201*
X179050000Y-88280000D02*
X169050000Y-88280000D01*
G04 #@! TO.C,U503*
X202700000Y-58350000D02*
X202700000Y-58900000D01*
X197900000Y-58350000D02*
X202700000Y-58350000D01*
X197900000Y-58900000D02*
X197900000Y-58350000D01*
X197900000Y-68450000D02*
X197900000Y-67900000D01*
X202700000Y-68450000D02*
X197900000Y-68450000D01*
X202700000Y-67900000D02*
X202700000Y-68450000D01*
G04 #@! TO.C,U504*
X164900000Y-43940000D02*
X164900000Y-44490000D01*
X160100000Y-43940000D02*
X164900000Y-43940000D01*
X160100000Y-44490000D02*
X160100000Y-43940000D01*
X160100000Y-54040000D02*
X160100000Y-53490000D01*
X164900000Y-54040000D02*
X160100000Y-54040000D01*
X164900000Y-53490000D02*
X164900000Y-54040000D01*
G04 #@! TO.C,Y401*
X194826517Y-83467399D02*
X194826517Y-87067399D01*
X197226517Y-87067399D02*
X197226517Y-83467399D01*
X194826517Y-87067399D02*
X197226517Y-87067399D01*
X197226517Y-83467399D02*
X194826517Y-83467399D01*
G04 #@! TO.C,U502*
X126000000Y-58450000D02*
X126000000Y-59000000D01*
X121200000Y-58450000D02*
X126000000Y-58450000D01*
X121200000Y-59000000D02*
X121200000Y-58450000D01*
X121200000Y-68550000D02*
X121200000Y-68000000D01*
X126000000Y-68550000D02*
X121200000Y-68550000D01*
X126000000Y-68000000D02*
X126000000Y-68550000D01*
D15*
G04 #@! TO.C,C101*
X150270000Y-75475000D02*
X150270000Y-77475000D01*
X148230000Y-77475000D02*
X148230000Y-75475000D01*
G04 #@! TO.C,C102*
X150980000Y-77475000D02*
X150980000Y-75475000D01*
X153020000Y-75475000D02*
X153020000Y-77475000D01*
G04 #@! TO.C,C103*
X142500000Y-84570000D02*
X140500000Y-84570000D01*
X140500000Y-82530000D02*
X142500000Y-82530000D01*
G04 #@! TO.C,C104*
X150750000Y-74000000D02*
X149750000Y-74000000D01*
X149750000Y-72300000D02*
X150750000Y-72300000D01*
G04 #@! TO.C,C105*
X145550000Y-69650000D02*
X144550000Y-69650000D01*
X144550000Y-67950000D02*
X145550000Y-67950000D01*
G04 #@! TO.C,C106*
X133150000Y-72620000D02*
X131150000Y-72620000D01*
X131150000Y-70580000D02*
X133150000Y-70580000D01*
G04 #@! TO.C,C107*
X138800000Y-64480000D02*
X140800000Y-64480000D01*
X140800000Y-66520000D02*
X138800000Y-66520000D01*
G04 #@! TO.C,C108*
X137300000Y-69020000D02*
X135300000Y-69020000D01*
X135300000Y-66980000D02*
X137300000Y-66980000D01*
G04 #@! TO.C,C201*
X104200000Y-68550000D02*
X103200000Y-68550000D01*
X103200000Y-66850000D02*
X104200000Y-66850000D01*
G04 #@! TO.C,C202*
X103100000Y-75700000D02*
X104100000Y-75700000D01*
X104100000Y-77400000D02*
X103100000Y-77400000D01*
G04 #@! TO.C,C203*
X170570000Y-79300000D02*
X170570000Y-81300000D01*
X168530000Y-81300000D02*
X168530000Y-79300000D01*
G04 #@! TO.C,C204*
X165180000Y-81300000D02*
X165180000Y-79300000D01*
X167220000Y-79300000D02*
X167220000Y-81300000D01*
G04 #@! TO.C,C301*
X225050000Y-79820000D02*
X223050000Y-79820000D01*
X223050000Y-77780000D02*
X225050000Y-77780000D01*
G04 #@! TO.C,C302*
X230400000Y-65680000D02*
X232400000Y-65680000D01*
X232400000Y-67720000D02*
X230400000Y-67720000D01*
G04 #@! TO.C,C303*
X222050000Y-77120000D02*
X220050000Y-77120000D01*
X220050000Y-75080000D02*
X222050000Y-75080000D01*
G04 #@! TO.C,C304*
X152930000Y-85150000D02*
X152930000Y-83150000D01*
X154970000Y-83150000D02*
X154970000Y-85150000D01*
G04 #@! TO.C,C305*
X140500000Y-85230000D02*
X142500000Y-85230000D01*
X142500000Y-87270000D02*
X140500000Y-87270000D01*
G04 #@! TO.C,C306*
X227450000Y-45600000D02*
X227450000Y-40800000D01*
X227450000Y-40800000D02*
X235850000Y-40800000D01*
X227450000Y-45600000D02*
X235850000Y-45600000D01*
G04 #@! TO.C,C501*
X157655000Y-80325000D02*
X157655000Y-78325000D01*
X159695000Y-78325000D02*
X159695000Y-80325000D01*
G04 #@! TO.C,C502*
X154100000Y-59145000D02*
X152100000Y-59145000D01*
X152100000Y-57105000D02*
X154100000Y-57105000D01*
G04 #@! TO.C,C503*
X154080000Y-77500000D02*
X154080000Y-75500000D01*
X156120000Y-75500000D02*
X156120000Y-77500000D01*
G04 #@! TO.C,C504*
X122500000Y-69280000D02*
X124500000Y-69280000D01*
X124500000Y-71320000D02*
X122500000Y-71320000D01*
G04 #@! TO.C,C505*
X197600000Y-71720000D02*
X195600000Y-71720000D01*
X195600000Y-69680000D02*
X197600000Y-69680000D01*
G04 #@! TO.C,C506*
X161750000Y-54480000D02*
X163750000Y-54480000D01*
X163750000Y-56520000D02*
X161750000Y-56520000D01*
G04 #@! TO.C,D201*
X173150000Y-78950000D02*
X176100000Y-78950000D01*
X175550000Y-82050000D02*
X173150000Y-82050000D01*
G04 #@! TO.C,D301*
X230900000Y-79950000D02*
X230900000Y-74550000D01*
X227600000Y-79950000D02*
X227600000Y-74550000D01*
X230900000Y-79950000D02*
X227600000Y-79950000D01*
G04 #@! TO.C,J202*
X127710000Y-76580000D02*
X127710000Y-75450000D01*
X126950000Y-76580000D02*
X127710000Y-76580000D01*
X127645000Y-73872470D02*
X127645000Y-73050000D01*
X127645000Y-74690000D02*
X127645000Y-74487530D01*
X127513471Y-74690000D02*
X127645000Y-74690000D01*
X126243471Y-74690000D02*
X126386529Y-74690000D01*
X126190000Y-74886529D02*
X126190000Y-74743471D01*
X126190000Y-76580000D02*
X126190000Y-76013471D01*
X127645000Y-73050000D02*
X121175000Y-73050000D01*
X126190000Y-76580000D02*
X121175000Y-76580000D01*
X121175000Y-75142470D02*
X121175000Y-74487530D01*
X121175000Y-73872470D02*
X121175000Y-73050000D01*
X121175000Y-76580000D02*
X121175000Y-75757530D01*
G04 #@! TO.C,J204*
X91420000Y-45835000D02*
X91420000Y-45210000D01*
X91420000Y-52165000D02*
X93220000Y-52165000D01*
X91420000Y-52790000D02*
X91420000Y-52165000D01*
X86910000Y-55055000D02*
X87340000Y-55055000D01*
X86910000Y-56080000D02*
X86910000Y-55055000D01*
X85780000Y-56080000D02*
X86910000Y-56080000D01*
X85780000Y-41920000D02*
X85780000Y-56080000D01*
X86910000Y-41920000D02*
X85780000Y-41920000D01*
X86910000Y-42945000D02*
X86910000Y-41920000D01*
X87340000Y-42945000D02*
X86910000Y-42945000D01*
G04 #@! TO.C,L101*
X151375000Y-81245000D02*
X154375000Y-81245000D01*
X154375000Y-79105000D02*
X151375000Y-79105000D01*
G04 #@! TO.C,L201*
X168700000Y-74680000D02*
X165700000Y-74680000D01*
X165700000Y-76820000D02*
X168700000Y-76820000D01*
G04 #@! TO.C,L301*
X227050000Y-83780000D02*
X229050000Y-83780000D01*
X229050000Y-80820000D02*
X227050000Y-80820000D01*
G04 #@! TO.C,Q301*
X156220000Y-84040000D02*
X156220000Y-85500000D01*
X159380000Y-84040000D02*
X159380000Y-86200000D01*
X159380000Y-84040000D02*
X158450000Y-84040000D01*
X156220000Y-84040000D02*
X157150000Y-84040000D01*
G04 #@! TO.C,R201*
X102800000Y-72120000D02*
X104800000Y-72120000D01*
X104800000Y-69980000D02*
X102800000Y-69980000D01*
G04 #@! TO.C,R202*
X99200000Y-69980000D02*
X97200000Y-69980000D01*
X97200000Y-72120000D02*
X99200000Y-72120000D01*
G04 #@! TO.C,R203*
X102750000Y-75120000D02*
X104750000Y-75120000D01*
X104750000Y-72980000D02*
X102750000Y-72980000D01*
G04 #@! TO.C,R204*
X99200000Y-72980000D02*
X97200000Y-72980000D01*
X97200000Y-75120000D02*
X99200000Y-75120000D01*
G04 #@! TO.C,R401*
X178750000Y-73680000D02*
X176750000Y-73680000D01*
X176750000Y-75820000D02*
X178750000Y-75820000D01*
G04 #@! TO.C,R402*
X199500000Y-87070000D02*
X201500000Y-87070000D01*
X201500000Y-84930000D02*
X199500000Y-84930000D01*
G04 #@! TO.C,SW1*
X93130000Y-63910000D02*
X93130000Y-66590000D01*
X99370000Y-66590000D02*
X99370000Y-63910000D01*
X99220000Y-62130000D02*
X93280000Y-62130000D01*
X99220000Y-68370000D02*
X93280000Y-68370000D01*
X97664214Y-65250000D02*
G75*
G03X97664214Y-65250000I-1414214J0D01*
G01*
G04 #@! TO.C,SW2*
X97614214Y-79750000D02*
G75*
G03X97614214Y-79750000I-1414214J0D01*
G01*
X93230000Y-76630000D02*
X99170000Y-76630000D01*
X93230000Y-82870000D02*
X99170000Y-82870000D01*
X93080000Y-78410000D02*
X93080000Y-81090000D01*
X99320000Y-81090000D02*
X99320000Y-78410000D01*
D11*
G04 #@! TO.C,U1*
X143475000Y-71900000D02*
X144850000Y-71900000D01*
X136225000Y-71475000D02*
X136750000Y-71475000D01*
X136225000Y-78725000D02*
X136750000Y-78725000D01*
X143475000Y-78725000D02*
X142950000Y-78725000D01*
X143475000Y-71475000D02*
X142950000Y-71475000D01*
X143475000Y-78725000D02*
X143475000Y-78200000D01*
X136225000Y-78725000D02*
X136225000Y-78200000D01*
X136225000Y-71475000D02*
X136225000Y-72000000D01*
X143475000Y-71475000D02*
X143475000Y-71900000D01*
D15*
G04 #@! TO.C,U302*
X148300000Y-83790000D02*
X150750000Y-83790000D01*
X150100000Y-87010000D02*
X148300000Y-87010000D01*
D11*
G04 #@! TO.C,U402*
X196725000Y-82725000D02*
X195325000Y-82725000D01*
X196725000Y-77625000D02*
X200875000Y-77625000D01*
X196725000Y-82775000D02*
X200875000Y-82775000D01*
X196725000Y-77625000D02*
X196725000Y-77770000D01*
X200875000Y-77625000D02*
X200875000Y-77770000D01*
X200875000Y-82775000D02*
X200875000Y-82630000D01*
X196725000Y-82775000D02*
X196725000Y-82725000D01*
G04 #@! TO.C,U501*
X155535000Y-59850000D02*
X149560000Y-59850000D01*
X153960000Y-65375000D02*
X149560000Y-65375000D01*
G04 #@! TO.C,RN502*
X107050000Y-51950000D02*
X107960000Y-51950000D01*
X107960000Y-51950000D02*
X107960000Y-46050000D01*
X107960000Y-46050000D02*
X107050000Y-46050000D01*
X97350000Y-51950000D02*
X96450000Y-51950000D01*
X96450000Y-51950000D02*
X96450000Y-46050000D01*
X96450000Y-46050000D02*
X97350000Y-46050000D01*
G04 #@! TO.C,RN503*
X134250000Y-46050000D02*
X135150000Y-46050000D01*
X134250000Y-51950000D02*
X134250000Y-46050000D01*
X135150000Y-51950000D02*
X134250000Y-51950000D01*
X145760000Y-46050000D02*
X144850000Y-46050000D01*
X145760000Y-51950000D02*
X145760000Y-46050000D01*
X144850000Y-51950000D02*
X145760000Y-51950000D01*
G04 #@! TO.C,RN504*
X179250000Y-46050000D02*
X180150000Y-46050000D01*
X179250000Y-51950000D02*
X179250000Y-46050000D01*
X180150000Y-51950000D02*
X179250000Y-51950000D01*
X190760000Y-46050000D02*
X189850000Y-46050000D01*
X190760000Y-51950000D02*
X190760000Y-46050000D01*
X189850000Y-51950000D02*
X190760000Y-51950000D01*
G04 #@! TO.C,RN505*
X224150000Y-51950000D02*
X225060000Y-51950000D01*
X225060000Y-51950000D02*
X225060000Y-46050000D01*
X225060000Y-46050000D02*
X224150000Y-46050000D01*
X214450000Y-51950000D02*
X213550000Y-51950000D01*
X213550000Y-51950000D02*
X213550000Y-46050000D01*
X213550000Y-46050000D02*
X214450000Y-46050000D01*
G04 #@! TO.C,RN506*
X131550000Y-52000000D02*
X132460000Y-52000000D01*
X132460000Y-52000000D02*
X132460000Y-46100000D01*
X132460000Y-46100000D02*
X131550000Y-46100000D01*
X121850000Y-52000000D02*
X120950000Y-52000000D01*
X120950000Y-52000000D02*
X120950000Y-46100000D01*
X120950000Y-46100000D02*
X121850000Y-46100000D01*
G04 #@! TO.C,RN507*
X194100000Y-46050000D02*
X195000000Y-46050000D01*
X194100000Y-51950000D02*
X194100000Y-46050000D01*
X195000000Y-51950000D02*
X194100000Y-51950000D01*
X205610000Y-46050000D02*
X204700000Y-46050000D01*
X205610000Y-51950000D02*
X205610000Y-46050000D01*
X204700000Y-51950000D02*
X205610000Y-51950000D01*
G04 #@! TO.C,RN508*
X107350000Y-73750000D02*
X108250000Y-73750000D01*
X107350000Y-79650000D02*
X107350000Y-73750000D01*
X108250000Y-79650000D02*
X107350000Y-79650000D01*
X118860000Y-73750000D02*
X117950000Y-73750000D01*
X118860000Y-79650000D02*
X118860000Y-73750000D01*
X117950000Y-79650000D02*
X118860000Y-79650000D01*
D15*
G04 #@! TO.C,C307*
X209850000Y-71030000D02*
X211850000Y-71030000D01*
X211850000Y-73070000D02*
X209850000Y-73070000D01*
G04 #@! TO.C,C308*
X212850000Y-68480000D02*
X214850000Y-68480000D01*
X214850000Y-70520000D02*
X212850000Y-70520000D01*
G04 #@! TO.C,C309*
X232900000Y-63180000D02*
X234900000Y-63180000D01*
X234900000Y-65220000D02*
X232900000Y-65220000D01*
G04 #@! TO.C,D302*
X219600000Y-62250000D02*
X225000000Y-62250000D01*
X219600000Y-58950000D02*
X225000000Y-58950000D01*
X219600000Y-62250000D02*
X219600000Y-58950000D01*
G04 #@! TO.C,L302*
X218430000Y-62950000D02*
X218430000Y-60950000D01*
X215470000Y-60950000D02*
X215470000Y-62950000D01*
G04 #@! TO.C,R301*
X219950000Y-82670000D02*
X221950000Y-82670000D01*
X221950000Y-80530000D02*
X219950000Y-80530000D01*
G04 #@! TO.C,R302*
X233250000Y-33570000D02*
X235250000Y-33570000D01*
X235250000Y-31430000D02*
X233250000Y-31430000D01*
G04 #@! TO.C,R303*
X207270000Y-71350000D02*
X207270000Y-69350000D01*
X205130000Y-69350000D02*
X205130000Y-71350000D01*
G04 #@! TO.C,C507*
X235250000Y-36370000D02*
X233250000Y-36370000D01*
X233250000Y-34330000D02*
X235250000Y-34330000D01*
G04 #@! TO.C,C401*
X197500000Y-74380000D02*
X199500000Y-74380000D01*
X199500000Y-76420000D02*
X197500000Y-76420000D01*
G04 #@! TO.C,C402*
X182650000Y-72930000D02*
X184650000Y-72930000D01*
X184650000Y-74970000D02*
X182650000Y-74970000D01*
G04 #@! TO.C,U301*
X225260000Y-74100000D02*
X225260000Y-68090000D01*
X218440000Y-71850000D02*
X218440000Y-68090000D01*
X225260000Y-68090000D02*
X224000000Y-68090000D01*
X218440000Y-68090000D02*
X219700000Y-68090000D01*
G04 #@! TO.C,U304*
X215060000Y-80210000D02*
X213800000Y-80210000D01*
X208240000Y-80210000D02*
X209500000Y-80210000D01*
X215060000Y-76450000D02*
X215060000Y-80210000D01*
X208240000Y-74200000D02*
X208240000Y-80210000D01*
G04 #@! TO.C,R403*
X205100000Y-80120000D02*
X203900000Y-80120000D01*
X203900000Y-81880000D02*
X205100000Y-81880000D01*
G04 #@! TO.C,U303*
D11*
X240464285Y-62702380D02*
X240464285Y-63511904D01*
X240416666Y-63607142D01*
X240369047Y-63654761D01*
X240273809Y-63702380D01*
X240083333Y-63702380D01*
X239988095Y-63654761D01*
X239940476Y-63607142D01*
X239892857Y-63511904D01*
X239892857Y-62702380D01*
X239511904Y-62702380D02*
X238892857Y-62702380D01*
X239226190Y-63083333D01*
X239083333Y-63083333D01*
X238988095Y-63130952D01*
X238940476Y-63178571D01*
X238892857Y-63273809D01*
X238892857Y-63511904D01*
X238940476Y-63607142D01*
X238988095Y-63654761D01*
X239083333Y-63702380D01*
X239369047Y-63702380D01*
X239464285Y-63654761D01*
X239511904Y-63607142D01*
X238273809Y-62702380D02*
X238178571Y-62702380D01*
X238083333Y-62750000D01*
X238035714Y-62797619D01*
X237988095Y-62892857D01*
X237940476Y-63083333D01*
X237940476Y-63321428D01*
X237988095Y-63511904D01*
X238035714Y-63607142D01*
X238083333Y-63654761D01*
X238178571Y-63702380D01*
X238273809Y-63702380D01*
X238369047Y-63654761D01*
X238416666Y-63607142D01*
X238464285Y-63511904D01*
X238511904Y-63321428D01*
X238511904Y-63083333D01*
X238464285Y-62892857D01*
X238416666Y-62797619D01*
X238369047Y-62750000D01*
X238273809Y-62702380D01*
X237607142Y-62702380D02*
X236988095Y-62702380D01*
X237321428Y-63083333D01*
X237178571Y-63083333D01*
X237083333Y-63130952D01*
X237035714Y-63178571D01*
X236988095Y-63273809D01*
X236988095Y-63511904D01*
X237035714Y-63607142D01*
X237083333Y-63654761D01*
X237178571Y-63702380D01*
X237464285Y-63702380D01*
X237559523Y-63654761D01*
X237607142Y-63607142D01*
G04 #@! TO.C,J203*
X235285714Y-69452380D02*
X235285714Y-70166666D01*
X235333333Y-70309523D01*
X235428571Y-70404761D01*
X235571428Y-70452380D01*
X235666666Y-70452380D01*
X234857142Y-69547619D02*
X234809523Y-69500000D01*
X234714285Y-69452380D01*
X234476190Y-69452380D01*
X234380952Y-69500000D01*
X234333333Y-69547619D01*
X234285714Y-69642857D01*
X234285714Y-69738095D01*
X234333333Y-69880952D01*
X234904761Y-70452380D01*
X234285714Y-70452380D01*
X233666666Y-69452380D02*
X233571428Y-69452380D01*
X233476190Y-69500000D01*
X233428571Y-69547619D01*
X233380952Y-69642857D01*
X233333333Y-69833333D01*
X233333333Y-70071428D01*
X233380952Y-70261904D01*
X233428571Y-70357142D01*
X233476190Y-70404761D01*
X233571428Y-70452380D01*
X233666666Y-70452380D01*
X233761904Y-70404761D01*
X233809523Y-70357142D01*
X233857142Y-70261904D01*
X233904761Y-70071428D01*
X233904761Y-69833333D01*
X233857142Y-69642857D01*
X233809523Y-69547619D01*
X233761904Y-69500000D01*
X233666666Y-69452380D01*
X233000000Y-69452380D02*
X232380952Y-69452380D01*
X232714285Y-69833333D01*
X232571428Y-69833333D01*
X232476190Y-69880952D01*
X232428571Y-69928571D01*
X232380952Y-70023809D01*
X232380952Y-70261904D01*
X232428571Y-70357142D01*
X232476190Y-70404761D01*
X232571428Y-70452380D01*
X232857142Y-70452380D01*
X232952380Y-70404761D01*
X233000000Y-70357142D01*
G04 #@! TO.C,RN509*
X179716857Y-59202380D02*
X180050190Y-58726190D01*
X180288285Y-59202380D02*
X180288285Y-58202380D01*
X179907333Y-58202380D01*
X179812095Y-58250000D01*
X179764476Y-58297619D01*
X179716857Y-58392857D01*
X179716857Y-58535714D01*
X179764476Y-58630952D01*
X179812095Y-58678571D01*
X179907333Y-58726190D01*
X180288285Y-58726190D01*
X179288285Y-59202380D02*
X179288285Y-58202380D01*
X178716857Y-59202380D01*
X178716857Y-58202380D01*
X177764476Y-58202380D02*
X178240666Y-58202380D01*
X178288285Y-58678571D01*
X178240666Y-58630952D01*
X178145428Y-58583333D01*
X177907333Y-58583333D01*
X177812095Y-58630952D01*
X177764476Y-58678571D01*
X177716857Y-58773809D01*
X177716857Y-59011904D01*
X177764476Y-59107142D01*
X177812095Y-59154761D01*
X177907333Y-59202380D01*
X178145428Y-59202380D01*
X178240666Y-59154761D01*
X178288285Y-59107142D01*
X177097809Y-58202380D02*
X177002571Y-58202380D01*
X176907333Y-58250000D01*
X176859714Y-58297619D01*
X176812095Y-58392857D01*
X176764476Y-58583333D01*
X176764476Y-58821428D01*
X176812095Y-59011904D01*
X176859714Y-59107142D01*
X176907333Y-59154761D01*
X177002571Y-59202380D01*
X177097809Y-59202380D01*
X177193047Y-59154761D01*
X177240666Y-59107142D01*
X177288285Y-59011904D01*
X177335904Y-58821428D01*
X177335904Y-58583333D01*
X177288285Y-58392857D01*
X177240666Y-58297619D01*
X177193047Y-58250000D01*
X177097809Y-58202380D01*
X176288285Y-59202380D02*
X176097809Y-59202380D01*
X176002571Y-59154761D01*
X175954952Y-59107142D01*
X175859714Y-58964285D01*
X175812095Y-58773809D01*
X175812095Y-58392857D01*
X175859714Y-58297619D01*
X175907333Y-58250000D01*
X176002571Y-58202380D01*
X176193047Y-58202380D01*
X176288285Y-58250000D01*
X176335904Y-58297619D01*
X176383523Y-58392857D01*
X176383523Y-58630952D01*
X176335904Y-58726190D01*
X176288285Y-58773809D01*
X176193047Y-58821428D01*
X176002571Y-58821428D01*
X175907333Y-58773809D01*
X175859714Y-58726190D01*
X175812095Y-58630952D01*
G04 #@! TO.C,Q501*
X115797619Y-84047619D02*
X115892857Y-84000000D01*
X115988095Y-83904761D01*
X116130952Y-83761904D01*
X116226190Y-83714285D01*
X116321428Y-83714285D01*
X116273809Y-83952380D02*
X116369047Y-83904761D01*
X116464285Y-83809523D01*
X116511904Y-83619047D01*
X116511904Y-83285714D01*
X116464285Y-83095238D01*
X116369047Y-83000000D01*
X116273809Y-82952380D01*
X116083333Y-82952380D01*
X115988095Y-83000000D01*
X115892857Y-83095238D01*
X115845238Y-83285714D01*
X115845238Y-83619047D01*
X115892857Y-83809523D01*
X115988095Y-83904761D01*
X116083333Y-83952380D01*
X116273809Y-83952380D01*
X114940476Y-82952380D02*
X115416666Y-82952380D01*
X115464285Y-83428571D01*
X115416666Y-83380952D01*
X115321428Y-83333333D01*
X115083333Y-83333333D01*
X114988095Y-83380952D01*
X114940476Y-83428571D01*
X114892857Y-83523809D01*
X114892857Y-83761904D01*
X114940476Y-83857142D01*
X114988095Y-83904761D01*
X115083333Y-83952380D01*
X115321428Y-83952380D01*
X115416666Y-83904761D01*
X115464285Y-83857142D01*
X114273809Y-82952380D02*
X114178571Y-82952380D01*
X114083333Y-83000000D01*
X114035714Y-83047619D01*
X113988095Y-83142857D01*
X113940476Y-83333333D01*
X113940476Y-83571428D01*
X113988095Y-83761904D01*
X114035714Y-83857142D01*
X114083333Y-83904761D01*
X114178571Y-83952380D01*
X114273809Y-83952380D01*
X114369047Y-83904761D01*
X114416666Y-83857142D01*
X114464285Y-83761904D01*
X114511904Y-83571428D01*
X114511904Y-83333333D01*
X114464285Y-83142857D01*
X114416666Y-83047619D01*
X114369047Y-83000000D01*
X114273809Y-82952380D01*
X112988095Y-83952380D02*
X113559523Y-83952380D01*
X113273809Y-83952380D02*
X113273809Y-82952380D01*
X113369047Y-83095238D01*
X113464285Y-83190476D01*
X113559523Y-83238095D01*
G04 #@! TO.C,Q502*
X171137619Y-61897619D02*
X171232857Y-61850000D01*
X171328095Y-61754761D01*
X171470952Y-61611904D01*
X171566190Y-61564285D01*
X171661428Y-61564285D01*
X171613809Y-61802380D02*
X171709047Y-61754761D01*
X171804285Y-61659523D01*
X171851904Y-61469047D01*
X171851904Y-61135714D01*
X171804285Y-60945238D01*
X171709047Y-60850000D01*
X171613809Y-60802380D01*
X171423333Y-60802380D01*
X171328095Y-60850000D01*
X171232857Y-60945238D01*
X171185238Y-61135714D01*
X171185238Y-61469047D01*
X171232857Y-61659523D01*
X171328095Y-61754761D01*
X171423333Y-61802380D01*
X171613809Y-61802380D01*
X170280476Y-60802380D02*
X170756666Y-60802380D01*
X170804285Y-61278571D01*
X170756666Y-61230952D01*
X170661428Y-61183333D01*
X170423333Y-61183333D01*
X170328095Y-61230952D01*
X170280476Y-61278571D01*
X170232857Y-61373809D01*
X170232857Y-61611904D01*
X170280476Y-61707142D01*
X170328095Y-61754761D01*
X170423333Y-61802380D01*
X170661428Y-61802380D01*
X170756666Y-61754761D01*
X170804285Y-61707142D01*
X169613809Y-60802380D02*
X169518571Y-60802380D01*
X169423333Y-60850000D01*
X169375714Y-60897619D01*
X169328095Y-60992857D01*
X169280476Y-61183333D01*
X169280476Y-61421428D01*
X169328095Y-61611904D01*
X169375714Y-61707142D01*
X169423333Y-61754761D01*
X169518571Y-61802380D01*
X169613809Y-61802380D01*
X169709047Y-61754761D01*
X169756666Y-61707142D01*
X169804285Y-61611904D01*
X169851904Y-61421428D01*
X169851904Y-61183333D01*
X169804285Y-60992857D01*
X169756666Y-60897619D01*
X169709047Y-60850000D01*
X169613809Y-60802380D01*
X168899523Y-60897619D02*
X168851904Y-60850000D01*
X168756666Y-60802380D01*
X168518571Y-60802380D01*
X168423333Y-60850000D01*
X168375714Y-60897619D01*
X168328095Y-60992857D01*
X168328095Y-61088095D01*
X168375714Y-61230952D01*
X168947142Y-61802380D01*
X168328095Y-61802380D01*
G04 #@! TO.C,U401*
X190714285Y-73702380D02*
X190714285Y-74511904D01*
X190666666Y-74607142D01*
X190619047Y-74654761D01*
X190523809Y-74702380D01*
X190333333Y-74702380D01*
X190238095Y-74654761D01*
X190190476Y-74607142D01*
X190142857Y-74511904D01*
X190142857Y-73702380D01*
X189238095Y-74035714D02*
X189238095Y-74702380D01*
X189476190Y-73654761D02*
X189714285Y-74369047D01*
X189095238Y-74369047D01*
X188523809Y-73702380D02*
X188428571Y-73702380D01*
X188333333Y-73750000D01*
X188285714Y-73797619D01*
X188238095Y-73892857D01*
X188190476Y-74083333D01*
X188190476Y-74321428D01*
X188238095Y-74511904D01*
X188285714Y-74607142D01*
X188333333Y-74654761D01*
X188428571Y-74702380D01*
X188523809Y-74702380D01*
X188619047Y-74654761D01*
X188666666Y-74607142D01*
X188714285Y-74511904D01*
X188761904Y-74321428D01*
X188761904Y-74083333D01*
X188714285Y-73892857D01*
X188666666Y-73797619D01*
X188619047Y-73750000D01*
X188523809Y-73702380D01*
X187238095Y-74702380D02*
X187809523Y-74702380D01*
X187523809Y-74702380D02*
X187523809Y-73702380D01*
X187619047Y-73845238D01*
X187714285Y-73940476D01*
X187809523Y-73988095D01*
G04 #@! TO.C,RN501*
X164782857Y-71762380D02*
X165116190Y-71286190D01*
X165354285Y-71762380D02*
X165354285Y-70762380D01*
X164973333Y-70762380D01*
X164878095Y-70810000D01*
X164830476Y-70857619D01*
X164782857Y-70952857D01*
X164782857Y-71095714D01*
X164830476Y-71190952D01*
X164878095Y-71238571D01*
X164973333Y-71286190D01*
X165354285Y-71286190D01*
X164354285Y-71762380D02*
X164354285Y-70762380D01*
X163782857Y-71762380D01*
X163782857Y-70762380D01*
X162830476Y-70762380D02*
X163306666Y-70762380D01*
X163354285Y-71238571D01*
X163306666Y-71190952D01*
X163211428Y-71143333D01*
X162973333Y-71143333D01*
X162878095Y-71190952D01*
X162830476Y-71238571D01*
X162782857Y-71333809D01*
X162782857Y-71571904D01*
X162830476Y-71667142D01*
X162878095Y-71714761D01*
X162973333Y-71762380D01*
X163211428Y-71762380D01*
X163306666Y-71714761D01*
X163354285Y-71667142D01*
X162163809Y-70762380D02*
X162068571Y-70762380D01*
X161973333Y-70810000D01*
X161925714Y-70857619D01*
X161878095Y-70952857D01*
X161830476Y-71143333D01*
X161830476Y-71381428D01*
X161878095Y-71571904D01*
X161925714Y-71667142D01*
X161973333Y-71714761D01*
X162068571Y-71762380D01*
X162163809Y-71762380D01*
X162259047Y-71714761D01*
X162306666Y-71667142D01*
X162354285Y-71571904D01*
X162401904Y-71381428D01*
X162401904Y-71143333D01*
X162354285Y-70952857D01*
X162306666Y-70857619D01*
X162259047Y-70810000D01*
X162163809Y-70762380D01*
X160878095Y-71762380D02*
X161449523Y-71762380D01*
X161163809Y-71762380D02*
X161163809Y-70762380D01*
X161259047Y-70905238D01*
X161354285Y-71000476D01*
X161449523Y-71048095D01*
G04 #@! TO.C,Y101*
X157678571Y-67226190D02*
X157678571Y-67702380D01*
X158011904Y-66702380D02*
X157678571Y-67226190D01*
X157345238Y-66702380D01*
X156488095Y-67702380D02*
X157059523Y-67702380D01*
X156773809Y-67702380D02*
X156773809Y-66702380D01*
X156869047Y-66845238D01*
X156964285Y-66940476D01*
X157059523Y-66988095D01*
X155869047Y-66702380D02*
X155773809Y-66702380D01*
X155678571Y-66750000D01*
X155630952Y-66797619D01*
X155583333Y-66892857D01*
X155535714Y-67083333D01*
X155535714Y-67321428D01*
X155583333Y-67511904D01*
X155630952Y-67607142D01*
X155678571Y-67654761D01*
X155773809Y-67702380D01*
X155869047Y-67702380D01*
X155964285Y-67654761D01*
X156011904Y-67607142D01*
X156059523Y-67511904D01*
X156107142Y-67321428D01*
X156107142Y-67083333D01*
X156059523Y-66892857D01*
X156011904Y-66797619D01*
X155964285Y-66750000D01*
X155869047Y-66702380D01*
X154583333Y-67702380D02*
X155154761Y-67702380D01*
X154869047Y-67702380D02*
X154869047Y-66702380D01*
X154964285Y-66845238D01*
X155059523Y-66940476D01*
X155154761Y-66988095D01*
G04 #@! TO.C,J201*
X168285714Y-86452380D02*
X168285714Y-87166666D01*
X168333333Y-87309523D01*
X168428571Y-87404761D01*
X168571428Y-87452380D01*
X168666666Y-87452380D01*
X167857142Y-86547619D02*
X167809523Y-86500000D01*
X167714285Y-86452380D01*
X167476190Y-86452380D01*
X167380952Y-86500000D01*
X167333333Y-86547619D01*
X167285714Y-86642857D01*
X167285714Y-86738095D01*
X167333333Y-86880952D01*
X167904761Y-87452380D01*
X167285714Y-87452380D01*
X166666666Y-86452380D02*
X166571428Y-86452380D01*
X166476190Y-86500000D01*
X166428571Y-86547619D01*
X166380952Y-86642857D01*
X166333333Y-86833333D01*
X166333333Y-87071428D01*
X166380952Y-87261904D01*
X166428571Y-87357142D01*
X166476190Y-87404761D01*
X166571428Y-87452380D01*
X166666666Y-87452380D01*
X166761904Y-87404761D01*
X166809523Y-87357142D01*
X166857142Y-87261904D01*
X166904761Y-87071428D01*
X166904761Y-86833333D01*
X166857142Y-86642857D01*
X166809523Y-86547619D01*
X166761904Y-86500000D01*
X166666666Y-86452380D01*
X165380952Y-87452380D02*
X165952380Y-87452380D01*
X165666666Y-87452380D02*
X165666666Y-86452380D01*
X165761904Y-86595238D01*
X165857142Y-86690476D01*
X165952380Y-86738095D01*
G04 #@! TO.C,U503*
X202014285Y-56756380D02*
X202014285Y-57565904D01*
X201966666Y-57661142D01*
X201919047Y-57708761D01*
X201823809Y-57756380D01*
X201633333Y-57756380D01*
X201538095Y-57708761D01*
X201490476Y-57661142D01*
X201442857Y-57565904D01*
X201442857Y-56756380D01*
X200490476Y-56756380D02*
X200966666Y-56756380D01*
X201014285Y-57232571D01*
X200966666Y-57184952D01*
X200871428Y-57137333D01*
X200633333Y-57137333D01*
X200538095Y-57184952D01*
X200490476Y-57232571D01*
X200442857Y-57327809D01*
X200442857Y-57565904D01*
X200490476Y-57661142D01*
X200538095Y-57708761D01*
X200633333Y-57756380D01*
X200871428Y-57756380D01*
X200966666Y-57708761D01*
X201014285Y-57661142D01*
X199823809Y-56756380D02*
X199728571Y-56756380D01*
X199633333Y-56804000D01*
X199585714Y-56851619D01*
X199538095Y-56946857D01*
X199490476Y-57137333D01*
X199490476Y-57375428D01*
X199538095Y-57565904D01*
X199585714Y-57661142D01*
X199633333Y-57708761D01*
X199728571Y-57756380D01*
X199823809Y-57756380D01*
X199919047Y-57708761D01*
X199966666Y-57661142D01*
X200014285Y-57565904D01*
X200061904Y-57375428D01*
X200061904Y-57137333D01*
X200014285Y-56946857D01*
X199966666Y-56851619D01*
X199919047Y-56804000D01*
X199823809Y-56756380D01*
X199157142Y-56756380D02*
X198538095Y-56756380D01*
X198871428Y-57137333D01*
X198728571Y-57137333D01*
X198633333Y-57184952D01*
X198585714Y-57232571D01*
X198538095Y-57327809D01*
X198538095Y-57565904D01*
X198585714Y-57661142D01*
X198633333Y-57708761D01*
X198728571Y-57756380D01*
X199014285Y-57756380D01*
X199109523Y-57708761D01*
X199157142Y-57661142D01*
G04 #@! TO.C,U504*
X168474285Y-54392380D02*
X168474285Y-55201904D01*
X168426666Y-55297142D01*
X168379047Y-55344761D01*
X168283809Y-55392380D01*
X168093333Y-55392380D01*
X167998095Y-55344761D01*
X167950476Y-55297142D01*
X167902857Y-55201904D01*
X167902857Y-54392380D01*
X166950476Y-54392380D02*
X167426666Y-54392380D01*
X167474285Y-54868571D01*
X167426666Y-54820952D01*
X167331428Y-54773333D01*
X167093333Y-54773333D01*
X166998095Y-54820952D01*
X166950476Y-54868571D01*
X166902857Y-54963809D01*
X166902857Y-55201904D01*
X166950476Y-55297142D01*
X166998095Y-55344761D01*
X167093333Y-55392380D01*
X167331428Y-55392380D01*
X167426666Y-55344761D01*
X167474285Y-55297142D01*
X166283809Y-54392380D02*
X166188571Y-54392380D01*
X166093333Y-54440000D01*
X166045714Y-54487619D01*
X165998095Y-54582857D01*
X165950476Y-54773333D01*
X165950476Y-55011428D01*
X165998095Y-55201904D01*
X166045714Y-55297142D01*
X166093333Y-55344761D01*
X166188571Y-55392380D01*
X166283809Y-55392380D01*
X166379047Y-55344761D01*
X166426666Y-55297142D01*
X166474285Y-55201904D01*
X166521904Y-55011428D01*
X166521904Y-54773333D01*
X166474285Y-54582857D01*
X166426666Y-54487619D01*
X166379047Y-54440000D01*
X166283809Y-54392380D01*
X165093333Y-54725714D02*
X165093333Y-55392380D01*
X165331428Y-54344761D02*
X165569523Y-55059047D01*
X164950476Y-55059047D01*
G04 #@! TO.C,Y401*
X194002707Y-83838827D02*
X194478897Y-83838827D01*
X193478897Y-83505494D02*
X194002707Y-83838827D01*
X193478897Y-84172160D01*
X193812231Y-84934065D02*
X194478897Y-84934065D01*
X193431278Y-84695970D02*
X194145564Y-84457875D01*
X194145564Y-85076922D01*
X193478897Y-85648351D02*
X193478897Y-85743589D01*
X193526517Y-85838827D01*
X193574136Y-85886446D01*
X193669374Y-85934065D01*
X193859850Y-85981684D01*
X194097945Y-85981684D01*
X194288421Y-85934065D01*
X194383659Y-85886446D01*
X194431278Y-85838827D01*
X194478897Y-85743589D01*
X194478897Y-85648351D01*
X194431278Y-85553113D01*
X194383659Y-85505494D01*
X194288421Y-85457875D01*
X194097945Y-85410256D01*
X193859850Y-85410256D01*
X193669374Y-85457875D01*
X193574136Y-85505494D01*
X193526517Y-85553113D01*
X193478897Y-85648351D01*
X194478897Y-86934065D02*
X194478897Y-86362637D01*
X194478897Y-86648351D02*
X193478897Y-86648351D01*
X193621755Y-86553113D01*
X193716993Y-86457875D01*
X193764612Y-86362637D01*
G04 #@! TO.C,U502*
X125314285Y-56856380D02*
X125314285Y-57665904D01*
X125266666Y-57761142D01*
X125219047Y-57808761D01*
X125123809Y-57856380D01*
X124933333Y-57856380D01*
X124838095Y-57808761D01*
X124790476Y-57761142D01*
X124742857Y-57665904D01*
X124742857Y-56856380D01*
X123790476Y-56856380D02*
X124266666Y-56856380D01*
X124314285Y-57332571D01*
X124266666Y-57284952D01*
X124171428Y-57237333D01*
X123933333Y-57237333D01*
X123838095Y-57284952D01*
X123790476Y-57332571D01*
X123742857Y-57427809D01*
X123742857Y-57665904D01*
X123790476Y-57761142D01*
X123838095Y-57808761D01*
X123933333Y-57856380D01*
X124171428Y-57856380D01*
X124266666Y-57808761D01*
X124314285Y-57761142D01*
X123123809Y-56856380D02*
X123028571Y-56856380D01*
X122933333Y-56904000D01*
X122885714Y-56951619D01*
X122838095Y-57046857D01*
X122790476Y-57237333D01*
X122790476Y-57475428D01*
X122838095Y-57665904D01*
X122885714Y-57761142D01*
X122933333Y-57808761D01*
X123028571Y-57856380D01*
X123123809Y-57856380D01*
X123219047Y-57808761D01*
X123266666Y-57761142D01*
X123314285Y-57665904D01*
X123361904Y-57475428D01*
X123361904Y-57237333D01*
X123314285Y-57046857D01*
X123266666Y-56951619D01*
X123219047Y-56904000D01*
X123123809Y-56856380D01*
X122409523Y-56951619D02*
X122361904Y-56904000D01*
X122266666Y-56856380D01*
X122028571Y-56856380D01*
X121933333Y-56904000D01*
X121885714Y-56951619D01*
X121838095Y-57046857D01*
X121838095Y-57142095D01*
X121885714Y-57284952D01*
X122457142Y-57856380D01*
X121838095Y-57856380D01*
G04 #@! TO.C,C101*
X147645238Y-75535714D02*
X147683333Y-75573809D01*
X147797619Y-75611904D01*
X147873809Y-75611904D01*
X147988095Y-75573809D01*
X148064285Y-75497619D01*
X148102380Y-75421428D01*
X148140476Y-75269047D01*
X148140476Y-75154761D01*
X148102380Y-75002380D01*
X148064285Y-74926190D01*
X147988095Y-74850000D01*
X147873809Y-74811904D01*
X147797619Y-74811904D01*
X147683333Y-74850000D01*
X147645238Y-74888095D01*
X146883333Y-75611904D02*
X147340476Y-75611904D01*
X147111904Y-75611904D02*
X147111904Y-74811904D01*
X147188095Y-74926190D01*
X147264285Y-75002380D01*
X147340476Y-75040476D01*
X146388095Y-74811904D02*
X146311904Y-74811904D01*
X146235714Y-74850000D01*
X146197619Y-74888095D01*
X146159523Y-74964285D01*
X146121428Y-75116666D01*
X146121428Y-75307142D01*
X146159523Y-75459523D01*
X146197619Y-75535714D01*
X146235714Y-75573809D01*
X146311904Y-75611904D01*
X146388095Y-75611904D01*
X146464285Y-75573809D01*
X146502380Y-75535714D01*
X146540476Y-75459523D01*
X146578571Y-75307142D01*
X146578571Y-75116666D01*
X146540476Y-74964285D01*
X146502380Y-74888095D01*
X146464285Y-74850000D01*
X146388095Y-74811904D01*
X145359523Y-75611904D02*
X145816666Y-75611904D01*
X145588095Y-75611904D02*
X145588095Y-74811904D01*
X145664285Y-74926190D01*
X145740476Y-75002380D01*
X145816666Y-75040476D01*
G04 #@! TO.C,C102*
X155869047Y-73107142D02*
X155916666Y-73154761D01*
X156059523Y-73202380D01*
X156154761Y-73202380D01*
X156297619Y-73154761D01*
X156392857Y-73059523D01*
X156440476Y-72964285D01*
X156488095Y-72773809D01*
X156488095Y-72630952D01*
X156440476Y-72440476D01*
X156392857Y-72345238D01*
X156297619Y-72250000D01*
X156154761Y-72202380D01*
X156059523Y-72202380D01*
X155916666Y-72250000D01*
X155869047Y-72297619D01*
X154916666Y-73202380D02*
X155488095Y-73202380D01*
X155202380Y-73202380D02*
X155202380Y-72202380D01*
X155297619Y-72345238D01*
X155392857Y-72440476D01*
X155488095Y-72488095D01*
X154297619Y-72202380D02*
X154202380Y-72202380D01*
X154107142Y-72250000D01*
X154059523Y-72297619D01*
X154011904Y-72392857D01*
X153964285Y-72583333D01*
X153964285Y-72821428D01*
X154011904Y-73011904D01*
X154059523Y-73107142D01*
X154107142Y-73154761D01*
X154202380Y-73202380D01*
X154297619Y-73202380D01*
X154392857Y-73154761D01*
X154440476Y-73107142D01*
X154488095Y-73011904D01*
X154535714Y-72821428D01*
X154535714Y-72583333D01*
X154488095Y-72392857D01*
X154440476Y-72297619D01*
X154392857Y-72250000D01*
X154297619Y-72202380D01*
X153583333Y-72297619D02*
X153535714Y-72250000D01*
X153440476Y-72202380D01*
X153202380Y-72202380D01*
X153107142Y-72250000D01*
X153059523Y-72297619D01*
X153011904Y-72392857D01*
X153011904Y-72488095D01*
X153059523Y-72630952D01*
X153630952Y-73202380D01*
X153011904Y-73202380D01*
G04 #@! TO.C,C103*
X138119047Y-86607142D02*
X138166666Y-86654761D01*
X138309523Y-86702380D01*
X138404761Y-86702380D01*
X138547619Y-86654761D01*
X138642857Y-86559523D01*
X138690476Y-86464285D01*
X138738095Y-86273809D01*
X138738095Y-86130952D01*
X138690476Y-85940476D01*
X138642857Y-85845238D01*
X138547619Y-85750000D01*
X138404761Y-85702380D01*
X138309523Y-85702380D01*
X138166666Y-85750000D01*
X138119047Y-85797619D01*
X137166666Y-86702380D02*
X137738095Y-86702380D01*
X137452380Y-86702380D02*
X137452380Y-85702380D01*
X137547619Y-85845238D01*
X137642857Y-85940476D01*
X137738095Y-85988095D01*
X136547619Y-85702380D02*
X136452380Y-85702380D01*
X136357142Y-85750000D01*
X136309523Y-85797619D01*
X136261904Y-85892857D01*
X136214285Y-86083333D01*
X136214285Y-86321428D01*
X136261904Y-86511904D01*
X136309523Y-86607142D01*
X136357142Y-86654761D01*
X136452380Y-86702380D01*
X136547619Y-86702380D01*
X136642857Y-86654761D01*
X136690476Y-86607142D01*
X136738095Y-86511904D01*
X136785714Y-86321428D01*
X136785714Y-86083333D01*
X136738095Y-85892857D01*
X136690476Y-85797619D01*
X136642857Y-85750000D01*
X136547619Y-85702380D01*
X135880952Y-85702380D02*
X135261904Y-85702380D01*
X135595238Y-86083333D01*
X135452380Y-86083333D01*
X135357142Y-86130952D01*
X135309523Y-86178571D01*
X135261904Y-86273809D01*
X135261904Y-86511904D01*
X135309523Y-86607142D01*
X135357142Y-86654761D01*
X135452380Y-86702380D01*
X135738095Y-86702380D01*
X135833333Y-86654761D01*
X135880952Y-86607142D01*
G04 #@! TO.C,C104*
X147645238Y-73535714D02*
X147683333Y-73573809D01*
X147797619Y-73611904D01*
X147873809Y-73611904D01*
X147988095Y-73573809D01*
X148064285Y-73497619D01*
X148102380Y-73421428D01*
X148140476Y-73269047D01*
X148140476Y-73154761D01*
X148102380Y-73002380D01*
X148064285Y-72926190D01*
X147988095Y-72850000D01*
X147873809Y-72811904D01*
X147797619Y-72811904D01*
X147683333Y-72850000D01*
X147645238Y-72888095D01*
X146883333Y-73611904D02*
X147340476Y-73611904D01*
X147111904Y-73611904D02*
X147111904Y-72811904D01*
X147188095Y-72926190D01*
X147264285Y-73002380D01*
X147340476Y-73040476D01*
X146388095Y-72811904D02*
X146311904Y-72811904D01*
X146235714Y-72850000D01*
X146197619Y-72888095D01*
X146159523Y-72964285D01*
X146121428Y-73116666D01*
X146121428Y-73307142D01*
X146159523Y-73459523D01*
X146197619Y-73535714D01*
X146235714Y-73573809D01*
X146311904Y-73611904D01*
X146388095Y-73611904D01*
X146464285Y-73573809D01*
X146502380Y-73535714D01*
X146540476Y-73459523D01*
X146578571Y-73307142D01*
X146578571Y-73116666D01*
X146540476Y-72964285D01*
X146502380Y-72888095D01*
X146464285Y-72850000D01*
X146388095Y-72811904D01*
X145435714Y-73078571D02*
X145435714Y-73611904D01*
X145626190Y-72773809D02*
X145816666Y-73345238D01*
X145321428Y-73345238D01*
G04 #@! TO.C,C105*
X146369047Y-67357142D02*
X146416666Y-67404761D01*
X146559523Y-67452380D01*
X146654761Y-67452380D01*
X146797619Y-67404761D01*
X146892857Y-67309523D01*
X146940476Y-67214285D01*
X146988095Y-67023809D01*
X146988095Y-66880952D01*
X146940476Y-66690476D01*
X146892857Y-66595238D01*
X146797619Y-66500000D01*
X146654761Y-66452380D01*
X146559523Y-66452380D01*
X146416666Y-66500000D01*
X146369047Y-66547619D01*
X145416666Y-67452380D02*
X145988095Y-67452380D01*
X145702380Y-67452380D02*
X145702380Y-66452380D01*
X145797619Y-66595238D01*
X145892857Y-66690476D01*
X145988095Y-66738095D01*
X144797619Y-66452380D02*
X144702380Y-66452380D01*
X144607142Y-66500000D01*
X144559523Y-66547619D01*
X144511904Y-66642857D01*
X144464285Y-66833333D01*
X144464285Y-67071428D01*
X144511904Y-67261904D01*
X144559523Y-67357142D01*
X144607142Y-67404761D01*
X144702380Y-67452380D01*
X144797619Y-67452380D01*
X144892857Y-67404761D01*
X144940476Y-67357142D01*
X144988095Y-67261904D01*
X145035714Y-67071428D01*
X145035714Y-66833333D01*
X144988095Y-66642857D01*
X144940476Y-66547619D01*
X144892857Y-66500000D01*
X144797619Y-66452380D01*
X143559523Y-66452380D02*
X144035714Y-66452380D01*
X144083333Y-66928571D01*
X144035714Y-66880952D01*
X143940476Y-66833333D01*
X143702380Y-66833333D01*
X143607142Y-66880952D01*
X143559523Y-66928571D01*
X143511904Y-67023809D01*
X143511904Y-67261904D01*
X143559523Y-67357142D01*
X143607142Y-67404761D01*
X143702380Y-67452380D01*
X143940476Y-67452380D01*
X144035714Y-67404761D01*
X144083333Y-67357142D01*
G04 #@! TO.C,C106*
X133269047Y-70207142D02*
X133316666Y-70254761D01*
X133459523Y-70302380D01*
X133554761Y-70302380D01*
X133697619Y-70254761D01*
X133792857Y-70159523D01*
X133840476Y-70064285D01*
X133888095Y-69873809D01*
X133888095Y-69730952D01*
X133840476Y-69540476D01*
X133792857Y-69445238D01*
X133697619Y-69350000D01*
X133554761Y-69302380D01*
X133459523Y-69302380D01*
X133316666Y-69350000D01*
X133269047Y-69397619D01*
X132316666Y-70302380D02*
X132888095Y-70302380D01*
X132602380Y-70302380D02*
X132602380Y-69302380D01*
X132697619Y-69445238D01*
X132792857Y-69540476D01*
X132888095Y-69588095D01*
X131697619Y-69302380D02*
X131602380Y-69302380D01*
X131507142Y-69350000D01*
X131459523Y-69397619D01*
X131411904Y-69492857D01*
X131364285Y-69683333D01*
X131364285Y-69921428D01*
X131411904Y-70111904D01*
X131459523Y-70207142D01*
X131507142Y-70254761D01*
X131602380Y-70302380D01*
X131697619Y-70302380D01*
X131792857Y-70254761D01*
X131840476Y-70207142D01*
X131888095Y-70111904D01*
X131935714Y-69921428D01*
X131935714Y-69683333D01*
X131888095Y-69492857D01*
X131840476Y-69397619D01*
X131792857Y-69350000D01*
X131697619Y-69302380D01*
X130507142Y-69302380D02*
X130697619Y-69302380D01*
X130792857Y-69350000D01*
X130840476Y-69397619D01*
X130935714Y-69540476D01*
X130983333Y-69730952D01*
X130983333Y-70111904D01*
X130935714Y-70207142D01*
X130888095Y-70254761D01*
X130792857Y-70302380D01*
X130602380Y-70302380D01*
X130507142Y-70254761D01*
X130459523Y-70207142D01*
X130411904Y-70111904D01*
X130411904Y-69873809D01*
X130459523Y-69778571D01*
X130507142Y-69730952D01*
X130602380Y-69683333D01*
X130792857Y-69683333D01*
X130888095Y-69730952D01*
X130935714Y-69778571D01*
X130983333Y-69873809D01*
G04 #@! TO.C,C107*
X140919047Y-64107142D02*
X140966666Y-64154761D01*
X141109523Y-64202380D01*
X141204761Y-64202380D01*
X141347619Y-64154761D01*
X141442857Y-64059523D01*
X141490476Y-63964285D01*
X141538095Y-63773809D01*
X141538095Y-63630952D01*
X141490476Y-63440476D01*
X141442857Y-63345238D01*
X141347619Y-63250000D01*
X141204761Y-63202380D01*
X141109523Y-63202380D01*
X140966666Y-63250000D01*
X140919047Y-63297619D01*
X139966666Y-64202380D02*
X140538095Y-64202380D01*
X140252380Y-64202380D02*
X140252380Y-63202380D01*
X140347619Y-63345238D01*
X140442857Y-63440476D01*
X140538095Y-63488095D01*
X139347619Y-63202380D02*
X139252380Y-63202380D01*
X139157142Y-63250000D01*
X139109523Y-63297619D01*
X139061904Y-63392857D01*
X139014285Y-63583333D01*
X139014285Y-63821428D01*
X139061904Y-64011904D01*
X139109523Y-64107142D01*
X139157142Y-64154761D01*
X139252380Y-64202380D01*
X139347619Y-64202380D01*
X139442857Y-64154761D01*
X139490476Y-64107142D01*
X139538095Y-64011904D01*
X139585714Y-63821428D01*
X139585714Y-63583333D01*
X139538095Y-63392857D01*
X139490476Y-63297619D01*
X139442857Y-63250000D01*
X139347619Y-63202380D01*
X138680952Y-63202380D02*
X138014285Y-63202380D01*
X138442857Y-64202380D01*
G04 #@! TO.C,C108*
X137419047Y-66607142D02*
X137466666Y-66654761D01*
X137609523Y-66702380D01*
X137704761Y-66702380D01*
X137847619Y-66654761D01*
X137942857Y-66559523D01*
X137990476Y-66464285D01*
X138038095Y-66273809D01*
X138038095Y-66130952D01*
X137990476Y-65940476D01*
X137942857Y-65845238D01*
X137847619Y-65750000D01*
X137704761Y-65702380D01*
X137609523Y-65702380D01*
X137466666Y-65750000D01*
X137419047Y-65797619D01*
X136466666Y-66702380D02*
X137038095Y-66702380D01*
X136752380Y-66702380D02*
X136752380Y-65702380D01*
X136847619Y-65845238D01*
X136942857Y-65940476D01*
X137038095Y-65988095D01*
X135847619Y-65702380D02*
X135752380Y-65702380D01*
X135657142Y-65750000D01*
X135609523Y-65797619D01*
X135561904Y-65892857D01*
X135514285Y-66083333D01*
X135514285Y-66321428D01*
X135561904Y-66511904D01*
X135609523Y-66607142D01*
X135657142Y-66654761D01*
X135752380Y-66702380D01*
X135847619Y-66702380D01*
X135942857Y-66654761D01*
X135990476Y-66607142D01*
X136038095Y-66511904D01*
X136085714Y-66321428D01*
X136085714Y-66083333D01*
X136038095Y-65892857D01*
X135990476Y-65797619D01*
X135942857Y-65750000D01*
X135847619Y-65702380D01*
X134942857Y-66130952D02*
X135038095Y-66083333D01*
X135085714Y-66035714D01*
X135133333Y-65940476D01*
X135133333Y-65892857D01*
X135085714Y-65797619D01*
X135038095Y-65750000D01*
X134942857Y-65702380D01*
X134752380Y-65702380D01*
X134657142Y-65750000D01*
X134609523Y-65797619D01*
X134561904Y-65892857D01*
X134561904Y-65940476D01*
X134609523Y-66035714D01*
X134657142Y-66083333D01*
X134752380Y-66130952D01*
X134942857Y-66130952D01*
X135038095Y-66178571D01*
X135085714Y-66226190D01*
X135133333Y-66321428D01*
X135133333Y-66511904D01*
X135085714Y-66607142D01*
X135038095Y-66654761D01*
X134942857Y-66702380D01*
X134752380Y-66702380D01*
X134657142Y-66654761D01*
X134609523Y-66607142D01*
X134561904Y-66511904D01*
X134561904Y-66321428D01*
X134609523Y-66226190D01*
X134657142Y-66178571D01*
X134752380Y-66130952D01*
G04 #@! TO.C,C201*
X109119047Y-67857142D02*
X109166666Y-67904761D01*
X109309523Y-67952380D01*
X109404761Y-67952380D01*
X109547619Y-67904761D01*
X109642857Y-67809523D01*
X109690476Y-67714285D01*
X109738095Y-67523809D01*
X109738095Y-67380952D01*
X109690476Y-67190476D01*
X109642857Y-67095238D01*
X109547619Y-67000000D01*
X109404761Y-66952380D01*
X109309523Y-66952380D01*
X109166666Y-67000000D01*
X109119047Y-67047619D01*
X108738095Y-67047619D02*
X108690476Y-67000000D01*
X108595238Y-66952380D01*
X108357142Y-66952380D01*
X108261904Y-67000000D01*
X108214285Y-67047619D01*
X108166666Y-67142857D01*
X108166666Y-67238095D01*
X108214285Y-67380952D01*
X108785714Y-67952380D01*
X108166666Y-67952380D01*
X107547619Y-66952380D02*
X107452380Y-66952380D01*
X107357142Y-67000000D01*
X107309523Y-67047619D01*
X107261904Y-67142857D01*
X107214285Y-67333333D01*
X107214285Y-67571428D01*
X107261904Y-67761904D01*
X107309523Y-67857142D01*
X107357142Y-67904761D01*
X107452380Y-67952380D01*
X107547619Y-67952380D01*
X107642857Y-67904761D01*
X107690476Y-67857142D01*
X107738095Y-67761904D01*
X107785714Y-67571428D01*
X107785714Y-67333333D01*
X107738095Y-67142857D01*
X107690476Y-67047619D01*
X107642857Y-67000000D01*
X107547619Y-66952380D01*
X106261904Y-67952380D02*
X106833333Y-67952380D01*
X106547619Y-67952380D02*
X106547619Y-66952380D01*
X106642857Y-67095238D01*
X106738095Y-67190476D01*
X106833333Y-67238095D01*
G04 #@! TO.C,C202*
X104719047Y-78407142D02*
X104766666Y-78454761D01*
X104909523Y-78502380D01*
X105004761Y-78502380D01*
X105147619Y-78454761D01*
X105242857Y-78359523D01*
X105290476Y-78264285D01*
X105338095Y-78073809D01*
X105338095Y-77930952D01*
X105290476Y-77740476D01*
X105242857Y-77645238D01*
X105147619Y-77550000D01*
X105004761Y-77502380D01*
X104909523Y-77502380D01*
X104766666Y-77550000D01*
X104719047Y-77597619D01*
X104338095Y-77597619D02*
X104290476Y-77550000D01*
X104195238Y-77502380D01*
X103957142Y-77502380D01*
X103861904Y-77550000D01*
X103814285Y-77597619D01*
X103766666Y-77692857D01*
X103766666Y-77788095D01*
X103814285Y-77930952D01*
X104385714Y-78502380D01*
X103766666Y-78502380D01*
X103147619Y-77502380D02*
X103052380Y-77502380D01*
X102957142Y-77550000D01*
X102909523Y-77597619D01*
X102861904Y-77692857D01*
X102814285Y-77883333D01*
X102814285Y-78121428D01*
X102861904Y-78311904D01*
X102909523Y-78407142D01*
X102957142Y-78454761D01*
X103052380Y-78502380D01*
X103147619Y-78502380D01*
X103242857Y-78454761D01*
X103290476Y-78407142D01*
X103338095Y-78311904D01*
X103385714Y-78121428D01*
X103385714Y-77883333D01*
X103338095Y-77692857D01*
X103290476Y-77597619D01*
X103242857Y-77550000D01*
X103147619Y-77502380D01*
X102433333Y-77597619D02*
X102385714Y-77550000D01*
X102290476Y-77502380D01*
X102052380Y-77502380D01*
X101957142Y-77550000D01*
X101909523Y-77597619D01*
X101861904Y-77692857D01*
X101861904Y-77788095D01*
X101909523Y-77930952D01*
X102480952Y-78502380D01*
X101861904Y-78502380D01*
G04 #@! TO.C,C203*
X173369047Y-77107142D02*
X173416666Y-77154761D01*
X173559523Y-77202380D01*
X173654761Y-77202380D01*
X173797619Y-77154761D01*
X173892857Y-77059523D01*
X173940476Y-76964285D01*
X173988095Y-76773809D01*
X173988095Y-76630952D01*
X173940476Y-76440476D01*
X173892857Y-76345238D01*
X173797619Y-76250000D01*
X173654761Y-76202380D01*
X173559523Y-76202380D01*
X173416666Y-76250000D01*
X173369047Y-76297619D01*
X172988095Y-76297619D02*
X172940476Y-76250000D01*
X172845238Y-76202380D01*
X172607142Y-76202380D01*
X172511904Y-76250000D01*
X172464285Y-76297619D01*
X172416666Y-76392857D01*
X172416666Y-76488095D01*
X172464285Y-76630952D01*
X173035714Y-77202380D01*
X172416666Y-77202380D01*
X171797619Y-76202380D02*
X171702380Y-76202380D01*
X171607142Y-76250000D01*
X171559523Y-76297619D01*
X171511904Y-76392857D01*
X171464285Y-76583333D01*
X171464285Y-76821428D01*
X171511904Y-77011904D01*
X171559523Y-77107142D01*
X171607142Y-77154761D01*
X171702380Y-77202380D01*
X171797619Y-77202380D01*
X171892857Y-77154761D01*
X171940476Y-77107142D01*
X171988095Y-77011904D01*
X172035714Y-76821428D01*
X172035714Y-76583333D01*
X171988095Y-76392857D01*
X171940476Y-76297619D01*
X171892857Y-76250000D01*
X171797619Y-76202380D01*
X171130952Y-76202380D02*
X170511904Y-76202380D01*
X170845238Y-76583333D01*
X170702380Y-76583333D01*
X170607142Y-76630952D01*
X170559523Y-76678571D01*
X170511904Y-76773809D01*
X170511904Y-77011904D01*
X170559523Y-77107142D01*
X170607142Y-77154761D01*
X170702380Y-77202380D01*
X170988095Y-77202380D01*
X171083333Y-77154761D01*
X171130952Y-77107142D01*
G04 #@! TO.C,C204*
X167369047Y-84107142D02*
X167416666Y-84154761D01*
X167559523Y-84202380D01*
X167654761Y-84202380D01*
X167797619Y-84154761D01*
X167892857Y-84059523D01*
X167940476Y-83964285D01*
X167988095Y-83773809D01*
X167988095Y-83630952D01*
X167940476Y-83440476D01*
X167892857Y-83345238D01*
X167797619Y-83250000D01*
X167654761Y-83202380D01*
X167559523Y-83202380D01*
X167416666Y-83250000D01*
X167369047Y-83297619D01*
X166988095Y-83297619D02*
X166940476Y-83250000D01*
X166845238Y-83202380D01*
X166607142Y-83202380D01*
X166511904Y-83250000D01*
X166464285Y-83297619D01*
X166416666Y-83392857D01*
X166416666Y-83488095D01*
X166464285Y-83630952D01*
X167035714Y-84202380D01*
X166416666Y-84202380D01*
X165797619Y-83202380D02*
X165702380Y-83202380D01*
X165607142Y-83250000D01*
X165559523Y-83297619D01*
X165511904Y-83392857D01*
X165464285Y-83583333D01*
X165464285Y-83821428D01*
X165511904Y-84011904D01*
X165559523Y-84107142D01*
X165607142Y-84154761D01*
X165702380Y-84202380D01*
X165797619Y-84202380D01*
X165892857Y-84154761D01*
X165940476Y-84107142D01*
X165988095Y-84011904D01*
X166035714Y-83821428D01*
X166035714Y-83583333D01*
X165988095Y-83392857D01*
X165940476Y-83297619D01*
X165892857Y-83250000D01*
X165797619Y-83202380D01*
X164607142Y-83535714D02*
X164607142Y-84202380D01*
X164845238Y-83154761D02*
X165083333Y-83869047D01*
X164464285Y-83869047D01*
G04 #@! TO.C,C301*
X220619047Y-79357142D02*
X220666666Y-79404761D01*
X220809523Y-79452380D01*
X220904761Y-79452380D01*
X221047619Y-79404761D01*
X221142857Y-79309523D01*
X221190476Y-79214285D01*
X221238095Y-79023809D01*
X221238095Y-78880952D01*
X221190476Y-78690476D01*
X221142857Y-78595238D01*
X221047619Y-78500000D01*
X220904761Y-78452380D01*
X220809523Y-78452380D01*
X220666666Y-78500000D01*
X220619047Y-78547619D01*
X220285714Y-78452380D02*
X219666666Y-78452380D01*
X220000000Y-78833333D01*
X219857142Y-78833333D01*
X219761904Y-78880952D01*
X219714285Y-78928571D01*
X219666666Y-79023809D01*
X219666666Y-79261904D01*
X219714285Y-79357142D01*
X219761904Y-79404761D01*
X219857142Y-79452380D01*
X220142857Y-79452380D01*
X220238095Y-79404761D01*
X220285714Y-79357142D01*
X219047619Y-78452380D02*
X218952380Y-78452380D01*
X218857142Y-78500000D01*
X218809523Y-78547619D01*
X218761904Y-78642857D01*
X218714285Y-78833333D01*
X218714285Y-79071428D01*
X218761904Y-79261904D01*
X218809523Y-79357142D01*
X218857142Y-79404761D01*
X218952380Y-79452380D01*
X219047619Y-79452380D01*
X219142857Y-79404761D01*
X219190476Y-79357142D01*
X219238095Y-79261904D01*
X219285714Y-79071428D01*
X219285714Y-78833333D01*
X219238095Y-78642857D01*
X219190476Y-78547619D01*
X219142857Y-78500000D01*
X219047619Y-78452380D01*
X217761904Y-79452380D02*
X218333333Y-79452380D01*
X218047619Y-79452380D02*
X218047619Y-78452380D01*
X218142857Y-78595238D01*
X218238095Y-78690476D01*
X218333333Y-78738095D01*
G04 #@! TO.C,C302*
X228119047Y-67107142D02*
X228166666Y-67154761D01*
X228309523Y-67202380D01*
X228404761Y-67202380D01*
X228547619Y-67154761D01*
X228642857Y-67059523D01*
X228690476Y-66964285D01*
X228738095Y-66773809D01*
X228738095Y-66630952D01*
X228690476Y-66440476D01*
X228642857Y-66345238D01*
X228547619Y-66250000D01*
X228404761Y-66202380D01*
X228309523Y-66202380D01*
X228166666Y-66250000D01*
X228119047Y-66297619D01*
X227785714Y-66202380D02*
X227166666Y-66202380D01*
X227500000Y-66583333D01*
X227357142Y-66583333D01*
X227261904Y-66630952D01*
X227214285Y-66678571D01*
X227166666Y-66773809D01*
X227166666Y-67011904D01*
X227214285Y-67107142D01*
X227261904Y-67154761D01*
X227357142Y-67202380D01*
X227642857Y-67202380D01*
X227738095Y-67154761D01*
X227785714Y-67107142D01*
X226547619Y-66202380D02*
X226452380Y-66202380D01*
X226357142Y-66250000D01*
X226309523Y-66297619D01*
X226261904Y-66392857D01*
X226214285Y-66583333D01*
X226214285Y-66821428D01*
X226261904Y-67011904D01*
X226309523Y-67107142D01*
X226357142Y-67154761D01*
X226452380Y-67202380D01*
X226547619Y-67202380D01*
X226642857Y-67154761D01*
X226690476Y-67107142D01*
X226738095Y-67011904D01*
X226785714Y-66821428D01*
X226785714Y-66583333D01*
X226738095Y-66392857D01*
X226690476Y-66297619D01*
X226642857Y-66250000D01*
X226547619Y-66202380D01*
X225833333Y-66297619D02*
X225785714Y-66250000D01*
X225690476Y-66202380D01*
X225452380Y-66202380D01*
X225357142Y-66250000D01*
X225309523Y-66297619D01*
X225261904Y-66392857D01*
X225261904Y-66488095D01*
X225309523Y-66630952D01*
X225880952Y-67202380D01*
X225261904Y-67202380D01*
G04 #@! TO.C,C303*
X226619047Y-76607142D02*
X226666666Y-76654761D01*
X226809523Y-76702380D01*
X226904761Y-76702380D01*
X227047619Y-76654761D01*
X227142857Y-76559523D01*
X227190476Y-76464285D01*
X227238095Y-76273809D01*
X227238095Y-76130952D01*
X227190476Y-75940476D01*
X227142857Y-75845238D01*
X227047619Y-75750000D01*
X226904761Y-75702380D01*
X226809523Y-75702380D01*
X226666666Y-75750000D01*
X226619047Y-75797619D01*
X226285714Y-75702380D02*
X225666666Y-75702380D01*
X226000000Y-76083333D01*
X225857142Y-76083333D01*
X225761904Y-76130952D01*
X225714285Y-76178571D01*
X225666666Y-76273809D01*
X225666666Y-76511904D01*
X225714285Y-76607142D01*
X225761904Y-76654761D01*
X225857142Y-76702380D01*
X226142857Y-76702380D01*
X226238095Y-76654761D01*
X226285714Y-76607142D01*
X225047619Y-75702380D02*
X224952380Y-75702380D01*
X224857142Y-75750000D01*
X224809523Y-75797619D01*
X224761904Y-75892857D01*
X224714285Y-76083333D01*
X224714285Y-76321428D01*
X224761904Y-76511904D01*
X224809523Y-76607142D01*
X224857142Y-76654761D01*
X224952380Y-76702380D01*
X225047619Y-76702380D01*
X225142857Y-76654761D01*
X225190476Y-76607142D01*
X225238095Y-76511904D01*
X225285714Y-76321428D01*
X225285714Y-76083333D01*
X225238095Y-75892857D01*
X225190476Y-75797619D01*
X225142857Y-75750000D01*
X225047619Y-75702380D01*
X224380952Y-75702380D02*
X223761904Y-75702380D01*
X224095238Y-76083333D01*
X223952380Y-76083333D01*
X223857142Y-76130952D01*
X223809523Y-76178571D01*
X223761904Y-76273809D01*
X223761904Y-76511904D01*
X223809523Y-76607142D01*
X223857142Y-76654761D01*
X223952380Y-76702380D01*
X224238095Y-76702380D01*
X224333333Y-76654761D01*
X224380952Y-76607142D01*
G04 #@! TO.C,C304*
X155119047Y-87607142D02*
X155166666Y-87654761D01*
X155309523Y-87702380D01*
X155404761Y-87702380D01*
X155547619Y-87654761D01*
X155642857Y-87559523D01*
X155690476Y-87464285D01*
X155738095Y-87273809D01*
X155738095Y-87130952D01*
X155690476Y-86940476D01*
X155642857Y-86845238D01*
X155547619Y-86750000D01*
X155404761Y-86702380D01*
X155309523Y-86702380D01*
X155166666Y-86750000D01*
X155119047Y-86797619D01*
X154785714Y-86702380D02*
X154166666Y-86702380D01*
X154500000Y-87083333D01*
X154357142Y-87083333D01*
X154261904Y-87130952D01*
X154214285Y-87178571D01*
X154166666Y-87273809D01*
X154166666Y-87511904D01*
X154214285Y-87607142D01*
X154261904Y-87654761D01*
X154357142Y-87702380D01*
X154642857Y-87702380D01*
X154738095Y-87654761D01*
X154785714Y-87607142D01*
X153547619Y-86702380D02*
X153452380Y-86702380D01*
X153357142Y-86750000D01*
X153309523Y-86797619D01*
X153261904Y-86892857D01*
X153214285Y-87083333D01*
X153214285Y-87321428D01*
X153261904Y-87511904D01*
X153309523Y-87607142D01*
X153357142Y-87654761D01*
X153452380Y-87702380D01*
X153547619Y-87702380D01*
X153642857Y-87654761D01*
X153690476Y-87607142D01*
X153738095Y-87511904D01*
X153785714Y-87321428D01*
X153785714Y-87083333D01*
X153738095Y-86892857D01*
X153690476Y-86797619D01*
X153642857Y-86750000D01*
X153547619Y-86702380D01*
X152357142Y-87035714D02*
X152357142Y-87702380D01*
X152595238Y-86654761D02*
X152833333Y-87369047D01*
X152214285Y-87369047D01*
G04 #@! TO.C,C305*
X138119047Y-84107142D02*
X138166666Y-84154761D01*
X138309523Y-84202380D01*
X138404761Y-84202380D01*
X138547619Y-84154761D01*
X138642857Y-84059523D01*
X138690476Y-83964285D01*
X138738095Y-83773809D01*
X138738095Y-83630952D01*
X138690476Y-83440476D01*
X138642857Y-83345238D01*
X138547619Y-83250000D01*
X138404761Y-83202380D01*
X138309523Y-83202380D01*
X138166666Y-83250000D01*
X138119047Y-83297619D01*
X137785714Y-83202380D02*
X137166666Y-83202380D01*
X137500000Y-83583333D01*
X137357142Y-83583333D01*
X137261904Y-83630952D01*
X137214285Y-83678571D01*
X137166666Y-83773809D01*
X137166666Y-84011904D01*
X137214285Y-84107142D01*
X137261904Y-84154761D01*
X137357142Y-84202380D01*
X137642857Y-84202380D01*
X137738095Y-84154761D01*
X137785714Y-84107142D01*
X136547619Y-83202380D02*
X136452380Y-83202380D01*
X136357142Y-83250000D01*
X136309523Y-83297619D01*
X136261904Y-83392857D01*
X136214285Y-83583333D01*
X136214285Y-83821428D01*
X136261904Y-84011904D01*
X136309523Y-84107142D01*
X136357142Y-84154761D01*
X136452380Y-84202380D01*
X136547619Y-84202380D01*
X136642857Y-84154761D01*
X136690476Y-84107142D01*
X136738095Y-84011904D01*
X136785714Y-83821428D01*
X136785714Y-83583333D01*
X136738095Y-83392857D01*
X136690476Y-83297619D01*
X136642857Y-83250000D01*
X136547619Y-83202380D01*
X135309523Y-83202380D02*
X135785714Y-83202380D01*
X135833333Y-83678571D01*
X135785714Y-83630952D01*
X135690476Y-83583333D01*
X135452380Y-83583333D01*
X135357142Y-83630952D01*
X135309523Y-83678571D01*
X135261904Y-83773809D01*
X135261904Y-84011904D01*
X135309523Y-84107142D01*
X135357142Y-84154761D01*
X135452380Y-84202380D01*
X135690476Y-84202380D01*
X135785714Y-84154761D01*
X135833333Y-84107142D01*
G04 #@! TO.C,C306*
X235369047Y-40107142D02*
X235416666Y-40154761D01*
X235559523Y-40202380D01*
X235654761Y-40202380D01*
X235797619Y-40154761D01*
X235892857Y-40059523D01*
X235940476Y-39964285D01*
X235988095Y-39773809D01*
X235988095Y-39630952D01*
X235940476Y-39440476D01*
X235892857Y-39345238D01*
X235797619Y-39250000D01*
X235654761Y-39202380D01*
X235559523Y-39202380D01*
X235416666Y-39250000D01*
X235369047Y-39297619D01*
X235035714Y-39202380D02*
X234416666Y-39202380D01*
X234750000Y-39583333D01*
X234607142Y-39583333D01*
X234511904Y-39630952D01*
X234464285Y-39678571D01*
X234416666Y-39773809D01*
X234416666Y-40011904D01*
X234464285Y-40107142D01*
X234511904Y-40154761D01*
X234607142Y-40202380D01*
X234892857Y-40202380D01*
X234988095Y-40154761D01*
X235035714Y-40107142D01*
X233797619Y-39202380D02*
X233702380Y-39202380D01*
X233607142Y-39250000D01*
X233559523Y-39297619D01*
X233511904Y-39392857D01*
X233464285Y-39583333D01*
X233464285Y-39821428D01*
X233511904Y-40011904D01*
X233559523Y-40107142D01*
X233607142Y-40154761D01*
X233702380Y-40202380D01*
X233797619Y-40202380D01*
X233892857Y-40154761D01*
X233940476Y-40107142D01*
X233988095Y-40011904D01*
X234035714Y-39821428D01*
X234035714Y-39583333D01*
X233988095Y-39392857D01*
X233940476Y-39297619D01*
X233892857Y-39250000D01*
X233797619Y-39202380D01*
X232607142Y-39202380D02*
X232797619Y-39202380D01*
X232892857Y-39250000D01*
X232940476Y-39297619D01*
X233035714Y-39440476D01*
X233083333Y-39630952D01*
X233083333Y-40011904D01*
X233035714Y-40107142D01*
X232988095Y-40154761D01*
X232892857Y-40202380D01*
X232702380Y-40202380D01*
X232607142Y-40154761D01*
X232559523Y-40107142D01*
X232511904Y-40011904D01*
X232511904Y-39773809D01*
X232559523Y-39678571D01*
X232607142Y-39630952D01*
X232702380Y-39583333D01*
X232892857Y-39583333D01*
X232988095Y-39630952D01*
X233035714Y-39678571D01*
X233083333Y-39773809D01*
G04 #@! TO.C,C501*
X159619047Y-76107142D02*
X159666666Y-76154761D01*
X159809523Y-76202380D01*
X159904761Y-76202380D01*
X160047619Y-76154761D01*
X160142857Y-76059523D01*
X160190476Y-75964285D01*
X160238095Y-75773809D01*
X160238095Y-75630952D01*
X160190476Y-75440476D01*
X160142857Y-75345238D01*
X160047619Y-75250000D01*
X159904761Y-75202380D01*
X159809523Y-75202380D01*
X159666666Y-75250000D01*
X159619047Y-75297619D01*
X158714285Y-75202380D02*
X159190476Y-75202380D01*
X159238095Y-75678571D01*
X159190476Y-75630952D01*
X159095238Y-75583333D01*
X158857142Y-75583333D01*
X158761904Y-75630952D01*
X158714285Y-75678571D01*
X158666666Y-75773809D01*
X158666666Y-76011904D01*
X158714285Y-76107142D01*
X158761904Y-76154761D01*
X158857142Y-76202380D01*
X159095238Y-76202380D01*
X159190476Y-76154761D01*
X159238095Y-76107142D01*
X158047619Y-75202380D02*
X157952380Y-75202380D01*
X157857142Y-75250000D01*
X157809523Y-75297619D01*
X157761904Y-75392857D01*
X157714285Y-75583333D01*
X157714285Y-75821428D01*
X157761904Y-76011904D01*
X157809523Y-76107142D01*
X157857142Y-76154761D01*
X157952380Y-76202380D01*
X158047619Y-76202380D01*
X158142857Y-76154761D01*
X158190476Y-76107142D01*
X158238095Y-76011904D01*
X158285714Y-75821428D01*
X158285714Y-75583333D01*
X158238095Y-75392857D01*
X158190476Y-75297619D01*
X158142857Y-75250000D01*
X158047619Y-75202380D01*
X156761904Y-76202380D02*
X157333333Y-76202380D01*
X157047619Y-76202380D02*
X157047619Y-75202380D01*
X157142857Y-75345238D01*
X157238095Y-75440476D01*
X157333333Y-75488095D01*
G04 #@! TO.C,C502*
X154219047Y-56732142D02*
X154266666Y-56779761D01*
X154409523Y-56827380D01*
X154504761Y-56827380D01*
X154647619Y-56779761D01*
X154742857Y-56684523D01*
X154790476Y-56589285D01*
X154838095Y-56398809D01*
X154838095Y-56255952D01*
X154790476Y-56065476D01*
X154742857Y-55970238D01*
X154647619Y-55875000D01*
X154504761Y-55827380D01*
X154409523Y-55827380D01*
X154266666Y-55875000D01*
X154219047Y-55922619D01*
X153314285Y-55827380D02*
X153790476Y-55827380D01*
X153838095Y-56303571D01*
X153790476Y-56255952D01*
X153695238Y-56208333D01*
X153457142Y-56208333D01*
X153361904Y-56255952D01*
X153314285Y-56303571D01*
X153266666Y-56398809D01*
X153266666Y-56636904D01*
X153314285Y-56732142D01*
X153361904Y-56779761D01*
X153457142Y-56827380D01*
X153695238Y-56827380D01*
X153790476Y-56779761D01*
X153838095Y-56732142D01*
X152647619Y-55827380D02*
X152552380Y-55827380D01*
X152457142Y-55875000D01*
X152409523Y-55922619D01*
X152361904Y-56017857D01*
X152314285Y-56208333D01*
X152314285Y-56446428D01*
X152361904Y-56636904D01*
X152409523Y-56732142D01*
X152457142Y-56779761D01*
X152552380Y-56827380D01*
X152647619Y-56827380D01*
X152742857Y-56779761D01*
X152790476Y-56732142D01*
X152838095Y-56636904D01*
X152885714Y-56446428D01*
X152885714Y-56208333D01*
X152838095Y-56017857D01*
X152790476Y-55922619D01*
X152742857Y-55875000D01*
X152647619Y-55827380D01*
X151933333Y-55922619D02*
X151885714Y-55875000D01*
X151790476Y-55827380D01*
X151552380Y-55827380D01*
X151457142Y-55875000D01*
X151409523Y-55922619D01*
X151361904Y-56017857D01*
X151361904Y-56113095D01*
X151409523Y-56255952D01*
X151980952Y-56827380D01*
X151361904Y-56827380D01*
G04 #@! TO.C,C503*
X159619047Y-74357142D02*
X159666666Y-74404761D01*
X159809523Y-74452380D01*
X159904761Y-74452380D01*
X160047619Y-74404761D01*
X160142857Y-74309523D01*
X160190476Y-74214285D01*
X160238095Y-74023809D01*
X160238095Y-73880952D01*
X160190476Y-73690476D01*
X160142857Y-73595238D01*
X160047619Y-73500000D01*
X159904761Y-73452380D01*
X159809523Y-73452380D01*
X159666666Y-73500000D01*
X159619047Y-73547619D01*
X158714285Y-73452380D02*
X159190476Y-73452380D01*
X159238095Y-73928571D01*
X159190476Y-73880952D01*
X159095238Y-73833333D01*
X158857142Y-73833333D01*
X158761904Y-73880952D01*
X158714285Y-73928571D01*
X158666666Y-74023809D01*
X158666666Y-74261904D01*
X158714285Y-74357142D01*
X158761904Y-74404761D01*
X158857142Y-74452380D01*
X159095238Y-74452380D01*
X159190476Y-74404761D01*
X159238095Y-74357142D01*
X158047619Y-73452380D02*
X157952380Y-73452380D01*
X157857142Y-73500000D01*
X157809523Y-73547619D01*
X157761904Y-73642857D01*
X157714285Y-73833333D01*
X157714285Y-74071428D01*
X157761904Y-74261904D01*
X157809523Y-74357142D01*
X157857142Y-74404761D01*
X157952380Y-74452380D01*
X158047619Y-74452380D01*
X158142857Y-74404761D01*
X158190476Y-74357142D01*
X158238095Y-74261904D01*
X158285714Y-74071428D01*
X158285714Y-73833333D01*
X158238095Y-73642857D01*
X158190476Y-73547619D01*
X158142857Y-73500000D01*
X158047619Y-73452380D01*
X157380952Y-73452380D02*
X156761904Y-73452380D01*
X157095238Y-73833333D01*
X156952380Y-73833333D01*
X156857142Y-73880952D01*
X156809523Y-73928571D01*
X156761904Y-74023809D01*
X156761904Y-74261904D01*
X156809523Y-74357142D01*
X156857142Y-74404761D01*
X156952380Y-74452380D01*
X157238095Y-74452380D01*
X157333333Y-74404761D01*
X157380952Y-74357142D01*
G04 #@! TO.C,C504*
X120119047Y-70607142D02*
X120166666Y-70654761D01*
X120309523Y-70702380D01*
X120404761Y-70702380D01*
X120547619Y-70654761D01*
X120642857Y-70559523D01*
X120690476Y-70464285D01*
X120738095Y-70273809D01*
X120738095Y-70130952D01*
X120690476Y-69940476D01*
X120642857Y-69845238D01*
X120547619Y-69750000D01*
X120404761Y-69702380D01*
X120309523Y-69702380D01*
X120166666Y-69750000D01*
X120119047Y-69797619D01*
X119214285Y-69702380D02*
X119690476Y-69702380D01*
X119738095Y-70178571D01*
X119690476Y-70130952D01*
X119595238Y-70083333D01*
X119357142Y-70083333D01*
X119261904Y-70130952D01*
X119214285Y-70178571D01*
X119166666Y-70273809D01*
X119166666Y-70511904D01*
X119214285Y-70607142D01*
X119261904Y-70654761D01*
X119357142Y-70702380D01*
X119595238Y-70702380D01*
X119690476Y-70654761D01*
X119738095Y-70607142D01*
X118547619Y-69702380D02*
X118452380Y-69702380D01*
X118357142Y-69750000D01*
X118309523Y-69797619D01*
X118261904Y-69892857D01*
X118214285Y-70083333D01*
X118214285Y-70321428D01*
X118261904Y-70511904D01*
X118309523Y-70607142D01*
X118357142Y-70654761D01*
X118452380Y-70702380D01*
X118547619Y-70702380D01*
X118642857Y-70654761D01*
X118690476Y-70607142D01*
X118738095Y-70511904D01*
X118785714Y-70321428D01*
X118785714Y-70083333D01*
X118738095Y-69892857D01*
X118690476Y-69797619D01*
X118642857Y-69750000D01*
X118547619Y-69702380D01*
X117357142Y-70035714D02*
X117357142Y-70702380D01*
X117595238Y-69654761D02*
X117833333Y-70369047D01*
X117214285Y-70369047D01*
G04 #@! TO.C,C505*
X193119047Y-71107142D02*
X193166666Y-71154761D01*
X193309523Y-71202380D01*
X193404761Y-71202380D01*
X193547619Y-71154761D01*
X193642857Y-71059523D01*
X193690476Y-70964285D01*
X193738095Y-70773809D01*
X193738095Y-70630952D01*
X193690476Y-70440476D01*
X193642857Y-70345238D01*
X193547619Y-70250000D01*
X193404761Y-70202380D01*
X193309523Y-70202380D01*
X193166666Y-70250000D01*
X193119047Y-70297619D01*
X192214285Y-70202380D02*
X192690476Y-70202380D01*
X192738095Y-70678571D01*
X192690476Y-70630952D01*
X192595238Y-70583333D01*
X192357142Y-70583333D01*
X192261904Y-70630952D01*
X192214285Y-70678571D01*
X192166666Y-70773809D01*
X192166666Y-71011904D01*
X192214285Y-71107142D01*
X192261904Y-71154761D01*
X192357142Y-71202380D01*
X192595238Y-71202380D01*
X192690476Y-71154761D01*
X192738095Y-71107142D01*
X191547619Y-70202380D02*
X191452380Y-70202380D01*
X191357142Y-70250000D01*
X191309523Y-70297619D01*
X191261904Y-70392857D01*
X191214285Y-70583333D01*
X191214285Y-70821428D01*
X191261904Y-71011904D01*
X191309523Y-71107142D01*
X191357142Y-71154761D01*
X191452380Y-71202380D01*
X191547619Y-71202380D01*
X191642857Y-71154761D01*
X191690476Y-71107142D01*
X191738095Y-71011904D01*
X191785714Y-70821428D01*
X191785714Y-70583333D01*
X191738095Y-70392857D01*
X191690476Y-70297619D01*
X191642857Y-70250000D01*
X191547619Y-70202380D01*
X190309523Y-70202380D02*
X190785714Y-70202380D01*
X190833333Y-70678571D01*
X190785714Y-70630952D01*
X190690476Y-70583333D01*
X190452380Y-70583333D01*
X190357142Y-70630952D01*
X190309523Y-70678571D01*
X190261904Y-70773809D01*
X190261904Y-71011904D01*
X190309523Y-71107142D01*
X190357142Y-71154761D01*
X190452380Y-71202380D01*
X190690476Y-71202380D01*
X190785714Y-71154761D01*
X190833333Y-71107142D01*
G04 #@! TO.C,C506*
X163859047Y-58067142D02*
X163906666Y-58114761D01*
X164049523Y-58162380D01*
X164144761Y-58162380D01*
X164287619Y-58114761D01*
X164382857Y-58019523D01*
X164430476Y-57924285D01*
X164478095Y-57733809D01*
X164478095Y-57590952D01*
X164430476Y-57400476D01*
X164382857Y-57305238D01*
X164287619Y-57210000D01*
X164144761Y-57162380D01*
X164049523Y-57162380D01*
X163906666Y-57210000D01*
X163859047Y-57257619D01*
X162954285Y-57162380D02*
X163430476Y-57162380D01*
X163478095Y-57638571D01*
X163430476Y-57590952D01*
X163335238Y-57543333D01*
X163097142Y-57543333D01*
X163001904Y-57590952D01*
X162954285Y-57638571D01*
X162906666Y-57733809D01*
X162906666Y-57971904D01*
X162954285Y-58067142D01*
X163001904Y-58114761D01*
X163097142Y-58162380D01*
X163335238Y-58162380D01*
X163430476Y-58114761D01*
X163478095Y-58067142D01*
X162287619Y-57162380D02*
X162192380Y-57162380D01*
X162097142Y-57210000D01*
X162049523Y-57257619D01*
X162001904Y-57352857D01*
X161954285Y-57543333D01*
X161954285Y-57781428D01*
X162001904Y-57971904D01*
X162049523Y-58067142D01*
X162097142Y-58114761D01*
X162192380Y-58162380D01*
X162287619Y-58162380D01*
X162382857Y-58114761D01*
X162430476Y-58067142D01*
X162478095Y-57971904D01*
X162525714Y-57781428D01*
X162525714Y-57543333D01*
X162478095Y-57352857D01*
X162430476Y-57257619D01*
X162382857Y-57210000D01*
X162287619Y-57162380D01*
X161097142Y-57162380D02*
X161287619Y-57162380D01*
X161382857Y-57210000D01*
X161430476Y-57257619D01*
X161525714Y-57400476D01*
X161573333Y-57590952D01*
X161573333Y-57971904D01*
X161525714Y-58067142D01*
X161478095Y-58114761D01*
X161382857Y-58162380D01*
X161192380Y-58162380D01*
X161097142Y-58114761D01*
X161049523Y-58067142D01*
X161001904Y-57971904D01*
X161001904Y-57733809D01*
X161049523Y-57638571D01*
X161097142Y-57590952D01*
X161192380Y-57543333D01*
X161382857Y-57543333D01*
X161478095Y-57590952D01*
X161525714Y-57638571D01*
X161573333Y-57733809D01*
G04 #@! TO.C,D201*
X177440476Y-78452380D02*
X177440476Y-77452380D01*
X177202380Y-77452380D01*
X177059523Y-77500000D01*
X176964285Y-77595238D01*
X176916666Y-77690476D01*
X176869047Y-77880952D01*
X176869047Y-78023809D01*
X176916666Y-78214285D01*
X176964285Y-78309523D01*
X177059523Y-78404761D01*
X177202380Y-78452380D01*
X177440476Y-78452380D01*
X176488095Y-77547619D02*
X176440476Y-77500000D01*
X176345238Y-77452380D01*
X176107142Y-77452380D01*
X176011904Y-77500000D01*
X175964285Y-77547619D01*
X175916666Y-77642857D01*
X175916666Y-77738095D01*
X175964285Y-77880952D01*
X176535714Y-78452380D01*
X175916666Y-78452380D01*
X175297619Y-77452380D02*
X175202380Y-77452380D01*
X175107142Y-77500000D01*
X175059523Y-77547619D01*
X175011904Y-77642857D01*
X174964285Y-77833333D01*
X174964285Y-78071428D01*
X175011904Y-78261904D01*
X175059523Y-78357142D01*
X175107142Y-78404761D01*
X175202380Y-78452380D01*
X175297619Y-78452380D01*
X175392857Y-78404761D01*
X175440476Y-78357142D01*
X175488095Y-78261904D01*
X175535714Y-78071428D01*
X175535714Y-77833333D01*
X175488095Y-77642857D01*
X175440476Y-77547619D01*
X175392857Y-77500000D01*
X175297619Y-77452380D01*
X174011904Y-78452380D02*
X174583333Y-78452380D01*
X174297619Y-78452380D02*
X174297619Y-77452380D01*
X174392857Y-77595238D01*
X174488095Y-77690476D01*
X174583333Y-77738095D01*
G04 #@! TO.C,D301*
X230940476Y-72702380D02*
X230940476Y-71702380D01*
X230702380Y-71702380D01*
X230559523Y-71750000D01*
X230464285Y-71845238D01*
X230416666Y-71940476D01*
X230369047Y-72130952D01*
X230369047Y-72273809D01*
X230416666Y-72464285D01*
X230464285Y-72559523D01*
X230559523Y-72654761D01*
X230702380Y-72702380D01*
X230940476Y-72702380D01*
X230035714Y-71702380D02*
X229416666Y-71702380D01*
X229750000Y-72083333D01*
X229607142Y-72083333D01*
X229511904Y-72130952D01*
X229464285Y-72178571D01*
X229416666Y-72273809D01*
X229416666Y-72511904D01*
X229464285Y-72607142D01*
X229511904Y-72654761D01*
X229607142Y-72702380D01*
X229892857Y-72702380D01*
X229988095Y-72654761D01*
X230035714Y-72607142D01*
X228797619Y-71702380D02*
X228702380Y-71702380D01*
X228607142Y-71750000D01*
X228559523Y-71797619D01*
X228511904Y-71892857D01*
X228464285Y-72083333D01*
X228464285Y-72321428D01*
X228511904Y-72511904D01*
X228559523Y-72607142D01*
X228607142Y-72654761D01*
X228702380Y-72702380D01*
X228797619Y-72702380D01*
X228892857Y-72654761D01*
X228940476Y-72607142D01*
X228988095Y-72511904D01*
X229035714Y-72321428D01*
X229035714Y-72083333D01*
X228988095Y-71892857D01*
X228940476Y-71797619D01*
X228892857Y-71750000D01*
X228797619Y-71702380D01*
X227511904Y-72702380D02*
X228083333Y-72702380D01*
X227797619Y-72702380D02*
X227797619Y-71702380D01*
X227892857Y-71845238D01*
X227988095Y-71940476D01*
X228083333Y-71988095D01*
G04 #@! TO.C,F201*
X163285714Y-76428571D02*
X163619047Y-76428571D01*
X163619047Y-76952380D02*
X163619047Y-75952380D01*
X163142857Y-75952380D01*
X162809523Y-76047619D02*
X162761904Y-76000000D01*
X162666666Y-75952380D01*
X162428571Y-75952380D01*
X162333333Y-76000000D01*
X162285714Y-76047619D01*
X162238095Y-76142857D01*
X162238095Y-76238095D01*
X162285714Y-76380952D01*
X162857142Y-76952380D01*
X162238095Y-76952380D01*
X161619047Y-75952380D02*
X161523809Y-75952380D01*
X161428571Y-76000000D01*
X161380952Y-76047619D01*
X161333333Y-76142857D01*
X161285714Y-76333333D01*
X161285714Y-76571428D01*
X161333333Y-76761904D01*
X161380952Y-76857142D01*
X161428571Y-76904761D01*
X161523809Y-76952380D01*
X161619047Y-76952380D01*
X161714285Y-76904761D01*
X161761904Y-76857142D01*
X161809523Y-76761904D01*
X161857142Y-76571428D01*
X161857142Y-76333333D01*
X161809523Y-76142857D01*
X161761904Y-76047619D01*
X161714285Y-76000000D01*
X161619047Y-75952380D01*
X160333333Y-76952380D02*
X160904761Y-76952380D01*
X160619047Y-76952380D02*
X160619047Y-75952380D01*
X160714285Y-76095238D01*
X160809523Y-76190476D01*
X160904761Y-76238095D01*
G04 #@! TO.C,J202*
X125785714Y-77452380D02*
X125785714Y-78166666D01*
X125833333Y-78309523D01*
X125928571Y-78404761D01*
X126071428Y-78452380D01*
X126166666Y-78452380D01*
X125357142Y-77547619D02*
X125309523Y-77500000D01*
X125214285Y-77452380D01*
X124976190Y-77452380D01*
X124880952Y-77500000D01*
X124833333Y-77547619D01*
X124785714Y-77642857D01*
X124785714Y-77738095D01*
X124833333Y-77880952D01*
X125404761Y-78452380D01*
X124785714Y-78452380D01*
X124166666Y-77452380D02*
X124071428Y-77452380D01*
X123976190Y-77500000D01*
X123928571Y-77547619D01*
X123880952Y-77642857D01*
X123833333Y-77833333D01*
X123833333Y-78071428D01*
X123880952Y-78261904D01*
X123928571Y-78357142D01*
X123976190Y-78404761D01*
X124071428Y-78452380D01*
X124166666Y-78452380D01*
X124261904Y-78404761D01*
X124309523Y-78357142D01*
X124357142Y-78261904D01*
X124404761Y-78071428D01*
X124404761Y-77833333D01*
X124357142Y-77642857D01*
X124309523Y-77547619D01*
X124261904Y-77500000D01*
X124166666Y-77452380D01*
X123452380Y-77547619D02*
X123404761Y-77500000D01*
X123309523Y-77452380D01*
X123071428Y-77452380D01*
X122976190Y-77500000D01*
X122928571Y-77547619D01*
X122880952Y-77642857D01*
X122880952Y-77738095D01*
X122928571Y-77880952D01*
X123500000Y-78452380D01*
X122880952Y-78452380D01*
G04 #@! TO.C,J204*
X90785714Y-39952380D02*
X90785714Y-40666666D01*
X90833333Y-40809523D01*
X90928571Y-40904761D01*
X91071428Y-40952380D01*
X91166666Y-40952380D01*
X90357142Y-40047619D02*
X90309523Y-40000000D01*
X90214285Y-39952380D01*
X89976190Y-39952380D01*
X89880952Y-40000000D01*
X89833333Y-40047619D01*
X89785714Y-40142857D01*
X89785714Y-40238095D01*
X89833333Y-40380952D01*
X90404761Y-40952380D01*
X89785714Y-40952380D01*
X89166666Y-39952380D02*
X89071428Y-39952380D01*
X88976190Y-40000000D01*
X88928571Y-40047619D01*
X88880952Y-40142857D01*
X88833333Y-40333333D01*
X88833333Y-40571428D01*
X88880952Y-40761904D01*
X88928571Y-40857142D01*
X88976190Y-40904761D01*
X89071428Y-40952380D01*
X89166666Y-40952380D01*
X89261904Y-40904761D01*
X89309523Y-40857142D01*
X89357142Y-40761904D01*
X89404761Y-40571428D01*
X89404761Y-40333333D01*
X89357142Y-40142857D01*
X89309523Y-40047619D01*
X89261904Y-40000000D01*
X89166666Y-39952380D01*
X87976190Y-40285714D02*
X87976190Y-40952380D01*
X88214285Y-39904761D02*
X88452380Y-40619047D01*
X87833333Y-40619047D01*
G04 #@! TO.C,L101*
X148869047Y-80702380D02*
X149345238Y-80702380D01*
X149345238Y-79702380D01*
X148011904Y-80702380D02*
X148583333Y-80702380D01*
X148297619Y-80702380D02*
X148297619Y-79702380D01*
X148392857Y-79845238D01*
X148488095Y-79940476D01*
X148583333Y-79988095D01*
X147392857Y-79702380D02*
X147297619Y-79702380D01*
X147202380Y-79750000D01*
X147154761Y-79797619D01*
X147107142Y-79892857D01*
X147059523Y-80083333D01*
X147059523Y-80321428D01*
X147107142Y-80511904D01*
X147154761Y-80607142D01*
X147202380Y-80654761D01*
X147297619Y-80702380D01*
X147392857Y-80702380D01*
X147488095Y-80654761D01*
X147535714Y-80607142D01*
X147583333Y-80511904D01*
X147630952Y-80321428D01*
X147630952Y-80083333D01*
X147583333Y-79892857D01*
X147535714Y-79797619D01*
X147488095Y-79750000D01*
X147392857Y-79702380D01*
X146107142Y-80702380D02*
X146678571Y-80702380D01*
X146392857Y-80702380D02*
X146392857Y-79702380D01*
X146488095Y-79845238D01*
X146583333Y-79940476D01*
X146678571Y-79988095D01*
G04 #@! TO.C,L201*
X168369047Y-73952380D02*
X168845238Y-73952380D01*
X168845238Y-72952380D01*
X168083333Y-73047619D02*
X168035714Y-73000000D01*
X167940476Y-72952380D01*
X167702380Y-72952380D01*
X167607142Y-73000000D01*
X167559523Y-73047619D01*
X167511904Y-73142857D01*
X167511904Y-73238095D01*
X167559523Y-73380952D01*
X168130952Y-73952380D01*
X167511904Y-73952380D01*
X166892857Y-72952380D02*
X166797619Y-72952380D01*
X166702380Y-73000000D01*
X166654761Y-73047619D01*
X166607142Y-73142857D01*
X166559523Y-73333333D01*
X166559523Y-73571428D01*
X166607142Y-73761904D01*
X166654761Y-73857142D01*
X166702380Y-73904761D01*
X166797619Y-73952380D01*
X166892857Y-73952380D01*
X166988095Y-73904761D01*
X167035714Y-73857142D01*
X167083333Y-73761904D01*
X167130952Y-73571428D01*
X167130952Y-73333333D01*
X167083333Y-73142857D01*
X167035714Y-73047619D01*
X166988095Y-73000000D01*
X166892857Y-72952380D01*
X165607142Y-73952380D02*
X166178571Y-73952380D01*
X165892857Y-73952380D02*
X165892857Y-72952380D01*
X165988095Y-73095238D01*
X166083333Y-73190476D01*
X166178571Y-73238095D01*
G04 #@! TO.C,L301*
X229169047Y-85452380D02*
X229645238Y-85452380D01*
X229645238Y-84452380D01*
X228930952Y-84452380D02*
X228311904Y-84452380D01*
X228645238Y-84833333D01*
X228502380Y-84833333D01*
X228407142Y-84880952D01*
X228359523Y-84928571D01*
X228311904Y-85023809D01*
X228311904Y-85261904D01*
X228359523Y-85357142D01*
X228407142Y-85404761D01*
X228502380Y-85452380D01*
X228788095Y-85452380D01*
X228883333Y-85404761D01*
X228930952Y-85357142D01*
X227692857Y-84452380D02*
X227597619Y-84452380D01*
X227502380Y-84500000D01*
X227454761Y-84547619D01*
X227407142Y-84642857D01*
X227359523Y-84833333D01*
X227359523Y-85071428D01*
X227407142Y-85261904D01*
X227454761Y-85357142D01*
X227502380Y-85404761D01*
X227597619Y-85452380D01*
X227692857Y-85452380D01*
X227788095Y-85404761D01*
X227835714Y-85357142D01*
X227883333Y-85261904D01*
X227930952Y-85071428D01*
X227930952Y-84833333D01*
X227883333Y-84642857D01*
X227835714Y-84547619D01*
X227788095Y-84500000D01*
X227692857Y-84452380D01*
X226407142Y-85452380D02*
X226978571Y-85452380D01*
X226692857Y-85452380D02*
X226692857Y-84452380D01*
X226788095Y-84595238D01*
X226883333Y-84690476D01*
X226978571Y-84738095D01*
G04 #@! TO.C,Q301*
X162547619Y-87547619D02*
X162642857Y-87500000D01*
X162738095Y-87404761D01*
X162880952Y-87261904D01*
X162976190Y-87214285D01*
X163071428Y-87214285D01*
X163023809Y-87452380D02*
X163119047Y-87404761D01*
X163214285Y-87309523D01*
X163261904Y-87119047D01*
X163261904Y-86785714D01*
X163214285Y-86595238D01*
X163119047Y-86500000D01*
X163023809Y-86452380D01*
X162833333Y-86452380D01*
X162738095Y-86500000D01*
X162642857Y-86595238D01*
X162595238Y-86785714D01*
X162595238Y-87119047D01*
X162642857Y-87309523D01*
X162738095Y-87404761D01*
X162833333Y-87452380D01*
X163023809Y-87452380D01*
X162261904Y-86452380D02*
X161642857Y-86452380D01*
X161976190Y-86833333D01*
X161833333Y-86833333D01*
X161738095Y-86880952D01*
X161690476Y-86928571D01*
X161642857Y-87023809D01*
X161642857Y-87261904D01*
X161690476Y-87357142D01*
X161738095Y-87404761D01*
X161833333Y-87452380D01*
X162119047Y-87452380D01*
X162214285Y-87404761D01*
X162261904Y-87357142D01*
X161023809Y-86452380D02*
X160928571Y-86452380D01*
X160833333Y-86500000D01*
X160785714Y-86547619D01*
X160738095Y-86642857D01*
X160690476Y-86833333D01*
X160690476Y-87071428D01*
X160738095Y-87261904D01*
X160785714Y-87357142D01*
X160833333Y-87404761D01*
X160928571Y-87452380D01*
X161023809Y-87452380D01*
X161119047Y-87404761D01*
X161166666Y-87357142D01*
X161214285Y-87261904D01*
X161261904Y-87071428D01*
X161261904Y-86833333D01*
X161214285Y-86642857D01*
X161166666Y-86547619D01*
X161119047Y-86500000D01*
X161023809Y-86452380D01*
X159738095Y-87452380D02*
X160309523Y-87452380D01*
X160023809Y-87452380D02*
X160023809Y-86452380D01*
X160119047Y-86595238D01*
X160214285Y-86690476D01*
X160309523Y-86738095D01*
G04 #@! TO.C,R201*
X109119047Y-69652380D02*
X109452380Y-69176190D01*
X109690476Y-69652380D02*
X109690476Y-68652380D01*
X109309523Y-68652380D01*
X109214285Y-68700000D01*
X109166666Y-68747619D01*
X109119047Y-68842857D01*
X109119047Y-68985714D01*
X109166666Y-69080952D01*
X109214285Y-69128571D01*
X109309523Y-69176190D01*
X109690476Y-69176190D01*
X108738095Y-68747619D02*
X108690476Y-68700000D01*
X108595238Y-68652380D01*
X108357142Y-68652380D01*
X108261904Y-68700000D01*
X108214285Y-68747619D01*
X108166666Y-68842857D01*
X108166666Y-68938095D01*
X108214285Y-69080952D01*
X108785714Y-69652380D01*
X108166666Y-69652380D01*
X107547619Y-68652380D02*
X107452380Y-68652380D01*
X107357142Y-68700000D01*
X107309523Y-68747619D01*
X107261904Y-68842857D01*
X107214285Y-69033333D01*
X107214285Y-69271428D01*
X107261904Y-69461904D01*
X107309523Y-69557142D01*
X107357142Y-69604761D01*
X107452380Y-69652380D01*
X107547619Y-69652380D01*
X107642857Y-69604761D01*
X107690476Y-69557142D01*
X107738095Y-69461904D01*
X107785714Y-69271428D01*
X107785714Y-69033333D01*
X107738095Y-68842857D01*
X107690476Y-68747619D01*
X107642857Y-68700000D01*
X107547619Y-68652380D01*
X106261904Y-69652380D02*
X106833333Y-69652380D01*
X106547619Y-69652380D02*
X106547619Y-68652380D01*
X106642857Y-68795238D01*
X106738095Y-68890476D01*
X106833333Y-68938095D01*
G04 #@! TO.C,R202*
X94869047Y-71452380D02*
X95202380Y-70976190D01*
X95440476Y-71452380D02*
X95440476Y-70452380D01*
X95059523Y-70452380D01*
X94964285Y-70500000D01*
X94916666Y-70547619D01*
X94869047Y-70642857D01*
X94869047Y-70785714D01*
X94916666Y-70880952D01*
X94964285Y-70928571D01*
X95059523Y-70976190D01*
X95440476Y-70976190D01*
X94488095Y-70547619D02*
X94440476Y-70500000D01*
X94345238Y-70452380D01*
X94107142Y-70452380D01*
X94011904Y-70500000D01*
X93964285Y-70547619D01*
X93916666Y-70642857D01*
X93916666Y-70738095D01*
X93964285Y-70880952D01*
X94535714Y-71452380D01*
X93916666Y-71452380D01*
X93297619Y-70452380D02*
X93202380Y-70452380D01*
X93107142Y-70500000D01*
X93059523Y-70547619D01*
X93011904Y-70642857D01*
X92964285Y-70833333D01*
X92964285Y-71071428D01*
X93011904Y-71261904D01*
X93059523Y-71357142D01*
X93107142Y-71404761D01*
X93202380Y-71452380D01*
X93297619Y-71452380D01*
X93392857Y-71404761D01*
X93440476Y-71357142D01*
X93488095Y-71261904D01*
X93535714Y-71071428D01*
X93535714Y-70833333D01*
X93488095Y-70642857D01*
X93440476Y-70547619D01*
X93392857Y-70500000D01*
X93297619Y-70452380D01*
X92583333Y-70547619D02*
X92535714Y-70500000D01*
X92440476Y-70452380D01*
X92202380Y-70452380D01*
X92107142Y-70500000D01*
X92059523Y-70547619D01*
X92011904Y-70642857D01*
X92011904Y-70738095D01*
X92059523Y-70880952D01*
X92630952Y-71452380D01*
X92011904Y-71452380D01*
G04 #@! TO.C,R203*
X109369047Y-71202380D02*
X109702380Y-70726190D01*
X109940476Y-71202380D02*
X109940476Y-70202380D01*
X109559523Y-70202380D01*
X109464285Y-70250000D01*
X109416666Y-70297619D01*
X109369047Y-70392857D01*
X109369047Y-70535714D01*
X109416666Y-70630952D01*
X109464285Y-70678571D01*
X109559523Y-70726190D01*
X109940476Y-70726190D01*
X108988095Y-70297619D02*
X108940476Y-70250000D01*
X108845238Y-70202380D01*
X108607142Y-70202380D01*
X108511904Y-70250000D01*
X108464285Y-70297619D01*
X108416666Y-70392857D01*
X108416666Y-70488095D01*
X108464285Y-70630952D01*
X109035714Y-71202380D01*
X108416666Y-71202380D01*
X107797619Y-70202380D02*
X107702380Y-70202380D01*
X107607142Y-70250000D01*
X107559523Y-70297619D01*
X107511904Y-70392857D01*
X107464285Y-70583333D01*
X107464285Y-70821428D01*
X107511904Y-71011904D01*
X107559523Y-71107142D01*
X107607142Y-71154761D01*
X107702380Y-71202380D01*
X107797619Y-71202380D01*
X107892857Y-71154761D01*
X107940476Y-71107142D01*
X107988095Y-71011904D01*
X108035714Y-70821428D01*
X108035714Y-70583333D01*
X107988095Y-70392857D01*
X107940476Y-70297619D01*
X107892857Y-70250000D01*
X107797619Y-70202380D01*
X107130952Y-70202380D02*
X106511904Y-70202380D01*
X106845238Y-70583333D01*
X106702380Y-70583333D01*
X106607142Y-70630952D01*
X106559523Y-70678571D01*
X106511904Y-70773809D01*
X106511904Y-71011904D01*
X106559523Y-71107142D01*
X106607142Y-71154761D01*
X106702380Y-71202380D01*
X106988095Y-71202380D01*
X107083333Y-71154761D01*
X107130952Y-71107142D01*
G04 #@! TO.C,R204*
X94869047Y-74452380D02*
X95202380Y-73976190D01*
X95440476Y-74452380D02*
X95440476Y-73452380D01*
X95059523Y-73452380D01*
X94964285Y-73500000D01*
X94916666Y-73547619D01*
X94869047Y-73642857D01*
X94869047Y-73785714D01*
X94916666Y-73880952D01*
X94964285Y-73928571D01*
X95059523Y-73976190D01*
X95440476Y-73976190D01*
X94488095Y-73547619D02*
X94440476Y-73500000D01*
X94345238Y-73452380D01*
X94107142Y-73452380D01*
X94011904Y-73500000D01*
X93964285Y-73547619D01*
X93916666Y-73642857D01*
X93916666Y-73738095D01*
X93964285Y-73880952D01*
X94535714Y-74452380D01*
X93916666Y-74452380D01*
X93297619Y-73452380D02*
X93202380Y-73452380D01*
X93107142Y-73500000D01*
X93059523Y-73547619D01*
X93011904Y-73642857D01*
X92964285Y-73833333D01*
X92964285Y-74071428D01*
X93011904Y-74261904D01*
X93059523Y-74357142D01*
X93107142Y-74404761D01*
X93202380Y-74452380D01*
X93297619Y-74452380D01*
X93392857Y-74404761D01*
X93440476Y-74357142D01*
X93488095Y-74261904D01*
X93535714Y-74071428D01*
X93535714Y-73833333D01*
X93488095Y-73642857D01*
X93440476Y-73547619D01*
X93392857Y-73500000D01*
X93297619Y-73452380D01*
X92107142Y-73785714D02*
X92107142Y-74452380D01*
X92345238Y-73404761D02*
X92583333Y-74119047D01*
X91964285Y-74119047D01*
G04 #@! TO.C,R401*
X178869047Y-73352380D02*
X179202380Y-72876190D01*
X179440476Y-73352380D02*
X179440476Y-72352380D01*
X179059523Y-72352380D01*
X178964285Y-72400000D01*
X178916666Y-72447619D01*
X178869047Y-72542857D01*
X178869047Y-72685714D01*
X178916666Y-72780952D01*
X178964285Y-72828571D01*
X179059523Y-72876190D01*
X179440476Y-72876190D01*
X178011904Y-72685714D02*
X178011904Y-73352380D01*
X178250000Y-72304761D02*
X178488095Y-73019047D01*
X177869047Y-73019047D01*
X177297619Y-72352380D02*
X177202380Y-72352380D01*
X177107142Y-72400000D01*
X177059523Y-72447619D01*
X177011904Y-72542857D01*
X176964285Y-72733333D01*
X176964285Y-72971428D01*
X177011904Y-73161904D01*
X177059523Y-73257142D01*
X177107142Y-73304761D01*
X177202380Y-73352380D01*
X177297619Y-73352380D01*
X177392857Y-73304761D01*
X177440476Y-73257142D01*
X177488095Y-73161904D01*
X177535714Y-72971428D01*
X177535714Y-72733333D01*
X177488095Y-72542857D01*
X177440476Y-72447619D01*
X177392857Y-72400000D01*
X177297619Y-72352380D01*
X176011904Y-73352380D02*
X176583333Y-73352380D01*
X176297619Y-73352380D02*
X176297619Y-72352380D01*
X176392857Y-72495238D01*
X176488095Y-72590476D01*
X176583333Y-72638095D01*
G04 #@! TO.C,R402*
X205869047Y-87202380D02*
X206202380Y-86726190D01*
X206440476Y-87202380D02*
X206440476Y-86202380D01*
X206059523Y-86202380D01*
X205964285Y-86250000D01*
X205916666Y-86297619D01*
X205869047Y-86392857D01*
X205869047Y-86535714D01*
X205916666Y-86630952D01*
X205964285Y-86678571D01*
X206059523Y-86726190D01*
X206440476Y-86726190D01*
X205011904Y-86535714D02*
X205011904Y-87202380D01*
X205250000Y-86154761D02*
X205488095Y-86869047D01*
X204869047Y-86869047D01*
X204297619Y-86202380D02*
X204202380Y-86202380D01*
X204107142Y-86250000D01*
X204059523Y-86297619D01*
X204011904Y-86392857D01*
X203964285Y-86583333D01*
X203964285Y-86821428D01*
X204011904Y-87011904D01*
X204059523Y-87107142D01*
X204107142Y-87154761D01*
X204202380Y-87202380D01*
X204297619Y-87202380D01*
X204392857Y-87154761D01*
X204440476Y-87107142D01*
X204488095Y-87011904D01*
X204535714Y-86821428D01*
X204535714Y-86583333D01*
X204488095Y-86392857D01*
X204440476Y-86297619D01*
X204392857Y-86250000D01*
X204297619Y-86202380D01*
X203583333Y-86297619D02*
X203535714Y-86250000D01*
X203440476Y-86202380D01*
X203202380Y-86202380D01*
X203107142Y-86250000D01*
X203059523Y-86297619D01*
X203011904Y-86392857D01*
X203011904Y-86488095D01*
X203059523Y-86630952D01*
X203630952Y-87202380D01*
X203011904Y-87202380D01*
G04 #@! TO.C,SW1*
X97583333Y-61354761D02*
X97440476Y-61402380D01*
X97202380Y-61402380D01*
X97107142Y-61354761D01*
X97059523Y-61307142D01*
X97011904Y-61211904D01*
X97011904Y-61116666D01*
X97059523Y-61021428D01*
X97107142Y-60973809D01*
X97202380Y-60926190D01*
X97392857Y-60878571D01*
X97488095Y-60830952D01*
X97535714Y-60783333D01*
X97583333Y-60688095D01*
X97583333Y-60592857D01*
X97535714Y-60497619D01*
X97488095Y-60450000D01*
X97392857Y-60402380D01*
X97154761Y-60402380D01*
X97011904Y-60450000D01*
X96678571Y-60402380D02*
X96440476Y-61402380D01*
X96250000Y-60688095D01*
X96059523Y-61402380D01*
X95821428Y-60402380D01*
X94916666Y-61402380D02*
X95488095Y-61402380D01*
X95202380Y-61402380D02*
X95202380Y-60402380D01*
X95297619Y-60545238D01*
X95392857Y-60640476D01*
X95488095Y-60688095D01*
G04 #@! TO.C,SW2*
X97533333Y-84454761D02*
X97390476Y-84502380D01*
X97152380Y-84502380D01*
X97057142Y-84454761D01*
X97009523Y-84407142D01*
X96961904Y-84311904D01*
X96961904Y-84216666D01*
X97009523Y-84121428D01*
X97057142Y-84073809D01*
X97152380Y-84026190D01*
X97342857Y-83978571D01*
X97438095Y-83930952D01*
X97485714Y-83883333D01*
X97533333Y-83788095D01*
X97533333Y-83692857D01*
X97485714Y-83597619D01*
X97438095Y-83550000D01*
X97342857Y-83502380D01*
X97104761Y-83502380D01*
X96961904Y-83550000D01*
X96628571Y-83502380D02*
X96390476Y-84502380D01*
X96200000Y-83788095D01*
X96009523Y-84502380D01*
X95771428Y-83502380D01*
X95438095Y-83597619D02*
X95390476Y-83550000D01*
X95295238Y-83502380D01*
X95057142Y-83502380D01*
X94961904Y-83550000D01*
X94914285Y-83597619D01*
X94866666Y-83692857D01*
X94866666Y-83788095D01*
X94914285Y-83930952D01*
X95485714Y-84502380D01*
X94866666Y-84502380D01*
G04 #@! TO.C,U1*
X140611904Y-68552380D02*
X140611904Y-69361904D01*
X140564285Y-69457142D01*
X140516666Y-69504761D01*
X140421428Y-69552380D01*
X140230952Y-69552380D01*
X140135714Y-69504761D01*
X140088095Y-69457142D01*
X140040476Y-69361904D01*
X140040476Y-68552380D01*
X139040476Y-69552380D02*
X139611904Y-69552380D01*
X139326190Y-69552380D02*
X139326190Y-68552380D01*
X139421428Y-68695238D01*
X139516666Y-68790476D01*
X139611904Y-68838095D01*
G04 #@! TO.C,U302*
X150964285Y-81952380D02*
X150964285Y-82761904D01*
X150916666Y-82857142D01*
X150869047Y-82904761D01*
X150773809Y-82952380D01*
X150583333Y-82952380D01*
X150488095Y-82904761D01*
X150440476Y-82857142D01*
X150392857Y-82761904D01*
X150392857Y-81952380D01*
X150011904Y-81952380D02*
X149392857Y-81952380D01*
X149726190Y-82333333D01*
X149583333Y-82333333D01*
X149488095Y-82380952D01*
X149440476Y-82428571D01*
X149392857Y-82523809D01*
X149392857Y-82761904D01*
X149440476Y-82857142D01*
X149488095Y-82904761D01*
X149583333Y-82952380D01*
X149869047Y-82952380D01*
X149964285Y-82904761D01*
X150011904Y-82857142D01*
X148773809Y-81952380D02*
X148678571Y-81952380D01*
X148583333Y-82000000D01*
X148535714Y-82047619D01*
X148488095Y-82142857D01*
X148440476Y-82333333D01*
X148440476Y-82571428D01*
X148488095Y-82761904D01*
X148535714Y-82857142D01*
X148583333Y-82904761D01*
X148678571Y-82952380D01*
X148773809Y-82952380D01*
X148869047Y-82904761D01*
X148916666Y-82857142D01*
X148964285Y-82761904D01*
X149011904Y-82571428D01*
X149011904Y-82333333D01*
X148964285Y-82142857D01*
X148916666Y-82047619D01*
X148869047Y-82000000D01*
X148773809Y-81952380D01*
X148059523Y-82047619D02*
X148011904Y-82000000D01*
X147916666Y-81952380D01*
X147678571Y-81952380D01*
X147583333Y-82000000D01*
X147535714Y-82047619D01*
X147488095Y-82142857D01*
X147488095Y-82238095D01*
X147535714Y-82380952D01*
X148107142Y-82952380D01*
X147488095Y-82952380D01*
G04 #@! TO.C,U402*
X201234285Y-83202380D02*
X201234285Y-84011904D01*
X201186666Y-84107142D01*
X201139047Y-84154761D01*
X201043809Y-84202380D01*
X200853333Y-84202380D01*
X200758095Y-84154761D01*
X200710476Y-84107142D01*
X200662857Y-84011904D01*
X200662857Y-83202380D01*
X199758095Y-83535714D02*
X199758095Y-84202380D01*
X199996190Y-83154761D02*
X200234285Y-83869047D01*
X199615238Y-83869047D01*
X199043809Y-83202380D02*
X198948571Y-83202380D01*
X198853333Y-83250000D01*
X198805714Y-83297619D01*
X198758095Y-83392857D01*
X198710476Y-83583333D01*
X198710476Y-83821428D01*
X198758095Y-84011904D01*
X198805714Y-84107142D01*
X198853333Y-84154761D01*
X198948571Y-84202380D01*
X199043809Y-84202380D01*
X199139047Y-84154761D01*
X199186666Y-84107142D01*
X199234285Y-84011904D01*
X199281904Y-83821428D01*
X199281904Y-83583333D01*
X199234285Y-83392857D01*
X199186666Y-83297619D01*
X199139047Y-83250000D01*
X199043809Y-83202380D01*
X198329523Y-83297619D02*
X198281904Y-83250000D01*
X198186666Y-83202380D01*
X197948571Y-83202380D01*
X197853333Y-83250000D01*
X197805714Y-83297619D01*
X197758095Y-83392857D01*
X197758095Y-83488095D01*
X197805714Y-83630952D01*
X198377142Y-84202380D01*
X197758095Y-84202380D01*
G04 #@! TO.C,U501*
X153474285Y-65952380D02*
X153474285Y-66761904D01*
X153426666Y-66857142D01*
X153379047Y-66904761D01*
X153283809Y-66952380D01*
X153093333Y-66952380D01*
X152998095Y-66904761D01*
X152950476Y-66857142D01*
X152902857Y-66761904D01*
X152902857Y-65952380D01*
X151950476Y-65952380D02*
X152426666Y-65952380D01*
X152474285Y-66428571D01*
X152426666Y-66380952D01*
X152331428Y-66333333D01*
X152093333Y-66333333D01*
X151998095Y-66380952D01*
X151950476Y-66428571D01*
X151902857Y-66523809D01*
X151902857Y-66761904D01*
X151950476Y-66857142D01*
X151998095Y-66904761D01*
X152093333Y-66952380D01*
X152331428Y-66952380D01*
X152426666Y-66904761D01*
X152474285Y-66857142D01*
X151283809Y-65952380D02*
X151188571Y-65952380D01*
X151093333Y-66000000D01*
X151045714Y-66047619D01*
X150998095Y-66142857D01*
X150950476Y-66333333D01*
X150950476Y-66571428D01*
X150998095Y-66761904D01*
X151045714Y-66857142D01*
X151093333Y-66904761D01*
X151188571Y-66952380D01*
X151283809Y-66952380D01*
X151379047Y-66904761D01*
X151426666Y-66857142D01*
X151474285Y-66761904D01*
X151521904Y-66571428D01*
X151521904Y-66333333D01*
X151474285Y-66142857D01*
X151426666Y-66047619D01*
X151379047Y-66000000D01*
X151283809Y-65952380D01*
X149998095Y-66952380D02*
X150569523Y-66952380D01*
X150283809Y-66952380D02*
X150283809Y-65952380D01*
X150379047Y-66095238D01*
X150474285Y-66190476D01*
X150569523Y-66238095D01*
G04 #@! TO.C,RN502*
X99142857Y-55452380D02*
X99476190Y-54976190D01*
X99714285Y-55452380D02*
X99714285Y-54452380D01*
X99333333Y-54452380D01*
X99238095Y-54500000D01*
X99190476Y-54547619D01*
X99142857Y-54642857D01*
X99142857Y-54785714D01*
X99190476Y-54880952D01*
X99238095Y-54928571D01*
X99333333Y-54976190D01*
X99714285Y-54976190D01*
X98714285Y-55452380D02*
X98714285Y-54452380D01*
X98142857Y-55452380D01*
X98142857Y-54452380D01*
X97190476Y-54452380D02*
X97666666Y-54452380D01*
X97714285Y-54928571D01*
X97666666Y-54880952D01*
X97571428Y-54833333D01*
X97333333Y-54833333D01*
X97238095Y-54880952D01*
X97190476Y-54928571D01*
X97142857Y-55023809D01*
X97142857Y-55261904D01*
X97190476Y-55357142D01*
X97238095Y-55404761D01*
X97333333Y-55452380D01*
X97571428Y-55452380D01*
X97666666Y-55404761D01*
X97714285Y-55357142D01*
X96523809Y-54452380D02*
X96428571Y-54452380D01*
X96333333Y-54500000D01*
X96285714Y-54547619D01*
X96238095Y-54642857D01*
X96190476Y-54833333D01*
X96190476Y-55071428D01*
X96238095Y-55261904D01*
X96285714Y-55357142D01*
X96333333Y-55404761D01*
X96428571Y-55452380D01*
X96523809Y-55452380D01*
X96619047Y-55404761D01*
X96666666Y-55357142D01*
X96714285Y-55261904D01*
X96761904Y-55071428D01*
X96761904Y-54833333D01*
X96714285Y-54642857D01*
X96666666Y-54547619D01*
X96619047Y-54500000D01*
X96523809Y-54452380D01*
X95809523Y-54547619D02*
X95761904Y-54500000D01*
X95666666Y-54452380D01*
X95428571Y-54452380D01*
X95333333Y-54500000D01*
X95285714Y-54547619D01*
X95238095Y-54642857D01*
X95238095Y-54738095D01*
X95285714Y-54880952D01*
X95857142Y-55452380D01*
X95238095Y-55452380D01*
G04 #@! TO.C,RN503*
X136642857Y-55452380D02*
X136976190Y-54976190D01*
X137214285Y-55452380D02*
X137214285Y-54452380D01*
X136833333Y-54452380D01*
X136738095Y-54500000D01*
X136690476Y-54547619D01*
X136642857Y-54642857D01*
X136642857Y-54785714D01*
X136690476Y-54880952D01*
X136738095Y-54928571D01*
X136833333Y-54976190D01*
X137214285Y-54976190D01*
X136214285Y-55452380D02*
X136214285Y-54452380D01*
X135642857Y-55452380D01*
X135642857Y-54452380D01*
X134690476Y-54452380D02*
X135166666Y-54452380D01*
X135214285Y-54928571D01*
X135166666Y-54880952D01*
X135071428Y-54833333D01*
X134833333Y-54833333D01*
X134738095Y-54880952D01*
X134690476Y-54928571D01*
X134642857Y-55023809D01*
X134642857Y-55261904D01*
X134690476Y-55357142D01*
X134738095Y-55404761D01*
X134833333Y-55452380D01*
X135071428Y-55452380D01*
X135166666Y-55404761D01*
X135214285Y-55357142D01*
X134023809Y-54452380D02*
X133928571Y-54452380D01*
X133833333Y-54500000D01*
X133785714Y-54547619D01*
X133738095Y-54642857D01*
X133690476Y-54833333D01*
X133690476Y-55071428D01*
X133738095Y-55261904D01*
X133785714Y-55357142D01*
X133833333Y-55404761D01*
X133928571Y-55452380D01*
X134023809Y-55452380D01*
X134119047Y-55404761D01*
X134166666Y-55357142D01*
X134214285Y-55261904D01*
X134261904Y-55071428D01*
X134261904Y-54833333D01*
X134214285Y-54642857D01*
X134166666Y-54547619D01*
X134119047Y-54500000D01*
X134023809Y-54452380D01*
X133357142Y-54452380D02*
X132738095Y-54452380D01*
X133071428Y-54833333D01*
X132928571Y-54833333D01*
X132833333Y-54880952D01*
X132785714Y-54928571D01*
X132738095Y-55023809D01*
X132738095Y-55261904D01*
X132785714Y-55357142D01*
X132833333Y-55404761D01*
X132928571Y-55452380D01*
X133214285Y-55452380D01*
X133309523Y-55404761D01*
X133357142Y-55357142D01*
G04 #@! TO.C,RN504*
X180892857Y-55452380D02*
X181226190Y-54976190D01*
X181464285Y-55452380D02*
X181464285Y-54452380D01*
X181083333Y-54452380D01*
X180988095Y-54500000D01*
X180940476Y-54547619D01*
X180892857Y-54642857D01*
X180892857Y-54785714D01*
X180940476Y-54880952D01*
X180988095Y-54928571D01*
X181083333Y-54976190D01*
X181464285Y-54976190D01*
X180464285Y-55452380D02*
X180464285Y-54452380D01*
X179892857Y-55452380D01*
X179892857Y-54452380D01*
X178940476Y-54452380D02*
X179416666Y-54452380D01*
X179464285Y-54928571D01*
X179416666Y-54880952D01*
X179321428Y-54833333D01*
X179083333Y-54833333D01*
X178988095Y-54880952D01*
X178940476Y-54928571D01*
X178892857Y-55023809D01*
X178892857Y-55261904D01*
X178940476Y-55357142D01*
X178988095Y-55404761D01*
X179083333Y-55452380D01*
X179321428Y-55452380D01*
X179416666Y-55404761D01*
X179464285Y-55357142D01*
X178273809Y-54452380D02*
X178178571Y-54452380D01*
X178083333Y-54500000D01*
X178035714Y-54547619D01*
X177988095Y-54642857D01*
X177940476Y-54833333D01*
X177940476Y-55071428D01*
X177988095Y-55261904D01*
X178035714Y-55357142D01*
X178083333Y-55404761D01*
X178178571Y-55452380D01*
X178273809Y-55452380D01*
X178369047Y-55404761D01*
X178416666Y-55357142D01*
X178464285Y-55261904D01*
X178511904Y-55071428D01*
X178511904Y-54833333D01*
X178464285Y-54642857D01*
X178416666Y-54547619D01*
X178369047Y-54500000D01*
X178273809Y-54452380D01*
X177083333Y-54785714D02*
X177083333Y-55452380D01*
X177321428Y-54404761D02*
X177559523Y-55119047D01*
X176940476Y-55119047D01*
G04 #@! TO.C,RN505*
X214642857Y-55452380D02*
X214976190Y-54976190D01*
X215214285Y-55452380D02*
X215214285Y-54452380D01*
X214833333Y-54452380D01*
X214738095Y-54500000D01*
X214690476Y-54547619D01*
X214642857Y-54642857D01*
X214642857Y-54785714D01*
X214690476Y-54880952D01*
X214738095Y-54928571D01*
X214833333Y-54976190D01*
X215214285Y-54976190D01*
X214214285Y-55452380D02*
X214214285Y-54452380D01*
X213642857Y-55452380D01*
X213642857Y-54452380D01*
X212690476Y-54452380D02*
X213166666Y-54452380D01*
X213214285Y-54928571D01*
X213166666Y-54880952D01*
X213071428Y-54833333D01*
X212833333Y-54833333D01*
X212738095Y-54880952D01*
X212690476Y-54928571D01*
X212642857Y-55023809D01*
X212642857Y-55261904D01*
X212690476Y-55357142D01*
X212738095Y-55404761D01*
X212833333Y-55452380D01*
X213071428Y-55452380D01*
X213166666Y-55404761D01*
X213214285Y-55357142D01*
X212023809Y-54452380D02*
X211928571Y-54452380D01*
X211833333Y-54500000D01*
X211785714Y-54547619D01*
X211738095Y-54642857D01*
X211690476Y-54833333D01*
X211690476Y-55071428D01*
X211738095Y-55261904D01*
X211785714Y-55357142D01*
X211833333Y-55404761D01*
X211928571Y-55452380D01*
X212023809Y-55452380D01*
X212119047Y-55404761D01*
X212166666Y-55357142D01*
X212214285Y-55261904D01*
X212261904Y-55071428D01*
X212261904Y-54833333D01*
X212214285Y-54642857D01*
X212166666Y-54547619D01*
X212119047Y-54500000D01*
X212023809Y-54452380D01*
X210785714Y-54452380D02*
X211261904Y-54452380D01*
X211309523Y-54928571D01*
X211261904Y-54880952D01*
X211166666Y-54833333D01*
X210928571Y-54833333D01*
X210833333Y-54880952D01*
X210785714Y-54928571D01*
X210738095Y-55023809D01*
X210738095Y-55261904D01*
X210785714Y-55357142D01*
X210833333Y-55404761D01*
X210928571Y-55452380D01*
X211166666Y-55452380D01*
X211261904Y-55404761D01*
X211309523Y-55357142D01*
G04 #@! TO.C,RN506*
X121892857Y-55452380D02*
X122226190Y-54976190D01*
X122464285Y-55452380D02*
X122464285Y-54452380D01*
X122083333Y-54452380D01*
X121988095Y-54500000D01*
X121940476Y-54547619D01*
X121892857Y-54642857D01*
X121892857Y-54785714D01*
X121940476Y-54880952D01*
X121988095Y-54928571D01*
X122083333Y-54976190D01*
X122464285Y-54976190D01*
X121464285Y-55452380D02*
X121464285Y-54452380D01*
X120892857Y-55452380D01*
X120892857Y-54452380D01*
X119940476Y-54452380D02*
X120416666Y-54452380D01*
X120464285Y-54928571D01*
X120416666Y-54880952D01*
X120321428Y-54833333D01*
X120083333Y-54833333D01*
X119988095Y-54880952D01*
X119940476Y-54928571D01*
X119892857Y-55023809D01*
X119892857Y-55261904D01*
X119940476Y-55357142D01*
X119988095Y-55404761D01*
X120083333Y-55452380D01*
X120321428Y-55452380D01*
X120416666Y-55404761D01*
X120464285Y-55357142D01*
X119273809Y-54452380D02*
X119178571Y-54452380D01*
X119083333Y-54500000D01*
X119035714Y-54547619D01*
X118988095Y-54642857D01*
X118940476Y-54833333D01*
X118940476Y-55071428D01*
X118988095Y-55261904D01*
X119035714Y-55357142D01*
X119083333Y-55404761D01*
X119178571Y-55452380D01*
X119273809Y-55452380D01*
X119369047Y-55404761D01*
X119416666Y-55357142D01*
X119464285Y-55261904D01*
X119511904Y-55071428D01*
X119511904Y-54833333D01*
X119464285Y-54642857D01*
X119416666Y-54547619D01*
X119369047Y-54500000D01*
X119273809Y-54452380D01*
X118083333Y-54452380D02*
X118273809Y-54452380D01*
X118369047Y-54500000D01*
X118416666Y-54547619D01*
X118511904Y-54690476D01*
X118559523Y-54880952D01*
X118559523Y-55261904D01*
X118511904Y-55357142D01*
X118464285Y-55404761D01*
X118369047Y-55452380D01*
X118178571Y-55452380D01*
X118083333Y-55404761D01*
X118035714Y-55357142D01*
X117988095Y-55261904D01*
X117988095Y-55023809D01*
X118035714Y-54928571D01*
X118083333Y-54880952D01*
X118178571Y-54833333D01*
X118369047Y-54833333D01*
X118464285Y-54880952D01*
X118511904Y-54928571D01*
X118559523Y-55023809D01*
G04 #@! TO.C,RN507*
X196392857Y-55452380D02*
X196726190Y-54976190D01*
X196964285Y-55452380D02*
X196964285Y-54452380D01*
X196583333Y-54452380D01*
X196488095Y-54500000D01*
X196440476Y-54547619D01*
X196392857Y-54642857D01*
X196392857Y-54785714D01*
X196440476Y-54880952D01*
X196488095Y-54928571D01*
X196583333Y-54976190D01*
X196964285Y-54976190D01*
X195964285Y-55452380D02*
X195964285Y-54452380D01*
X195392857Y-55452380D01*
X195392857Y-54452380D01*
X194440476Y-54452380D02*
X194916666Y-54452380D01*
X194964285Y-54928571D01*
X194916666Y-54880952D01*
X194821428Y-54833333D01*
X194583333Y-54833333D01*
X194488095Y-54880952D01*
X194440476Y-54928571D01*
X194392857Y-55023809D01*
X194392857Y-55261904D01*
X194440476Y-55357142D01*
X194488095Y-55404761D01*
X194583333Y-55452380D01*
X194821428Y-55452380D01*
X194916666Y-55404761D01*
X194964285Y-55357142D01*
X193773809Y-54452380D02*
X193678571Y-54452380D01*
X193583333Y-54500000D01*
X193535714Y-54547619D01*
X193488095Y-54642857D01*
X193440476Y-54833333D01*
X193440476Y-55071428D01*
X193488095Y-55261904D01*
X193535714Y-55357142D01*
X193583333Y-55404761D01*
X193678571Y-55452380D01*
X193773809Y-55452380D01*
X193869047Y-55404761D01*
X193916666Y-55357142D01*
X193964285Y-55261904D01*
X194011904Y-55071428D01*
X194011904Y-54833333D01*
X193964285Y-54642857D01*
X193916666Y-54547619D01*
X193869047Y-54500000D01*
X193773809Y-54452380D01*
X193107142Y-54452380D02*
X192440476Y-54452380D01*
X192869047Y-55452380D01*
G04 #@! TO.C,RN508*
X109142857Y-83202380D02*
X109476190Y-82726190D01*
X109714285Y-83202380D02*
X109714285Y-82202380D01*
X109333333Y-82202380D01*
X109238095Y-82250000D01*
X109190476Y-82297619D01*
X109142857Y-82392857D01*
X109142857Y-82535714D01*
X109190476Y-82630952D01*
X109238095Y-82678571D01*
X109333333Y-82726190D01*
X109714285Y-82726190D01*
X108714285Y-83202380D02*
X108714285Y-82202380D01*
X108142857Y-83202380D01*
X108142857Y-82202380D01*
X107190476Y-82202380D02*
X107666666Y-82202380D01*
X107714285Y-82678571D01*
X107666666Y-82630952D01*
X107571428Y-82583333D01*
X107333333Y-82583333D01*
X107238095Y-82630952D01*
X107190476Y-82678571D01*
X107142857Y-82773809D01*
X107142857Y-83011904D01*
X107190476Y-83107142D01*
X107238095Y-83154761D01*
X107333333Y-83202380D01*
X107571428Y-83202380D01*
X107666666Y-83154761D01*
X107714285Y-83107142D01*
X106523809Y-82202380D02*
X106428571Y-82202380D01*
X106333333Y-82250000D01*
X106285714Y-82297619D01*
X106238095Y-82392857D01*
X106190476Y-82583333D01*
X106190476Y-82821428D01*
X106238095Y-83011904D01*
X106285714Y-83107142D01*
X106333333Y-83154761D01*
X106428571Y-83202380D01*
X106523809Y-83202380D01*
X106619047Y-83154761D01*
X106666666Y-83107142D01*
X106714285Y-83011904D01*
X106761904Y-82821428D01*
X106761904Y-82583333D01*
X106714285Y-82392857D01*
X106666666Y-82297619D01*
X106619047Y-82250000D01*
X106523809Y-82202380D01*
X105619047Y-82630952D02*
X105714285Y-82583333D01*
X105761904Y-82535714D01*
X105809523Y-82440476D01*
X105809523Y-82392857D01*
X105761904Y-82297619D01*
X105714285Y-82250000D01*
X105619047Y-82202380D01*
X105428571Y-82202380D01*
X105333333Y-82250000D01*
X105285714Y-82297619D01*
X105238095Y-82392857D01*
X105238095Y-82440476D01*
X105285714Y-82535714D01*
X105333333Y-82583333D01*
X105428571Y-82630952D01*
X105619047Y-82630952D01*
X105714285Y-82678571D01*
X105761904Y-82726190D01*
X105809523Y-82821428D01*
X105809523Y-83011904D01*
X105761904Y-83107142D01*
X105714285Y-83154761D01*
X105619047Y-83202380D01*
X105428571Y-83202380D01*
X105333333Y-83154761D01*
X105285714Y-83107142D01*
X105238095Y-83011904D01*
X105238095Y-82821428D01*
X105285714Y-82726190D01*
X105333333Y-82678571D01*
X105428571Y-82630952D01*
G04 #@! TO.C,C307*
X216619047Y-72357142D02*
X216666666Y-72404761D01*
X216809523Y-72452380D01*
X216904761Y-72452380D01*
X217047619Y-72404761D01*
X217142857Y-72309523D01*
X217190476Y-72214285D01*
X217238095Y-72023809D01*
X217238095Y-71880952D01*
X217190476Y-71690476D01*
X217142857Y-71595238D01*
X217047619Y-71500000D01*
X216904761Y-71452380D01*
X216809523Y-71452380D01*
X216666666Y-71500000D01*
X216619047Y-71547619D01*
X216285714Y-71452380D02*
X215666666Y-71452380D01*
X216000000Y-71833333D01*
X215857142Y-71833333D01*
X215761904Y-71880952D01*
X215714285Y-71928571D01*
X215666666Y-72023809D01*
X215666666Y-72261904D01*
X215714285Y-72357142D01*
X215761904Y-72404761D01*
X215857142Y-72452380D01*
X216142857Y-72452380D01*
X216238095Y-72404761D01*
X216285714Y-72357142D01*
X215047619Y-71452380D02*
X214952380Y-71452380D01*
X214857142Y-71500000D01*
X214809523Y-71547619D01*
X214761904Y-71642857D01*
X214714285Y-71833333D01*
X214714285Y-72071428D01*
X214761904Y-72261904D01*
X214809523Y-72357142D01*
X214857142Y-72404761D01*
X214952380Y-72452380D01*
X215047619Y-72452380D01*
X215142857Y-72404761D01*
X215190476Y-72357142D01*
X215238095Y-72261904D01*
X215285714Y-72071428D01*
X215285714Y-71833333D01*
X215238095Y-71642857D01*
X215190476Y-71547619D01*
X215142857Y-71500000D01*
X215047619Y-71452380D01*
X214380952Y-71452380D02*
X213714285Y-71452380D01*
X214142857Y-72452380D01*
G04 #@! TO.C,C308*
X210619047Y-69857142D02*
X210666666Y-69904761D01*
X210809523Y-69952380D01*
X210904761Y-69952380D01*
X211047619Y-69904761D01*
X211142857Y-69809523D01*
X211190476Y-69714285D01*
X211238095Y-69523809D01*
X211238095Y-69380952D01*
X211190476Y-69190476D01*
X211142857Y-69095238D01*
X211047619Y-69000000D01*
X210904761Y-68952380D01*
X210809523Y-68952380D01*
X210666666Y-69000000D01*
X210619047Y-69047619D01*
X210285714Y-68952380D02*
X209666666Y-68952380D01*
X210000000Y-69333333D01*
X209857142Y-69333333D01*
X209761904Y-69380952D01*
X209714285Y-69428571D01*
X209666666Y-69523809D01*
X209666666Y-69761904D01*
X209714285Y-69857142D01*
X209761904Y-69904761D01*
X209857142Y-69952380D01*
X210142857Y-69952380D01*
X210238095Y-69904761D01*
X210285714Y-69857142D01*
X209047619Y-68952380D02*
X208952380Y-68952380D01*
X208857142Y-69000000D01*
X208809523Y-69047619D01*
X208761904Y-69142857D01*
X208714285Y-69333333D01*
X208714285Y-69571428D01*
X208761904Y-69761904D01*
X208809523Y-69857142D01*
X208857142Y-69904761D01*
X208952380Y-69952380D01*
X209047619Y-69952380D01*
X209142857Y-69904761D01*
X209190476Y-69857142D01*
X209238095Y-69761904D01*
X209285714Y-69571428D01*
X209285714Y-69333333D01*
X209238095Y-69142857D01*
X209190476Y-69047619D01*
X209142857Y-69000000D01*
X209047619Y-68952380D01*
X208142857Y-69380952D02*
X208238095Y-69333333D01*
X208285714Y-69285714D01*
X208333333Y-69190476D01*
X208333333Y-69142857D01*
X208285714Y-69047619D01*
X208238095Y-69000000D01*
X208142857Y-68952380D01*
X207952380Y-68952380D01*
X207857142Y-69000000D01*
X207809523Y-69047619D01*
X207761904Y-69142857D01*
X207761904Y-69190476D01*
X207809523Y-69285714D01*
X207857142Y-69333333D01*
X207952380Y-69380952D01*
X208142857Y-69380952D01*
X208238095Y-69428571D01*
X208285714Y-69476190D01*
X208333333Y-69571428D01*
X208333333Y-69761904D01*
X208285714Y-69857142D01*
X208238095Y-69904761D01*
X208142857Y-69952380D01*
X207952380Y-69952380D01*
X207857142Y-69904761D01*
X207809523Y-69857142D01*
X207761904Y-69761904D01*
X207761904Y-69571428D01*
X207809523Y-69476190D01*
X207857142Y-69428571D01*
X207952380Y-69380952D01*
G04 #@! TO.C,C309*
X230619047Y-64607142D02*
X230666666Y-64654761D01*
X230809523Y-64702380D01*
X230904761Y-64702380D01*
X231047619Y-64654761D01*
X231142857Y-64559523D01*
X231190476Y-64464285D01*
X231238095Y-64273809D01*
X231238095Y-64130952D01*
X231190476Y-63940476D01*
X231142857Y-63845238D01*
X231047619Y-63750000D01*
X230904761Y-63702380D01*
X230809523Y-63702380D01*
X230666666Y-63750000D01*
X230619047Y-63797619D01*
X230285714Y-63702380D02*
X229666666Y-63702380D01*
X230000000Y-64083333D01*
X229857142Y-64083333D01*
X229761904Y-64130952D01*
X229714285Y-64178571D01*
X229666666Y-64273809D01*
X229666666Y-64511904D01*
X229714285Y-64607142D01*
X229761904Y-64654761D01*
X229857142Y-64702380D01*
X230142857Y-64702380D01*
X230238095Y-64654761D01*
X230285714Y-64607142D01*
X229047619Y-63702380D02*
X228952380Y-63702380D01*
X228857142Y-63750000D01*
X228809523Y-63797619D01*
X228761904Y-63892857D01*
X228714285Y-64083333D01*
X228714285Y-64321428D01*
X228761904Y-64511904D01*
X228809523Y-64607142D01*
X228857142Y-64654761D01*
X228952380Y-64702380D01*
X229047619Y-64702380D01*
X229142857Y-64654761D01*
X229190476Y-64607142D01*
X229238095Y-64511904D01*
X229285714Y-64321428D01*
X229285714Y-64083333D01*
X229238095Y-63892857D01*
X229190476Y-63797619D01*
X229142857Y-63750000D01*
X229047619Y-63702380D01*
X228238095Y-64702380D02*
X228047619Y-64702380D01*
X227952380Y-64654761D01*
X227904761Y-64607142D01*
X227809523Y-64464285D01*
X227761904Y-64273809D01*
X227761904Y-63892857D01*
X227809523Y-63797619D01*
X227857142Y-63750000D01*
X227952380Y-63702380D01*
X228142857Y-63702380D01*
X228238095Y-63750000D01*
X228285714Y-63797619D01*
X228333333Y-63892857D01*
X228333333Y-64130952D01*
X228285714Y-64226190D01*
X228238095Y-64273809D01*
X228142857Y-64321428D01*
X227952380Y-64321428D01*
X227857142Y-64273809D01*
X227809523Y-64226190D01*
X227761904Y-64130952D01*
G04 #@! TO.C,D302*
X224690476Y-63552380D02*
X224690476Y-62552380D01*
X224452380Y-62552380D01*
X224309523Y-62600000D01*
X224214285Y-62695238D01*
X224166666Y-62790476D01*
X224119047Y-62980952D01*
X224119047Y-63123809D01*
X224166666Y-63314285D01*
X224214285Y-63409523D01*
X224309523Y-63504761D01*
X224452380Y-63552380D01*
X224690476Y-63552380D01*
X223785714Y-62552380D02*
X223166666Y-62552380D01*
X223500000Y-62933333D01*
X223357142Y-62933333D01*
X223261904Y-62980952D01*
X223214285Y-63028571D01*
X223166666Y-63123809D01*
X223166666Y-63361904D01*
X223214285Y-63457142D01*
X223261904Y-63504761D01*
X223357142Y-63552380D01*
X223642857Y-63552380D01*
X223738095Y-63504761D01*
X223785714Y-63457142D01*
X222547619Y-62552380D02*
X222452380Y-62552380D01*
X222357142Y-62600000D01*
X222309523Y-62647619D01*
X222261904Y-62742857D01*
X222214285Y-62933333D01*
X222214285Y-63171428D01*
X222261904Y-63361904D01*
X222309523Y-63457142D01*
X222357142Y-63504761D01*
X222452380Y-63552380D01*
X222547619Y-63552380D01*
X222642857Y-63504761D01*
X222690476Y-63457142D01*
X222738095Y-63361904D01*
X222785714Y-63171428D01*
X222785714Y-62933333D01*
X222738095Y-62742857D01*
X222690476Y-62647619D01*
X222642857Y-62600000D01*
X222547619Y-62552380D01*
X221833333Y-62647619D02*
X221785714Y-62600000D01*
X221690476Y-62552380D01*
X221452380Y-62552380D01*
X221357142Y-62600000D01*
X221309523Y-62647619D01*
X221261904Y-62742857D01*
X221261904Y-62838095D01*
X221309523Y-62980952D01*
X221880952Y-63552380D01*
X221261904Y-63552380D01*
G04 #@! TO.C,L302*
X217119047Y-65702380D02*
X217595238Y-65702380D01*
X217595238Y-64702380D01*
X216880952Y-64702380D02*
X216261904Y-64702380D01*
X216595238Y-65083333D01*
X216452380Y-65083333D01*
X216357142Y-65130952D01*
X216309523Y-65178571D01*
X216261904Y-65273809D01*
X216261904Y-65511904D01*
X216309523Y-65607142D01*
X216357142Y-65654761D01*
X216452380Y-65702380D01*
X216738095Y-65702380D01*
X216833333Y-65654761D01*
X216880952Y-65607142D01*
X215642857Y-64702380D02*
X215547619Y-64702380D01*
X215452380Y-64750000D01*
X215404761Y-64797619D01*
X215357142Y-64892857D01*
X215309523Y-65083333D01*
X215309523Y-65321428D01*
X215357142Y-65511904D01*
X215404761Y-65607142D01*
X215452380Y-65654761D01*
X215547619Y-65702380D01*
X215642857Y-65702380D01*
X215738095Y-65654761D01*
X215785714Y-65607142D01*
X215833333Y-65511904D01*
X215880952Y-65321428D01*
X215880952Y-65083333D01*
X215833333Y-64892857D01*
X215785714Y-64797619D01*
X215738095Y-64750000D01*
X215642857Y-64702380D01*
X214928571Y-64797619D02*
X214880952Y-64750000D01*
X214785714Y-64702380D01*
X214547619Y-64702380D01*
X214452380Y-64750000D01*
X214404761Y-64797619D01*
X214357142Y-64892857D01*
X214357142Y-64988095D01*
X214404761Y-65130952D01*
X214976190Y-65702380D01*
X214357142Y-65702380D01*
G04 #@! TO.C,R301*
X222069047Y-83902380D02*
X222402380Y-83426190D01*
X222640476Y-83902380D02*
X222640476Y-82902380D01*
X222259523Y-82902380D01*
X222164285Y-82950000D01*
X222116666Y-82997619D01*
X222069047Y-83092857D01*
X222069047Y-83235714D01*
X222116666Y-83330952D01*
X222164285Y-83378571D01*
X222259523Y-83426190D01*
X222640476Y-83426190D01*
X221735714Y-82902380D02*
X221116666Y-82902380D01*
X221450000Y-83283333D01*
X221307142Y-83283333D01*
X221211904Y-83330952D01*
X221164285Y-83378571D01*
X221116666Y-83473809D01*
X221116666Y-83711904D01*
X221164285Y-83807142D01*
X221211904Y-83854761D01*
X221307142Y-83902380D01*
X221592857Y-83902380D01*
X221688095Y-83854761D01*
X221735714Y-83807142D01*
X220497619Y-82902380D02*
X220402380Y-82902380D01*
X220307142Y-82950000D01*
X220259523Y-82997619D01*
X220211904Y-83092857D01*
X220164285Y-83283333D01*
X220164285Y-83521428D01*
X220211904Y-83711904D01*
X220259523Y-83807142D01*
X220307142Y-83854761D01*
X220402380Y-83902380D01*
X220497619Y-83902380D01*
X220592857Y-83854761D01*
X220640476Y-83807142D01*
X220688095Y-83711904D01*
X220735714Y-83521428D01*
X220735714Y-83283333D01*
X220688095Y-83092857D01*
X220640476Y-82997619D01*
X220592857Y-82950000D01*
X220497619Y-82902380D01*
X219211904Y-83902380D02*
X219783333Y-83902380D01*
X219497619Y-83902380D02*
X219497619Y-82902380D01*
X219592857Y-83045238D01*
X219688095Y-83140476D01*
X219783333Y-83188095D01*
G04 #@! TO.C,R302*
X230869047Y-32952380D02*
X231202380Y-32476190D01*
X231440476Y-32952380D02*
X231440476Y-31952380D01*
X231059523Y-31952380D01*
X230964285Y-32000000D01*
X230916666Y-32047619D01*
X230869047Y-32142857D01*
X230869047Y-32285714D01*
X230916666Y-32380952D01*
X230964285Y-32428571D01*
X231059523Y-32476190D01*
X231440476Y-32476190D01*
X230535714Y-31952380D02*
X229916666Y-31952380D01*
X230250000Y-32333333D01*
X230107142Y-32333333D01*
X230011904Y-32380952D01*
X229964285Y-32428571D01*
X229916666Y-32523809D01*
X229916666Y-32761904D01*
X229964285Y-32857142D01*
X230011904Y-32904761D01*
X230107142Y-32952380D01*
X230392857Y-32952380D01*
X230488095Y-32904761D01*
X230535714Y-32857142D01*
X229297619Y-31952380D02*
X229202380Y-31952380D01*
X229107142Y-32000000D01*
X229059523Y-32047619D01*
X229011904Y-32142857D01*
X228964285Y-32333333D01*
X228964285Y-32571428D01*
X229011904Y-32761904D01*
X229059523Y-32857142D01*
X229107142Y-32904761D01*
X229202380Y-32952380D01*
X229297619Y-32952380D01*
X229392857Y-32904761D01*
X229440476Y-32857142D01*
X229488095Y-32761904D01*
X229535714Y-32571428D01*
X229535714Y-32333333D01*
X229488095Y-32142857D01*
X229440476Y-32047619D01*
X229392857Y-32000000D01*
X229297619Y-31952380D01*
X228583333Y-32047619D02*
X228535714Y-32000000D01*
X228440476Y-31952380D01*
X228202380Y-31952380D01*
X228107142Y-32000000D01*
X228059523Y-32047619D01*
X228011904Y-32142857D01*
X228011904Y-32238095D01*
X228059523Y-32380952D01*
X228630952Y-32952380D01*
X228011904Y-32952380D01*
G04 #@! TO.C,R303*
X207369047Y-67452380D02*
X207702380Y-66976190D01*
X207940476Y-67452380D02*
X207940476Y-66452380D01*
X207559523Y-66452380D01*
X207464285Y-66500000D01*
X207416666Y-66547619D01*
X207369047Y-66642857D01*
X207369047Y-66785714D01*
X207416666Y-66880952D01*
X207464285Y-66928571D01*
X207559523Y-66976190D01*
X207940476Y-66976190D01*
X207035714Y-66452380D02*
X206416666Y-66452380D01*
X206750000Y-66833333D01*
X206607142Y-66833333D01*
X206511904Y-66880952D01*
X206464285Y-66928571D01*
X206416666Y-67023809D01*
X206416666Y-67261904D01*
X206464285Y-67357142D01*
X206511904Y-67404761D01*
X206607142Y-67452380D01*
X206892857Y-67452380D01*
X206988095Y-67404761D01*
X207035714Y-67357142D01*
X205797619Y-66452380D02*
X205702380Y-66452380D01*
X205607142Y-66500000D01*
X205559523Y-66547619D01*
X205511904Y-66642857D01*
X205464285Y-66833333D01*
X205464285Y-67071428D01*
X205511904Y-67261904D01*
X205559523Y-67357142D01*
X205607142Y-67404761D01*
X205702380Y-67452380D01*
X205797619Y-67452380D01*
X205892857Y-67404761D01*
X205940476Y-67357142D01*
X205988095Y-67261904D01*
X206035714Y-67071428D01*
X206035714Y-66833333D01*
X205988095Y-66642857D01*
X205940476Y-66547619D01*
X205892857Y-66500000D01*
X205797619Y-66452380D01*
X205130952Y-66452380D02*
X204511904Y-66452380D01*
X204845238Y-66833333D01*
X204702380Y-66833333D01*
X204607142Y-66880952D01*
X204559523Y-66928571D01*
X204511904Y-67023809D01*
X204511904Y-67261904D01*
X204559523Y-67357142D01*
X204607142Y-67404761D01*
X204702380Y-67452380D01*
X204988095Y-67452380D01*
X205083333Y-67404761D01*
X205130952Y-67357142D01*
G04 #@! TO.C,C507*
X230869047Y-35607142D02*
X230916666Y-35654761D01*
X231059523Y-35702380D01*
X231154761Y-35702380D01*
X231297619Y-35654761D01*
X231392857Y-35559523D01*
X231440476Y-35464285D01*
X231488095Y-35273809D01*
X231488095Y-35130952D01*
X231440476Y-34940476D01*
X231392857Y-34845238D01*
X231297619Y-34750000D01*
X231154761Y-34702380D01*
X231059523Y-34702380D01*
X230916666Y-34750000D01*
X230869047Y-34797619D01*
X229964285Y-34702380D02*
X230440476Y-34702380D01*
X230488095Y-35178571D01*
X230440476Y-35130952D01*
X230345238Y-35083333D01*
X230107142Y-35083333D01*
X230011904Y-35130952D01*
X229964285Y-35178571D01*
X229916666Y-35273809D01*
X229916666Y-35511904D01*
X229964285Y-35607142D01*
X230011904Y-35654761D01*
X230107142Y-35702380D01*
X230345238Y-35702380D01*
X230440476Y-35654761D01*
X230488095Y-35607142D01*
X229297619Y-34702380D02*
X229202380Y-34702380D01*
X229107142Y-34750000D01*
X229059523Y-34797619D01*
X229011904Y-34892857D01*
X228964285Y-35083333D01*
X228964285Y-35321428D01*
X229011904Y-35511904D01*
X229059523Y-35607142D01*
X229107142Y-35654761D01*
X229202380Y-35702380D01*
X229297619Y-35702380D01*
X229392857Y-35654761D01*
X229440476Y-35607142D01*
X229488095Y-35511904D01*
X229535714Y-35321428D01*
X229535714Y-35083333D01*
X229488095Y-34892857D01*
X229440476Y-34797619D01*
X229392857Y-34750000D01*
X229297619Y-34702380D01*
X228630952Y-34702380D02*
X227964285Y-34702380D01*
X228392857Y-35702380D01*
G04 #@! TO.C,C401*
X199569047Y-73847142D02*
X199616666Y-73894761D01*
X199759523Y-73942380D01*
X199854761Y-73942380D01*
X199997619Y-73894761D01*
X200092857Y-73799523D01*
X200140476Y-73704285D01*
X200188095Y-73513809D01*
X200188095Y-73370952D01*
X200140476Y-73180476D01*
X200092857Y-73085238D01*
X199997619Y-72990000D01*
X199854761Y-72942380D01*
X199759523Y-72942380D01*
X199616666Y-72990000D01*
X199569047Y-73037619D01*
X198711904Y-73275714D02*
X198711904Y-73942380D01*
X198950000Y-72894761D02*
X199188095Y-73609047D01*
X198569047Y-73609047D01*
X197997619Y-72942380D02*
X197902380Y-72942380D01*
X197807142Y-72990000D01*
X197759523Y-73037619D01*
X197711904Y-73132857D01*
X197664285Y-73323333D01*
X197664285Y-73561428D01*
X197711904Y-73751904D01*
X197759523Y-73847142D01*
X197807142Y-73894761D01*
X197902380Y-73942380D01*
X197997619Y-73942380D01*
X198092857Y-73894761D01*
X198140476Y-73847142D01*
X198188095Y-73751904D01*
X198235714Y-73561428D01*
X198235714Y-73323333D01*
X198188095Y-73132857D01*
X198140476Y-73037619D01*
X198092857Y-72990000D01*
X197997619Y-72942380D01*
X196711904Y-73942380D02*
X197283333Y-73942380D01*
X196997619Y-73942380D02*
X196997619Y-72942380D01*
X197092857Y-73085238D01*
X197188095Y-73180476D01*
X197283333Y-73228095D01*
G04 #@! TO.C,C402*
X184769047Y-72557142D02*
X184816666Y-72604761D01*
X184959523Y-72652380D01*
X185054761Y-72652380D01*
X185197619Y-72604761D01*
X185292857Y-72509523D01*
X185340476Y-72414285D01*
X185388095Y-72223809D01*
X185388095Y-72080952D01*
X185340476Y-71890476D01*
X185292857Y-71795238D01*
X185197619Y-71700000D01*
X185054761Y-71652380D01*
X184959523Y-71652380D01*
X184816666Y-71700000D01*
X184769047Y-71747619D01*
X183911904Y-71985714D02*
X183911904Y-72652380D01*
X184150000Y-71604761D02*
X184388095Y-72319047D01*
X183769047Y-72319047D01*
X183197619Y-71652380D02*
X183102380Y-71652380D01*
X183007142Y-71700000D01*
X182959523Y-71747619D01*
X182911904Y-71842857D01*
X182864285Y-72033333D01*
X182864285Y-72271428D01*
X182911904Y-72461904D01*
X182959523Y-72557142D01*
X183007142Y-72604761D01*
X183102380Y-72652380D01*
X183197619Y-72652380D01*
X183292857Y-72604761D01*
X183340476Y-72557142D01*
X183388095Y-72461904D01*
X183435714Y-72271428D01*
X183435714Y-72033333D01*
X183388095Y-71842857D01*
X183340476Y-71747619D01*
X183292857Y-71700000D01*
X183197619Y-71652380D01*
X182483333Y-71747619D02*
X182435714Y-71700000D01*
X182340476Y-71652380D01*
X182102380Y-71652380D01*
X182007142Y-71700000D01*
X181959523Y-71747619D01*
X181911904Y-71842857D01*
X181911904Y-71938095D01*
X181959523Y-72080952D01*
X182530952Y-72652380D01*
X181911904Y-72652380D01*
G04 #@! TO.C,U301*
X229464285Y-69702380D02*
X229464285Y-70511904D01*
X229416666Y-70607142D01*
X229369047Y-70654761D01*
X229273809Y-70702380D01*
X229083333Y-70702380D01*
X228988095Y-70654761D01*
X228940476Y-70607142D01*
X228892857Y-70511904D01*
X228892857Y-69702380D01*
X228511904Y-69702380D02*
X227892857Y-69702380D01*
X228226190Y-70083333D01*
X228083333Y-70083333D01*
X227988095Y-70130952D01*
X227940476Y-70178571D01*
X227892857Y-70273809D01*
X227892857Y-70511904D01*
X227940476Y-70607142D01*
X227988095Y-70654761D01*
X228083333Y-70702380D01*
X228369047Y-70702380D01*
X228464285Y-70654761D01*
X228511904Y-70607142D01*
X227273809Y-69702380D02*
X227178571Y-69702380D01*
X227083333Y-69750000D01*
X227035714Y-69797619D01*
X226988095Y-69892857D01*
X226940476Y-70083333D01*
X226940476Y-70321428D01*
X226988095Y-70511904D01*
X227035714Y-70607142D01*
X227083333Y-70654761D01*
X227178571Y-70702380D01*
X227273809Y-70702380D01*
X227369047Y-70654761D01*
X227416666Y-70607142D01*
X227464285Y-70511904D01*
X227511904Y-70321428D01*
X227511904Y-70083333D01*
X227464285Y-69892857D01*
X227416666Y-69797619D01*
X227369047Y-69750000D01*
X227273809Y-69702380D01*
X225988095Y-70702380D02*
X226559523Y-70702380D01*
X226273809Y-70702380D02*
X226273809Y-69702380D01*
X226369047Y-69845238D01*
X226464285Y-69940476D01*
X226559523Y-69988095D01*
G04 #@! TO.C,U304*
X216714285Y-83202380D02*
X216714285Y-84011904D01*
X216666666Y-84107142D01*
X216619047Y-84154761D01*
X216523809Y-84202380D01*
X216333333Y-84202380D01*
X216238095Y-84154761D01*
X216190476Y-84107142D01*
X216142857Y-84011904D01*
X216142857Y-83202380D01*
X215761904Y-83202380D02*
X215142857Y-83202380D01*
X215476190Y-83583333D01*
X215333333Y-83583333D01*
X215238095Y-83630952D01*
X215190476Y-83678571D01*
X215142857Y-83773809D01*
X215142857Y-84011904D01*
X215190476Y-84107142D01*
X215238095Y-84154761D01*
X215333333Y-84202380D01*
X215619047Y-84202380D01*
X215714285Y-84154761D01*
X215761904Y-84107142D01*
X214523809Y-83202380D02*
X214428571Y-83202380D01*
X214333333Y-83250000D01*
X214285714Y-83297619D01*
X214238095Y-83392857D01*
X214190476Y-83583333D01*
X214190476Y-83821428D01*
X214238095Y-84011904D01*
X214285714Y-84107142D01*
X214333333Y-84154761D01*
X214428571Y-84202380D01*
X214523809Y-84202380D01*
X214619047Y-84154761D01*
X214666666Y-84107142D01*
X214714285Y-84011904D01*
X214761904Y-83821428D01*
X214761904Y-83583333D01*
X214714285Y-83392857D01*
X214666666Y-83297619D01*
X214619047Y-83250000D01*
X214523809Y-83202380D01*
X213333333Y-83535714D02*
X213333333Y-84202380D01*
X213571428Y-83154761D02*
X213809523Y-83869047D01*
X213190476Y-83869047D01*
G04 #@! TO.C,R403*
X205619047Y-79802380D02*
X205952380Y-79326190D01*
X206190476Y-79802380D02*
X206190476Y-78802380D01*
X205809523Y-78802380D01*
X205714285Y-78850000D01*
X205666666Y-78897619D01*
X205619047Y-78992857D01*
X205619047Y-79135714D01*
X205666666Y-79230952D01*
X205714285Y-79278571D01*
X205809523Y-79326190D01*
X206190476Y-79326190D01*
X204761904Y-79135714D02*
X204761904Y-79802380D01*
X205000000Y-78754761D02*
X205238095Y-79469047D01*
X204619047Y-79469047D01*
X204047619Y-78802380D02*
X203952380Y-78802380D01*
X203857142Y-78850000D01*
X203809523Y-78897619D01*
X203761904Y-78992857D01*
X203714285Y-79183333D01*
X203714285Y-79421428D01*
X203761904Y-79611904D01*
X203809523Y-79707142D01*
X203857142Y-79754761D01*
X203952380Y-79802380D01*
X204047619Y-79802380D01*
X204142857Y-79754761D01*
X204190476Y-79707142D01*
X204238095Y-79611904D01*
X204285714Y-79421428D01*
X204285714Y-79183333D01*
X204238095Y-78992857D01*
X204190476Y-78897619D01*
X204142857Y-78850000D01*
X204047619Y-78802380D01*
X203380952Y-78802380D02*
X202761904Y-78802380D01*
X203095238Y-79183333D01*
X202952380Y-79183333D01*
X202857142Y-79230952D01*
X202809523Y-79278571D01*
X202761904Y-79373809D01*
X202761904Y-79611904D01*
X202809523Y-79707142D01*
X202857142Y-79754761D01*
X202952380Y-79802380D01*
X203238095Y-79802380D01*
X203333333Y-79754761D01*
X203380952Y-79707142D01*
G04 #@! TD*
M02*
