G04 #@! TF.GenerationSoftware,KiCad,Pcbnew,(5.0.2)-1*
G04 #@! TF.CreationDate,2019-03-20T17:04:55-04:00*
G04 #@! TF.ProjectId,FSAE Main Panel,46534145-204d-4616-996e-2050616e656c,rev?*
G04 #@! TF.SameCoordinates,Original*
G04 #@! TF.FileFunction,Paste,Bot*
G04 #@! TF.FilePolarity,Positive*
%FSLAX46Y46*%
G04 Gerber Fmt 4.6, Leading zero omitted, Abs format (unit mm)*
G04 Created by KiCad (PCBNEW (5.0.2)-1) date 3/20/2019 5:04:55 PM*
%MOMM*%
%LPD*%
G01*
G04 APERTURE LIST*
%ADD10C,2.000000*%
%ADD11R,3.580000X1.910000*%
%ADD12R,1.100000X2.160000*%
%ADD13R,2.000000X0.630000*%
%ADD14R,0.900000X0.800000*%
%ADD15R,2.000000X0.600000*%
%ADD16R,1.500000X0.600000*%
%ADD17R,1.600000X1.000000*%
%ADD18R,2.540000X3.000000*%
%ADD19R,0.400000X1.350000*%
%ADD20R,2.100000X1.600000*%
%ADD21R,1.800000X1.900000*%
%ADD22R,2.340000X3.040000*%
%ADD23R,1.600000X0.300000*%
%ADD24R,1.900000X0.400000*%
%ADD25R,1.000000X1.600000*%
%ADD26R,1.000000X1.250000*%
%ADD27R,2.550000X2.700000*%
%ADD28R,1.400000X1.000000*%
%ADD29R,1.400000X1.200000*%
%ADD30R,1.800000X2.500000*%
%ADD31R,3.200000X1.500000*%
%ADD32R,3.600000X2.680000*%
%ADD33R,2.000000X0.610000*%
%ADD34R,1.250000X1.700000*%
%ADD35R,0.900000X2.500000*%
%ADD36R,0.800000X0.900000*%
%ADD37R,0.900000X1.700000*%
%ADD38R,0.250000X1.300000*%
%ADD39R,1.300000X0.250000*%
%ADD40R,1.060000X0.650000*%
%ADD41R,1.550000X0.600000*%
%ADD42R,1.500000X0.450000*%
%ADD43R,0.630000X2.000000*%
%ADD44R,2.500000X1.800000*%
%ADD45R,2.500000X0.900000*%
%ADD46R,1.700000X0.900000*%
%ADD47R,1.500000X2.000000*%
%ADD48R,3.800000X2.000000*%
%ADD49R,0.700000X1.300000*%
G04 APERTURE END LIST*
D10*
X96500000Y-38000000D02*
G75*
G03X96500000Y-38000000I-1000000J0D01*
G01*
X88500000Y-68000000D02*
G75*
G03X88500000Y-68000000I-1000000J0D01*
G01*
X238500000Y-68000000D02*
G75*
G03X238500000Y-68000000I-1000000J0D01*
G01*
X230500000Y-38000000D02*
G75*
G03X230500000Y-38000000I-1000000J0D01*
G01*
D11*
G04 #@! TO.C,U303*
X228800000Y-47800000D03*
X236000000Y-47800000D03*
X232400000Y-47800000D03*
D12*
X234940000Y-61145000D03*
X232400000Y-61145000D03*
X229860000Y-61145000D03*
G04 #@! TD*
D13*
G04 #@! TO.C,RN509*
X174624000Y-69800000D03*
X174624000Y-68530000D03*
X174624000Y-67260000D03*
X174624000Y-65990000D03*
X174624000Y-64710000D03*
X174624000Y-63440000D03*
X174624000Y-62170000D03*
X174624000Y-60900000D03*
X181524000Y-60900000D03*
X181524000Y-62170000D03*
X181524000Y-63440000D03*
X181524000Y-64710000D03*
X181524000Y-65990000D03*
X181524000Y-67260000D03*
X181524000Y-68530000D03*
X181524000Y-69800000D03*
G04 #@! TD*
D14*
G04 #@! TO.C,Q501*
X119600000Y-82600000D03*
X119600000Y-84500000D03*
X117600000Y-83550000D03*
G04 #@! TD*
G04 #@! TO.C,Q502*
X171090000Y-58850000D03*
X169090000Y-57900000D03*
X169090000Y-59800000D03*
G04 #@! TD*
D15*
G04 #@! TO.C,U401*
X191500000Y-76438511D03*
X191500000Y-77708511D03*
X191500000Y-78978511D03*
X191500000Y-80248511D03*
X191500000Y-81518511D03*
X191500000Y-82788511D03*
X191500000Y-84058511D03*
X191500000Y-85328511D03*
X191500000Y-86598511D03*
X182100000Y-86598511D03*
X182100000Y-85328511D03*
X182100000Y-84058511D03*
X182100000Y-82788511D03*
X182100000Y-81518511D03*
X182100000Y-80248511D03*
X182100000Y-78978511D03*
X182100000Y-77708511D03*
X182100000Y-76438511D03*
G04 #@! TD*
D16*
G04 #@! TO.C,RN501*
X160470000Y-60505000D03*
X160470000Y-61775000D03*
X160470000Y-63045000D03*
X160470000Y-64315000D03*
X160470000Y-65585000D03*
X160470000Y-66855000D03*
X160470000Y-68125000D03*
X160470000Y-69395000D03*
X165870000Y-69395000D03*
X165870000Y-68125000D03*
X165870000Y-66855000D03*
X165870000Y-65585000D03*
X165870000Y-64315000D03*
X165870000Y-63045000D03*
X165870000Y-61775000D03*
X165870000Y-60505000D03*
G04 #@! TD*
D17*
G04 #@! TO.C,Y101*
X148050000Y-71350000D03*
X148050000Y-68750000D03*
D18*
X153050000Y-70050000D03*
G04 #@! TD*
D19*
G04 #@! TO.C,J201*
X175350000Y-83925000D03*
X174700000Y-83925000D03*
X174050000Y-83925000D03*
X173400000Y-83925000D03*
X172750000Y-83925000D03*
D20*
X170950000Y-84050000D03*
X177150000Y-84050000D03*
D21*
X177850000Y-86600000D03*
X175200000Y-86600000D03*
X170250000Y-86600000D03*
X172900000Y-86600000D03*
G04 #@! TD*
D22*
G04 #@! TO.C,U503*
X200300000Y-63400000D03*
D23*
X203100000Y-67625000D03*
X203100000Y-66975000D03*
X203100000Y-66325000D03*
X203100000Y-65675000D03*
X203100000Y-65025000D03*
X203100000Y-64375000D03*
X203100000Y-63725000D03*
X203100000Y-63075000D03*
X203100000Y-62425000D03*
X203100000Y-61775000D03*
X203100000Y-61125000D03*
X203100000Y-60475000D03*
X203100000Y-59825000D03*
X203100000Y-59175000D03*
X197500000Y-59175000D03*
X197500000Y-59825000D03*
X197500000Y-60475000D03*
X197500000Y-61125000D03*
X197500000Y-61775000D03*
X197500000Y-62425000D03*
X197500000Y-63075000D03*
X197500000Y-63725000D03*
X197500000Y-64375000D03*
X197500000Y-65025000D03*
X197500000Y-65675000D03*
X197500000Y-66325000D03*
X197500000Y-66975000D03*
X197500000Y-67625000D03*
G04 #@! TD*
D22*
G04 #@! TO.C,U504*
X162500000Y-48990000D03*
D23*
X165300000Y-53215000D03*
X165300000Y-52565000D03*
X165300000Y-51915000D03*
X165300000Y-51265000D03*
X165300000Y-50615000D03*
X165300000Y-49965000D03*
X165300000Y-49315000D03*
X165300000Y-48665000D03*
X165300000Y-48015000D03*
X165300000Y-47365000D03*
X165300000Y-46715000D03*
X165300000Y-46065000D03*
X165300000Y-45415000D03*
X165300000Y-44765000D03*
X159700000Y-44765000D03*
X159700000Y-45415000D03*
X159700000Y-46065000D03*
X159700000Y-46715000D03*
X159700000Y-47365000D03*
X159700000Y-48015000D03*
X159700000Y-48665000D03*
X159700000Y-49315000D03*
X159700000Y-49965000D03*
X159700000Y-50615000D03*
X159700000Y-51265000D03*
X159700000Y-51915000D03*
X159700000Y-52565000D03*
X159700000Y-53215000D03*
G04 #@! TD*
D24*
G04 #@! TO.C,Y401*
X196026517Y-84067399D03*
X196026517Y-85267399D03*
X196026517Y-86467399D03*
G04 #@! TD*
D22*
G04 #@! TO.C,U502*
X123600000Y-63500000D03*
D23*
X126400000Y-67725000D03*
X126400000Y-67075000D03*
X126400000Y-66425000D03*
X126400000Y-65775000D03*
X126400000Y-65125000D03*
X126400000Y-64475000D03*
X126400000Y-63825000D03*
X126400000Y-63175000D03*
X126400000Y-62525000D03*
X126400000Y-61875000D03*
X126400000Y-61225000D03*
X126400000Y-60575000D03*
X126400000Y-59925000D03*
X126400000Y-59275000D03*
X120800000Y-59275000D03*
X120800000Y-59925000D03*
X120800000Y-60575000D03*
X120800000Y-61225000D03*
X120800000Y-61875000D03*
X120800000Y-62525000D03*
X120800000Y-63175000D03*
X120800000Y-63825000D03*
X120800000Y-64475000D03*
X120800000Y-65125000D03*
X120800000Y-65775000D03*
X120800000Y-66425000D03*
X120800000Y-67075000D03*
X120800000Y-67725000D03*
G04 #@! TD*
D17*
G04 #@! TO.C,C101*
X149250000Y-77975000D03*
X149250000Y-74975000D03*
G04 #@! TD*
G04 #@! TO.C,C102*
X152000000Y-74975000D03*
X152000000Y-77975000D03*
G04 #@! TD*
D25*
G04 #@! TO.C,C103*
X140000000Y-83550000D03*
X143000000Y-83550000D03*
G04 #@! TD*
D26*
G04 #@! TO.C,C104*
X149250000Y-73150000D03*
X151250000Y-73150000D03*
G04 #@! TD*
G04 #@! TO.C,C105*
X144050000Y-68800000D03*
X146050000Y-68800000D03*
G04 #@! TD*
D25*
G04 #@! TO.C,C106*
X130650000Y-71600000D03*
X133650000Y-71600000D03*
G04 #@! TD*
G04 #@! TO.C,C107*
X141300000Y-65500000D03*
X138300000Y-65500000D03*
G04 #@! TD*
G04 #@! TO.C,C108*
X134800000Y-68000000D03*
X137800000Y-68000000D03*
G04 #@! TD*
D26*
G04 #@! TO.C,C201*
X102700000Y-67700000D03*
X104700000Y-67700000D03*
G04 #@! TD*
G04 #@! TO.C,C202*
X104600000Y-76550000D03*
X102600000Y-76550000D03*
G04 #@! TD*
D17*
G04 #@! TO.C,C203*
X169550000Y-81800000D03*
X169550000Y-78800000D03*
G04 #@! TD*
G04 #@! TO.C,C204*
X166200000Y-78800000D03*
X166200000Y-81800000D03*
G04 #@! TD*
D25*
G04 #@! TO.C,C301*
X222550000Y-78800000D03*
X225550000Y-78800000D03*
G04 #@! TD*
G04 #@! TO.C,C302*
X232900000Y-66700000D03*
X229900000Y-66700000D03*
G04 #@! TD*
G04 #@! TO.C,C303*
X219550000Y-76100000D03*
X222550000Y-76100000D03*
G04 #@! TD*
D17*
G04 #@! TO.C,C304*
X153950000Y-82650000D03*
X153950000Y-85650000D03*
G04 #@! TD*
D25*
G04 #@! TO.C,C305*
X143000000Y-86250000D03*
X140000000Y-86250000D03*
G04 #@! TD*
D27*
G04 #@! TO.C,C306*
X235375000Y-43200000D03*
X229025000Y-43200000D03*
G04 #@! TD*
D17*
G04 #@! TO.C,C501*
X158675000Y-77825000D03*
X158675000Y-80825000D03*
G04 #@! TD*
D25*
G04 #@! TO.C,C502*
X151600000Y-58125000D03*
X154600000Y-58125000D03*
G04 #@! TD*
D17*
G04 #@! TO.C,C503*
X155100000Y-75000000D03*
X155100000Y-78000000D03*
G04 #@! TD*
D25*
G04 #@! TO.C,C504*
X125000000Y-70300000D03*
X122000000Y-70300000D03*
G04 #@! TD*
G04 #@! TO.C,C505*
X195100000Y-70700000D03*
X198100000Y-70700000D03*
G04 #@! TD*
G04 #@! TO.C,C506*
X164250000Y-55500000D03*
X161250000Y-55500000D03*
G04 #@! TD*
D28*
G04 #@! TO.C,D201*
X173250000Y-79550000D03*
X173250000Y-81450000D03*
X175450000Y-81450000D03*
D29*
X175450000Y-79730000D03*
G04 #@! TD*
D30*
G04 #@! TO.C,D301*
X229250000Y-74550000D03*
X229250000Y-78550000D03*
G04 #@! TD*
D31*
G04 #@! TO.C,F201*
X162450000Y-83100000D03*
X162450000Y-78900000D03*
G04 #@! TD*
D32*
G04 #@! TO.C,J204*
X89500000Y-43510000D03*
X89500000Y-54490000D03*
D33*
X92300000Y-46500000D03*
X92300000Y-47500000D03*
X92300000Y-48500000D03*
X92300000Y-49500000D03*
X92300000Y-50500000D03*
X92300000Y-51500000D03*
G04 #@! TD*
D34*
G04 #@! TO.C,L101*
X155005000Y-80175000D03*
X150745000Y-80175000D03*
G04 #@! TD*
G04 #@! TO.C,L201*
X165070000Y-75750000D03*
X169330000Y-75750000D03*
G04 #@! TD*
D35*
G04 #@! TO.C,L301*
X229500000Y-82300000D03*
X226600000Y-82300000D03*
G04 #@! TD*
D36*
G04 #@! TO.C,Q301*
X157800000Y-83800000D03*
X156850000Y-85800000D03*
X158750000Y-85800000D03*
G04 #@! TD*
D37*
G04 #@! TO.C,R201*
X105250000Y-71050000D03*
X102350000Y-71050000D03*
G04 #@! TD*
G04 #@! TO.C,R202*
X96750000Y-71050000D03*
X99650000Y-71050000D03*
G04 #@! TD*
G04 #@! TO.C,R203*
X105200000Y-74050000D03*
X102300000Y-74050000D03*
G04 #@! TD*
G04 #@! TO.C,R204*
X96750000Y-74050000D03*
X99650000Y-74050000D03*
G04 #@! TD*
G04 #@! TO.C,R401*
X176300000Y-74750000D03*
X179200000Y-74750000D03*
G04 #@! TD*
G04 #@! TO.C,R402*
X201950000Y-86000000D03*
X199050000Y-86000000D03*
G04 #@! TD*
D38*
G04 #@! TO.C,U1*
X142600000Y-70750000D03*
X142100000Y-70750000D03*
X141600000Y-70750000D03*
X141100000Y-70750000D03*
X140600000Y-70750000D03*
X140100000Y-70750000D03*
X139600000Y-70750000D03*
X139100000Y-70750000D03*
X138600000Y-70750000D03*
X138100000Y-70750000D03*
X137600000Y-70750000D03*
X137100000Y-70750000D03*
D39*
X135500000Y-72350000D03*
X135500000Y-72850000D03*
X135500000Y-73350000D03*
X135500000Y-73850000D03*
X135500000Y-74350000D03*
X135500000Y-74850000D03*
X135500000Y-75350000D03*
X135500000Y-75850000D03*
X135500000Y-76350000D03*
X135500000Y-76850000D03*
X135500000Y-77350000D03*
X135500000Y-77850000D03*
D38*
X137100000Y-79450000D03*
X137600000Y-79450000D03*
X138100000Y-79450000D03*
X138600000Y-79450000D03*
X139100000Y-79450000D03*
X139600000Y-79450000D03*
X140100000Y-79450000D03*
X140600000Y-79450000D03*
X141100000Y-79450000D03*
X141600000Y-79450000D03*
X142100000Y-79450000D03*
X142600000Y-79450000D03*
D39*
X144200000Y-77850000D03*
X144200000Y-77350000D03*
X144200000Y-76850000D03*
X144200000Y-76350000D03*
X144200000Y-75850000D03*
X144200000Y-75350000D03*
X144200000Y-74850000D03*
X144200000Y-74350000D03*
X144200000Y-73850000D03*
X144200000Y-73350000D03*
X144200000Y-72850000D03*
X144200000Y-72350000D03*
G04 #@! TD*
D40*
G04 #@! TO.C,U302*
X148100000Y-84450000D03*
X148100000Y-86350000D03*
X150300000Y-86350000D03*
X150300000Y-85400000D03*
X150300000Y-84450000D03*
G04 #@! TD*
D41*
G04 #@! TO.C,U402*
X201500000Y-82105000D03*
X201500000Y-80835000D03*
X201500000Y-79565000D03*
X201500000Y-78295000D03*
X196100000Y-78295000D03*
X196100000Y-79565000D03*
X196100000Y-80835000D03*
X196100000Y-82105000D03*
G04 #@! TD*
D42*
G04 #@! TO.C,U501*
X148810000Y-60375000D03*
X148810000Y-61025000D03*
X148810000Y-61675000D03*
X148810000Y-62325000D03*
X148810000Y-62975000D03*
X148810000Y-63625000D03*
X148810000Y-64275000D03*
X148810000Y-64925000D03*
X154710000Y-64925000D03*
X154710000Y-64275000D03*
X154710000Y-63625000D03*
X154710000Y-62975000D03*
X154710000Y-62325000D03*
X154710000Y-61675000D03*
X154710000Y-61025000D03*
X154710000Y-60375000D03*
G04 #@! TD*
D43*
G04 #@! TO.C,RN502*
X106650000Y-52450000D03*
X105380000Y-52450000D03*
X104110000Y-52450000D03*
X102840000Y-52450000D03*
X101560000Y-52450000D03*
X100290000Y-52450000D03*
X99020000Y-52450000D03*
X97750000Y-52450000D03*
X97750000Y-45550000D03*
X99020000Y-45550000D03*
X100290000Y-45550000D03*
X101560000Y-45550000D03*
X102840000Y-45550000D03*
X104110000Y-45550000D03*
X105380000Y-45550000D03*
X106650000Y-45550000D03*
G04 #@! TD*
G04 #@! TO.C,RN503*
X144450000Y-45550000D03*
X143180000Y-45550000D03*
X141910000Y-45550000D03*
X140640000Y-45550000D03*
X139360000Y-45550000D03*
X138090000Y-45550000D03*
X136820000Y-45550000D03*
X135550000Y-45550000D03*
X135550000Y-52450000D03*
X136820000Y-52450000D03*
X138090000Y-52450000D03*
X139360000Y-52450000D03*
X140640000Y-52450000D03*
X141910000Y-52450000D03*
X143180000Y-52450000D03*
X144450000Y-52450000D03*
G04 #@! TD*
G04 #@! TO.C,RN504*
X189450000Y-45550000D03*
X188180000Y-45550000D03*
X186910000Y-45550000D03*
X185640000Y-45550000D03*
X184360000Y-45550000D03*
X183090000Y-45550000D03*
X181820000Y-45550000D03*
X180550000Y-45550000D03*
X180550000Y-52450000D03*
X181820000Y-52450000D03*
X183090000Y-52450000D03*
X184360000Y-52450000D03*
X185640000Y-52450000D03*
X186910000Y-52450000D03*
X188180000Y-52450000D03*
X189450000Y-52450000D03*
G04 #@! TD*
G04 #@! TO.C,RN505*
X223750000Y-52450000D03*
X222480000Y-52450000D03*
X221210000Y-52450000D03*
X219940000Y-52450000D03*
X218660000Y-52450000D03*
X217390000Y-52450000D03*
X216120000Y-52450000D03*
X214850000Y-52450000D03*
X214850000Y-45550000D03*
X216120000Y-45550000D03*
X217390000Y-45550000D03*
X218660000Y-45550000D03*
X219940000Y-45550000D03*
X221210000Y-45550000D03*
X222480000Y-45550000D03*
X223750000Y-45550000D03*
G04 #@! TD*
G04 #@! TO.C,RN506*
X131150000Y-52500000D03*
X129880000Y-52500000D03*
X128610000Y-52500000D03*
X127340000Y-52500000D03*
X126060000Y-52500000D03*
X124790000Y-52500000D03*
X123520000Y-52500000D03*
X122250000Y-52500000D03*
X122250000Y-45600000D03*
X123520000Y-45600000D03*
X124790000Y-45600000D03*
X126060000Y-45600000D03*
X127340000Y-45600000D03*
X128610000Y-45600000D03*
X129880000Y-45600000D03*
X131150000Y-45600000D03*
G04 #@! TD*
G04 #@! TO.C,RN507*
X204300000Y-45550000D03*
X203030000Y-45550000D03*
X201760000Y-45550000D03*
X200490000Y-45550000D03*
X199210000Y-45550000D03*
X197940000Y-45550000D03*
X196670000Y-45550000D03*
X195400000Y-45550000D03*
X195400000Y-52450000D03*
X196670000Y-52450000D03*
X197940000Y-52450000D03*
X199210000Y-52450000D03*
X200490000Y-52450000D03*
X201760000Y-52450000D03*
X203030000Y-52450000D03*
X204300000Y-52450000D03*
G04 #@! TD*
G04 #@! TO.C,RN508*
X117550000Y-73250000D03*
X116280000Y-73250000D03*
X115010000Y-73250000D03*
X113740000Y-73250000D03*
X112460000Y-73250000D03*
X111190000Y-73250000D03*
X109920000Y-73250000D03*
X108650000Y-73250000D03*
X108650000Y-80150000D03*
X109920000Y-80150000D03*
X111190000Y-80150000D03*
X112460000Y-80150000D03*
X113740000Y-80150000D03*
X115010000Y-80150000D03*
X116280000Y-80150000D03*
X117550000Y-80150000D03*
G04 #@! TD*
D25*
G04 #@! TO.C,C307*
X212350000Y-72050000D03*
X209350000Y-72050000D03*
G04 #@! TD*
G04 #@! TO.C,C308*
X215350000Y-69500000D03*
X212350000Y-69500000D03*
G04 #@! TD*
G04 #@! TO.C,C309*
X235400000Y-64200000D03*
X232400000Y-64200000D03*
G04 #@! TD*
D44*
G04 #@! TO.C,D302*
X225000000Y-60600000D03*
X221000000Y-60600000D03*
G04 #@! TD*
D45*
G04 #@! TO.C,L302*
X216950000Y-60500000D03*
X216950000Y-63400000D03*
G04 #@! TD*
D37*
G04 #@! TO.C,R301*
X222400000Y-81600000D03*
X219500000Y-81600000D03*
G04 #@! TD*
G04 #@! TO.C,R302*
X235700000Y-32500000D03*
X232800000Y-32500000D03*
G04 #@! TD*
D46*
G04 #@! TO.C,R303*
X206200000Y-68900000D03*
X206200000Y-71800000D03*
G04 #@! TD*
D25*
G04 #@! TO.C,C507*
X232750000Y-35350000D03*
X235750000Y-35350000D03*
G04 #@! TD*
G04 #@! TO.C,C401*
X200000000Y-75400000D03*
X197000000Y-75400000D03*
G04 #@! TD*
G04 #@! TO.C,C402*
X185150000Y-73950000D03*
X182150000Y-73950000D03*
G04 #@! TD*
D47*
G04 #@! TO.C,U301*
X224150000Y-73150000D03*
X219550000Y-73150000D03*
X221850000Y-73150000D03*
D48*
X221850000Y-66850000D03*
G04 #@! TD*
G04 #@! TO.C,U304*
X211650000Y-81450000D03*
D47*
X211650000Y-75150000D03*
X213950000Y-75150000D03*
X209350000Y-75150000D03*
G04 #@! TD*
D49*
G04 #@! TO.C,R403*
X203550000Y-81000000D03*
X205450000Y-81000000D03*
G04 #@! TD*
M02*
