G04 #@! TF.GenerationSoftware,KiCad,Pcbnew,(5.0.2)-1*
G04 #@! TF.CreationDate,2019-04-28T17:40:44-04:00*
G04 #@! TF.ProjectId,FSAE Main Panel,46534145-204d-4616-996e-2050616e656c,rev?*
G04 #@! TF.SameCoordinates,Original*
G04 #@! TF.FileFunction,Soldermask,Top*
G04 #@! TF.FilePolarity,Negative*
%FSLAX46Y46*%
G04 Gerber Fmt 4.6, Leading zero omitted, Abs format (unit mm)*
G04 Created by KiCad (PCBNEW (5.0.2)-1) date 4/28/2019 5:40:44 PM*
%MOMM*%
%LPD*%
G01*
G04 APERTURE LIST*
%ADD10C,0.150000*%
%ADD11C,0.100000*%
G04 APERTURE END LIST*
D10*
G36*
X213900000Y-46800000D02*
X227300000Y-46800000D01*
X227300000Y-56400000D01*
X213900000Y-56400000D01*
X213900000Y-46800000D01*
G37*
X213900000Y-46800000D02*
X227300000Y-46800000D01*
X227300000Y-56400000D01*
X213900000Y-56400000D01*
X213900000Y-46800000D01*
G36*
X122000000Y-62000000D02*
X124750000Y-62000000D01*
X125250000Y-62500000D01*
X125250000Y-67750000D01*
X122000000Y-67750000D01*
X122000000Y-62000000D01*
G37*
X122000000Y-62000000D02*
X124750000Y-62000000D01*
X125250000Y-62500000D01*
X125250000Y-67750000D01*
X122000000Y-67750000D01*
X122000000Y-62000000D01*
G36*
X161000000Y-44750000D02*
X164000000Y-44750000D01*
X164000000Y-53000000D01*
X161000000Y-53000000D01*
X161000000Y-44750000D01*
G37*
X161000000Y-44750000D02*
X164000000Y-44750000D01*
X164000000Y-53000000D01*
X161000000Y-53000000D01*
X161000000Y-44750000D01*
G36*
X227000000Y-47000000D02*
X237750000Y-47000000D01*
X237750000Y-56250000D01*
X227000000Y-56250000D01*
X227000000Y-47000000D01*
G37*
X227000000Y-47000000D02*
X237750000Y-47000000D01*
X237750000Y-56250000D01*
X227000000Y-56250000D01*
X227000000Y-47000000D01*
G36*
X198750000Y-60250000D02*
X198750000Y-63500000D01*
X201000000Y-66000000D01*
X202000000Y-66000000D01*
X202000000Y-58750000D01*
X200500000Y-58750000D01*
X198750000Y-60250000D01*
G37*
X198750000Y-60250000D02*
X198750000Y-63500000D01*
X201000000Y-66000000D01*
X202000000Y-66000000D01*
X202000000Y-58750000D01*
X200500000Y-58750000D01*
X198750000Y-60250000D01*
D11*
G36*
X234594547Y-84024895D02*
X234853736Y-84103519D01*
X235092605Y-84231198D01*
X235301976Y-84403024D01*
X235473802Y-84612395D01*
X235601481Y-84851264D01*
X235680105Y-85110453D01*
X235706653Y-85380000D01*
X235680105Y-85649547D01*
X235601481Y-85908736D01*
X235473802Y-86147605D01*
X235301976Y-86356976D01*
X235092605Y-86528802D01*
X234853736Y-86656481D01*
X234594547Y-86735105D01*
X234392549Y-86755000D01*
X233607451Y-86755000D01*
X233405453Y-86735105D01*
X233146264Y-86656481D01*
X232907395Y-86528802D01*
X232698024Y-86356976D01*
X232526198Y-86147605D01*
X232398519Y-85908736D01*
X232319895Y-85649547D01*
X232293347Y-85380000D01*
X232319895Y-85110453D01*
X232398519Y-84851264D01*
X232526198Y-84612395D01*
X232698024Y-84403024D01*
X232907395Y-84231198D01*
X233146264Y-84103519D01*
X233405453Y-84024895D01*
X233607451Y-84005000D01*
X234392549Y-84005000D01*
X234594547Y-84024895D01*
X234594547Y-84024895D01*
G37*
G36*
X99575888Y-80954470D02*
X99756274Y-80990350D01*
X99947362Y-81069502D01*
X100119336Y-81184411D01*
X100265589Y-81330664D01*
X100380498Y-81502638D01*
X100459650Y-81693726D01*
X100500000Y-81896584D01*
X100500000Y-82103416D01*
X100459650Y-82306274D01*
X100380498Y-82497362D01*
X100265589Y-82669336D01*
X100119336Y-82815589D01*
X99947362Y-82930498D01*
X99756274Y-83009650D01*
X99575888Y-83045530D01*
X99553417Y-83050000D01*
X99346583Y-83050000D01*
X99324112Y-83045530D01*
X99143726Y-83009650D01*
X98952638Y-82930498D01*
X98780664Y-82815589D01*
X98634411Y-82669336D01*
X98519502Y-82497362D01*
X98440350Y-82306274D01*
X98400000Y-82103416D01*
X98400000Y-81896584D01*
X98440350Y-81693726D01*
X98519502Y-81502638D01*
X98634411Y-81330664D01*
X98780664Y-81184411D01*
X98952638Y-81069502D01*
X99143726Y-80990350D01*
X99324112Y-80954470D01*
X99346583Y-80950000D01*
X99553417Y-80950000D01*
X99575888Y-80954470D01*
X99575888Y-80954470D01*
G37*
G36*
X93075888Y-80954470D02*
X93256274Y-80990350D01*
X93447362Y-81069502D01*
X93619336Y-81184411D01*
X93765589Y-81330664D01*
X93880498Y-81502638D01*
X93959650Y-81693726D01*
X94000000Y-81896584D01*
X94000000Y-82103416D01*
X93959650Y-82306274D01*
X93880498Y-82497362D01*
X93765589Y-82669336D01*
X93619336Y-82815589D01*
X93447362Y-82930498D01*
X93256274Y-83009650D01*
X93075888Y-83045530D01*
X93053417Y-83050000D01*
X92846583Y-83050000D01*
X92824112Y-83045530D01*
X92643726Y-83009650D01*
X92452638Y-82930498D01*
X92280664Y-82815589D01*
X92134411Y-82669336D01*
X92019502Y-82497362D01*
X91940350Y-82306274D01*
X91900000Y-82103416D01*
X91900000Y-81896584D01*
X91940350Y-81693726D01*
X92019502Y-81502638D01*
X92134411Y-81330664D01*
X92280664Y-81184411D01*
X92452638Y-81069502D01*
X92643726Y-80990350D01*
X92824112Y-80954470D01*
X92846583Y-80950000D01*
X93053417Y-80950000D01*
X93075888Y-80954470D01*
X93075888Y-80954470D01*
G37*
G36*
X234594547Y-80064895D02*
X234853736Y-80143519D01*
X235092605Y-80271198D01*
X235301976Y-80443024D01*
X235473802Y-80652395D01*
X235601481Y-80891264D01*
X235680105Y-81150453D01*
X235706653Y-81420000D01*
X235680105Y-81689547D01*
X235601481Y-81948736D01*
X235473802Y-82187605D01*
X235301976Y-82396976D01*
X235092605Y-82568802D01*
X234853736Y-82696481D01*
X234594547Y-82775105D01*
X234392549Y-82795000D01*
X233607451Y-82795000D01*
X233405453Y-82775105D01*
X233146264Y-82696481D01*
X232907395Y-82568802D01*
X232698024Y-82396976D01*
X232526198Y-82187605D01*
X232398519Y-81948736D01*
X232319895Y-81689547D01*
X232293347Y-81420000D01*
X232319895Y-81150453D01*
X232398519Y-80891264D01*
X232526198Y-80652395D01*
X232698024Y-80443024D01*
X232907395Y-80271198D01*
X233146264Y-80143519D01*
X233405453Y-80064895D01*
X233607451Y-80045000D01*
X234392549Y-80045000D01*
X234594547Y-80064895D01*
X234594547Y-80064895D01*
G37*
G36*
X234594547Y-76104895D02*
X234853736Y-76183519D01*
X235092605Y-76311198D01*
X235301976Y-76483024D01*
X235473802Y-76692395D01*
X235601481Y-76931264D01*
X235680105Y-77190453D01*
X235706653Y-77460000D01*
X235680105Y-77729547D01*
X235601481Y-77988736D01*
X235473802Y-78227605D01*
X235301976Y-78436976D01*
X235092605Y-78608802D01*
X234853736Y-78736481D01*
X234594547Y-78815105D01*
X234392549Y-78835000D01*
X233607451Y-78835000D01*
X233405453Y-78815105D01*
X233146264Y-78736481D01*
X232907395Y-78608802D01*
X232698024Y-78436976D01*
X232526198Y-78227605D01*
X232398519Y-77988736D01*
X232319895Y-77729547D01*
X232293347Y-77460000D01*
X232319895Y-77190453D01*
X232398519Y-76931264D01*
X232526198Y-76692395D01*
X232698024Y-76483024D01*
X232907395Y-76311198D01*
X233146264Y-76183519D01*
X233405453Y-76104895D01*
X233607451Y-76085000D01*
X234392549Y-76085000D01*
X234594547Y-76104895D01*
X234594547Y-76104895D01*
G37*
G36*
X93075888Y-76454470D02*
X93256274Y-76490350D01*
X93447362Y-76569502D01*
X93619336Y-76684411D01*
X93765589Y-76830664D01*
X93880498Y-77002638D01*
X93959650Y-77193726D01*
X94000000Y-77396584D01*
X94000000Y-77603416D01*
X93959650Y-77806274D01*
X93880498Y-77997362D01*
X93765589Y-78169336D01*
X93619336Y-78315589D01*
X93447362Y-78430498D01*
X93256274Y-78509650D01*
X93075888Y-78545530D01*
X93053417Y-78550000D01*
X92846583Y-78550000D01*
X92824112Y-78545530D01*
X92643726Y-78509650D01*
X92452638Y-78430498D01*
X92280664Y-78315589D01*
X92134411Y-78169336D01*
X92019502Y-77997362D01*
X91940350Y-77806274D01*
X91900000Y-77603416D01*
X91900000Y-77396584D01*
X91940350Y-77193726D01*
X92019502Y-77002638D01*
X92134411Y-76830664D01*
X92280664Y-76684411D01*
X92452638Y-76569502D01*
X92643726Y-76490350D01*
X92824112Y-76454470D01*
X92846583Y-76450000D01*
X93053417Y-76450000D01*
X93075888Y-76454470D01*
X93075888Y-76454470D01*
G37*
G36*
X99575888Y-76454470D02*
X99756274Y-76490350D01*
X99947362Y-76569502D01*
X100119336Y-76684411D01*
X100265589Y-76830664D01*
X100380498Y-77002638D01*
X100459650Y-77193726D01*
X100500000Y-77396584D01*
X100500000Y-77603416D01*
X100459650Y-77806274D01*
X100380498Y-77997362D01*
X100265589Y-78169336D01*
X100119336Y-78315589D01*
X99947362Y-78430498D01*
X99756274Y-78509650D01*
X99575888Y-78545530D01*
X99553417Y-78550000D01*
X99346583Y-78550000D01*
X99324112Y-78545530D01*
X99143726Y-78509650D01*
X98952638Y-78430498D01*
X98780664Y-78315589D01*
X98634411Y-78169336D01*
X98519502Y-77997362D01*
X98440350Y-77806274D01*
X98400000Y-77603416D01*
X98400000Y-77396584D01*
X98440350Y-77193726D01*
X98519502Y-77002638D01*
X98634411Y-76830664D01*
X98780664Y-76684411D01*
X98952638Y-76569502D01*
X99143726Y-76490350D01*
X99324112Y-76454470D01*
X99346583Y-76450000D01*
X99553417Y-76450000D01*
X99575888Y-76454470D01*
X99575888Y-76454470D01*
G37*
G36*
X160300000Y-77250000D02*
X158400000Y-77250000D01*
X158400000Y-75350000D01*
X160300000Y-75350000D01*
X160300000Y-77250000D01*
X160300000Y-77250000D01*
G37*
G36*
X163600000Y-77250000D02*
X161700000Y-77250000D01*
X161700000Y-75350000D01*
X163600000Y-75350000D01*
X163600000Y-77250000D01*
X163600000Y-77250000D01*
G37*
G36*
X122007224Y-73490128D02*
X122139175Y-73530155D01*
X122260781Y-73595155D01*
X122367370Y-73682630D01*
X122408380Y-73732601D01*
X122425701Y-73749922D01*
X122446076Y-73763536D01*
X122468715Y-73772914D01*
X122492748Y-73777694D01*
X122517252Y-73777694D01*
X122541286Y-73772913D01*
X122563925Y-73763536D01*
X122584299Y-73749922D01*
X122601620Y-73732601D01*
X122642630Y-73682630D01*
X122749219Y-73595155D01*
X122870825Y-73530155D01*
X123002776Y-73490128D01*
X123105610Y-73480000D01*
X123174390Y-73480000D01*
X123277224Y-73490128D01*
X123409175Y-73530155D01*
X123530781Y-73595155D01*
X123637370Y-73682630D01*
X123678380Y-73732601D01*
X123695701Y-73749922D01*
X123716076Y-73763536D01*
X123738715Y-73772914D01*
X123762748Y-73777694D01*
X123787252Y-73777694D01*
X123811286Y-73772913D01*
X123833925Y-73763536D01*
X123854299Y-73749922D01*
X123871620Y-73732601D01*
X123912630Y-73682630D01*
X124019219Y-73595155D01*
X124140825Y-73530155D01*
X124272776Y-73490128D01*
X124375610Y-73480000D01*
X124444390Y-73480000D01*
X124547224Y-73490128D01*
X124679175Y-73530155D01*
X124800781Y-73595155D01*
X124907370Y-73682630D01*
X124948380Y-73732601D01*
X124965701Y-73749922D01*
X124986076Y-73763536D01*
X125008715Y-73772914D01*
X125032748Y-73777694D01*
X125057252Y-73777694D01*
X125081286Y-73772913D01*
X125103925Y-73763536D01*
X125124299Y-73749922D01*
X125141620Y-73732601D01*
X125182630Y-73682630D01*
X125289219Y-73595155D01*
X125410825Y-73530155D01*
X125542776Y-73490128D01*
X125645610Y-73480000D01*
X125714390Y-73480000D01*
X125817224Y-73490128D01*
X125949175Y-73530155D01*
X126070781Y-73595155D01*
X126177370Y-73682630D01*
X126218380Y-73732601D01*
X126235701Y-73749922D01*
X126256076Y-73763536D01*
X126278715Y-73772914D01*
X126302748Y-73777694D01*
X126327252Y-73777694D01*
X126351286Y-73772913D01*
X126373925Y-73763536D01*
X126394299Y-73749922D01*
X126411620Y-73732601D01*
X126452630Y-73682630D01*
X126559219Y-73595155D01*
X126680825Y-73530155D01*
X126812776Y-73490128D01*
X126915610Y-73480000D01*
X126984390Y-73480000D01*
X127087224Y-73490128D01*
X127219175Y-73530155D01*
X127340781Y-73595155D01*
X127447370Y-73682630D01*
X127534845Y-73789219D01*
X127599845Y-73910825D01*
X127639872Y-74042776D01*
X127653387Y-74180000D01*
X127639872Y-74317224D01*
X127599845Y-74449175D01*
X127599843Y-74449178D01*
X127537360Y-74566076D01*
X127527982Y-74588715D01*
X127523202Y-74612748D01*
X127523202Y-74637253D01*
X127527983Y-74661286D01*
X127537360Y-74683925D01*
X127550974Y-74704300D01*
X127568301Y-74721627D01*
X127588676Y-74735240D01*
X127611315Y-74744618D01*
X127647600Y-74750000D01*
X127650000Y-74750000D01*
X127650000Y-76150000D01*
X126250000Y-76150000D01*
X126250000Y-76147600D01*
X126247598Y-76123214D01*
X126240485Y-76099765D01*
X126228934Y-76078154D01*
X126213388Y-76059212D01*
X126194446Y-76043666D01*
X126172835Y-76032115D01*
X126149386Y-76025002D01*
X126125000Y-76022600D01*
X126100614Y-76025002D01*
X126066075Y-76037360D01*
X125949175Y-76099845D01*
X125817224Y-76139872D01*
X125714390Y-76150000D01*
X125645610Y-76150000D01*
X125542776Y-76139872D01*
X125410825Y-76099845D01*
X125289219Y-76034845D01*
X125182630Y-75947370D01*
X125141620Y-75897399D01*
X125124299Y-75880078D01*
X125103924Y-75866464D01*
X125081285Y-75857086D01*
X125057252Y-75852306D01*
X125032748Y-75852306D01*
X125008714Y-75857087D01*
X124986075Y-75866464D01*
X124965701Y-75880078D01*
X124948380Y-75897399D01*
X124907370Y-75947370D01*
X124800781Y-76034845D01*
X124679175Y-76099845D01*
X124547224Y-76139872D01*
X124444390Y-76150000D01*
X124375610Y-76150000D01*
X124272776Y-76139872D01*
X124140825Y-76099845D01*
X124019219Y-76034845D01*
X123912630Y-75947370D01*
X123871620Y-75897399D01*
X123854299Y-75880078D01*
X123833924Y-75866464D01*
X123811285Y-75857086D01*
X123787252Y-75852306D01*
X123762748Y-75852306D01*
X123738714Y-75857087D01*
X123716075Y-75866464D01*
X123695701Y-75880078D01*
X123678380Y-75897399D01*
X123637370Y-75947370D01*
X123530781Y-76034845D01*
X123409175Y-76099845D01*
X123277224Y-76139872D01*
X123174390Y-76150000D01*
X123105610Y-76150000D01*
X123002776Y-76139872D01*
X122870825Y-76099845D01*
X122749219Y-76034845D01*
X122642630Y-75947370D01*
X122601620Y-75897399D01*
X122584299Y-75880078D01*
X122563924Y-75866464D01*
X122541285Y-75857086D01*
X122517252Y-75852306D01*
X122492748Y-75852306D01*
X122468714Y-75857087D01*
X122446075Y-75866464D01*
X122425701Y-75880078D01*
X122408380Y-75897399D01*
X122367370Y-75947370D01*
X122260781Y-76034845D01*
X122139175Y-76099845D01*
X122007224Y-76139872D01*
X121904390Y-76150000D01*
X121835610Y-76150000D01*
X121732776Y-76139872D01*
X121600825Y-76099845D01*
X121479219Y-76034845D01*
X121372630Y-75947370D01*
X121285155Y-75840781D01*
X121220155Y-75719175D01*
X121180128Y-75587224D01*
X121166613Y-75450000D01*
X121180128Y-75312776D01*
X121220155Y-75180825D01*
X121285155Y-75059219D01*
X121372630Y-74952630D01*
X121422601Y-74911620D01*
X121439922Y-74894299D01*
X121453536Y-74873924D01*
X121462914Y-74851285D01*
X121467694Y-74827252D01*
X121467694Y-74802748D01*
X122272306Y-74802748D01*
X122272306Y-74827252D01*
X122277087Y-74851286D01*
X122286464Y-74873925D01*
X122300078Y-74894299D01*
X122317399Y-74911620D01*
X122367370Y-74952630D01*
X122408380Y-75002601D01*
X122425701Y-75019922D01*
X122446076Y-75033536D01*
X122468715Y-75042914D01*
X122492748Y-75047694D01*
X122517252Y-75047694D01*
X122541286Y-75042913D01*
X122563925Y-75033536D01*
X122584299Y-75019922D01*
X122601620Y-75002601D01*
X122642630Y-74952630D01*
X122692601Y-74911620D01*
X122709922Y-74894299D01*
X122723536Y-74873924D01*
X122732914Y-74851285D01*
X122737694Y-74827252D01*
X122737694Y-74802748D01*
X123542306Y-74802748D01*
X123542306Y-74827252D01*
X123547087Y-74851286D01*
X123556464Y-74873925D01*
X123570078Y-74894299D01*
X123587399Y-74911620D01*
X123637370Y-74952630D01*
X123678380Y-75002601D01*
X123695701Y-75019922D01*
X123716076Y-75033536D01*
X123738715Y-75042914D01*
X123762748Y-75047694D01*
X123787252Y-75047694D01*
X123811286Y-75042913D01*
X123833925Y-75033536D01*
X123854299Y-75019922D01*
X123871620Y-75002601D01*
X123912630Y-74952630D01*
X123962601Y-74911620D01*
X123979922Y-74894299D01*
X123993536Y-74873924D01*
X124002914Y-74851285D01*
X124007694Y-74827252D01*
X124007694Y-74802748D01*
X124812306Y-74802748D01*
X124812306Y-74827252D01*
X124817087Y-74851286D01*
X124826464Y-74873925D01*
X124840078Y-74894299D01*
X124857399Y-74911620D01*
X124907370Y-74952630D01*
X124948380Y-75002601D01*
X124965701Y-75019922D01*
X124986076Y-75033536D01*
X125008715Y-75042914D01*
X125032748Y-75047694D01*
X125057252Y-75047694D01*
X125081286Y-75042913D01*
X125103925Y-75033536D01*
X125124299Y-75019922D01*
X125141620Y-75002601D01*
X125182630Y-74952630D01*
X125232601Y-74911620D01*
X125249922Y-74894299D01*
X125263536Y-74873924D01*
X125272914Y-74851285D01*
X125277694Y-74827252D01*
X125277694Y-74802748D01*
X125272913Y-74778714D01*
X125263536Y-74756075D01*
X125249922Y-74735701D01*
X125232601Y-74718380D01*
X125182630Y-74677370D01*
X125141620Y-74627399D01*
X125124299Y-74610078D01*
X125103924Y-74596464D01*
X125081285Y-74587086D01*
X125057252Y-74582306D01*
X125032748Y-74582306D01*
X125008714Y-74587087D01*
X124986075Y-74596464D01*
X124965701Y-74610078D01*
X124948380Y-74627399D01*
X124907370Y-74677370D01*
X124857399Y-74718380D01*
X124840078Y-74735701D01*
X124826464Y-74756076D01*
X124817086Y-74778715D01*
X124812306Y-74802748D01*
X124007694Y-74802748D01*
X124002913Y-74778714D01*
X123993536Y-74756075D01*
X123979922Y-74735701D01*
X123962601Y-74718380D01*
X123912630Y-74677370D01*
X123871620Y-74627399D01*
X123854299Y-74610078D01*
X123833924Y-74596464D01*
X123811285Y-74587086D01*
X123787252Y-74582306D01*
X123762748Y-74582306D01*
X123738714Y-74587087D01*
X123716075Y-74596464D01*
X123695701Y-74610078D01*
X123678380Y-74627399D01*
X123637370Y-74677370D01*
X123587399Y-74718380D01*
X123570078Y-74735701D01*
X123556464Y-74756076D01*
X123547086Y-74778715D01*
X123542306Y-74802748D01*
X122737694Y-74802748D01*
X122732913Y-74778714D01*
X122723536Y-74756075D01*
X122709922Y-74735701D01*
X122692601Y-74718380D01*
X122642630Y-74677370D01*
X122601620Y-74627399D01*
X122584299Y-74610078D01*
X122563924Y-74596464D01*
X122541285Y-74587086D01*
X122517252Y-74582306D01*
X122492748Y-74582306D01*
X122468714Y-74587087D01*
X122446075Y-74596464D01*
X122425701Y-74610078D01*
X122408380Y-74627399D01*
X122367370Y-74677370D01*
X122317399Y-74718380D01*
X122300078Y-74735701D01*
X122286464Y-74756076D01*
X122277086Y-74778715D01*
X122272306Y-74802748D01*
X121467694Y-74802748D01*
X121462913Y-74778714D01*
X121453536Y-74756075D01*
X121439922Y-74735701D01*
X121422601Y-74718380D01*
X121372630Y-74677370D01*
X121285155Y-74570781D01*
X121220155Y-74449175D01*
X121180128Y-74317224D01*
X121166613Y-74180000D01*
X121180128Y-74042776D01*
X121220155Y-73910825D01*
X121285155Y-73789219D01*
X121372630Y-73682630D01*
X121479219Y-73595155D01*
X121600825Y-73530155D01*
X121732776Y-73490128D01*
X121835610Y-73480000D01*
X121904390Y-73480000D01*
X122007224Y-73490128D01*
X122007224Y-73490128D01*
G37*
G36*
X235700000Y-74875000D02*
X232300000Y-74875000D01*
X232300000Y-72125000D01*
X235700000Y-72125000D01*
X235700000Y-74875000D01*
X235700000Y-74875000D01*
G37*
G36*
X170650000Y-72440000D02*
X168750000Y-72440000D01*
X168750000Y-70540000D01*
X170650000Y-70540000D01*
X170650000Y-72440000D01*
X170650000Y-72440000D01*
G37*
G36*
X167350000Y-72440000D02*
X165450000Y-72440000D01*
X165450000Y-70540000D01*
X167350000Y-70540000D01*
X167350000Y-72440000D01*
X167350000Y-72440000D01*
G37*
G36*
X156250000Y-71690000D02*
X154350000Y-71690000D01*
X154350000Y-69790000D01*
X156250000Y-69790000D01*
X156250000Y-71690000D01*
X156250000Y-71690000D01*
G37*
G36*
X159550000Y-71690000D02*
X157650000Y-71690000D01*
X157650000Y-69790000D01*
X159550000Y-69790000D01*
X159550000Y-71690000D01*
X159550000Y-71690000D01*
G37*
G36*
X211791725Y-68341129D02*
X210841725Y-69986577D01*
X209196277Y-69036577D01*
X210146277Y-67391129D01*
X211791725Y-68341129D01*
X211791725Y-68341129D01*
G37*
G36*
X217403724Y-69036577D02*
X215758276Y-69986577D01*
X214808276Y-68341129D01*
X216453724Y-67391129D01*
X217403724Y-69036577D01*
X217403724Y-69036577D01*
G37*
G36*
X115803724Y-68936577D02*
X114158276Y-69886577D01*
X113208276Y-68241129D01*
X114853724Y-67291129D01*
X115803724Y-68936577D01*
X115803724Y-68936577D01*
G37*
G36*
X109991725Y-68141129D02*
X109041725Y-69786577D01*
X107396277Y-68836577D01*
X108346277Y-67191129D01*
X109991725Y-68141129D01*
X109991725Y-68141129D01*
G37*
G36*
X87879196Y-66749958D02*
X88115780Y-66847954D01*
X88328705Y-66990226D01*
X88509774Y-67171295D01*
X88652046Y-67384220D01*
X88750042Y-67620804D01*
X88800000Y-67871960D01*
X88800000Y-68128040D01*
X88750042Y-68379196D01*
X88652046Y-68615780D01*
X88509774Y-68828705D01*
X88328705Y-69009774D01*
X88115780Y-69152046D01*
X87879196Y-69250042D01*
X87628040Y-69300000D01*
X87371960Y-69300000D01*
X87120804Y-69250042D01*
X86884220Y-69152046D01*
X86671295Y-69009774D01*
X86490226Y-68828705D01*
X86347954Y-68615780D01*
X86249958Y-68379196D01*
X86200000Y-68128040D01*
X86200000Y-67871960D01*
X86249958Y-67620804D01*
X86347954Y-67384220D01*
X86490226Y-67171295D01*
X86671295Y-66990226D01*
X86884220Y-66847954D01*
X87120804Y-66749958D01*
X87371960Y-66700000D01*
X87628040Y-66700000D01*
X87879196Y-66749958D01*
X87879196Y-66749958D01*
G37*
G36*
X237879196Y-66749958D02*
X238115780Y-66847954D01*
X238328705Y-66990226D01*
X238509774Y-67171295D01*
X238652046Y-67384220D01*
X238750042Y-67620804D01*
X238800000Y-67871960D01*
X238800000Y-68128040D01*
X238750042Y-68379196D01*
X238652046Y-68615780D01*
X238509774Y-68828705D01*
X238328705Y-69009774D01*
X238115780Y-69152046D01*
X237879196Y-69250042D01*
X237628040Y-69300000D01*
X237371960Y-69300000D01*
X237120804Y-69250042D01*
X236884220Y-69152046D01*
X236671295Y-69009774D01*
X236490226Y-68828705D01*
X236347954Y-68615780D01*
X236249958Y-68379196D01*
X236200000Y-68128040D01*
X236200000Y-67871960D01*
X236249958Y-67620804D01*
X236347954Y-67384220D01*
X236490226Y-67171295D01*
X236671295Y-66990226D01*
X236884220Y-66847954D01*
X237120804Y-66749958D01*
X237371960Y-66700000D01*
X237628040Y-66700000D01*
X237879196Y-66749958D01*
X237879196Y-66749958D01*
G37*
G36*
X93125888Y-66454470D02*
X93306274Y-66490350D01*
X93497362Y-66569502D01*
X93669336Y-66684411D01*
X93815589Y-66830664D01*
X93930498Y-67002638D01*
X94009650Y-67193726D01*
X94050000Y-67396584D01*
X94050000Y-67603416D01*
X94009650Y-67806274D01*
X93930498Y-67997362D01*
X93815589Y-68169336D01*
X93669336Y-68315589D01*
X93497362Y-68430498D01*
X93306274Y-68509650D01*
X93125888Y-68545530D01*
X93103417Y-68550000D01*
X92896583Y-68550000D01*
X92874112Y-68545530D01*
X92693726Y-68509650D01*
X92502638Y-68430498D01*
X92330664Y-68315589D01*
X92184411Y-68169336D01*
X92069502Y-67997362D01*
X91990350Y-67806274D01*
X91950000Y-67603416D01*
X91950000Y-67396584D01*
X91990350Y-67193726D01*
X92069502Y-67002638D01*
X92184411Y-66830664D01*
X92330664Y-66684411D01*
X92502638Y-66569502D01*
X92693726Y-66490350D01*
X92874112Y-66454470D01*
X92896583Y-66450000D01*
X93103417Y-66450000D01*
X93125888Y-66454470D01*
X93125888Y-66454470D01*
G37*
G36*
X99625888Y-66454470D02*
X99806274Y-66490350D01*
X99997362Y-66569502D01*
X100169336Y-66684411D01*
X100315589Y-66830664D01*
X100430498Y-67002638D01*
X100509650Y-67193726D01*
X100550000Y-67396584D01*
X100550000Y-67603416D01*
X100509650Y-67806274D01*
X100430498Y-67997362D01*
X100315589Y-68169336D01*
X100169336Y-68315589D01*
X99997362Y-68430498D01*
X99806274Y-68509650D01*
X99625888Y-68545530D01*
X99603417Y-68550000D01*
X99396583Y-68550000D01*
X99374112Y-68545530D01*
X99193726Y-68509650D01*
X99002638Y-68430498D01*
X98830664Y-68315589D01*
X98684411Y-68169336D01*
X98569502Y-67997362D01*
X98490350Y-67806274D01*
X98450000Y-67603416D01*
X98450000Y-67396584D01*
X98490350Y-67193726D01*
X98569502Y-67002638D01*
X98684411Y-66830664D01*
X98830664Y-66684411D01*
X99002638Y-66569502D01*
X99193726Y-66490350D01*
X99374112Y-66454470D01*
X99396583Y-66450000D01*
X99603417Y-66450000D01*
X99625888Y-66454470D01*
X99625888Y-66454470D01*
G37*
G36*
X215753724Y-61321307D02*
X214979386Y-62662500D01*
X214969273Y-62684820D01*
X214963708Y-62708684D01*
X214962907Y-62733175D01*
X214966898Y-62757352D01*
X214975530Y-62780286D01*
X214988470Y-62801095D01*
X215005221Y-62818980D01*
X215025139Y-62833253D01*
X215047459Y-62843366D01*
X215071323Y-62848931D01*
X215087639Y-62850000D01*
X216662000Y-62850000D01*
X216662000Y-64750000D01*
X215145374Y-64750000D01*
X215120988Y-64752402D01*
X215097539Y-64759515D01*
X215075928Y-64771066D01*
X215056986Y-64786612D01*
X215041440Y-64805554D01*
X215029889Y-64827165D01*
X215022776Y-64850614D01*
X215020374Y-64875000D01*
X215022776Y-64899386D01*
X215029889Y-64922835D01*
X215037121Y-64937500D01*
X215753724Y-66178693D01*
X214108276Y-67128693D01*
X213408252Y-65916217D01*
X213393981Y-65896301D01*
X213376096Y-65879550D01*
X213355287Y-65866610D01*
X213332353Y-65857978D01*
X213308176Y-65853987D01*
X213283685Y-65854788D01*
X213259821Y-65860353D01*
X213237501Y-65870466D01*
X213217583Y-65884739D01*
X213200832Y-65902624D01*
X213191748Y-65916219D01*
X212491725Y-67128693D01*
X210846277Y-66178693D01*
X210997816Y-65916219D01*
X211562880Y-64937500D01*
X211572993Y-64915180D01*
X211578558Y-64891316D01*
X211579359Y-64866825D01*
X211575368Y-64842648D01*
X211566736Y-64819714D01*
X211553796Y-64798905D01*
X211537045Y-64781020D01*
X211517127Y-64766747D01*
X211494807Y-64756634D01*
X211470943Y-64751069D01*
X211454627Y-64750000D01*
X209938000Y-64750000D01*
X209938000Y-62957099D01*
X211838000Y-62957099D01*
X211838000Y-64485165D01*
X211840402Y-64509551D01*
X211847515Y-64533000D01*
X211859066Y-64554611D01*
X211874612Y-64573553D01*
X211900500Y-64593418D01*
X213237501Y-65365336D01*
X213259821Y-65375449D01*
X213283685Y-65381014D01*
X213308176Y-65381815D01*
X213332353Y-65377824D01*
X213362499Y-65365337D01*
X214699502Y-64593418D01*
X214719418Y-64579146D01*
X214736169Y-64561261D01*
X214749109Y-64540452D01*
X214757741Y-64517518D01*
X214762000Y-64485166D01*
X214762000Y-63014834D01*
X214759598Y-62990448D01*
X214752485Y-62966999D01*
X214740934Y-62945388D01*
X214725388Y-62926446D01*
X214699500Y-62906581D01*
X213312498Y-62105795D01*
X213290180Y-62095683D01*
X213266316Y-62090118D01*
X213241825Y-62089317D01*
X213217648Y-62093308D01*
X213187502Y-62105795D01*
X211934989Y-62828934D01*
X211900500Y-62848846D01*
X211880582Y-62863119D01*
X211863831Y-62881004D01*
X211850891Y-62901813D01*
X211842259Y-62924747D01*
X211838000Y-62957099D01*
X209938000Y-62957099D01*
X209938000Y-62850000D01*
X211412361Y-62850000D01*
X211436747Y-62847598D01*
X211460196Y-62840485D01*
X211481807Y-62828934D01*
X211500749Y-62813388D01*
X211516295Y-62794446D01*
X211527846Y-62772835D01*
X211534959Y-62749386D01*
X211537361Y-62725000D01*
X211534959Y-62700614D01*
X211527846Y-62677165D01*
X211520614Y-62662500D01*
X210746276Y-61321307D01*
X212391724Y-60371307D01*
X213059903Y-61528626D01*
X213141747Y-61670385D01*
X213156020Y-61690303D01*
X213173905Y-61707054D01*
X213194714Y-61719994D01*
X213217648Y-61728626D01*
X213241825Y-61732617D01*
X213266316Y-61731816D01*
X213290180Y-61726251D01*
X213312500Y-61716138D01*
X213332418Y-61701865D01*
X213349169Y-61683980D01*
X213358253Y-61670385D01*
X213440098Y-61528626D01*
X214108276Y-60371307D01*
X215753724Y-61321307D01*
X215753724Y-61321307D01*
G37*
G36*
X114253724Y-61121307D02*
X113479386Y-62462500D01*
X113469273Y-62484820D01*
X113463708Y-62508684D01*
X113462907Y-62533175D01*
X113466898Y-62557352D01*
X113475530Y-62580286D01*
X113488470Y-62601095D01*
X113505221Y-62618980D01*
X113525139Y-62633253D01*
X113547459Y-62643366D01*
X113571323Y-62648931D01*
X113587639Y-62650000D01*
X115162000Y-62650000D01*
X115162000Y-64550000D01*
X113487639Y-64550000D01*
X113463253Y-64552402D01*
X113439804Y-64559515D01*
X113418193Y-64571066D01*
X113399251Y-64586612D01*
X113383705Y-64605554D01*
X113372154Y-64627165D01*
X113365041Y-64650614D01*
X113362639Y-64675000D01*
X113365041Y-64699386D01*
X113372154Y-64722835D01*
X113379386Y-64737500D01*
X114153724Y-66078693D01*
X112508276Y-67028693D01*
X111865989Y-65916219D01*
X111679386Y-65593014D01*
X111665113Y-65573096D01*
X111647228Y-65556345D01*
X111626419Y-65543405D01*
X111603485Y-65534773D01*
X111579308Y-65530782D01*
X111554817Y-65531583D01*
X111530953Y-65537148D01*
X111508633Y-65547261D01*
X111488715Y-65561534D01*
X111471964Y-65579419D01*
X111462880Y-65593014D01*
X110832761Y-66684411D01*
X110691725Y-66928693D01*
X109046277Y-65978693D01*
X109820615Y-64637500D01*
X109830728Y-64615180D01*
X109836293Y-64591316D01*
X109837094Y-64566825D01*
X109833103Y-64542648D01*
X109824471Y-64519714D01*
X109811531Y-64498905D01*
X109794780Y-64481020D01*
X109774862Y-64466747D01*
X109752542Y-64456634D01*
X109728678Y-64451069D01*
X109712362Y-64450000D01*
X108238000Y-64450000D01*
X108238000Y-62872569D01*
X110138000Y-62872569D01*
X110138000Y-64342900D01*
X110140402Y-64367286D01*
X110147515Y-64390735D01*
X110159066Y-64412346D01*
X110174612Y-64431288D01*
X110200500Y-64451153D01*
X111624103Y-65273071D01*
X111646423Y-65283184D01*
X111670287Y-65288749D01*
X111694778Y-65289550D01*
X111718955Y-65285559D01*
X111749103Y-65273071D01*
X112330329Y-64937500D01*
X113199502Y-64435683D01*
X113219418Y-64421411D01*
X113236169Y-64403526D01*
X113249109Y-64382717D01*
X113257741Y-64359783D01*
X113262000Y-64327431D01*
X113262000Y-62814834D01*
X113259598Y-62790448D01*
X113252485Y-62766999D01*
X113240934Y-62745388D01*
X113225388Y-62726446D01*
X113199500Y-62706581D01*
X111812498Y-61905795D01*
X111790180Y-61895683D01*
X111766316Y-61890118D01*
X111741825Y-61889317D01*
X111717648Y-61893308D01*
X111687502Y-61905795D01*
X110226360Y-62749386D01*
X110200500Y-62764316D01*
X110180582Y-62778589D01*
X110163831Y-62796474D01*
X110150891Y-62817283D01*
X110142259Y-62840217D01*
X110138000Y-62872569D01*
X108238000Y-62872569D01*
X108238000Y-62550000D01*
X109854626Y-62550000D01*
X109879012Y-62547598D01*
X109902461Y-62540485D01*
X109924072Y-62528934D01*
X109943014Y-62513388D01*
X109958560Y-62494446D01*
X109970111Y-62472835D01*
X109977224Y-62449386D01*
X109979626Y-62425000D01*
X109977224Y-62400614D01*
X109970111Y-62377165D01*
X109962879Y-62362500D01*
X109246276Y-61121307D01*
X110891724Y-60171307D01*
X111641747Y-61470385D01*
X111656020Y-61490303D01*
X111673905Y-61507054D01*
X111694714Y-61519994D01*
X111717648Y-61528626D01*
X111741825Y-61532617D01*
X111766316Y-61531816D01*
X111790180Y-61526251D01*
X111812500Y-61516138D01*
X111832418Y-61501865D01*
X111849169Y-61483980D01*
X111858253Y-61470385D01*
X112608276Y-60171307D01*
X114253724Y-61121307D01*
X114253724Y-61121307D01*
G37*
G36*
X165100000Y-66450000D02*
X163200000Y-66450000D01*
X163200000Y-64550000D01*
X165100000Y-64550000D01*
X165100000Y-66450000D01*
X165100000Y-66450000D01*
G37*
G36*
X161800000Y-66450000D02*
X159900000Y-66450000D01*
X159900000Y-64550000D01*
X161800000Y-64550000D01*
X161800000Y-66450000D01*
X161800000Y-66450000D01*
G37*
G36*
X219962000Y-64750000D02*
X218062000Y-64750000D01*
X218062000Y-62850000D01*
X219962000Y-62850000D01*
X219962000Y-64750000D01*
X219962000Y-64750000D01*
G37*
G36*
X208538000Y-64750000D02*
X206638000Y-64750000D01*
X206638000Y-62850000D01*
X208538000Y-62850000D01*
X208538000Y-64750000D01*
X208538000Y-64750000D01*
G37*
G36*
X118462000Y-64550000D02*
X116562000Y-64550000D01*
X116562000Y-62650000D01*
X118462000Y-62650000D01*
X118462000Y-64550000D01*
X118462000Y-64550000D01*
G37*
G36*
X106838000Y-64450000D02*
X104938000Y-64450000D01*
X104938000Y-62550000D01*
X106838000Y-62550000D01*
X106838000Y-64450000D01*
X106838000Y-64450000D01*
G37*
G36*
X99625888Y-61954470D02*
X99806274Y-61990350D01*
X99997362Y-62069502D01*
X100169336Y-62184411D01*
X100315589Y-62330664D01*
X100430498Y-62502638D01*
X100509650Y-62693726D01*
X100550000Y-62896584D01*
X100550000Y-63103416D01*
X100509650Y-63306274D01*
X100430498Y-63497362D01*
X100315589Y-63669336D01*
X100169336Y-63815589D01*
X99997362Y-63930498D01*
X99806274Y-64009650D01*
X99625888Y-64045530D01*
X99603417Y-64050000D01*
X99396583Y-64050000D01*
X99374112Y-64045530D01*
X99193726Y-64009650D01*
X99002638Y-63930498D01*
X98830664Y-63815589D01*
X98684411Y-63669336D01*
X98569502Y-63497362D01*
X98490350Y-63306274D01*
X98450000Y-63103416D01*
X98450000Y-62896584D01*
X98490350Y-62693726D01*
X98569502Y-62502638D01*
X98684411Y-62330664D01*
X98830664Y-62184411D01*
X99002638Y-62069502D01*
X99193726Y-61990350D01*
X99374112Y-61954470D01*
X99396583Y-61950000D01*
X99603417Y-61950000D01*
X99625888Y-61954470D01*
X99625888Y-61954470D01*
G37*
G36*
X93125888Y-61954470D02*
X93306274Y-61990350D01*
X93497362Y-62069502D01*
X93669336Y-62184411D01*
X93815589Y-62330664D01*
X93930498Y-62502638D01*
X94009650Y-62693726D01*
X94050000Y-62896584D01*
X94050000Y-63103416D01*
X94009650Y-63306274D01*
X93930498Y-63497362D01*
X93815589Y-63669336D01*
X93669336Y-63815589D01*
X93497362Y-63930498D01*
X93306274Y-64009650D01*
X93125888Y-64045530D01*
X93103417Y-64050000D01*
X92896583Y-64050000D01*
X92874112Y-64045530D01*
X92693726Y-64009650D01*
X92502638Y-63930498D01*
X92330664Y-63815589D01*
X92184411Y-63669336D01*
X92069502Y-63497362D01*
X91990350Y-63306274D01*
X91950000Y-63103416D01*
X91950000Y-62896584D01*
X91990350Y-62693726D01*
X92069502Y-62502638D01*
X92184411Y-62330664D01*
X92330664Y-62184411D01*
X92502638Y-62069502D01*
X92693726Y-61990350D01*
X92874112Y-61954470D01*
X92896583Y-61950000D01*
X93103417Y-61950000D01*
X93125888Y-61954470D01*
X93125888Y-61954470D01*
G37*
G36*
X170650000Y-61200000D02*
X168750000Y-61200000D01*
X168750000Y-59300000D01*
X170650000Y-59300000D01*
X170650000Y-61200000D01*
X170650000Y-61200000D01*
G37*
G36*
X167350000Y-61200000D02*
X165450000Y-61200000D01*
X165450000Y-59300000D01*
X167350000Y-59300000D01*
X167350000Y-61200000D01*
X167350000Y-61200000D01*
G37*
G36*
X159550000Y-61190000D02*
X157650000Y-61190000D01*
X157650000Y-59290000D01*
X159550000Y-59290000D01*
X159550000Y-61190000D01*
X159550000Y-61190000D01*
G37*
G36*
X156250000Y-61190000D02*
X154350000Y-61190000D01*
X154350000Y-59290000D01*
X156250000Y-59290000D01*
X156250000Y-61190000D01*
X156250000Y-61190000D01*
G37*
G36*
X217403724Y-58463423D02*
X216453724Y-60108871D01*
X214808276Y-59158871D01*
X215758276Y-57513423D01*
X217403724Y-58463423D01*
X217403724Y-58463423D01*
G37*
G36*
X211691724Y-59158871D02*
X210046276Y-60108871D01*
X209096276Y-58463423D01*
X210741724Y-57513423D01*
X211691724Y-59158871D01*
X211691724Y-59158871D01*
G37*
G36*
X110191724Y-58958871D02*
X108546276Y-59908871D01*
X107596276Y-58263423D01*
X109241724Y-57313423D01*
X110191724Y-58958871D01*
X110191724Y-58958871D01*
G37*
G36*
X115903724Y-58263423D02*
X114953724Y-59908871D01*
X113308276Y-58958871D01*
X114258276Y-57313423D01*
X115903724Y-58263423D01*
X115903724Y-58263423D01*
G37*
G36*
X166500000Y-55840000D02*
X164600000Y-55840000D01*
X164600000Y-53940000D01*
X166500000Y-53940000D01*
X166500000Y-55840000D01*
X166500000Y-55840000D01*
G37*
G36*
X163200000Y-55840000D02*
X161300000Y-55840000D01*
X161300000Y-53940000D01*
X163200000Y-53940000D01*
X163200000Y-55840000D01*
X163200000Y-55840000D01*
G37*
G36*
X233645845Y-53019215D02*
X233736839Y-53056906D01*
X233817640Y-53110896D01*
X233818734Y-53111627D01*
X233888373Y-53181266D01*
X233943095Y-53263163D01*
X233980785Y-53354155D01*
X234000000Y-53450755D01*
X234000000Y-53549245D01*
X233980785Y-53645845D01*
X233943095Y-53736837D01*
X233888373Y-53818734D01*
X233818734Y-53888373D01*
X233818731Y-53888375D01*
X233736839Y-53943094D01*
X233645845Y-53980785D01*
X233549246Y-54000000D01*
X233450754Y-54000000D01*
X233354155Y-53980785D01*
X233263161Y-53943094D01*
X233181269Y-53888375D01*
X233181266Y-53888373D01*
X233111627Y-53818734D01*
X233056905Y-53736837D01*
X233019215Y-53645845D01*
X233000000Y-53549245D01*
X233000000Y-53450755D01*
X233019215Y-53354155D01*
X233056905Y-53263163D01*
X233111627Y-53181266D01*
X233181266Y-53111627D01*
X233182360Y-53110896D01*
X233263161Y-53056906D01*
X233354155Y-53019215D01*
X233450754Y-53000000D01*
X233549246Y-53000000D01*
X233645845Y-53019215D01*
X233645845Y-53019215D01*
G37*
G36*
X229645845Y-53019215D02*
X229736839Y-53056906D01*
X229817640Y-53110896D01*
X229818734Y-53111627D01*
X229888373Y-53181266D01*
X229943095Y-53263163D01*
X229980785Y-53354155D01*
X230000000Y-53450755D01*
X230000000Y-53549245D01*
X229980785Y-53645845D01*
X229943095Y-53736837D01*
X229888373Y-53818734D01*
X229818734Y-53888373D01*
X229818731Y-53888375D01*
X229736839Y-53943094D01*
X229645845Y-53980785D01*
X229549246Y-54000000D01*
X229450754Y-54000000D01*
X229354155Y-53980785D01*
X229263161Y-53943094D01*
X229181269Y-53888375D01*
X229181266Y-53888373D01*
X229111627Y-53818734D01*
X229056905Y-53736837D01*
X229019215Y-53645845D01*
X229000000Y-53549245D01*
X229000000Y-53450755D01*
X229019215Y-53354155D01*
X229056905Y-53263163D01*
X229111627Y-53181266D01*
X229181266Y-53111627D01*
X229182360Y-53110896D01*
X229263161Y-53056906D01*
X229354155Y-53019215D01*
X229450754Y-53000000D01*
X229549246Y-53000000D01*
X229645845Y-53019215D01*
X229645845Y-53019215D01*
G37*
G36*
X231645845Y-53019215D02*
X231736839Y-53056906D01*
X231817640Y-53110896D01*
X231818734Y-53111627D01*
X231888373Y-53181266D01*
X231943095Y-53263163D01*
X231980785Y-53354155D01*
X232000000Y-53450755D01*
X232000000Y-53549245D01*
X231980785Y-53645845D01*
X231943095Y-53736837D01*
X231888373Y-53818734D01*
X231818734Y-53888373D01*
X231818731Y-53888375D01*
X231736839Y-53943094D01*
X231645845Y-53980785D01*
X231549246Y-54000000D01*
X231450754Y-54000000D01*
X231354155Y-53980785D01*
X231263161Y-53943094D01*
X231181269Y-53888375D01*
X231181266Y-53888373D01*
X231111627Y-53818734D01*
X231056905Y-53736837D01*
X231019215Y-53645845D01*
X231000000Y-53549245D01*
X231000000Y-53450755D01*
X231019215Y-53354155D01*
X231056905Y-53263163D01*
X231111627Y-53181266D01*
X231181266Y-53111627D01*
X231182360Y-53110896D01*
X231263161Y-53056906D01*
X231354155Y-53019215D01*
X231450754Y-53000000D01*
X231549246Y-53000000D01*
X231645845Y-53019215D01*
X231645845Y-53019215D01*
G37*
G36*
X235645845Y-53019215D02*
X235736839Y-53056906D01*
X235817640Y-53110896D01*
X235818734Y-53111627D01*
X235888373Y-53181266D01*
X235943095Y-53263163D01*
X235980785Y-53354155D01*
X236000000Y-53450755D01*
X236000000Y-53549245D01*
X235980785Y-53645845D01*
X235943095Y-53736837D01*
X235888373Y-53818734D01*
X235818734Y-53888373D01*
X235818731Y-53888375D01*
X235736839Y-53943094D01*
X235645845Y-53980785D01*
X235549246Y-54000000D01*
X235450754Y-54000000D01*
X235354155Y-53980785D01*
X235263161Y-53943094D01*
X235181269Y-53888375D01*
X235181266Y-53888373D01*
X235111627Y-53818734D01*
X235056905Y-53736837D01*
X235019215Y-53645845D01*
X235000000Y-53549245D01*
X235000000Y-53450755D01*
X235019215Y-53354155D01*
X235056905Y-53263163D01*
X235111627Y-53181266D01*
X235181266Y-53111627D01*
X235182360Y-53110896D01*
X235263161Y-53056906D01*
X235354155Y-53019215D01*
X235450754Y-53000000D01*
X235549246Y-53000000D01*
X235645845Y-53019215D01*
X235645845Y-53019215D01*
G37*
G36*
X235645845Y-51019215D02*
X235736839Y-51056906D01*
X235817640Y-51110896D01*
X235818734Y-51111627D01*
X235888373Y-51181266D01*
X235943095Y-51263163D01*
X235980785Y-51354155D01*
X236000000Y-51450755D01*
X236000000Y-51549245D01*
X235980785Y-51645845D01*
X235943095Y-51736837D01*
X235888373Y-51818734D01*
X235818734Y-51888373D01*
X235818731Y-51888375D01*
X235736839Y-51943094D01*
X235645845Y-51980785D01*
X235549246Y-52000000D01*
X235450754Y-52000000D01*
X235354155Y-51980785D01*
X235263161Y-51943094D01*
X235181269Y-51888375D01*
X235181266Y-51888373D01*
X235111627Y-51818734D01*
X235056905Y-51736837D01*
X235019215Y-51645845D01*
X235000000Y-51549245D01*
X235000000Y-51450755D01*
X235019215Y-51354155D01*
X235056905Y-51263163D01*
X235111627Y-51181266D01*
X235181266Y-51111627D01*
X235182360Y-51110896D01*
X235263161Y-51056906D01*
X235354155Y-51019215D01*
X235450754Y-51000000D01*
X235549246Y-51000000D01*
X235645845Y-51019215D01*
X235645845Y-51019215D01*
G37*
G36*
X229645845Y-51019215D02*
X229736839Y-51056906D01*
X229817640Y-51110896D01*
X229818734Y-51111627D01*
X229888373Y-51181266D01*
X229943095Y-51263163D01*
X229980785Y-51354155D01*
X230000000Y-51450755D01*
X230000000Y-51549245D01*
X229980785Y-51645845D01*
X229943095Y-51736837D01*
X229888373Y-51818734D01*
X229818734Y-51888373D01*
X229818731Y-51888375D01*
X229736839Y-51943094D01*
X229645845Y-51980785D01*
X229549246Y-52000000D01*
X229450754Y-52000000D01*
X229354155Y-51980785D01*
X229263161Y-51943094D01*
X229181269Y-51888375D01*
X229181266Y-51888373D01*
X229111627Y-51818734D01*
X229056905Y-51736837D01*
X229019215Y-51645845D01*
X229000000Y-51549245D01*
X229000000Y-51450755D01*
X229019215Y-51354155D01*
X229056905Y-51263163D01*
X229111627Y-51181266D01*
X229181266Y-51111627D01*
X229182360Y-51110896D01*
X229263161Y-51056906D01*
X229354155Y-51019215D01*
X229450754Y-51000000D01*
X229549246Y-51000000D01*
X229645845Y-51019215D01*
X229645845Y-51019215D01*
G37*
G36*
X209879196Y-47749958D02*
X210115780Y-47847954D01*
X210328705Y-47990226D01*
X210509774Y-48171295D01*
X210652046Y-48384220D01*
X210750042Y-48620804D01*
X210800000Y-48871960D01*
X210800000Y-49128040D01*
X210750042Y-49379196D01*
X210652046Y-49615780D01*
X210509774Y-49828705D01*
X210328705Y-50009774D01*
X210115780Y-50152046D01*
X209879196Y-50250042D01*
X209628040Y-50300000D01*
X209371960Y-50300000D01*
X209120804Y-50250042D01*
X208884220Y-50152046D01*
X208671295Y-50009774D01*
X208490226Y-49828705D01*
X208347954Y-49615780D01*
X208249958Y-49379196D01*
X208200000Y-49128040D01*
X208200000Y-48871960D01*
X208249958Y-48620804D01*
X208347954Y-48384220D01*
X208490226Y-48171295D01*
X208671295Y-47990226D01*
X208884220Y-47847954D01*
X209120804Y-47749958D01*
X209371960Y-47700000D01*
X209628040Y-47700000D01*
X209879196Y-47749958D01*
X209879196Y-47749958D01*
G37*
G36*
X115879196Y-47749958D02*
X116115780Y-47847954D01*
X116328705Y-47990226D01*
X116509774Y-48171295D01*
X116652046Y-48384220D01*
X116750042Y-48620804D01*
X116800000Y-48871960D01*
X116800000Y-49128040D01*
X116750042Y-49379196D01*
X116652046Y-49615780D01*
X116509774Y-49828705D01*
X116328705Y-50009774D01*
X116115780Y-50152046D01*
X115879196Y-50250042D01*
X115628040Y-50300000D01*
X115371960Y-50300000D01*
X115120804Y-50250042D01*
X114884220Y-50152046D01*
X114671295Y-50009774D01*
X114490226Y-49828705D01*
X114347954Y-49615780D01*
X114249958Y-49379196D01*
X114200000Y-49128040D01*
X114200000Y-48871960D01*
X114249958Y-48620804D01*
X114347954Y-48384220D01*
X114490226Y-48171295D01*
X114671295Y-47990226D01*
X114884220Y-47847954D01*
X115120804Y-47749958D01*
X115371960Y-47700000D01*
X115628040Y-47700000D01*
X115879196Y-47749958D01*
X115879196Y-47749958D01*
G37*
G36*
X229645845Y-49019215D02*
X229736839Y-49056906D01*
X229817640Y-49110896D01*
X229818734Y-49111627D01*
X229888373Y-49181266D01*
X229943095Y-49263163D01*
X229980785Y-49354155D01*
X230000000Y-49450755D01*
X230000000Y-49549245D01*
X229980785Y-49645845D01*
X229943095Y-49736837D01*
X229888373Y-49818734D01*
X229818734Y-49888373D01*
X229818731Y-49888375D01*
X229736839Y-49943094D01*
X229645845Y-49980785D01*
X229549246Y-50000000D01*
X229450754Y-50000000D01*
X229354155Y-49980785D01*
X229263161Y-49943094D01*
X229181269Y-49888375D01*
X229181266Y-49888373D01*
X229111627Y-49818734D01*
X229056905Y-49736837D01*
X229019215Y-49645845D01*
X229000000Y-49549245D01*
X229000000Y-49450755D01*
X229019215Y-49354155D01*
X229056905Y-49263163D01*
X229111627Y-49181266D01*
X229181266Y-49111627D01*
X229182360Y-49110896D01*
X229263161Y-49056906D01*
X229354155Y-49019215D01*
X229450754Y-49000000D01*
X229549246Y-49000000D01*
X229645845Y-49019215D01*
X229645845Y-49019215D01*
G37*
G36*
X235645845Y-49019215D02*
X235736839Y-49056906D01*
X235817640Y-49110896D01*
X235818734Y-49111627D01*
X235888373Y-49181266D01*
X235943095Y-49263163D01*
X235980785Y-49354155D01*
X236000000Y-49450755D01*
X236000000Y-49549245D01*
X235980785Y-49645845D01*
X235943095Y-49736837D01*
X235888373Y-49818734D01*
X235818734Y-49888373D01*
X235818731Y-49888375D01*
X235736839Y-49943094D01*
X235645845Y-49980785D01*
X235549246Y-50000000D01*
X235450754Y-50000000D01*
X235354155Y-49980785D01*
X235263161Y-49943094D01*
X235181269Y-49888375D01*
X235181266Y-49888373D01*
X235111627Y-49818734D01*
X235056905Y-49736837D01*
X235019215Y-49645845D01*
X235000000Y-49549245D01*
X235000000Y-49450755D01*
X235019215Y-49354155D01*
X235056905Y-49263163D01*
X235111627Y-49181266D01*
X235181266Y-49111627D01*
X235182360Y-49110896D01*
X235263161Y-49056906D01*
X235354155Y-49019215D01*
X235450754Y-49000000D01*
X235549246Y-49000000D01*
X235645845Y-49019215D01*
X235645845Y-49019215D01*
G37*
G36*
X229645845Y-47019215D02*
X229736839Y-47056906D01*
X229817640Y-47110896D01*
X229818734Y-47111627D01*
X229888373Y-47181266D01*
X229943095Y-47263163D01*
X229980785Y-47354155D01*
X230000000Y-47450755D01*
X230000000Y-47549245D01*
X229980785Y-47645845D01*
X229943095Y-47736837D01*
X229888373Y-47818734D01*
X229818734Y-47888373D01*
X229818731Y-47888375D01*
X229736839Y-47943094D01*
X229645845Y-47980785D01*
X229549246Y-48000000D01*
X229450754Y-48000000D01*
X229354155Y-47980785D01*
X229263161Y-47943094D01*
X229181269Y-47888375D01*
X229181266Y-47888373D01*
X229111627Y-47818734D01*
X229056905Y-47736837D01*
X229019215Y-47645845D01*
X229000000Y-47549245D01*
X229000000Y-47450755D01*
X229019215Y-47354155D01*
X229056905Y-47263163D01*
X229111627Y-47181266D01*
X229181266Y-47111627D01*
X229182360Y-47110896D01*
X229263161Y-47056906D01*
X229354155Y-47019215D01*
X229450754Y-47000000D01*
X229549246Y-47000000D01*
X229645845Y-47019215D01*
X229645845Y-47019215D01*
G37*
G36*
X231645845Y-47019215D02*
X231736839Y-47056906D01*
X231817640Y-47110896D01*
X231818734Y-47111627D01*
X231888373Y-47181266D01*
X231943095Y-47263163D01*
X231980785Y-47354155D01*
X232000000Y-47450755D01*
X232000000Y-47549245D01*
X231980785Y-47645845D01*
X231943095Y-47736837D01*
X231888373Y-47818734D01*
X231818734Y-47888373D01*
X231818731Y-47888375D01*
X231736839Y-47943094D01*
X231645845Y-47980785D01*
X231549246Y-48000000D01*
X231450754Y-48000000D01*
X231354155Y-47980785D01*
X231263161Y-47943094D01*
X231181269Y-47888375D01*
X231181266Y-47888373D01*
X231111627Y-47818734D01*
X231056905Y-47736837D01*
X231019215Y-47645845D01*
X231000000Y-47549245D01*
X231000000Y-47450755D01*
X231019215Y-47354155D01*
X231056905Y-47263163D01*
X231111627Y-47181266D01*
X231181266Y-47111627D01*
X231182360Y-47110896D01*
X231263161Y-47056906D01*
X231354155Y-47019215D01*
X231450754Y-47000000D01*
X231549246Y-47000000D01*
X231645845Y-47019215D01*
X231645845Y-47019215D01*
G37*
G36*
X235645845Y-47019215D02*
X235736839Y-47056906D01*
X235817640Y-47110896D01*
X235818734Y-47111627D01*
X235888373Y-47181266D01*
X235943095Y-47263163D01*
X235980785Y-47354155D01*
X236000000Y-47450755D01*
X236000000Y-47549245D01*
X235980785Y-47645845D01*
X235943095Y-47736837D01*
X235888373Y-47818734D01*
X235818734Y-47888373D01*
X235818731Y-47888375D01*
X235736839Y-47943094D01*
X235645845Y-47980785D01*
X235549246Y-48000000D01*
X235450754Y-48000000D01*
X235354155Y-47980785D01*
X235263161Y-47943094D01*
X235181269Y-47888375D01*
X235181266Y-47888373D01*
X235111627Y-47818734D01*
X235056905Y-47736837D01*
X235019215Y-47645845D01*
X235000000Y-47549245D01*
X235000000Y-47450755D01*
X235019215Y-47354155D01*
X235056905Y-47263163D01*
X235111627Y-47181266D01*
X235181266Y-47111627D01*
X235182360Y-47110896D01*
X235263161Y-47056906D01*
X235354155Y-47019215D01*
X235450754Y-47000000D01*
X235549246Y-47000000D01*
X235645845Y-47019215D01*
X235645845Y-47019215D01*
G37*
G36*
X233645845Y-47019215D02*
X233736839Y-47056906D01*
X233817640Y-47110896D01*
X233818734Y-47111627D01*
X233888373Y-47181266D01*
X233943095Y-47263163D01*
X233980785Y-47354155D01*
X234000000Y-47450755D01*
X234000000Y-47549245D01*
X233980785Y-47645845D01*
X233943095Y-47736837D01*
X233888373Y-47818734D01*
X233818734Y-47888373D01*
X233818731Y-47888375D01*
X233736839Y-47943094D01*
X233645845Y-47980785D01*
X233549246Y-48000000D01*
X233450754Y-48000000D01*
X233354155Y-47980785D01*
X233263161Y-47943094D01*
X233181269Y-47888375D01*
X233181266Y-47888373D01*
X233111627Y-47818734D01*
X233056905Y-47736837D01*
X233019215Y-47645845D01*
X233000000Y-47549245D01*
X233000000Y-47450755D01*
X233019215Y-47354155D01*
X233056905Y-47263163D01*
X233111627Y-47181266D01*
X233181266Y-47111627D01*
X233182360Y-47110896D01*
X233263161Y-47056906D01*
X233354155Y-47019215D01*
X233450754Y-47000000D01*
X233549246Y-47000000D01*
X233645845Y-47019215D01*
X233645845Y-47019215D01*
G37*
G36*
X204400000Y-38625000D02*
X204402402Y-38649386D01*
X204409515Y-38672835D01*
X204421066Y-38694446D01*
X204436612Y-38713388D01*
X204455554Y-38728934D01*
X204477165Y-38740485D01*
X204500614Y-38747598D01*
X204525000Y-38750000D01*
X204700000Y-38750000D01*
X204700000Y-40650000D01*
X202800000Y-40650000D01*
X202800000Y-38725000D01*
X202797598Y-38700614D01*
X202790485Y-38677165D01*
X202778934Y-38655554D01*
X202763388Y-38636612D01*
X202744446Y-38621066D01*
X202722835Y-38609515D01*
X202699386Y-38602402D01*
X202675000Y-38600000D01*
X202500000Y-38600000D01*
X202500000Y-36700000D01*
X204400000Y-36700000D01*
X204400000Y-38625000D01*
X204400000Y-38625000D01*
G37*
G36*
X188800000Y-38625000D02*
X188802402Y-38649386D01*
X188809515Y-38672835D01*
X188821066Y-38694446D01*
X188836612Y-38713388D01*
X188855554Y-38728934D01*
X188877165Y-38740485D01*
X188900614Y-38747598D01*
X188925000Y-38750000D01*
X189100000Y-38750000D01*
X189100000Y-40650000D01*
X187200000Y-40650000D01*
X187200000Y-38725000D01*
X187197598Y-38700614D01*
X187190485Y-38677165D01*
X187178934Y-38655554D01*
X187163388Y-38636612D01*
X187144446Y-38621066D01*
X187122835Y-38609515D01*
X187099386Y-38602402D01*
X187075000Y-38600000D01*
X186900000Y-38600000D01*
X186900000Y-36700000D01*
X188800000Y-36700000D01*
X188800000Y-38625000D01*
X188800000Y-38625000D01*
G37*
G36*
X181000000Y-38625000D02*
X181002402Y-38649386D01*
X181009515Y-38672835D01*
X181021066Y-38694446D01*
X181036612Y-38713388D01*
X181055554Y-38728934D01*
X181077165Y-38740485D01*
X181100614Y-38747598D01*
X181125000Y-38750000D01*
X181300000Y-38750000D01*
X181300000Y-40650000D01*
X179400000Y-40650000D01*
X179400000Y-38725000D01*
X179397598Y-38700614D01*
X179390485Y-38677165D01*
X179378934Y-38655554D01*
X179363388Y-38636612D01*
X179344446Y-38621066D01*
X179322835Y-38609515D01*
X179299386Y-38602402D01*
X179275000Y-38600000D01*
X179100000Y-38600000D01*
X179100000Y-36700000D01*
X181000000Y-36700000D01*
X181000000Y-38625000D01*
X181000000Y-38625000D01*
G37*
G36*
X114700000Y-38600000D02*
X114525000Y-38600000D01*
X114500614Y-38602402D01*
X114477165Y-38609515D01*
X114455554Y-38621066D01*
X114436612Y-38636612D01*
X114421066Y-38655554D01*
X114409515Y-38677165D01*
X114402402Y-38700614D01*
X114400000Y-38725000D01*
X114400000Y-40650000D01*
X112500000Y-40650000D01*
X112500000Y-38750000D01*
X112675000Y-38750000D01*
X112699386Y-38747598D01*
X112722835Y-38740485D01*
X112744446Y-38728934D01*
X112763388Y-38713388D01*
X112778934Y-38694446D01*
X112790485Y-38672835D01*
X112797598Y-38649386D01*
X112800000Y-38625000D01*
X112800000Y-36700000D01*
X114700000Y-36700000D01*
X114700000Y-38600000D01*
X114700000Y-38600000D01*
G37*
G36*
X177100000Y-38600000D02*
X176925000Y-38600000D01*
X176900614Y-38602402D01*
X176877165Y-38609515D01*
X176855554Y-38621066D01*
X176836612Y-38636612D01*
X176821066Y-38655554D01*
X176809515Y-38677165D01*
X176802402Y-38700614D01*
X176800000Y-38725000D01*
X176800000Y-40650000D01*
X174900000Y-40650000D01*
X174900000Y-38750000D01*
X175075000Y-38750000D01*
X175099386Y-38747598D01*
X175122835Y-38740485D01*
X175144446Y-38728934D01*
X175163388Y-38713388D01*
X175178934Y-38694446D01*
X175190485Y-38672835D01*
X175197598Y-38649386D01*
X175200000Y-38625000D01*
X175200000Y-36700000D01*
X177100000Y-36700000D01*
X177100000Y-38600000D01*
X177100000Y-38600000D01*
G37*
G36*
X173200000Y-38625000D02*
X173202402Y-38649386D01*
X173209515Y-38672835D01*
X173221066Y-38694446D01*
X173236612Y-38713388D01*
X173255554Y-38728934D01*
X173277165Y-38740485D01*
X173300614Y-38747598D01*
X173325000Y-38750000D01*
X173500000Y-38750000D01*
X173500000Y-40650000D01*
X171600000Y-40650000D01*
X171600000Y-38725000D01*
X171597598Y-38700614D01*
X171590485Y-38677165D01*
X171578934Y-38655554D01*
X171563388Y-38636612D01*
X171544446Y-38621066D01*
X171522835Y-38609515D01*
X171499386Y-38602402D01*
X171475000Y-38600000D01*
X171300000Y-38600000D01*
X171300000Y-36700000D01*
X173200000Y-36700000D01*
X173200000Y-38625000D01*
X173200000Y-38625000D01*
G37*
G36*
X169300000Y-38600000D02*
X169125000Y-38600000D01*
X169100614Y-38602402D01*
X169077165Y-38609515D01*
X169055554Y-38621066D01*
X169036612Y-38636612D01*
X169021066Y-38655554D01*
X169009515Y-38677165D01*
X169002402Y-38700614D01*
X169000000Y-38725000D01*
X169000000Y-40650000D01*
X167100000Y-40650000D01*
X167100000Y-38750000D01*
X167275000Y-38750000D01*
X167299386Y-38747598D01*
X167322835Y-38740485D01*
X167344446Y-38728934D01*
X167363388Y-38713388D01*
X167378934Y-38694446D01*
X167390485Y-38672835D01*
X167397598Y-38649386D01*
X167400000Y-38625000D01*
X167400000Y-36700000D01*
X169300000Y-36700000D01*
X169300000Y-38600000D01*
X169300000Y-38600000D01*
G37*
G36*
X165400000Y-38625000D02*
X165402402Y-38649386D01*
X165409515Y-38672835D01*
X165421066Y-38694446D01*
X165436612Y-38713388D01*
X165455554Y-38728934D01*
X165477165Y-38740485D01*
X165500614Y-38747598D01*
X165525000Y-38750000D01*
X165700000Y-38750000D01*
X165700000Y-40650000D01*
X163800000Y-40650000D01*
X163800000Y-38725000D01*
X163797598Y-38700614D01*
X163790485Y-38677165D01*
X163778934Y-38655554D01*
X163763388Y-38636612D01*
X163744446Y-38621066D01*
X163722835Y-38609515D01*
X163699386Y-38602402D01*
X163675000Y-38600000D01*
X163500000Y-38600000D01*
X163500000Y-36700000D01*
X165400000Y-36700000D01*
X165400000Y-38625000D01*
X165400000Y-38625000D01*
G37*
G36*
X161500000Y-38600000D02*
X161325000Y-38600000D01*
X161300614Y-38602402D01*
X161277165Y-38609515D01*
X161255554Y-38621066D01*
X161236612Y-38636612D01*
X161221066Y-38655554D01*
X161209515Y-38677165D01*
X161202402Y-38700614D01*
X161200000Y-38725000D01*
X161200000Y-40650000D01*
X159300000Y-40650000D01*
X159300000Y-38750000D01*
X159475000Y-38750000D01*
X159499386Y-38747598D01*
X159522835Y-38740485D01*
X159544446Y-38728934D01*
X159563388Y-38713388D01*
X159578934Y-38694446D01*
X159590485Y-38672835D01*
X159597598Y-38649386D01*
X159600000Y-38625000D01*
X159600000Y-36700000D01*
X161500000Y-36700000D01*
X161500000Y-38600000D01*
X161500000Y-38600000D01*
G37*
G36*
X157600000Y-38625000D02*
X157602402Y-38649386D01*
X157609515Y-38672835D01*
X157621066Y-38694446D01*
X157636612Y-38713388D01*
X157655554Y-38728934D01*
X157677165Y-38740485D01*
X157700614Y-38747598D01*
X157725000Y-38750000D01*
X157900000Y-38750000D01*
X157900000Y-40650000D01*
X156000000Y-40650000D01*
X156000000Y-38725000D01*
X155997598Y-38700614D01*
X155990485Y-38677165D01*
X155978934Y-38655554D01*
X155963388Y-38636612D01*
X155944446Y-38621066D01*
X155922835Y-38609515D01*
X155899386Y-38602402D01*
X155875000Y-38600000D01*
X155700000Y-38600000D01*
X155700000Y-36700000D01*
X157600000Y-36700000D01*
X157600000Y-38625000D01*
X157600000Y-38625000D01*
G37*
G36*
X192700000Y-38600000D02*
X192525000Y-38600000D01*
X192500614Y-38602402D01*
X192477165Y-38609515D01*
X192455554Y-38621066D01*
X192436612Y-38636612D01*
X192421066Y-38655554D01*
X192409515Y-38677165D01*
X192402402Y-38700614D01*
X192400000Y-38725000D01*
X192400000Y-40650000D01*
X190500000Y-40650000D01*
X190500000Y-38750000D01*
X190675000Y-38750000D01*
X190699386Y-38747598D01*
X190722835Y-38740485D01*
X190744446Y-38728934D01*
X190763388Y-38713388D01*
X190778934Y-38694446D01*
X190790485Y-38672835D01*
X190797598Y-38649386D01*
X190800000Y-38625000D01*
X190800000Y-36700000D01*
X192700000Y-36700000D01*
X192700000Y-38600000D01*
X192700000Y-38600000D01*
G37*
G36*
X149800000Y-38625000D02*
X149802402Y-38649386D01*
X149809515Y-38672835D01*
X149821066Y-38694446D01*
X149836612Y-38713388D01*
X149855554Y-38728934D01*
X149877165Y-38740485D01*
X149900614Y-38747598D01*
X149925000Y-38750000D01*
X150100000Y-38750000D01*
X150100000Y-40650000D01*
X148200000Y-40650000D01*
X148200000Y-38725000D01*
X148197598Y-38700614D01*
X148190485Y-38677165D01*
X148178934Y-38655554D01*
X148163388Y-38636612D01*
X148144446Y-38621066D01*
X148122835Y-38609515D01*
X148099386Y-38602402D01*
X148075000Y-38600000D01*
X147900000Y-38600000D01*
X147900000Y-36700000D01*
X149800000Y-36700000D01*
X149800000Y-38625000D01*
X149800000Y-38625000D01*
G37*
G36*
X145900000Y-38600000D02*
X145725000Y-38600000D01*
X145700614Y-38602402D01*
X145677165Y-38609515D01*
X145655554Y-38621066D01*
X145636612Y-38636612D01*
X145621066Y-38655554D01*
X145609515Y-38677165D01*
X145602402Y-38700614D01*
X145600000Y-38725000D01*
X145600000Y-40650000D01*
X143700000Y-40650000D01*
X143700000Y-38750000D01*
X143875000Y-38750000D01*
X143899386Y-38747598D01*
X143922835Y-38740485D01*
X143944446Y-38728934D01*
X143963388Y-38713388D01*
X143978934Y-38694446D01*
X143990485Y-38672835D01*
X143997598Y-38649386D01*
X144000000Y-38625000D01*
X144000000Y-36700000D01*
X145900000Y-36700000D01*
X145900000Y-38600000D01*
X145900000Y-38600000D01*
G37*
G36*
X142000000Y-38625000D02*
X142002402Y-38649386D01*
X142009515Y-38672835D01*
X142021066Y-38694446D01*
X142036612Y-38713388D01*
X142055554Y-38728934D01*
X142077165Y-38740485D01*
X142100614Y-38747598D01*
X142125000Y-38750000D01*
X142300000Y-38750000D01*
X142300000Y-40650000D01*
X140400000Y-40650000D01*
X140400000Y-38725000D01*
X140397598Y-38700614D01*
X140390485Y-38677165D01*
X140378934Y-38655554D01*
X140363388Y-38636612D01*
X140344446Y-38621066D01*
X140322835Y-38609515D01*
X140299386Y-38602402D01*
X140275000Y-38600000D01*
X140100000Y-38600000D01*
X140100000Y-36700000D01*
X142000000Y-36700000D01*
X142000000Y-38625000D01*
X142000000Y-38625000D01*
G37*
G36*
X138100000Y-38600000D02*
X137925000Y-38600000D01*
X137900614Y-38602402D01*
X137877165Y-38609515D01*
X137855554Y-38621066D01*
X137836612Y-38636612D01*
X137821066Y-38655554D01*
X137809515Y-38677165D01*
X137802402Y-38700614D01*
X137800000Y-38725000D01*
X137800000Y-40650000D01*
X135900000Y-40650000D01*
X135900000Y-38750000D01*
X136075000Y-38750000D01*
X136099386Y-38747598D01*
X136122835Y-38740485D01*
X136144446Y-38728934D01*
X136163388Y-38713388D01*
X136178934Y-38694446D01*
X136190485Y-38672835D01*
X136197598Y-38649386D01*
X136200000Y-38625000D01*
X136200000Y-36700000D01*
X138100000Y-36700000D01*
X138100000Y-38600000D01*
X138100000Y-38600000D01*
G37*
G36*
X134200000Y-38625000D02*
X134202402Y-38649386D01*
X134209515Y-38672835D01*
X134221066Y-38694446D01*
X134236612Y-38713388D01*
X134255554Y-38728934D01*
X134277165Y-38740485D01*
X134300614Y-38747598D01*
X134325000Y-38750000D01*
X134500000Y-38750000D01*
X134500000Y-40650000D01*
X132600000Y-40650000D01*
X132600000Y-38725000D01*
X132597598Y-38700614D01*
X132590485Y-38677165D01*
X132578934Y-38655554D01*
X132563388Y-38636612D01*
X132544446Y-38621066D01*
X132522835Y-38609515D01*
X132499386Y-38602402D01*
X132475000Y-38600000D01*
X132300000Y-38600000D01*
X132300000Y-36700000D01*
X134200000Y-36700000D01*
X134200000Y-38625000D01*
X134200000Y-38625000D01*
G37*
G36*
X126400000Y-38625000D02*
X126402402Y-38649386D01*
X126409515Y-38672835D01*
X126421066Y-38694446D01*
X126436612Y-38713388D01*
X126455554Y-38728934D01*
X126477165Y-38740485D01*
X126500614Y-38747598D01*
X126525000Y-38750000D01*
X126700000Y-38750000D01*
X126700000Y-40650000D01*
X124800000Y-40650000D01*
X124800000Y-38725000D01*
X124797598Y-38700614D01*
X124790485Y-38677165D01*
X124778934Y-38655554D01*
X124763388Y-38636612D01*
X124744446Y-38621066D01*
X124722835Y-38609515D01*
X124699386Y-38602402D01*
X124675000Y-38600000D01*
X124500000Y-38600000D01*
X124500000Y-36700000D01*
X126400000Y-36700000D01*
X126400000Y-38625000D01*
X126400000Y-38625000D01*
G37*
G36*
X208300000Y-38600000D02*
X208125000Y-38600000D01*
X208100614Y-38602402D01*
X208077165Y-38609515D01*
X208055554Y-38621066D01*
X208036612Y-38636612D01*
X208021066Y-38655554D01*
X208009515Y-38677165D01*
X208002402Y-38700614D01*
X208000000Y-38725000D01*
X208000000Y-40650000D01*
X206100000Y-40650000D01*
X206100000Y-38750000D01*
X206275000Y-38750000D01*
X206299386Y-38747598D01*
X206322835Y-38740485D01*
X206344446Y-38728934D01*
X206363388Y-38713388D01*
X206378934Y-38694446D01*
X206390485Y-38672835D01*
X206397598Y-38649386D01*
X206400000Y-38625000D01*
X206400000Y-36700000D01*
X208300000Y-36700000D01*
X208300000Y-38600000D01*
X208300000Y-38600000D01*
G37*
G36*
X200500000Y-38600000D02*
X200325000Y-38600000D01*
X200300614Y-38602402D01*
X200277165Y-38609515D01*
X200255554Y-38621066D01*
X200236612Y-38636612D01*
X200221066Y-38655554D01*
X200209515Y-38677165D01*
X200202402Y-38700614D01*
X200200000Y-38725000D01*
X200200000Y-40650000D01*
X198300000Y-40650000D01*
X198300000Y-38750000D01*
X198475000Y-38750000D01*
X198499386Y-38747598D01*
X198522835Y-38740485D01*
X198544446Y-38728934D01*
X198563388Y-38713388D01*
X198578934Y-38694446D01*
X198590485Y-38672835D01*
X198597598Y-38649386D01*
X198600000Y-38625000D01*
X198600000Y-36700000D01*
X200500000Y-36700000D01*
X200500000Y-38600000D01*
X200500000Y-38600000D01*
G37*
G36*
X196600000Y-38625000D02*
X196602402Y-38649386D01*
X196609515Y-38672835D01*
X196621066Y-38694446D01*
X196636612Y-38713388D01*
X196655554Y-38728934D01*
X196677165Y-38740485D01*
X196700614Y-38747598D01*
X196725000Y-38750000D01*
X196900000Y-38750000D01*
X196900000Y-40650000D01*
X195000000Y-40650000D01*
X195000000Y-38725000D01*
X194997598Y-38700614D01*
X194990485Y-38677165D01*
X194978934Y-38655554D01*
X194963388Y-38636612D01*
X194944446Y-38621066D01*
X194922835Y-38609515D01*
X194899386Y-38602402D01*
X194875000Y-38600000D01*
X194700000Y-38600000D01*
X194700000Y-36700000D01*
X196600000Y-36700000D01*
X196600000Y-38625000D01*
X196600000Y-38625000D01*
G37*
G36*
X184900000Y-38600000D02*
X184725000Y-38600000D01*
X184700614Y-38602402D01*
X184677165Y-38609515D01*
X184655554Y-38621066D01*
X184636612Y-38636612D01*
X184621066Y-38655554D01*
X184609515Y-38677165D01*
X184602402Y-38700614D01*
X184600000Y-38725000D01*
X184600000Y-40650000D01*
X182700000Y-40650000D01*
X182700000Y-38750000D01*
X182875000Y-38750000D01*
X182899386Y-38747598D01*
X182922835Y-38740485D01*
X182944446Y-38728934D01*
X182963388Y-38713388D01*
X182978934Y-38694446D01*
X182990485Y-38672835D01*
X182997598Y-38649386D01*
X183000000Y-38625000D01*
X183000000Y-36700000D01*
X184900000Y-36700000D01*
X184900000Y-38600000D01*
X184900000Y-38600000D01*
G37*
G36*
X216100000Y-38600000D02*
X215925000Y-38600000D01*
X215900614Y-38602402D01*
X215877165Y-38609515D01*
X215855554Y-38621066D01*
X215836612Y-38636612D01*
X215821066Y-38655554D01*
X215809515Y-38677165D01*
X215802402Y-38700614D01*
X215800000Y-38725000D01*
X215800000Y-40650000D01*
X213900000Y-40650000D01*
X213900000Y-38750000D01*
X214075000Y-38750000D01*
X214099386Y-38747598D01*
X214122835Y-38740485D01*
X214144446Y-38728934D01*
X214163388Y-38713388D01*
X214178934Y-38694446D01*
X214190485Y-38672835D01*
X214197598Y-38649386D01*
X214200000Y-38625000D01*
X214200000Y-36700000D01*
X216100000Y-36700000D01*
X216100000Y-38600000D01*
X216100000Y-38600000D01*
G37*
G36*
X212200000Y-38625000D02*
X212202402Y-38649386D01*
X212209515Y-38672835D01*
X212221066Y-38694446D01*
X212236612Y-38713388D01*
X212255554Y-38728934D01*
X212277165Y-38740485D01*
X212300614Y-38747598D01*
X212325000Y-38750000D01*
X212500000Y-38750000D01*
X212500000Y-40650000D01*
X210600000Y-40650000D01*
X210600000Y-38725000D01*
X210597598Y-38700614D01*
X210590485Y-38677165D01*
X210578934Y-38655554D01*
X210563388Y-38636612D01*
X210544446Y-38621066D01*
X210522835Y-38609515D01*
X210499386Y-38602402D01*
X210475000Y-38600000D01*
X210300000Y-38600000D01*
X210300000Y-36700000D01*
X212200000Y-36700000D01*
X212200000Y-38625000D01*
X212200000Y-38625000D01*
G37*
G36*
X223900000Y-38600000D02*
X223725000Y-38600000D01*
X223700614Y-38602402D01*
X223677165Y-38609515D01*
X223655554Y-38621066D01*
X223636612Y-38636612D01*
X223621066Y-38655554D01*
X223609515Y-38677165D01*
X223602402Y-38700614D01*
X223600000Y-38725000D01*
X223600000Y-40650000D01*
X221700000Y-40650000D01*
X221700000Y-38750000D01*
X221875000Y-38750000D01*
X221899386Y-38747598D01*
X221922835Y-38740485D01*
X221944446Y-38728934D01*
X221963388Y-38713388D01*
X221978934Y-38694446D01*
X221990485Y-38672835D01*
X221997598Y-38649386D01*
X222000000Y-38625000D01*
X222000000Y-36700000D01*
X223900000Y-36700000D01*
X223900000Y-38600000D01*
X223900000Y-38600000D01*
G37*
G36*
X220000000Y-38625000D02*
X220002402Y-38649386D01*
X220009515Y-38672835D01*
X220021066Y-38694446D01*
X220036612Y-38713388D01*
X220055554Y-38728934D01*
X220077165Y-38740485D01*
X220100614Y-38747598D01*
X220125000Y-38750000D01*
X220300000Y-38750000D01*
X220300000Y-40650000D01*
X218400000Y-40650000D01*
X218400000Y-38725000D01*
X218397598Y-38700614D01*
X218390485Y-38677165D01*
X218378934Y-38655554D01*
X218363388Y-38636612D01*
X218344446Y-38621066D01*
X218322835Y-38609515D01*
X218299386Y-38602402D01*
X218275000Y-38600000D01*
X218100000Y-38600000D01*
X218100000Y-36700000D01*
X220000000Y-36700000D01*
X220000000Y-38625000D01*
X220000000Y-38625000D01*
G37*
G36*
X106900000Y-38600000D02*
X106725000Y-38600000D01*
X106700614Y-38602402D01*
X106677165Y-38609515D01*
X106655554Y-38621066D01*
X106636612Y-38636612D01*
X106621066Y-38655554D01*
X106609515Y-38677165D01*
X106602402Y-38700614D01*
X106600000Y-38725000D01*
X106600000Y-40650000D01*
X104700000Y-40650000D01*
X104700000Y-38750000D01*
X104875000Y-38750000D01*
X104899386Y-38747598D01*
X104922835Y-38740485D01*
X104944446Y-38728934D01*
X104963388Y-38713388D01*
X104978934Y-38694446D01*
X104990485Y-38672835D01*
X104997598Y-38649386D01*
X105000000Y-38625000D01*
X105000000Y-36700000D01*
X106900000Y-36700000D01*
X106900000Y-38600000D01*
X106900000Y-38600000D01*
G37*
G36*
X103000000Y-38625000D02*
X103002402Y-38649386D01*
X103009515Y-38672835D01*
X103021066Y-38694446D01*
X103036612Y-38713388D01*
X103055554Y-38728934D01*
X103077165Y-38740485D01*
X103100614Y-38747598D01*
X103125000Y-38750000D01*
X103300000Y-38750000D01*
X103300000Y-40650000D01*
X101400000Y-40650000D01*
X101400000Y-38725000D01*
X101397598Y-38700614D01*
X101390485Y-38677165D01*
X101378934Y-38655554D01*
X101363388Y-38636612D01*
X101344446Y-38621066D01*
X101322835Y-38609515D01*
X101299386Y-38602402D01*
X101275000Y-38600000D01*
X101100000Y-38600000D01*
X101100000Y-36700000D01*
X103000000Y-36700000D01*
X103000000Y-38625000D01*
X103000000Y-38625000D01*
G37*
G36*
X153700000Y-38600000D02*
X153525000Y-38600000D01*
X153500614Y-38602402D01*
X153477165Y-38609515D01*
X153455554Y-38621066D01*
X153436612Y-38636612D01*
X153421066Y-38655554D01*
X153409515Y-38677165D01*
X153402402Y-38700614D01*
X153400000Y-38725000D01*
X153400000Y-40650000D01*
X151500000Y-40650000D01*
X151500000Y-38750000D01*
X151675000Y-38750000D01*
X151699386Y-38747598D01*
X151722835Y-38740485D01*
X151744446Y-38728934D01*
X151763388Y-38713388D01*
X151778934Y-38694446D01*
X151790485Y-38672835D01*
X151797598Y-38649386D01*
X151800000Y-38625000D01*
X151800000Y-36700000D01*
X153700000Y-36700000D01*
X153700000Y-38600000D01*
X153700000Y-38600000D01*
G37*
G36*
X110800000Y-38625000D02*
X110802402Y-38649386D01*
X110809515Y-38672835D01*
X110821066Y-38694446D01*
X110836612Y-38713388D01*
X110855554Y-38728934D01*
X110877165Y-38740485D01*
X110900614Y-38747598D01*
X110925000Y-38750000D01*
X111100000Y-38750000D01*
X111100000Y-40650000D01*
X109200000Y-40650000D01*
X109200000Y-38725000D01*
X109197598Y-38700614D01*
X109190485Y-38677165D01*
X109178934Y-38655554D01*
X109163388Y-38636612D01*
X109144446Y-38621066D01*
X109122835Y-38609515D01*
X109099386Y-38602402D01*
X109075000Y-38600000D01*
X108900000Y-38600000D01*
X108900000Y-36700000D01*
X110800000Y-36700000D01*
X110800000Y-38625000D01*
X110800000Y-38625000D01*
G37*
G36*
X118600000Y-38625000D02*
X118602402Y-38649386D01*
X118609515Y-38672835D01*
X118621066Y-38694446D01*
X118636612Y-38713388D01*
X118655554Y-38728934D01*
X118677165Y-38740485D01*
X118700614Y-38747598D01*
X118725000Y-38750000D01*
X118900000Y-38750000D01*
X118900000Y-40650000D01*
X117000000Y-40650000D01*
X117000000Y-38725000D01*
X116997598Y-38700614D01*
X116990485Y-38677165D01*
X116978934Y-38655554D01*
X116963388Y-38636612D01*
X116944446Y-38621066D01*
X116922835Y-38609515D01*
X116899386Y-38602402D01*
X116875000Y-38600000D01*
X116700000Y-38600000D01*
X116700000Y-36700000D01*
X118600000Y-36700000D01*
X118600000Y-38625000D01*
X118600000Y-38625000D01*
G37*
G36*
X122500000Y-38600000D02*
X122325000Y-38600000D01*
X122300614Y-38602402D01*
X122277165Y-38609515D01*
X122255554Y-38621066D01*
X122236612Y-38636612D01*
X122221066Y-38655554D01*
X122209515Y-38677165D01*
X122202402Y-38700614D01*
X122200000Y-38725000D01*
X122200000Y-40650000D01*
X120300000Y-40650000D01*
X120300000Y-38750000D01*
X120475000Y-38750000D01*
X120499386Y-38747598D01*
X120522835Y-38740485D01*
X120544446Y-38728934D01*
X120563388Y-38713388D01*
X120578934Y-38694446D01*
X120590485Y-38672835D01*
X120597598Y-38649386D01*
X120600000Y-38625000D01*
X120600000Y-36700000D01*
X122500000Y-36700000D01*
X122500000Y-38600000D01*
X122500000Y-38600000D01*
G37*
G36*
X130300000Y-38600000D02*
X130125000Y-38600000D01*
X130100614Y-38602402D01*
X130077165Y-38609515D01*
X130055554Y-38621066D01*
X130036612Y-38636612D01*
X130021066Y-38655554D01*
X130009515Y-38677165D01*
X130002402Y-38700614D01*
X130000000Y-38725000D01*
X130000000Y-40650000D01*
X128100000Y-40650000D01*
X128100000Y-38750000D01*
X128275000Y-38750000D01*
X128299386Y-38747598D01*
X128322835Y-38740485D01*
X128344446Y-38728934D01*
X128363388Y-38713388D01*
X128378934Y-38694446D01*
X128390485Y-38672835D01*
X128397598Y-38649386D01*
X128400000Y-38625000D01*
X128400000Y-36700000D01*
X130300000Y-36700000D01*
X130300000Y-38600000D01*
X130300000Y-38600000D01*
G37*
G36*
X229879196Y-36749958D02*
X230115780Y-36847954D01*
X230328705Y-36990226D01*
X230509774Y-37171295D01*
X230652046Y-37384220D01*
X230750042Y-37620804D01*
X230800000Y-37871960D01*
X230800000Y-38128040D01*
X230750042Y-38379196D01*
X230652046Y-38615780D01*
X230509774Y-38828705D01*
X230328705Y-39009774D01*
X230115780Y-39152046D01*
X229879196Y-39250042D01*
X229628040Y-39300000D01*
X229371960Y-39300000D01*
X229120804Y-39250042D01*
X228884220Y-39152046D01*
X228671295Y-39009774D01*
X228490226Y-38828705D01*
X228347954Y-38615780D01*
X228249958Y-38379196D01*
X228200000Y-38128040D01*
X228200000Y-37871960D01*
X228249958Y-37620804D01*
X228347954Y-37384220D01*
X228490226Y-37171295D01*
X228671295Y-36990226D01*
X228884220Y-36847954D01*
X229120804Y-36749958D01*
X229371960Y-36700000D01*
X229628040Y-36700000D01*
X229879196Y-36749958D01*
X229879196Y-36749958D01*
G37*
G36*
X95879196Y-36749958D02*
X96115780Y-36847954D01*
X96328705Y-36990226D01*
X96509774Y-37171295D01*
X96652046Y-37384220D01*
X96750042Y-37620804D01*
X96800000Y-37871960D01*
X96800000Y-38128040D01*
X96750042Y-38379196D01*
X96652046Y-38615780D01*
X96509774Y-38828705D01*
X96328705Y-39009774D01*
X96115780Y-39152046D01*
X95879196Y-39250042D01*
X95628040Y-39300000D01*
X95371960Y-39300000D01*
X95120804Y-39250042D01*
X94884220Y-39152046D01*
X94671295Y-39009774D01*
X94490226Y-38828705D01*
X94347954Y-38615780D01*
X94249958Y-38379196D01*
X94200000Y-38128040D01*
X94200000Y-37871960D01*
X94249958Y-37620804D01*
X94347954Y-37384220D01*
X94490226Y-37171295D01*
X94671295Y-36990226D01*
X94884220Y-36847954D01*
X95120804Y-36749958D01*
X95371960Y-36700000D01*
X95628040Y-36700000D01*
X95879196Y-36749958D01*
X95879196Y-36749958D01*
G37*
G36*
X192700000Y-35300000D02*
X190800000Y-35300000D01*
X190800000Y-33400000D01*
X192700000Y-33400000D01*
X192700000Y-35300000D01*
X192700000Y-35300000D01*
G37*
G36*
X220000000Y-35300000D02*
X218100000Y-35300000D01*
X218100000Y-33400000D01*
X220000000Y-33400000D01*
X220000000Y-35300000D01*
X220000000Y-35300000D01*
G37*
G36*
X216100000Y-35300000D02*
X214200000Y-35300000D01*
X214200000Y-33400000D01*
X216100000Y-33400000D01*
X216100000Y-35300000D01*
X216100000Y-35300000D01*
G37*
G36*
X212200000Y-35300000D02*
X210300000Y-35300000D01*
X210300000Y-33400000D01*
X212200000Y-33400000D01*
X212200000Y-35300000D01*
X212200000Y-35300000D01*
G37*
G36*
X208300000Y-35300000D02*
X206400000Y-35300000D01*
X206400000Y-33400000D01*
X208300000Y-33400000D01*
X208300000Y-35300000D01*
X208300000Y-35300000D01*
G37*
G36*
X204400000Y-35300000D02*
X202500000Y-35300000D01*
X202500000Y-33400000D01*
X204400000Y-33400000D01*
X204400000Y-35300000D01*
X204400000Y-35300000D01*
G37*
G36*
X200500000Y-35300000D02*
X198600000Y-35300000D01*
X198600000Y-33400000D01*
X200500000Y-33400000D01*
X200500000Y-35300000D01*
X200500000Y-35300000D01*
G37*
G36*
X161500000Y-35300000D02*
X159600000Y-35300000D01*
X159600000Y-33400000D01*
X161500000Y-33400000D01*
X161500000Y-35300000D01*
X161500000Y-35300000D01*
G37*
G36*
X165400000Y-35300000D02*
X163500000Y-35300000D01*
X163500000Y-33400000D01*
X165400000Y-33400000D01*
X165400000Y-35300000D01*
X165400000Y-35300000D01*
G37*
G36*
X188800000Y-35300000D02*
X186900000Y-35300000D01*
X186900000Y-33400000D01*
X188800000Y-33400000D01*
X188800000Y-35300000D01*
X188800000Y-35300000D01*
G37*
G36*
X184900000Y-35300000D02*
X183000000Y-35300000D01*
X183000000Y-33400000D01*
X184900000Y-33400000D01*
X184900000Y-35300000D01*
X184900000Y-35300000D01*
G37*
G36*
X181000000Y-35300000D02*
X179100000Y-35300000D01*
X179100000Y-33400000D01*
X181000000Y-33400000D01*
X181000000Y-35300000D01*
X181000000Y-35300000D01*
G37*
G36*
X177100000Y-35300000D02*
X175200000Y-35300000D01*
X175200000Y-33400000D01*
X177100000Y-33400000D01*
X177100000Y-35300000D01*
X177100000Y-35300000D01*
G37*
G36*
X173200000Y-35300000D02*
X171300000Y-35300000D01*
X171300000Y-33400000D01*
X173200000Y-33400000D01*
X173200000Y-35300000D01*
X173200000Y-35300000D01*
G37*
G36*
X103000000Y-35300000D02*
X101100000Y-35300000D01*
X101100000Y-33400000D01*
X103000000Y-33400000D01*
X103000000Y-35300000D01*
X103000000Y-35300000D01*
G37*
G36*
X106900000Y-35300000D02*
X105000000Y-35300000D01*
X105000000Y-33400000D01*
X106900000Y-33400000D01*
X106900000Y-35300000D01*
X106900000Y-35300000D01*
G37*
G36*
X223900000Y-35300000D02*
X222000000Y-35300000D01*
X222000000Y-33400000D01*
X223900000Y-33400000D01*
X223900000Y-35300000D01*
X223900000Y-35300000D01*
G37*
G36*
X196600000Y-35300000D02*
X194700000Y-35300000D01*
X194700000Y-33400000D01*
X196600000Y-33400000D01*
X196600000Y-35300000D01*
X196600000Y-35300000D01*
G37*
G36*
X110800000Y-35300000D02*
X108900000Y-35300000D01*
X108900000Y-33400000D01*
X110800000Y-33400000D01*
X110800000Y-35300000D01*
X110800000Y-35300000D01*
G37*
G36*
X114700000Y-35300000D02*
X112800000Y-35300000D01*
X112800000Y-33400000D01*
X114700000Y-33400000D01*
X114700000Y-35300000D01*
X114700000Y-35300000D01*
G37*
G36*
X118600000Y-35300000D02*
X116700000Y-35300000D01*
X116700000Y-33400000D01*
X118600000Y-33400000D01*
X118600000Y-35300000D01*
X118600000Y-35300000D01*
G37*
G36*
X122500000Y-35300000D02*
X120600000Y-35300000D01*
X120600000Y-33400000D01*
X122500000Y-33400000D01*
X122500000Y-35300000D01*
X122500000Y-35300000D01*
G37*
G36*
X126400000Y-35300000D02*
X124500000Y-35300000D01*
X124500000Y-33400000D01*
X126400000Y-33400000D01*
X126400000Y-35300000D01*
X126400000Y-35300000D01*
G37*
G36*
X130300000Y-35300000D02*
X128400000Y-35300000D01*
X128400000Y-33400000D01*
X130300000Y-33400000D01*
X130300000Y-35300000D01*
X130300000Y-35300000D01*
G37*
G36*
X134200000Y-35300000D02*
X132300000Y-35300000D01*
X132300000Y-33400000D01*
X134200000Y-33400000D01*
X134200000Y-35300000D01*
X134200000Y-35300000D01*
G37*
G36*
X138100000Y-35300000D02*
X136200000Y-35300000D01*
X136200000Y-33400000D01*
X138100000Y-33400000D01*
X138100000Y-35300000D01*
X138100000Y-35300000D01*
G37*
G36*
X142000000Y-35300000D02*
X140100000Y-35300000D01*
X140100000Y-33400000D01*
X142000000Y-33400000D01*
X142000000Y-35300000D01*
X142000000Y-35300000D01*
G37*
G36*
X145900000Y-35300000D02*
X144000000Y-35300000D01*
X144000000Y-33400000D01*
X145900000Y-33400000D01*
X145900000Y-35300000D01*
X145900000Y-35300000D01*
G37*
G36*
X149800000Y-35300000D02*
X147900000Y-35300000D01*
X147900000Y-33400000D01*
X149800000Y-33400000D01*
X149800000Y-35300000D01*
X149800000Y-35300000D01*
G37*
G36*
X153700000Y-35300000D02*
X151800000Y-35300000D01*
X151800000Y-33400000D01*
X153700000Y-33400000D01*
X153700000Y-35300000D01*
X153700000Y-35300000D01*
G37*
G36*
X169300000Y-35300000D02*
X167400000Y-35300000D01*
X167400000Y-33400000D01*
X169300000Y-33400000D01*
X169300000Y-35300000D01*
X169300000Y-35300000D01*
G37*
G36*
X157600000Y-35300000D02*
X155700000Y-35300000D01*
X155700000Y-33400000D01*
X157600000Y-33400000D01*
X157600000Y-35300000D01*
X157600000Y-35300000D01*
G37*
M02*
