G04 #@! TF.GenerationSoftware,KiCad,Pcbnew,(5.1.9)-1*
G04 #@! TF.CreationDate,2021-02-21T21:58:38-05:00*
G04 #@! TF.ProjectId,FSAE Main Panel,46534145-204d-4616-996e-2050616e656c,rev?*
G04 #@! TF.SameCoordinates,Original*
G04 #@! TF.FileFunction,Copper,L1,Top*
G04 #@! TF.FilePolarity,Positive*
%FSLAX46Y46*%
G04 Gerber Fmt 4.6, Leading zero omitted, Abs format (unit mm)*
G04 Created by KiCad (PCBNEW (5.1.9)-1) date 2021-02-21 21:58:38*
%MOMM*%
%LPD*%
G01*
G04 APERTURE LIST*
G04 #@! TA.AperFunction,ComponentPad*
%ADD10O,2.000000X2.600000*%
G04 #@! TD*
G04 #@! TA.AperFunction,ComponentPad*
%ADD11R,2.000000X2.600000*%
G04 #@! TD*
G04 #@! TA.AperFunction,SMDPad,CuDef*
%ADD12C,0.100000*%
G04 #@! TD*
G04 #@! TA.AperFunction,SMDPad,CuDef*
%ADD13R,0.900000X0.500000*%
G04 #@! TD*
G04 #@! TA.AperFunction,SMDPad,CuDef*
%ADD14R,1.500000X1.500000*%
G04 #@! TD*
G04 #@! TA.AperFunction,SMDPad,CuDef*
%ADD15R,1.000000X1.600000*%
G04 #@! TD*
G04 #@! TA.AperFunction,SMDPad,CuDef*
%ADD16R,0.750000X0.800000*%
G04 #@! TD*
G04 #@! TA.AperFunction,SMDPad,CuDef*
%ADD17R,0.800000X0.750000*%
G04 #@! TD*
G04 #@! TA.AperFunction,ComponentPad*
%ADD18C,1.600000*%
G04 #@! TD*
G04 #@! TA.AperFunction,ComponentPad*
%ADD19R,1.600000X1.600000*%
G04 #@! TD*
G04 #@! TA.AperFunction,SMDPad,CuDef*
%ADD20R,1.600000X1.000000*%
G04 #@! TD*
G04 #@! TA.AperFunction,SMDPad,CuDef*
%ADD21R,1.100000X1.100000*%
G04 #@! TD*
G04 #@! TA.AperFunction,SMDPad,CuDef*
%ADD22R,1.500000X3.000000*%
G04 #@! TD*
G04 #@! TA.AperFunction,SMDPad,CuDef*
%ADD23R,0.800000X1.650000*%
G04 #@! TD*
G04 #@! TA.AperFunction,SMDPad,CuDef*
%ADD24R,0.600000X1.650000*%
G04 #@! TD*
G04 #@! TA.AperFunction,SMDPad,CuDef*
%ADD25R,3.200000X1.500000*%
G04 #@! TD*
G04 #@! TA.AperFunction,ComponentPad*
%ADD26O,2.600000X2.000000*%
G04 #@! TD*
G04 #@! TA.AperFunction,ComponentPad*
%ADD27R,2.600000X2.000000*%
G04 #@! TD*
G04 #@! TA.AperFunction,ComponentPad*
%ADD28O,1.000000X1.000000*%
G04 #@! TD*
G04 #@! TA.AperFunction,ComponentPad*
%ADD29R,1.000000X1.000000*%
G04 #@! TD*
G04 #@! TA.AperFunction,SMDPad,CuDef*
%ADD30R,1.250000X1.700000*%
G04 #@! TD*
G04 #@! TA.AperFunction,SMDPad,CuDef*
%ADD31R,0.900000X0.800000*%
G04 #@! TD*
G04 #@! TA.AperFunction,SMDPad,CuDef*
%ADD32R,0.500000X0.900000*%
G04 #@! TD*
G04 #@! TA.AperFunction,SMDPad,CuDef*
%ADD33R,2.500000X0.900000*%
G04 #@! TD*
G04 #@! TA.AperFunction,ComponentPad*
%ADD34C,2.400000*%
G04 #@! TD*
G04 #@! TA.AperFunction,SMDPad,CuDef*
%ADD35R,1.060000X0.650000*%
G04 #@! TD*
G04 #@! TA.AperFunction,SMDPad,CuDef*
%ADD36R,0.650000X1.060000*%
G04 #@! TD*
G04 #@! TA.AperFunction,ViaPad*
%ADD37C,0.800000*%
G04 #@! TD*
G04 #@! TA.AperFunction,Conductor*
%ADD38C,0.350000*%
G04 #@! TD*
G04 #@! TA.AperFunction,Conductor*
%ADD39C,0.250000*%
G04 #@! TD*
G04 #@! TA.AperFunction,Conductor*
%ADD40C,1.000000*%
G04 #@! TD*
G04 #@! TA.AperFunction,Conductor*
%ADD41C,1.500000*%
G04 #@! TD*
G04 #@! TA.AperFunction,Conductor*
%ADD42C,0.750000*%
G04 #@! TD*
G04 #@! TA.AperFunction,Conductor*
%ADD43C,0.500000*%
G04 #@! TD*
G04 #@! TA.AperFunction,Conductor*
%ADD44C,0.254000*%
G04 #@! TD*
G04 #@! TA.AperFunction,Conductor*
%ADD45C,0.100000*%
G04 #@! TD*
G04 #@! TA.AperFunction,Conductor*
%ADD46C,0.208000*%
G04 #@! TD*
G04 APERTURE END LIST*
D10*
X166220000Y-115200000D03*
X168760000Y-115200000D03*
X171300000Y-115200000D03*
X173840000Y-115200000D03*
X176380000Y-115200000D03*
X178920000Y-115200000D03*
X181460000Y-115200000D03*
D11*
X184000000Y-115200000D03*
G04 #@! TA.AperFunction,SMDPad,CuDef*
D12*
G36*
X127919520Y-98694327D02*
G01*
X127469520Y-99473749D01*
X127036508Y-99223749D01*
X127486508Y-98444327D01*
X127919520Y-98694327D01*
G37*
G04 #@! TD.AperFunction*
G04 #@! TA.AperFunction,SMDPad,CuDef*
G36*
X129218558Y-99444327D02*
G01*
X128768558Y-100223749D01*
X128335546Y-99973749D01*
X128785546Y-99194327D01*
X129218558Y-99444327D01*
G37*
G04 #@! TD.AperFunction*
D13*
X125276533Y-92814038D03*
X125276533Y-94314038D03*
G04 #@! TA.AperFunction,SMDPad,CuDef*
D12*
G36*
X129506013Y-88349711D02*
G01*
X129056013Y-87570289D01*
X129489025Y-87320289D01*
X129939025Y-88099711D01*
X129506013Y-88349711D01*
G37*
G04 #@! TD.AperFunction*
G04 #@! TA.AperFunction,SMDPad,CuDef*
G36*
X128206975Y-89099711D02*
G01*
X127756975Y-88320289D01*
X128189987Y-88070289D01*
X128639987Y-88849711D01*
X128206975Y-89099711D01*
G37*
G04 #@! TD.AperFunction*
G04 #@! TA.AperFunction,SMDPad,CuDef*
G36*
X135478480Y-89265673D02*
G01*
X135928480Y-88486251D01*
X136361492Y-88736251D01*
X135911492Y-89515673D01*
X135478480Y-89265673D01*
G37*
G04 #@! TD.AperFunction*
G04 #@! TA.AperFunction,SMDPad,CuDef*
G36*
X134179442Y-88515673D02*
G01*
X134629442Y-87736251D01*
X135062454Y-87986251D01*
X134612454Y-88765673D01*
X134179442Y-88515673D01*
G37*
G04 #@! TD.AperFunction*
D13*
X138121467Y-95145962D03*
X138121467Y-93645962D03*
X227486642Y-92682878D03*
X227486642Y-94182878D03*
G04 #@! TA.AperFunction,SMDPad,CuDef*
D12*
G36*
X231905655Y-88152589D02*
G01*
X231455655Y-87373167D01*
X231888667Y-87123167D01*
X232338667Y-87902589D01*
X231905655Y-88152589D01*
G37*
G04 #@! TD.AperFunction*
G04 #@! TA.AperFunction,SMDPad,CuDef*
G36*
X230606617Y-88902589D02*
G01*
X230156617Y-88123167D01*
X230589629Y-87873167D01*
X231039629Y-88652589D01*
X230606617Y-88902589D01*
G37*
G04 #@! TD.AperFunction*
G04 #@! TA.AperFunction,SMDPad,CuDef*
G36*
X238030013Y-89199711D02*
G01*
X238480013Y-88420289D01*
X238913025Y-88670289D01*
X238463025Y-89449711D01*
X238030013Y-89199711D01*
G37*
G04 #@! TD.AperFunction*
G04 #@! TA.AperFunction,SMDPad,CuDef*
G36*
X236730975Y-88449711D02*
G01*
X237180975Y-87670289D01*
X237613987Y-87920289D01*
X237163987Y-88699711D01*
X236730975Y-88449711D01*
G37*
G04 #@! TD.AperFunction*
D13*
X240635358Y-95277122D03*
X240635358Y-93777122D03*
G04 #@! TA.AperFunction,SMDPad,CuDef*
D12*
G36*
X236216345Y-99807411D02*
G01*
X236666345Y-100586833D01*
X236233333Y-100836833D01*
X235783333Y-100057411D01*
X236216345Y-99807411D01*
G37*
G04 #@! TD.AperFunction*
G04 #@! TA.AperFunction,SMDPad,CuDef*
G36*
X237515383Y-99057411D02*
G01*
X237965383Y-99836833D01*
X237532371Y-100086833D01*
X237082371Y-99307411D01*
X237515383Y-99057411D01*
G37*
G04 #@! TD.AperFunction*
G04 #@! TA.AperFunction,SMDPad,CuDef*
G36*
X229827668Y-95487653D02*
G01*
X230577668Y-96786691D01*
X229278630Y-97536691D01*
X228528630Y-96237653D01*
X229827668Y-95487653D01*
G37*
G04 #@! TD.AperFunction*
G04 #@! TA.AperFunction,SMDPad,CuDef*
G36*
X232685552Y-93837653D02*
G01*
X233435552Y-95136691D01*
X232136514Y-95886691D01*
X231386514Y-94587653D01*
X232685552Y-93837653D01*
G37*
G04 #@! TD.AperFunction*
G04 #@! TA.AperFunction,SMDPad,CuDef*
G36*
X230638668Y-91067653D02*
G01*
X229888668Y-92366691D01*
X228589630Y-91616691D01*
X229339630Y-90317653D01*
X230638668Y-91067653D01*
G37*
G04 #@! TD.AperFunction*
G04 #@! TA.AperFunction,SMDPad,CuDef*
G36*
X233496552Y-92717653D02*
G01*
X232746552Y-94016691D01*
X231447514Y-93266691D01*
X232197514Y-91967653D01*
X233496552Y-92717653D01*
G37*
G04 #@! TD.AperFunction*
D14*
X234122000Y-88810000D03*
X234122000Y-92110000D03*
G04 #@! TA.AperFunction,SMDPad,CuDef*
D12*
G36*
X238294332Y-92472347D02*
G01*
X237544332Y-91173309D01*
X238843370Y-90423309D01*
X239593370Y-91722347D01*
X238294332Y-92472347D01*
G37*
G04 #@! TD.AperFunction*
G04 #@! TA.AperFunction,SMDPad,CuDef*
G36*
X235436448Y-94122347D02*
G01*
X234686448Y-92823309D01*
X235985486Y-92073309D01*
X236735486Y-93372347D01*
X235436448Y-94122347D01*
G37*
G04 #@! TD.AperFunction*
G04 #@! TA.AperFunction,SMDPad,CuDef*
G36*
X237483332Y-96892347D02*
G01*
X238233332Y-95593309D01*
X239532370Y-96343309D01*
X238782370Y-97642347D01*
X237483332Y-96892347D01*
G37*
G04 #@! TD.AperFunction*
G04 #@! TA.AperFunction,SMDPad,CuDef*
G36*
X234625448Y-95242347D02*
G01*
X235375448Y-93943309D01*
X236674486Y-94693309D01*
X235924486Y-95992347D01*
X234625448Y-95242347D01*
G37*
G04 #@! TD.AperFunction*
G04 #@! TA.AperFunction,SMDPad,CuDef*
G36*
X130354552Y-93891347D02*
G01*
X131104552Y-95190385D01*
X129805514Y-95940385D01*
X129055514Y-94641347D01*
X130354552Y-93891347D01*
G37*
G04 #@! TD.AperFunction*
G04 #@! TA.AperFunction,SMDPad,CuDef*
G36*
X127496668Y-95541347D02*
G01*
X128246668Y-96840385D01*
X126947630Y-97590385D01*
X126197630Y-96291347D01*
X127496668Y-95541347D01*
G37*
G04 #@! TD.AperFunction*
G04 #@! TA.AperFunction,SMDPad,CuDef*
G36*
X131103552Y-92771347D02*
G01*
X130353552Y-94070385D01*
X129054514Y-93320385D01*
X129804514Y-92021347D01*
X131103552Y-92771347D01*
G37*
G04 #@! TD.AperFunction*
G04 #@! TA.AperFunction,SMDPad,CuDef*
G36*
X128245668Y-91121347D02*
G01*
X127495668Y-92420385D01*
X126196630Y-91670385D01*
X126946630Y-90371347D01*
X128245668Y-91121347D01*
G37*
G04 #@! TD.AperFunction*
D14*
X131698000Y-92110000D03*
X131698000Y-88810000D03*
G04 #@! TA.AperFunction,SMDPad,CuDef*
D12*
G36*
X133043448Y-94068653D02*
G01*
X132293448Y-92769615D01*
X133592486Y-92019615D01*
X134342486Y-93318653D01*
X133043448Y-94068653D01*
G37*
G04 #@! TD.AperFunction*
G04 #@! TA.AperFunction,SMDPad,CuDef*
G36*
X135901332Y-92418653D02*
G01*
X135151332Y-91119615D01*
X136450370Y-90369615D01*
X137200370Y-91668653D01*
X135901332Y-92418653D01*
G37*
G04 #@! TD.AperFunction*
G04 #@! TA.AperFunction,SMDPad,CuDef*
G36*
X132294448Y-95188653D02*
G01*
X133044448Y-93889615D01*
X134343486Y-94639615D01*
X133593486Y-95938653D01*
X132294448Y-95188653D01*
G37*
G04 #@! TD.AperFunction*
G04 #@! TA.AperFunction,SMDPad,CuDef*
G36*
X135152332Y-96838653D02*
G01*
X135902332Y-95539615D01*
X137201370Y-96289615D01*
X136451370Y-97588653D01*
X135152332Y-96838653D01*
G37*
G04 #@! TD.AperFunction*
D15*
X220900000Y-104400000D03*
X223900000Y-104400000D03*
D16*
X218300000Y-103950000D03*
X218300000Y-105450000D03*
D17*
X210050000Y-99800000D03*
X208550000Y-99800000D03*
X210550000Y-95000000D03*
X209050000Y-95000000D03*
X209050000Y-96400000D03*
X210550000Y-96400000D03*
D16*
X141800000Y-104350000D03*
X141800000Y-102850000D03*
X108100000Y-109650000D03*
X108100000Y-111150000D03*
X264500000Y-115250000D03*
X264500000Y-116750000D03*
D18*
X254600000Y-110400000D03*
D19*
X256600000Y-110400000D03*
D18*
X268400000Y-72500000D03*
D19*
X266400000Y-72500000D03*
X266400000Y-66000000D03*
D18*
X268400000Y-66000000D03*
X254500000Y-103750000D03*
D19*
X256500000Y-103750000D03*
X250000000Y-99250000D03*
D18*
X248000000Y-99250000D03*
D19*
X250000000Y-108200000D03*
D18*
X248000000Y-108200000D03*
D15*
X198600000Y-112800000D03*
X195600000Y-112800000D03*
D16*
X227500000Y-115950000D03*
X227500000Y-114450000D03*
X226100000Y-115950000D03*
X226100000Y-114450000D03*
D17*
X219950000Y-112600000D03*
X221450000Y-112600000D03*
X221450000Y-111100000D03*
X219950000Y-111100000D03*
D15*
X219900000Y-109200000D03*
X222900000Y-109200000D03*
D16*
X204300000Y-111550000D03*
X204300000Y-110050000D03*
X210300000Y-110050000D03*
X210300000Y-111550000D03*
D20*
X212600000Y-110000000D03*
X212600000Y-113000000D03*
D16*
X162700000Y-96650000D03*
X162700000Y-95150000D03*
D17*
X160950000Y-100700000D03*
X162450000Y-100700000D03*
D15*
X161000000Y-103300000D03*
X164000000Y-103300000D03*
D21*
X202300000Y-113600000D03*
X202300000Y-116400000D03*
D13*
X164190000Y-110170000D03*
X164190000Y-108670000D03*
D14*
X125000000Y-67350000D03*
X125000000Y-70650000D03*
X129000000Y-67350000D03*
X129000000Y-70650000D03*
X133000000Y-70650000D03*
X133000000Y-67350000D03*
X137000000Y-67350000D03*
X137000000Y-70650000D03*
X141000000Y-70650000D03*
X141000000Y-67350000D03*
X145000000Y-67350000D03*
X145000000Y-70650000D03*
X149000000Y-70650000D03*
X149000000Y-67350000D03*
X153000000Y-67350000D03*
X153000000Y-70650000D03*
X157000000Y-67350000D03*
X157000000Y-70650000D03*
X161000000Y-70650000D03*
X161000000Y-67350000D03*
X165000000Y-67350000D03*
X165000000Y-70650000D03*
X169000000Y-70650000D03*
X169000000Y-67350000D03*
X173000000Y-70650000D03*
X173000000Y-67350000D03*
X177000000Y-70650000D03*
X177000000Y-67350000D03*
X181000000Y-70650000D03*
X181000000Y-67350000D03*
X185000000Y-67350000D03*
X185000000Y-70650000D03*
X189000000Y-70650000D03*
X189000000Y-67350000D03*
X193000000Y-67350000D03*
X193000000Y-70650000D03*
X197000000Y-67350000D03*
X197000000Y-70650000D03*
X201000000Y-67350000D03*
X201000000Y-70650000D03*
X205000000Y-70650000D03*
X205000000Y-67350000D03*
X209000000Y-67350000D03*
X209000000Y-70650000D03*
X213000000Y-70650000D03*
X213000000Y-67350000D03*
X217000000Y-70650000D03*
X217000000Y-67350000D03*
X221000000Y-67350000D03*
X221000000Y-70650000D03*
X225000000Y-70650000D03*
X225000000Y-67350000D03*
X229000000Y-67350000D03*
X229000000Y-70650000D03*
X233000000Y-70650000D03*
X233000000Y-67350000D03*
X237000000Y-70650000D03*
X237000000Y-67350000D03*
X241000000Y-67350000D03*
X241000000Y-70650000D03*
D22*
X113500000Y-71058000D03*
X113500000Y-66658000D03*
X110500000Y-66658000D03*
X110500000Y-71058000D03*
D23*
X110950000Y-70358000D03*
X113050000Y-70358000D03*
X113050000Y-67308000D03*
X110950000Y-67308000D03*
D24*
X112000000Y-67308000D03*
X112000000Y-70358000D03*
X119000000Y-70485000D03*
X119000000Y-67435000D03*
D23*
X117950000Y-67435000D03*
X120050000Y-67435000D03*
X120050000Y-70485000D03*
X117950000Y-70485000D03*
D22*
X117500000Y-71185000D03*
X117500000Y-66785000D03*
X120500000Y-66785000D03*
X120500000Y-71185000D03*
D24*
X254000000Y-70485000D03*
X254000000Y-67435000D03*
D23*
X252950000Y-67435000D03*
X255050000Y-67435000D03*
X255050000Y-70485000D03*
X252950000Y-70485000D03*
D22*
X252500000Y-71185000D03*
X252500000Y-66785000D03*
X255500000Y-66785000D03*
X255500000Y-71185000D03*
X248500000Y-71185000D03*
X248500000Y-66785000D03*
X245500000Y-66785000D03*
X245500000Y-71185000D03*
D23*
X245950000Y-70485000D03*
X248050000Y-70485000D03*
X248050000Y-67435000D03*
X245950000Y-67435000D03*
D24*
X247000000Y-67435000D03*
X247000000Y-70485000D03*
D14*
X183350000Y-87500000D03*
X186650000Y-87500000D03*
X190000000Y-90350000D03*
X190000000Y-93650000D03*
X188000000Y-100350000D03*
X188000000Y-103650000D03*
X182650000Y-106500000D03*
X179350000Y-106500000D03*
X176000000Y-103650000D03*
X176000000Y-100350000D03*
X178000000Y-93650000D03*
X178000000Y-90350000D03*
X184650000Y-97000000D03*
X181350000Y-97000000D03*
X131700000Y-99150000D03*
X131700000Y-95850000D03*
X234000000Y-95850000D03*
X234000000Y-99150000D03*
D25*
X161000000Y-106000000D03*
X161000000Y-110200000D03*
D26*
X269000000Y-116780000D03*
X269000000Y-114240000D03*
X269000000Y-111700000D03*
X269000000Y-109160000D03*
X269000000Y-106620000D03*
X269000000Y-104080000D03*
X269000000Y-101540000D03*
D27*
X269000000Y-99000000D03*
X108000000Y-80600000D03*
D26*
X108000000Y-83140000D03*
X108000000Y-85680000D03*
X108000000Y-88220000D03*
X108000000Y-90760000D03*
X108000000Y-93300000D03*
X108000000Y-95840000D03*
X108000000Y-98380000D03*
D10*
X150860000Y-115200000D03*
X148320000Y-115200000D03*
X145780000Y-115200000D03*
X143240000Y-115200000D03*
X140700000Y-115200000D03*
X138160000Y-115200000D03*
X135620000Y-115200000D03*
X133080000Y-115200000D03*
X130540000Y-115200000D03*
D11*
X128000000Y-115200000D03*
D28*
X226180000Y-100170000D03*
X226180000Y-98900000D03*
X224910000Y-100170000D03*
X224910000Y-98900000D03*
X223640000Y-100170000D03*
X223640000Y-98900000D03*
X222370000Y-100170000D03*
X222370000Y-98900000D03*
X221100000Y-100170000D03*
D29*
X221100000Y-98900000D03*
D30*
X219870000Y-106900000D03*
X224130000Y-106900000D03*
D31*
X193800000Y-115550000D03*
X193800000Y-113650000D03*
X191800000Y-114600000D03*
X144900000Y-91750000D03*
X144900000Y-89850000D03*
X142900000Y-90800000D03*
X224900000Y-95400000D03*
X222900000Y-96350000D03*
X222900000Y-94450000D03*
X117400000Y-82600000D03*
X119400000Y-81650000D03*
X119400000Y-83550000D03*
X245000000Y-80500000D03*
X243000000Y-81450000D03*
X243000000Y-79550000D03*
D32*
X152350000Y-98300000D03*
X150850000Y-98300000D03*
X146650000Y-98300000D03*
X148150000Y-98300000D03*
X112150000Y-103600000D03*
X113650000Y-103600000D03*
X110350000Y-103600000D03*
X108850000Y-103600000D03*
X126500000Y-110300000D03*
X128000000Y-110300000D03*
D13*
X262600000Y-115250000D03*
X262600000Y-116750000D03*
X125000000Y-75750000D03*
X125000000Y-74250000D03*
X129000000Y-74250000D03*
X129000000Y-75750000D03*
X133000000Y-74250000D03*
X133000000Y-75750000D03*
X137000000Y-74250000D03*
X137000000Y-75750000D03*
X141000000Y-74250000D03*
X141000000Y-75750000D03*
X145000000Y-75750000D03*
X145000000Y-74250000D03*
X149000000Y-74250000D03*
X149000000Y-75750000D03*
X153000000Y-74250000D03*
X153000000Y-75750000D03*
X157000000Y-75750000D03*
X157000000Y-74250000D03*
X161000000Y-74250000D03*
X161000000Y-75750000D03*
X165000000Y-75750000D03*
X165000000Y-74250000D03*
X169000000Y-74250000D03*
X169000000Y-75750000D03*
X173000000Y-75750000D03*
X173000000Y-74250000D03*
X177000000Y-75750000D03*
X177000000Y-74250000D03*
X181000000Y-74250000D03*
X181000000Y-75750000D03*
X185000000Y-75750000D03*
X185000000Y-74250000D03*
X189000000Y-74250000D03*
X189000000Y-75750000D03*
X193000000Y-75750000D03*
X193000000Y-74250000D03*
X197000000Y-75750000D03*
X197000000Y-74250000D03*
X201000000Y-74250000D03*
X201000000Y-75750000D03*
X205000000Y-75750000D03*
X205000000Y-74250000D03*
X209000000Y-74250000D03*
X209000000Y-75750000D03*
X213000000Y-74250000D03*
X213000000Y-75750000D03*
X217000000Y-75750000D03*
X217000000Y-74250000D03*
X221000000Y-74250000D03*
X221000000Y-75750000D03*
X225000000Y-75750000D03*
X225000000Y-74250000D03*
X229000000Y-74250000D03*
X229000000Y-75750000D03*
X233000000Y-75750000D03*
X233000000Y-74250000D03*
X237000000Y-74250000D03*
X237000000Y-75750000D03*
X241000000Y-75750000D03*
X241000000Y-74250000D03*
D32*
X232050000Y-83000000D03*
X230550000Y-83000000D03*
X230550000Y-85000000D03*
X232050000Y-85000000D03*
D33*
X112000000Y-77450000D03*
X112000000Y-74550000D03*
X119000000Y-74550000D03*
X119000000Y-77450000D03*
X254000000Y-74550000D03*
X254000000Y-77450000D03*
X247000000Y-77450000D03*
X247000000Y-74550000D03*
G04 #@! TA.AperFunction,SMDPad,CuDef*
D12*
G36*
X135191025Y-98860289D02*
G01*
X135641025Y-99639711D01*
X135208013Y-99889711D01*
X134758013Y-99110289D01*
X135191025Y-98860289D01*
G37*
G04 #@! TD.AperFunction*
G04 #@! TA.AperFunction,SMDPad,CuDef*
G36*
X133891987Y-99610289D02*
G01*
X134341987Y-100389711D01*
X133908975Y-100639711D01*
X133458975Y-99860289D01*
X133891987Y-99610289D01*
G37*
G04 #@! TD.AperFunction*
G04 #@! TA.AperFunction,SMDPad,CuDef*
G36*
X231391025Y-99510289D02*
G01*
X230941025Y-100289711D01*
X230508013Y-100039711D01*
X230958013Y-99260289D01*
X231391025Y-99510289D01*
G37*
G04 #@! TD.AperFunction*
G04 #@! TA.AperFunction,SMDPad,CuDef*
G36*
X230091987Y-98760289D02*
G01*
X229641987Y-99539711D01*
X229208975Y-99289711D01*
X229658975Y-98510289D01*
X230091987Y-98760289D01*
G37*
G04 #@! TD.AperFunction*
D34*
X156500000Y-101000000D03*
X144000000Y-101000000D03*
X156500000Y-106000000D03*
X144000000Y-106000000D03*
X110600000Y-112800000D03*
X123100000Y-112800000D03*
X110600000Y-107800000D03*
X123100000Y-107800000D03*
D35*
X223700000Y-116050000D03*
X223700000Y-115100000D03*
X223700000Y-114150000D03*
X221500000Y-114150000D03*
X221500000Y-116050000D03*
X206200000Y-110050000D03*
X206200000Y-111000000D03*
X206200000Y-111950000D03*
X208400000Y-111950000D03*
X208400000Y-110050000D03*
D36*
X160950000Y-98200000D03*
X159050000Y-98200000D03*
X159050000Y-96000000D03*
X160000000Y-96000000D03*
X160950000Y-96000000D03*
D37*
X121000000Y-81600000D03*
X146500000Y-89800000D03*
X241800000Y-81500000D03*
X125100000Y-110300000D03*
X221500000Y-96400000D03*
X160000000Y-94500000D03*
X264500000Y-114100000D03*
X217600000Y-103000000D03*
X202400000Y-84100000D03*
X196300000Y-88100000D03*
X224100000Y-93000000D03*
X270700000Y-76700000D03*
X215500000Y-93100000D03*
X203200000Y-111100000D03*
X204700000Y-116600000D03*
X211700000Y-114800000D03*
X212600000Y-111400000D03*
X226100000Y-113100000D03*
X222900000Y-112800000D03*
X230500000Y-116900000D03*
X237600000Y-114600000D03*
X239700000Y-116700000D03*
X246400000Y-110800000D03*
X260150000Y-90750000D03*
X263050000Y-102250000D03*
X253500000Y-99700000D03*
X219600000Y-104400000D03*
X227400000Y-108100000D03*
X227300000Y-102700000D03*
X229700000Y-103100000D03*
X229900000Y-107700000D03*
X224300000Y-108500000D03*
X254300000Y-86000000D03*
X269750000Y-85500000D03*
X165600000Y-97800000D03*
X240400000Y-99100000D03*
X196700000Y-114450000D03*
X212000000Y-116224990D03*
X199400000Y-109500000D03*
X132100000Y-97300000D03*
X134300000Y-97300000D03*
X210000000Y-93000000D03*
X203450000Y-115300000D03*
X127810000Y-103550000D03*
X192930000Y-116790000D03*
X181000000Y-104800000D03*
X177600000Y-104800000D03*
X208500000Y-101500000D03*
X201000000Y-102000000D03*
X163100000Y-107700000D03*
X174700000Y-104900000D03*
X172400000Y-103900000D03*
X168500000Y-104900000D03*
X162100000Y-99200000D03*
X217100000Y-103900000D03*
X216800000Y-111400000D03*
X210000000Y-101500000D03*
X151700000Y-97000000D03*
X213400000Y-96500000D03*
X202500000Y-98300000D03*
X206800000Y-84200000D03*
X247600000Y-113800000D03*
X214100000Y-109200000D03*
X114700000Y-103600000D03*
X163700000Y-94700000D03*
X237100000Y-97900000D03*
X230100000Y-94700000D03*
X133200000Y-97300000D03*
X210550000Y-97500000D03*
X199500000Y-114550000D03*
X195570000Y-114470000D03*
X187250000Y-114000000D03*
X184100000Y-106800000D03*
X188200000Y-116800000D03*
X164190000Y-111480000D03*
X129170000Y-111250000D03*
X265750000Y-90750000D03*
X263500000Y-96250000D03*
X259000000Y-99000000D03*
X180800000Y-108100000D03*
X184200000Y-108140000D03*
X186000000Y-114000000D03*
X187000000Y-79750000D03*
X131700000Y-94000000D03*
X234000000Y-94000000D03*
X264500000Y-76750000D03*
X262500000Y-76750000D03*
X263500000Y-75750000D03*
X234000000Y-86600000D03*
X187000000Y-89100000D03*
X131500000Y-83900000D03*
X243200000Y-97900000D03*
X233000000Y-83000000D03*
X233000000Y-85000000D03*
X188200000Y-87500000D03*
X190000000Y-88900000D03*
X188000000Y-105100000D03*
X185800000Y-103600000D03*
X183300000Y-98700000D03*
X183800000Y-95400000D03*
X182600000Y-95300000D03*
X190500000Y-114600000D03*
X210500000Y-105000000D03*
X160000000Y-83000000D03*
X150250000Y-84000000D03*
X214250000Y-84000000D03*
X111500000Y-85900000D03*
X205800000Y-92900000D03*
X215600000Y-98900000D03*
X160000000Y-84000000D03*
X224000000Y-84000000D03*
X195200000Y-92600000D03*
X208750000Y-93000000D03*
X160000000Y-85000000D03*
X224000000Y-85000000D03*
X197900000Y-87100000D03*
X206000000Y-96000000D03*
X205500000Y-108500000D03*
X156200000Y-109700000D03*
X167400000Y-108200000D03*
X220500000Y-96800000D03*
X217500000Y-93800000D03*
X207700000Y-92300000D03*
X196000000Y-94400000D03*
X174700000Y-98600000D03*
X219100000Y-99900000D03*
X207750000Y-96000000D03*
X216100000Y-104700000D03*
X215600000Y-102700000D03*
X212500000Y-102500000D03*
X209500000Y-106500000D03*
X142800000Y-80500000D03*
X143800000Y-80000000D03*
X144800000Y-79500000D03*
X145800000Y-79000000D03*
X146800000Y-78500000D03*
X147800000Y-78000000D03*
X148800000Y-77500000D03*
X149800000Y-78000000D03*
X159900000Y-78500000D03*
X160900000Y-78000000D03*
X161900000Y-77500000D03*
X162900000Y-78000000D03*
X163900000Y-78500000D03*
X164900000Y-79000000D03*
X165900000Y-79500000D03*
X166900000Y-80000000D03*
X207000000Y-80000000D03*
X208000000Y-79500000D03*
X209000000Y-79000000D03*
X210000000Y-78500000D03*
X211000000Y-78000000D03*
X212000000Y-77500000D03*
X213000000Y-78000000D03*
X214000000Y-78500000D03*
X223900000Y-78500000D03*
X224900000Y-78000000D03*
X225900000Y-77500000D03*
X226900000Y-78000000D03*
X227900000Y-78500000D03*
X228900000Y-79000000D03*
X228500000Y-83900000D03*
X229100000Y-85500000D03*
X167340000Y-106570000D03*
X207500000Y-106500000D03*
X169920000Y-107470000D03*
X208500000Y-105500000D03*
X172470000Y-101610000D03*
X202000000Y-106500000D03*
X189500000Y-107300000D03*
X203000000Y-106000000D03*
X173500000Y-100300000D03*
X189500000Y-106200000D03*
X136250000Y-103000000D03*
X204000000Y-104000000D03*
X136250000Y-104000000D03*
X202800000Y-104000000D03*
X136250000Y-105000000D03*
X177600000Y-92000000D03*
X185800000Y-92000000D03*
X202100000Y-104900000D03*
X150700000Y-91600000D03*
X207500000Y-104000000D03*
X212500000Y-101500000D03*
X150250000Y-83000000D03*
X214250000Y-83000000D03*
X212300000Y-92800000D03*
X211500000Y-106500000D03*
X213600000Y-92800000D03*
X212500000Y-106500000D03*
X214250000Y-85000000D03*
X196000000Y-93300000D03*
X224000000Y-83000000D03*
X150250000Y-85000000D03*
X263500000Y-91000000D03*
X260500000Y-92000000D03*
D38*
X119400000Y-81650000D02*
X120950000Y-81650000D01*
X144900000Y-89850000D02*
X146450000Y-89850000D01*
D39*
X243000000Y-81450000D02*
X241850000Y-81450000D01*
X108100000Y-111150000D02*
X108100000Y-112200000D01*
X108700000Y-112800000D02*
X110600000Y-112800000D01*
X108100000Y-112200000D02*
X108700000Y-112800000D01*
X141800000Y-104350000D02*
X141800000Y-105300000D01*
X142500000Y-106000000D02*
X144000000Y-106000000D01*
X141800000Y-105300000D02*
X142500000Y-106000000D01*
X222900000Y-96350000D02*
X221550000Y-96350000D01*
X221550000Y-96350000D02*
X221500000Y-96400000D01*
X164000000Y-103300000D02*
X164000000Y-102000000D01*
X162450000Y-100700000D02*
X163200000Y-100700000D01*
X164000000Y-101500000D02*
X164000000Y-102000000D01*
X162450000Y-98050000D02*
X162500000Y-98000000D01*
X160000000Y-96000000D02*
X160000000Y-94500000D01*
X262600000Y-115250000D02*
X264500000Y-115250000D01*
X264500000Y-115250000D02*
X264500000Y-114100000D01*
X162700000Y-97800000D02*
X162500000Y-98000000D01*
X162700000Y-96650000D02*
X162700000Y-97800000D01*
X227500000Y-114450000D02*
X226100000Y-114450000D01*
X223700000Y-115100000D02*
X224900000Y-115100000D01*
X225550000Y-114450000D02*
X224900000Y-115100000D01*
X226100000Y-114450000D02*
X225550000Y-114450000D01*
D38*
X206200000Y-111000000D02*
X205400000Y-111000000D01*
X204850000Y-111550000D02*
X204300000Y-111550000D01*
X205400000Y-111000000D02*
X204850000Y-111550000D01*
D39*
X209050000Y-95000000D02*
X209050000Y-96400000D01*
X204300000Y-111550000D02*
X203650000Y-111550000D01*
X203650000Y-111550000D02*
X203200000Y-111100000D01*
X212600000Y-113900000D02*
X211700000Y-114800000D01*
X212600000Y-113000000D02*
X212600000Y-113900000D01*
X210300000Y-111550000D02*
X212450000Y-111550000D01*
X212450000Y-111550000D02*
X212600000Y-111400000D01*
X226100000Y-114450000D02*
X226100000Y-113100000D01*
X221450000Y-112600000D02*
X222700000Y-112600000D01*
X222700000Y-112600000D02*
X222900000Y-112800000D01*
X219350000Y-104400000D02*
X218300000Y-105450000D01*
X219600000Y-104400000D02*
X219350000Y-104400000D01*
X220900000Y-104400000D02*
X219600000Y-104400000D01*
X222900000Y-109200000D02*
X223600000Y-109200000D01*
X223600000Y-109200000D02*
X224300000Y-108500000D01*
X221450000Y-111100000D02*
X221450000Y-112600000D01*
X126500000Y-110300000D02*
X125100000Y-110300000D01*
X198600000Y-112800000D02*
X198600000Y-114000000D01*
X198150000Y-114450000D02*
X196700000Y-114450000D01*
X198600000Y-114000000D02*
X198150000Y-114450000D01*
X163630000Y-101130000D02*
X164000000Y-101500000D01*
X163200000Y-100700000D02*
X163630000Y-101130000D01*
X208550000Y-101450000D02*
X208550000Y-99800000D01*
X208500000Y-101500000D02*
X208550000Y-101450000D01*
X208500000Y-101300000D02*
X208500000Y-101500000D01*
X209050000Y-94450000D02*
X209050000Y-95000000D01*
X209050000Y-93950000D02*
X209050000Y-94450000D01*
X210000000Y-93000000D02*
X209050000Y-93950000D01*
X163220000Y-107700000D02*
X164190000Y-108670000D01*
X163100000Y-107700000D02*
X163220000Y-107700000D01*
X162150000Y-99150000D02*
X162100000Y-99200000D01*
X162450000Y-99150000D02*
X162150000Y-99150000D01*
X162450000Y-100700000D02*
X162450000Y-99150000D01*
X162450000Y-99150000D02*
X162450000Y-98050000D01*
X218300000Y-103950000D02*
X218300000Y-103300000D01*
X218300000Y-103300000D02*
X218500000Y-103100000D01*
X218500000Y-103100000D02*
X223500000Y-103100000D01*
X223900000Y-103500000D02*
X223900000Y-104400000D01*
X223500000Y-103100000D02*
X223900000Y-103500000D01*
X218300000Y-103950000D02*
X217150000Y-103950000D01*
X217150000Y-103950000D02*
X217100000Y-103900000D01*
X224130000Y-104630000D02*
X223900000Y-104400000D01*
X224130000Y-106900000D02*
X224130000Y-104630000D01*
X221500000Y-116050000D02*
X220650000Y-116050000D01*
X219950000Y-115350000D02*
X219950000Y-112600000D01*
X220650000Y-116050000D02*
X219950000Y-115350000D01*
X219950000Y-112600000D02*
X219950000Y-111100000D01*
X219870000Y-106900000D02*
X219500000Y-106900000D01*
X219950000Y-111900000D02*
X219950000Y-109250000D01*
X219950000Y-109250000D02*
X219900000Y-109200000D01*
X219000000Y-109200000D02*
X216800000Y-111400000D01*
X219900000Y-109200000D02*
X219000000Y-109200000D01*
X219870000Y-106900000D02*
X219900000Y-106930000D01*
X219900000Y-106930000D02*
X219900000Y-109200000D01*
X210050000Y-101450000D02*
X210050000Y-99800000D01*
X210000000Y-101500000D02*
X210050000Y-101450000D01*
X153100000Y-98300000D02*
X152350000Y-98300000D01*
X153300000Y-98100000D02*
X153100000Y-98300000D01*
X153300000Y-97150000D02*
X153300000Y-98100000D01*
X151700000Y-97000000D02*
X153150000Y-97000000D01*
X153150000Y-97000000D02*
X153300000Y-97150000D01*
D38*
X208400000Y-110050000D02*
X210300000Y-110050000D01*
X212550000Y-110050000D02*
X212600000Y-110000000D01*
X210300000Y-110050000D02*
X212550000Y-110050000D01*
D39*
X212600000Y-110000000D02*
X213300000Y-110000000D01*
X213300000Y-110000000D02*
X214100000Y-109200000D01*
X113650000Y-103600000D02*
X114700000Y-103600000D01*
X210550000Y-96400000D02*
X210550000Y-95000000D01*
X210550000Y-96400000D02*
X210550000Y-97500000D01*
X144000000Y-101000000D02*
X156500000Y-101000000D01*
X141800000Y-102850000D02*
X141800000Y-102000000D01*
X142800000Y-101000000D02*
X144000000Y-101000000D01*
X141800000Y-102000000D02*
X142800000Y-101000000D01*
X144000000Y-99300000D02*
X145000000Y-98300000D01*
X144000000Y-101000000D02*
X144000000Y-99300000D01*
X145000000Y-98300000D02*
X146650000Y-98300000D01*
X108100000Y-109650000D02*
X108100000Y-108500000D01*
X108800000Y-107800000D02*
X110600000Y-107800000D01*
X108100000Y-108500000D02*
X108800000Y-107800000D01*
X110600000Y-107800000D02*
X123100000Y-107800000D01*
X107900000Y-103900000D02*
X108200000Y-103600000D01*
X108800000Y-107800000D02*
X107900000Y-106900000D01*
X107900000Y-106900000D02*
X107900000Y-103900000D01*
X108200000Y-103600000D02*
X108850000Y-103600000D01*
D38*
X199500000Y-114550000D02*
X198760000Y-115290000D01*
X196390000Y-115290000D02*
X195570000Y-114470000D01*
X198760000Y-115290000D02*
X196390000Y-115290000D01*
D39*
X266040000Y-109160000D02*
X269000000Y-109160000D01*
X256070000Y-119130000D02*
X266040000Y-109160000D01*
X191880000Y-119130000D02*
X256070000Y-119130000D01*
X187250000Y-114500000D02*
X191880000Y-119130000D01*
X187250000Y-114000000D02*
X187250000Y-114500000D01*
X264210000Y-111700000D02*
X269000000Y-111700000D01*
X256330000Y-119590000D02*
X264210000Y-111710000D01*
X191630000Y-119590000D02*
X256330000Y-119590000D01*
X188840000Y-116800000D02*
X191630000Y-119590000D01*
X264210000Y-111710000D02*
X264210000Y-111700000D01*
X188200000Y-116800000D02*
X188840000Y-116800000D01*
X161030000Y-110170000D02*
X161000000Y-110200000D01*
X164190000Y-110170000D02*
X161030000Y-110170000D01*
X164190000Y-111480000D02*
X164190000Y-110170000D01*
X161000000Y-110200000D02*
X157770000Y-110200000D01*
X156720000Y-111250000D02*
X129170000Y-111250000D01*
X157770000Y-110200000D02*
X156720000Y-111250000D01*
X264530000Y-116780000D02*
X264500000Y-116750000D01*
X269000000Y-116780000D02*
X264530000Y-116780000D01*
X264500000Y-116750000D02*
X262600000Y-116750000D01*
X265750000Y-90750000D02*
X265750000Y-95500000D01*
X265750000Y-95500000D02*
X265000000Y-96250000D01*
X265000000Y-96250000D02*
X263500000Y-96250000D01*
D40*
X256600000Y-110400000D02*
X256600000Y-103850000D01*
D41*
X257600000Y-110400000D02*
X256600000Y-110400000D01*
X259000000Y-109000000D02*
X257600000Y-110400000D01*
X259000000Y-99000000D02*
X259000000Y-109000000D01*
D39*
X256600000Y-111450000D02*
X256600000Y-110400000D01*
X249550000Y-118500000D02*
X256600000Y-111450000D01*
X187700000Y-113200000D02*
X193000000Y-118500000D01*
X186800000Y-113200000D02*
X187700000Y-113200000D01*
X193000000Y-118500000D02*
X249550000Y-118500000D01*
X186000000Y-114000000D02*
X186800000Y-113200000D01*
D40*
X187000000Y-64000000D02*
X187000000Y-79750000D01*
D39*
X130080033Y-94915866D02*
X133317967Y-93044134D01*
X131698000Y-92110000D02*
X131699012Y-94000988D01*
X133318967Y-94914134D02*
X130079033Y-93045866D01*
X131699012Y-94000988D02*
X131700000Y-95850000D01*
X234122000Y-92110000D02*
X234000000Y-95850000D01*
X232411033Y-94862172D02*
X235710967Y-93097828D01*
X235649967Y-94967828D02*
X234111221Y-94011221D01*
X234111221Y-94011221D02*
X232472033Y-92992172D01*
D38*
X125000000Y-67350000D02*
X125000000Y-64000000D01*
X129000000Y-67350000D02*
X129000000Y-64000000D01*
X133000000Y-67350000D02*
X133000000Y-64000000D01*
X137000000Y-67350000D02*
X137000000Y-64000000D01*
X141000000Y-67350000D02*
X141000000Y-64000000D01*
X145000000Y-67350000D02*
X145000000Y-64000000D01*
X149000000Y-67350000D02*
X149000000Y-64000000D01*
X153000000Y-67350000D02*
X153000000Y-64000000D01*
X157000000Y-67350000D02*
X157000000Y-64000000D01*
X161000000Y-67350000D02*
X161000000Y-64000000D01*
X165000000Y-67350000D02*
X165000000Y-64000000D01*
X169000000Y-67350000D02*
X169000000Y-64000000D01*
X173000000Y-67350000D02*
X173000000Y-64000000D01*
X177000000Y-67350000D02*
X177000000Y-64000000D01*
X181000000Y-67350000D02*
X181000000Y-64000000D01*
X185000000Y-67350000D02*
X185000000Y-64000000D01*
X189000000Y-67350000D02*
X189000000Y-64000000D01*
X193000000Y-67350000D02*
X193000000Y-64000000D01*
X197000000Y-67350000D02*
X197000000Y-64000000D01*
X201000000Y-67350000D02*
X201000000Y-64000000D01*
X205000000Y-67350000D02*
X205000000Y-64000000D01*
X209000000Y-67350000D02*
X209000000Y-64000000D01*
X213000000Y-67350000D02*
X213000000Y-64000000D01*
X217000000Y-67350000D02*
X217000000Y-64000000D01*
X221000000Y-67350000D02*
X221000000Y-64000000D01*
X225000000Y-67350000D02*
X225000000Y-64000000D01*
X229000000Y-67350000D02*
X229000000Y-64000000D01*
X233000000Y-67350000D02*
X233000000Y-64000000D01*
X237000000Y-67350000D02*
X237000000Y-64000000D01*
X241000000Y-67350000D02*
X241000000Y-64000000D01*
D40*
X108000000Y-80600000D02*
X108000000Y-78000000D01*
D42*
X234000000Y-86600000D02*
X234000000Y-82000000D01*
X234000000Y-82000000D02*
X236000000Y-80000000D01*
X236000000Y-80000000D02*
X240000000Y-80000000D01*
X240000000Y-80000000D02*
X243000000Y-77000000D01*
X243000000Y-77000000D02*
X243000000Y-64000000D01*
X122700000Y-75100000D02*
X122700000Y-64300000D01*
X131500000Y-83900000D02*
X122700000Y-75100000D01*
D39*
X120050000Y-70485000D02*
X120050000Y-67450000D01*
X120050000Y-67450000D02*
X120000000Y-67400000D01*
X120500000Y-66785000D02*
X120500000Y-64400000D01*
X117500000Y-66785000D02*
X117500000Y-64700000D01*
X113500000Y-66658000D02*
X113500000Y-64400000D01*
X110950000Y-67308000D02*
X110950000Y-70250000D01*
X110950000Y-70250000D02*
X111000000Y-70300000D01*
X113050000Y-67308000D02*
X113050000Y-70250000D01*
X113050000Y-70250000D02*
X113000000Y-70300000D01*
X110500000Y-66658000D02*
X110500000Y-64600000D01*
X248050000Y-70485000D02*
X248050000Y-67450000D01*
X248050000Y-67450000D02*
X248000000Y-67400000D01*
X245950000Y-70485000D02*
X245950000Y-67450000D01*
X245950000Y-67450000D02*
X246000000Y-67400000D01*
X245500000Y-66785000D02*
X245500000Y-64500000D01*
X245500000Y-64500000D02*
X245500000Y-64400000D01*
X248500000Y-66785000D02*
X248500000Y-64500000D01*
X252500000Y-66785000D02*
X252500000Y-64500000D01*
X255500000Y-66785000D02*
X255500000Y-64600000D01*
X255050000Y-67435000D02*
X255050000Y-70450000D01*
X255050000Y-70450000D02*
X255100000Y-70500000D01*
X252950000Y-67435000D02*
X252950000Y-70450000D01*
X252950000Y-70450000D02*
X253000000Y-70500000D01*
X117950000Y-67435000D02*
X117950000Y-70450000D01*
X117950000Y-70450000D02*
X118000000Y-70500000D01*
D40*
X250000000Y-99250000D02*
X250000000Y-108200000D01*
D39*
X248650000Y-97900000D02*
X250000000Y-99250000D01*
X243200000Y-97900000D02*
X248650000Y-97900000D01*
D38*
X247060000Y-117700000D02*
X250000000Y-114760000D01*
X193900000Y-116500000D02*
X195100000Y-117700000D01*
X193900000Y-115650000D02*
X193900000Y-116500000D01*
X250000000Y-114760000D02*
X250000000Y-108200000D01*
X193800000Y-115550000D02*
X193900000Y-115650000D01*
D39*
X202300000Y-116400000D02*
X202300000Y-117700000D01*
D38*
X202300000Y-117700000D02*
X247060000Y-117700000D01*
X195100000Y-117700000D02*
X202300000Y-117700000D01*
D39*
X159050000Y-96000000D02*
X159050000Y-94050000D01*
X159050000Y-94050000D02*
X159400000Y-93700000D01*
X159400000Y-93700000D02*
X160500000Y-93700000D01*
X160500000Y-93700000D02*
X160950000Y-94150000D01*
X160950000Y-94150000D02*
X160950000Y-94450000D01*
D38*
X160950000Y-94450000D02*
X160950000Y-96000000D01*
D39*
X223700000Y-116050000D02*
X226000000Y-116050000D01*
X226100000Y-115950000D02*
X227500000Y-115950000D01*
X223700000Y-114150000D02*
X222850000Y-114150000D01*
X222850000Y-114150000D02*
X222600000Y-114400000D01*
X222600000Y-114400000D02*
X222600000Y-115700000D01*
X222950000Y-116050000D02*
X223700000Y-116050000D01*
X222600000Y-115700000D02*
X222950000Y-116050000D01*
X206200000Y-111950000D02*
X206850000Y-111950000D01*
X206850000Y-111950000D02*
X207200000Y-111600000D01*
X207200000Y-111600000D02*
X207200000Y-110300000D01*
X206950000Y-110050000D02*
X206200000Y-110050000D01*
X207200000Y-110300000D02*
X206950000Y-110050000D01*
D38*
X204300000Y-110050000D02*
X206200000Y-110050000D01*
X227500000Y-116570000D02*
X227500000Y-115950000D01*
X227070000Y-117000000D02*
X227500000Y-116570000D01*
X207600000Y-117000000D02*
X227070000Y-117000000D01*
D39*
X202300000Y-112600000D02*
X202750000Y-112150000D01*
X202300000Y-113600000D02*
X202300000Y-112600000D01*
D38*
X202750000Y-112150000D02*
X207600000Y-117000000D01*
X202050000Y-111450000D02*
X202750000Y-112150000D01*
X194750000Y-111450000D02*
X202050000Y-111450000D01*
X193800000Y-113650000D02*
X193800000Y-112400000D01*
D39*
X195100000Y-112800000D02*
X194250000Y-111950000D01*
X195600000Y-112800000D02*
X195100000Y-112800000D01*
D38*
X194250000Y-111950000D02*
X194750000Y-111450000D01*
X193800000Y-112400000D02*
X194250000Y-111950000D01*
X202050000Y-111050000D02*
X202050000Y-111450000D01*
X203050000Y-110050000D02*
X202050000Y-111050000D01*
X204300000Y-110050000D02*
X203050000Y-110050000D01*
D39*
X168370000Y-112300000D02*
X193700000Y-112300000D01*
X166500000Y-110430000D02*
X168370000Y-112300000D01*
X193700000Y-112300000D02*
X193800000Y-112400000D01*
X166500000Y-97500000D02*
X166500000Y-110430000D01*
X163500000Y-94500000D02*
X166500000Y-97500000D01*
X160950000Y-94450000D02*
X161000000Y-94500000D01*
X162700000Y-94530000D02*
X162670000Y-94500000D01*
X162700000Y-95150000D02*
X162700000Y-94530000D01*
X162670000Y-94500000D02*
X163500000Y-94500000D01*
X161000000Y-94500000D02*
X162670000Y-94500000D01*
D38*
X161000000Y-100750000D02*
X160950000Y-100700000D01*
X161000000Y-103300000D02*
X161000000Y-100750000D01*
X160950000Y-100700000D02*
X160950000Y-98200000D01*
D39*
X161000000Y-106000000D02*
X161000000Y-103300000D01*
D38*
X125000000Y-70650000D02*
X125000000Y-74250000D01*
X129000000Y-70650000D02*
X129000000Y-74250000D01*
X133000000Y-70650000D02*
X133000000Y-74250000D01*
X137000000Y-70650000D02*
X137000000Y-74250000D01*
X141000000Y-70650000D02*
X141000000Y-74250000D01*
X145000000Y-70650000D02*
X145000000Y-74250000D01*
X149000000Y-70650000D02*
X149000000Y-74250000D01*
X153000000Y-70650000D02*
X153000000Y-74250000D01*
X157000000Y-70650000D02*
X157000000Y-74250000D01*
X161000000Y-70650000D02*
X161000000Y-74250000D01*
X165000000Y-70650000D02*
X165000000Y-74250000D01*
X169000000Y-70650000D02*
X169000000Y-74250000D01*
X173000000Y-70650000D02*
X173000000Y-74250000D01*
X177000000Y-70650000D02*
X177000000Y-74250000D01*
X181000000Y-70650000D02*
X181000000Y-74250000D01*
X185000000Y-70650000D02*
X185000000Y-74250000D01*
X189000000Y-70650000D02*
X189000000Y-74250000D01*
X193000000Y-70650000D02*
X193000000Y-74250000D01*
X197000000Y-70650000D02*
X197000000Y-74250000D01*
X201000000Y-70650000D02*
X201000000Y-74250000D01*
X205000000Y-70650000D02*
X205000000Y-74250000D01*
X209000000Y-70650000D02*
X209000000Y-74250000D01*
X213000000Y-70650000D02*
X213000000Y-74250000D01*
X217000000Y-70650000D02*
X217000000Y-74250000D01*
X221000000Y-70650000D02*
X221000000Y-74250000D01*
X225000000Y-70650000D02*
X225000000Y-74250000D01*
X229000000Y-70650000D02*
X229000000Y-74250000D01*
X233000000Y-70650000D02*
X233000000Y-74250000D01*
X237000000Y-70650000D02*
X237000000Y-74250000D01*
X241000000Y-70650000D02*
X241000000Y-74250000D01*
X232050000Y-83000000D02*
X233000000Y-83000000D01*
X232050000Y-85000000D02*
X233000000Y-85000000D01*
X112000000Y-70358000D02*
X112000000Y-74550000D01*
X119000000Y-70485000D02*
X119000000Y-74550000D01*
X254000000Y-70485000D02*
X254000000Y-74550000D01*
X247000000Y-70485000D02*
X247000000Y-74550000D01*
X186650000Y-87500000D02*
X188200000Y-87500000D01*
X190000000Y-90350000D02*
X190000000Y-88900000D01*
X188000000Y-105100000D02*
X188000000Y-103600000D01*
X182900000Y-106500000D02*
X185800000Y-103600000D01*
X182650000Y-106500000D02*
X182900000Y-106500000D01*
X176000000Y-99600000D02*
X176000000Y-100350000D01*
X176900000Y-98700000D02*
X176000000Y-99600000D01*
X183300000Y-98700000D02*
X176900000Y-98700000D01*
X182050000Y-93650000D02*
X178000000Y-93650000D01*
X183800000Y-95400000D02*
X182050000Y-93650000D01*
X181350000Y-96550000D02*
X181350000Y-97000000D01*
X182600000Y-95300000D02*
X181350000Y-96550000D01*
D39*
X128777052Y-99709038D02*
X129200000Y-99950000D01*
X129200000Y-99950000D02*
X130550000Y-99200000D01*
X130550000Y-99200000D02*
X131700000Y-99150000D01*
X126700000Y-95550000D02*
X127222149Y-96565866D01*
X125276533Y-94314038D02*
X125286250Y-95013750D01*
X125286250Y-95013750D02*
X126700000Y-95550000D01*
X128198481Y-88585000D02*
X127700000Y-88900000D01*
X127700000Y-88900000D02*
X127700000Y-90400000D01*
X127700000Y-90400000D02*
X127221149Y-91395866D01*
X134620948Y-88250962D02*
X134200000Y-88000000D01*
X134200000Y-88000000D02*
X132950000Y-88700000D01*
X132950000Y-88700000D02*
X131698000Y-88810000D01*
X138121467Y-93645962D02*
X138150000Y-93100000D01*
X138150000Y-93100000D02*
X136900000Y-92450000D01*
X136900000Y-92450000D02*
X136175851Y-91394134D01*
X135199519Y-99375000D02*
X135650000Y-99100000D01*
X135650000Y-99100000D02*
X135650000Y-97600000D01*
X135650000Y-97600000D02*
X136176851Y-96564134D01*
X230949519Y-99775000D02*
X231400000Y-100050000D01*
X231400000Y-100050000D02*
X232900000Y-99150000D01*
X232900000Y-99150000D02*
X234000000Y-99150000D01*
X227486642Y-94182878D02*
X227450000Y-94700000D01*
X227450000Y-94700000D02*
X229000000Y-95550000D01*
X229000000Y-95550000D02*
X229553149Y-96512172D01*
X230150000Y-90450000D02*
X229614149Y-91342172D01*
X230598123Y-88387878D02*
X230050000Y-88700000D01*
X230050000Y-88700000D02*
X230150000Y-90450000D01*
X237172481Y-88185000D02*
X236750000Y-87950000D01*
X236750000Y-87950000D02*
X235250000Y-88800000D01*
X235250000Y-88800000D02*
X234122000Y-88810000D01*
X240635358Y-93777122D02*
X240650000Y-93300000D01*
X240650000Y-93300000D02*
X239200000Y-92400000D01*
X239200000Y-92400000D02*
X238568851Y-91447828D01*
X237523877Y-99572122D02*
X237950000Y-99350000D01*
X237950000Y-99350000D02*
X237950000Y-97650000D01*
X237950000Y-97650000D02*
X238507851Y-96617828D01*
D38*
X190500000Y-114600000D02*
X191800000Y-114600000D01*
D39*
X107280000Y-88220000D02*
X108000000Y-88220000D01*
X106000000Y-89500000D02*
X107280000Y-88220000D01*
X210500000Y-105000000D02*
X205300000Y-99800000D01*
X136600000Y-101600000D02*
X107700000Y-101600000D01*
X107700000Y-101600000D02*
X106000000Y-99900000D01*
X205300000Y-99800000D02*
X194500000Y-99800000D01*
X194500000Y-99800000D02*
X193300000Y-98600000D01*
X193300000Y-98600000D02*
X193300000Y-86400000D01*
X154200000Y-86300000D02*
X147900000Y-92600000D01*
X193300000Y-86400000D02*
X191200000Y-84300000D01*
X191200000Y-84300000D02*
X162800000Y-84300000D01*
X162800000Y-84300000D02*
X160800000Y-86300000D01*
X106000000Y-99900000D02*
X106000000Y-89500000D01*
X160800000Y-86300000D02*
X154200000Y-86300000D01*
X147900000Y-92600000D02*
X145600000Y-92600000D01*
X145600000Y-92600000D02*
X136600000Y-101600000D01*
X154000000Y-83000000D02*
X160000000Y-83000000D01*
X109440000Y-90760000D02*
X110900000Y-89300000D01*
X108000000Y-90760000D02*
X109440000Y-90760000D01*
X110900000Y-89300000D02*
X110900000Y-87600000D01*
X110900000Y-87600000D02*
X112750000Y-85750000D01*
X112750000Y-85750000D02*
X151250000Y-85750000D01*
X151250000Y-85750000D02*
X154000000Y-83000000D01*
X214000000Y-84000000D02*
X214250000Y-84000000D01*
X211750000Y-81750000D02*
X214000000Y-84000000D01*
X153750000Y-81750000D02*
X211750000Y-81750000D01*
X150250000Y-84000000D02*
X151500000Y-84000000D01*
X151500000Y-84000000D02*
X153750000Y-81750000D01*
X149750000Y-84000000D02*
X150250000Y-84000000D01*
X148500000Y-85250000D02*
X149750000Y-84000000D01*
X111500000Y-85900000D02*
X112150000Y-85250000D01*
X112150000Y-85250000D02*
X148500000Y-85250000D01*
X222000000Y-81750000D02*
X219750000Y-84000000D01*
X224750000Y-81750000D02*
X222000000Y-81750000D01*
X219750000Y-84000000D02*
X214250000Y-84000000D01*
X226250000Y-83250000D02*
X224750000Y-81750000D01*
X205800000Y-92900000D02*
X207200000Y-91500000D01*
X226250000Y-87500000D02*
X226250000Y-83250000D01*
X222250000Y-91500000D02*
X226250000Y-87500000D01*
X215600000Y-98900000D02*
X215600000Y-97100000D01*
X215600000Y-97100000D02*
X220500000Y-92200000D01*
X220700000Y-91500000D02*
X220500000Y-91700000D01*
X220800000Y-91500000D02*
X220700000Y-91500000D01*
X220500000Y-91700000D02*
X220500000Y-91500000D01*
X220500000Y-92200000D02*
X220500000Y-91700000D01*
X220800000Y-91500000D02*
X222250000Y-91500000D01*
X220500000Y-91500000D02*
X220800000Y-91500000D01*
X220500000Y-91700000D02*
X220300000Y-91500000D01*
X207200000Y-91500000D02*
X220300000Y-91500000D01*
X220300000Y-91500000D02*
X220500000Y-91500000D01*
X160000000Y-84000000D02*
X160750000Y-84000000D01*
X224000000Y-84000000D02*
X222000000Y-84000000D01*
X222000000Y-84000000D02*
X219500000Y-86500000D01*
X219500000Y-86500000D02*
X213500000Y-86500000D01*
X213500000Y-86500000D02*
X209750000Y-82750000D01*
X162000000Y-82750000D02*
X160750000Y-84000000D01*
X209750000Y-82750000D02*
X162000000Y-82750000D01*
X153750000Y-84000000D02*
X160000000Y-84000000D01*
X109760000Y-95840000D02*
X111800000Y-93800000D01*
X108000000Y-95840000D02*
X109760000Y-95840000D01*
X111800000Y-93800000D02*
X111800000Y-87700000D01*
X111800000Y-87700000D02*
X113250000Y-86250000D01*
X113250000Y-86250000D02*
X151500000Y-86250000D01*
X151500000Y-86250000D02*
X153750000Y-84000000D01*
X225250000Y-85000000D02*
X224250000Y-84000000D01*
X225250000Y-87000000D02*
X225250000Y-85000000D01*
X195200000Y-92600000D02*
X195600000Y-92200000D01*
X195600000Y-92200000D02*
X204400000Y-92200000D01*
X204400000Y-92200000D02*
X206100000Y-90500000D01*
X224250000Y-84000000D02*
X224000000Y-84000000D01*
X206100000Y-90500000D02*
X221750000Y-90500000D01*
X221750000Y-90500000D02*
X225250000Y-87000000D01*
X208250000Y-93000000D02*
X208750000Y-93000000D01*
X206250000Y-95000000D02*
X208250000Y-93000000D01*
X197000000Y-95000000D02*
X206250000Y-95000000D01*
X196550000Y-95450000D02*
X197000000Y-95000000D01*
X195800000Y-95450000D02*
X196550000Y-95450000D01*
X195200000Y-94850000D02*
X195800000Y-95450000D01*
X195200000Y-92600000D02*
X195200000Y-94850000D01*
X160000000Y-85000000D02*
X160500000Y-85000000D01*
X160500000Y-85000000D02*
X162250000Y-83250000D01*
X162250000Y-83250000D02*
X209500000Y-83250000D01*
X209500000Y-83250000D02*
X213250000Y-87000000D01*
X213250000Y-87000000D02*
X219750000Y-87000000D01*
X221750000Y-85000000D02*
X224000000Y-85000000D01*
X219750000Y-87000000D02*
X221750000Y-85000000D01*
X153800000Y-85000000D02*
X160000000Y-85000000D01*
X110020000Y-98380000D02*
X112400000Y-96000000D01*
X108000000Y-98380000D02*
X110020000Y-98380000D01*
X112400000Y-96000000D02*
X112400000Y-88100000D01*
X112400000Y-88100000D02*
X113700000Y-86800000D01*
X113700000Y-86800000D02*
X152000000Y-86800000D01*
X152000000Y-86800000D02*
X153800000Y-85000000D01*
X224750000Y-85750000D02*
X224000000Y-85000000D01*
X224750000Y-86750000D02*
X224750000Y-85750000D01*
X221500000Y-90000000D02*
X224750000Y-86750000D01*
X210200000Y-90000000D02*
X221500000Y-90000000D01*
X197900000Y-87100000D02*
X207300000Y-87100000D01*
X207300000Y-87100000D02*
X210200000Y-90000000D01*
X195900000Y-87100000D02*
X197900000Y-87100000D01*
X194300000Y-88700000D02*
X195900000Y-87100000D01*
X195500000Y-96000000D02*
X194300000Y-94800000D01*
X197300000Y-95700000D02*
X197000000Y-96000000D01*
X197000000Y-96000000D02*
X195500000Y-96000000D01*
X205700000Y-95700000D02*
X197300000Y-95700000D01*
X194300000Y-94800000D02*
X194300000Y-88700000D01*
X206000000Y-96000000D02*
X205700000Y-95700000D01*
X128000000Y-110300000D02*
X128000000Y-115200000D01*
X154730000Y-110300000D02*
X128000000Y-110300000D01*
X155600000Y-110300000D02*
X154730000Y-110300000D01*
X156200000Y-109700000D02*
X155600000Y-110300000D01*
X168200000Y-108200000D02*
X167400000Y-108200000D01*
X171750000Y-111750000D02*
X168200000Y-108200000D01*
X202000000Y-109200000D02*
X201460000Y-108660000D01*
X193420000Y-111750000D02*
X171750000Y-111750000D01*
X204800000Y-109200000D02*
X202000000Y-109200000D01*
X196510000Y-108660000D02*
X193420000Y-111750000D01*
X201460000Y-108660000D02*
X196510000Y-108660000D01*
X205500000Y-108500000D02*
X204800000Y-109200000D01*
X149400000Y-98300000D02*
X150850000Y-98300000D01*
X148150000Y-98300000D02*
X149400000Y-98300000D01*
X227300000Y-98200000D02*
X225900000Y-96800000D01*
X227300000Y-99400000D02*
X227300000Y-98200000D01*
X226180000Y-100170000D02*
X226530000Y-100170000D01*
X226530000Y-100170000D02*
X227300000Y-99400000D01*
X225900000Y-96800000D02*
X225300000Y-96800000D01*
X225300000Y-96800000D02*
X224600000Y-97500000D01*
X224600000Y-97500000D02*
X221200000Y-97500000D01*
X221200000Y-97500000D02*
X220500000Y-96800000D01*
X215700000Y-92000000D02*
X217500000Y-93800000D01*
X207700000Y-92300000D02*
X208000000Y-92000000D01*
X208000000Y-92000000D02*
X215700000Y-92000000D01*
X205600000Y-94400000D02*
X207700000Y-92300000D01*
X196000000Y-94400000D02*
X205600000Y-94400000D01*
X171470000Y-98600000D02*
X165890000Y-93020000D01*
X165890000Y-93020000D02*
X159300000Y-93020000D01*
X174700000Y-98600000D02*
X171470000Y-98600000D01*
X159300000Y-93020000D02*
X152640000Y-99680000D01*
X152640000Y-99680000D02*
X151290000Y-99680000D01*
X151290000Y-99680000D02*
X150850000Y-99240000D01*
X150850000Y-99240000D02*
X150850000Y-98300000D01*
X219100000Y-99900000D02*
X219100000Y-100000000D01*
X219100000Y-100000000D02*
X220400000Y-101300000D01*
X220400000Y-101300000D02*
X222100000Y-101300000D01*
X222370000Y-101030000D02*
X222370000Y-100170000D01*
X222100000Y-101300000D02*
X222370000Y-101030000D01*
X202700000Y-99300000D02*
X205100000Y-96900000D01*
X193800000Y-86100000D02*
X193800000Y-98400000D01*
X205100000Y-96900000D02*
X206850000Y-96900000D01*
X191450000Y-83750000D02*
X193800000Y-86100000D01*
X206850000Y-96900000D02*
X207750000Y-96000000D01*
X162500000Y-83750000D02*
X191450000Y-83750000D01*
X160500000Y-85750000D02*
X162500000Y-83750000D01*
X154050000Y-85750000D02*
X160500000Y-85750000D01*
X193800000Y-98400000D02*
X194700000Y-99300000D01*
X148050000Y-91750000D02*
X154050000Y-85750000D01*
X194700000Y-99300000D02*
X202700000Y-99300000D01*
X144900000Y-91750000D02*
X148050000Y-91750000D01*
X129497519Y-87835000D02*
X129497519Y-87802481D01*
X125276533Y-92814038D02*
X124798592Y-92398592D01*
D38*
X123861027Y-94022501D02*
X124798592Y-92398592D01*
D39*
X138121467Y-95145962D02*
X138614012Y-95614012D01*
D38*
X138614012Y-95614012D02*
X135600000Y-100800000D01*
D39*
X133900481Y-100125000D02*
X133700000Y-100800000D01*
D38*
X135600000Y-100800000D02*
X133700000Y-100800000D01*
X133700000Y-100800000D02*
X127800000Y-100800000D01*
D39*
X127478014Y-98959038D02*
X126881094Y-99218906D01*
D38*
X127800000Y-100800000D02*
X126881094Y-99218906D01*
X126881094Y-99218906D02*
X123861027Y-94022501D01*
X124798592Y-92398592D02*
X127616987Y-87516987D01*
D39*
X129497519Y-87835000D02*
X127616987Y-87516987D01*
D38*
X136019024Y-89100000D02*
X135919986Y-89000962D01*
X139700000Y-89100000D02*
X136019024Y-89100000D01*
X142900000Y-90800000D02*
X141400000Y-90800000D01*
X141400000Y-90800000D02*
X139700000Y-89100000D01*
X139538973Y-94022501D02*
X138614012Y-95614012D01*
X136700000Y-89100000D02*
X139538973Y-94022501D01*
D39*
X238471519Y-88935000D02*
X239453778Y-89046222D01*
X239453778Y-89046222D02*
X242285383Y-93950704D01*
X229814617Y-86849296D02*
X231600000Y-86800000D01*
X231600000Y-86800000D02*
X231897161Y-87637878D01*
X227265133Y-91265133D02*
X229814617Y-86849296D01*
X229650481Y-99025000D02*
X229100000Y-98700000D01*
X229100000Y-98700000D02*
X228582824Y-99017176D01*
X229814617Y-101150704D02*
X228582824Y-99017176D01*
X227486642Y-92682878D02*
X227500000Y-92100000D01*
X227500000Y-92100000D02*
X226972313Y-91772313D01*
X225714617Y-93950704D02*
X226972313Y-91772313D01*
X226972313Y-91772313D02*
X227265133Y-91265133D01*
X236224839Y-100322122D02*
X235600000Y-100700000D01*
X235600000Y-100700000D02*
X235500000Y-101200000D01*
X238100000Y-101200000D02*
X235500000Y-101200000D01*
X235500000Y-101200000D02*
X229900000Y-101200000D01*
X240635358Y-95277122D02*
X240600000Y-95800000D01*
X240600000Y-95800000D02*
X241064290Y-96164290D01*
X242285383Y-94049296D02*
X241064290Y-96164290D01*
X241064290Y-96164290D02*
X238185383Y-101150704D01*
X225700000Y-95400000D02*
X226203658Y-94896342D01*
X224900000Y-95400000D02*
X225700000Y-95400000D01*
X228582824Y-99017176D02*
X226203658Y-94896342D01*
X226203658Y-94896342D02*
X225714617Y-94049296D01*
X216100000Y-103800000D02*
X216100000Y-104700000D01*
X216100000Y-103300000D02*
X216100000Y-103800000D01*
X218200000Y-101200000D02*
X216100000Y-103300000D01*
X218200000Y-98000000D02*
X218200000Y-101200000D01*
X222900000Y-94450000D02*
X221750000Y-94450000D01*
X221750000Y-94450000D02*
X218200000Y-98000000D01*
D38*
X247000000Y-77450000D02*
X247000000Y-78500000D01*
X245000000Y-80500000D02*
X245600000Y-80500000D01*
X247000000Y-79100000D02*
X247000000Y-78500000D01*
X245600000Y-80500000D02*
X247000000Y-79100000D01*
X253400000Y-79100000D02*
X247000000Y-79100000D01*
X254000000Y-77450000D02*
X254000000Y-78500000D01*
X254000000Y-78500000D02*
X253400000Y-79100000D01*
D39*
X217700000Y-100600000D02*
X215600000Y-102700000D01*
X217700000Y-97200000D02*
X217700000Y-100600000D01*
X232300000Y-86200000D02*
X229600000Y-86200000D01*
X233500000Y-87400000D02*
X232300000Y-86200000D01*
X234400000Y-87400000D02*
X233500000Y-87400000D01*
X229600000Y-86200000D02*
X222700000Y-93100000D01*
X241650000Y-79550000D02*
X240400000Y-80800000D01*
X243000000Y-79550000D02*
X241650000Y-79550000D01*
X240400000Y-80800000D02*
X236300000Y-80800000D01*
X221800000Y-93100000D02*
X217700000Y-97200000D01*
X236300000Y-80800000D02*
X234800000Y-82300000D01*
X234800000Y-82300000D02*
X234800000Y-87000000D01*
X222700000Y-93100000D02*
X221800000Y-93100000D01*
X234800000Y-87000000D02*
X234400000Y-87400000D01*
D43*
X112000000Y-78800000D02*
X112000000Y-77450000D01*
X117400000Y-82600000D02*
X115800000Y-82600000D01*
X115800000Y-82600000D02*
X112000000Y-78800000D01*
X115800000Y-82100000D02*
X115800000Y-82600000D01*
X119000000Y-77450000D02*
X119000000Y-78900000D01*
X119000000Y-78900000D02*
X115800000Y-82100000D01*
D39*
X214500000Y-102500000D02*
X217100000Y-99900000D01*
X222600000Y-92500000D02*
X227200000Y-87900000D01*
X126400000Y-80300000D02*
X123900000Y-80300000D01*
X217100000Y-99900000D02*
X217100000Y-97100000D01*
X217100000Y-97100000D02*
X221700000Y-92500000D01*
X120650000Y-83550000D02*
X119400000Y-83550000D01*
X227200000Y-82700000D02*
X225250000Y-80750000D01*
X212500000Y-102500000D02*
X214500000Y-102500000D01*
X221700000Y-92500000D02*
X222600000Y-92500000D01*
X130850000Y-84750000D02*
X126400000Y-80300000D01*
X227200000Y-87900000D02*
X227200000Y-82700000D01*
X151250000Y-80750000D02*
X147250000Y-84750000D01*
X123900000Y-80300000D02*
X120650000Y-83550000D01*
X225250000Y-80750000D02*
X151250000Y-80750000D01*
X147250000Y-84750000D02*
X130850000Y-84750000D01*
X111300000Y-103600000D02*
X110350000Y-103600000D01*
X112150000Y-103600000D02*
X111300000Y-103600000D01*
X111300000Y-102800000D02*
X111300000Y-103600000D01*
X209500000Y-106500000D02*
X209500000Y-104700000D01*
X112000000Y-102100000D02*
X111300000Y-102800000D01*
X154400000Y-86800000D02*
X148100000Y-93100000D01*
X209500000Y-104700000D02*
X205100000Y-100300000D01*
X205100000Y-100300000D02*
X194300000Y-100300000D01*
X190900000Y-84800000D02*
X163000000Y-84800000D01*
X194300000Y-100300000D02*
X192800000Y-98800000D01*
X145900000Y-93100000D02*
X136900000Y-102100000D01*
X192800000Y-98800000D02*
X192800000Y-86700000D01*
X161000000Y-86800000D02*
X154400000Y-86800000D01*
X192800000Y-86700000D02*
X190900000Y-84800000D01*
X163000000Y-84800000D02*
X161000000Y-86800000D01*
X148100000Y-93100000D02*
X145900000Y-93100000D01*
X136900000Y-102100000D02*
X112000000Y-102100000D01*
D38*
X125000000Y-76200000D02*
X125000000Y-75750000D01*
X128600000Y-79800000D02*
X125000000Y-76200000D01*
X142800000Y-80500000D02*
X142100000Y-79800000D01*
X142100000Y-79800000D02*
X128600000Y-79800000D01*
X129000000Y-76600000D02*
X129000000Y-75750000D01*
X131600000Y-79200000D02*
X129000000Y-76600000D01*
X143800000Y-80000000D02*
X143000000Y-79200000D01*
X143000000Y-79200000D02*
X131600000Y-79200000D01*
X133000000Y-76800000D02*
X133000000Y-75750000D01*
X134800000Y-78600000D02*
X133000000Y-76800000D01*
X144800000Y-79500000D02*
X143900000Y-78600000D01*
X143900000Y-78600000D02*
X134800000Y-78600000D01*
X137000000Y-76700000D02*
X137000000Y-75750000D01*
X138300000Y-78000000D02*
X137000000Y-76700000D01*
X145800000Y-79000000D02*
X144800000Y-78000000D01*
X144800000Y-78000000D02*
X138300000Y-78000000D01*
X145700000Y-77400000D02*
X146800000Y-78500000D01*
X142000000Y-77400000D02*
X145700000Y-77400000D01*
X141000000Y-75750000D02*
X141000000Y-76400000D01*
X141000000Y-76400000D02*
X142000000Y-77400000D01*
X146600000Y-76800000D02*
X147800000Y-78000000D01*
X145600000Y-76800000D02*
X146600000Y-76800000D01*
X145000000Y-75750000D02*
X145000000Y-76200000D01*
X145000000Y-76200000D02*
X145600000Y-76800000D01*
X149000000Y-77300000D02*
X148800000Y-77500000D01*
X149000000Y-75750000D02*
X149000000Y-77300000D01*
X153000000Y-75750000D02*
X153000000Y-76300000D01*
X153000000Y-76300000D02*
X153000000Y-76400000D01*
X151700000Y-78000000D02*
X149800000Y-78000000D01*
X153000000Y-76300000D02*
X153000000Y-76700000D01*
X153000000Y-76700000D02*
X151700000Y-78000000D01*
X158700000Y-78500000D02*
X159900000Y-78500000D01*
X157000000Y-75750000D02*
X157000000Y-76800000D01*
X157000000Y-76800000D02*
X158700000Y-78500000D01*
X161000000Y-77900000D02*
X160900000Y-78000000D01*
X161000000Y-75750000D02*
X161000000Y-77900000D01*
X161900000Y-77450000D02*
X161900000Y-77450000D01*
X162600000Y-76800000D02*
X161900000Y-77500000D01*
X164500000Y-76800000D02*
X162600000Y-76800000D01*
X165000000Y-75750000D02*
X165000000Y-76300000D01*
X165000000Y-76300000D02*
X164500000Y-76800000D01*
X163500000Y-77400000D02*
X162900000Y-78000000D01*
X168000000Y-77400000D02*
X163500000Y-77400000D01*
X169000000Y-75750000D02*
X169000000Y-76400000D01*
X169000000Y-76400000D02*
X168000000Y-77400000D01*
X164400000Y-78000000D02*
X163900000Y-78500000D01*
X171800000Y-78000000D02*
X164400000Y-78000000D01*
X173000000Y-75750000D02*
X173000000Y-76800000D01*
X173000000Y-76800000D02*
X171800000Y-78000000D01*
X165300000Y-78600000D02*
X164900000Y-79000000D01*
X175700000Y-78600000D02*
X165300000Y-78600000D01*
X177000000Y-75750000D02*
X177000000Y-77300000D01*
X177000000Y-77300000D02*
X175700000Y-78600000D01*
X166200000Y-79200000D02*
X165900000Y-79500000D01*
X179800000Y-79200000D02*
X166200000Y-79200000D01*
X181000000Y-75750000D02*
X181000000Y-78000000D01*
X181000000Y-78000000D02*
X179800000Y-79200000D01*
X167100000Y-79800000D02*
X166900000Y-80000000D01*
X183400000Y-79800000D02*
X167100000Y-79800000D01*
X185000000Y-75750000D02*
X185000000Y-78200000D01*
X185000000Y-78200000D02*
X183400000Y-79800000D01*
X189000000Y-76800000D02*
X189000000Y-75750000D01*
X207000000Y-80000000D02*
X190900000Y-80000000D01*
X189000000Y-78100000D02*
X189000000Y-76800000D01*
X190900000Y-80000000D02*
X189000000Y-78100000D01*
X193000000Y-76800000D02*
X193000000Y-75750000D01*
X208000000Y-79500000D02*
X207700000Y-79200000D01*
X207700000Y-79200000D02*
X194500000Y-79200000D01*
X194500000Y-79200000D02*
X193000000Y-77700000D01*
X193000000Y-77700000D02*
X193000000Y-76800000D01*
X197000000Y-77100000D02*
X197000000Y-75750000D01*
X198500000Y-78600000D02*
X197000000Y-77100000D01*
X209000000Y-79000000D02*
X208600000Y-78600000D01*
X208600000Y-78600000D02*
X198500000Y-78600000D01*
X201000000Y-76800000D02*
X201000000Y-75750000D01*
X201000000Y-77300000D02*
X201000000Y-76800000D01*
X201700000Y-78000000D02*
X201000000Y-77300000D01*
X210000000Y-78500000D02*
X209500000Y-78000000D01*
X209500000Y-78000000D02*
X201700000Y-78000000D01*
X205000000Y-76800000D02*
X205000000Y-75750000D01*
X205600000Y-77400000D02*
X205000000Y-76800000D01*
X211000000Y-78000000D02*
X210400000Y-77400000D01*
X210400000Y-77400000D02*
X205600000Y-77400000D01*
X209000000Y-75750000D02*
X209000000Y-76300000D01*
X209000000Y-76300000D02*
X209500000Y-76800000D01*
X211300000Y-76800000D02*
X212000000Y-77500000D01*
X209500000Y-76800000D02*
X211300000Y-76800000D01*
X213000000Y-75750000D02*
X213000000Y-78000000D01*
X217000000Y-77000000D02*
X217000000Y-75750000D01*
X214000000Y-78500000D02*
X215500000Y-78500000D01*
X215500000Y-78500000D02*
X217000000Y-77000000D01*
X221000000Y-77000000D02*
X221000000Y-75750000D01*
X223900000Y-78500000D02*
X222500000Y-78500000D01*
X222500000Y-78500000D02*
X221000000Y-77000000D01*
X225000000Y-77900000D02*
X224900000Y-78000000D01*
X225000000Y-75750000D02*
X225000000Y-77900000D01*
X225900000Y-77450000D02*
X225900000Y-77450000D01*
X229000000Y-75750000D02*
X229000000Y-76300000D01*
X229000000Y-76300000D02*
X228500000Y-76800000D01*
X226600000Y-76800000D02*
X225900000Y-77500000D01*
X228500000Y-76800000D02*
X226600000Y-76800000D01*
X227500000Y-77400000D02*
X226900000Y-78000000D01*
X227500000Y-77400000D02*
X232300000Y-77400000D01*
X233000000Y-76700000D02*
X233000000Y-75750000D01*
X232300000Y-77400000D02*
X233000000Y-76700000D01*
X237000000Y-76500000D02*
X237000000Y-75750000D01*
X235500000Y-78000000D02*
X237000000Y-76500000D01*
X227900000Y-78500000D02*
X228400000Y-78000000D01*
X228400000Y-78000000D02*
X235500000Y-78000000D01*
X241000000Y-76800000D02*
X241000000Y-75750000D01*
X239200000Y-78600000D02*
X241000000Y-76800000D01*
X228900000Y-79000000D02*
X229300000Y-78600000D01*
X229300000Y-78600000D02*
X239200000Y-78600000D01*
X229400000Y-83000000D02*
X228500000Y-83900000D01*
X230550000Y-83000000D02*
X229400000Y-83000000D01*
X229600000Y-85000000D02*
X229100000Y-85500000D01*
X230550000Y-85000000D02*
X229600000Y-85000000D01*
D39*
X167470000Y-106570000D02*
X167340000Y-106570000D01*
X172090000Y-111190000D02*
X167470000Y-106570000D01*
X193280000Y-111190000D02*
X172090000Y-111190000D01*
X204600000Y-108200000D02*
X196270000Y-108200000D01*
X196270000Y-108200000D02*
X193280000Y-111190000D01*
X206300000Y-106500000D02*
X204600000Y-108200000D01*
X207500000Y-106500000D02*
X206300000Y-106500000D01*
X172340000Y-110640000D02*
X169920000Y-108220000D01*
X193050000Y-110640000D02*
X172340000Y-110640000D01*
X196060000Y-107630000D02*
X193050000Y-110640000D01*
X169920000Y-108220000D02*
X169920000Y-107470000D01*
X204170000Y-107630000D02*
X196060000Y-107630000D01*
X206300000Y-105500000D02*
X204170000Y-107630000D01*
X208500000Y-105500000D02*
X206300000Y-105500000D01*
X201550000Y-106950000D02*
X202000000Y-106500000D01*
X189850000Y-106950000D02*
X201550000Y-106950000D01*
X189500000Y-107300000D02*
X189850000Y-106950000D01*
X189680000Y-106380000D02*
X189500000Y-106200000D01*
X201020000Y-106380000D02*
X189680000Y-106380000D01*
X201700000Y-105700000D02*
X201020000Y-106380000D01*
X202700000Y-105700000D02*
X201700000Y-105700000D01*
X203000000Y-106000000D02*
X202700000Y-105700000D01*
X204000000Y-104000000D02*
X203200000Y-103200000D01*
X193900000Y-101300000D02*
X191800000Y-99200000D01*
X191800000Y-87200000D02*
X190400000Y-85800000D01*
X203200000Y-103200000D02*
X200900000Y-103200000D01*
X199000000Y-101300000D02*
X193900000Y-101300000D01*
X137600000Y-103000000D02*
X136250000Y-103000000D01*
X191800000Y-99200000D02*
X191800000Y-87200000D01*
X200900000Y-103200000D02*
X199000000Y-101300000D01*
X190400000Y-85800000D02*
X163600000Y-85800000D01*
X155600000Y-87900000D02*
X148800000Y-94700000D01*
X163600000Y-85800000D02*
X161500000Y-87900000D01*
X161500000Y-87900000D02*
X155600000Y-87900000D01*
X148800000Y-94700000D02*
X145900000Y-94700000D01*
X145900000Y-94700000D02*
X137600000Y-103000000D01*
X146200000Y-95200000D02*
X137400000Y-104000000D01*
X149200000Y-95200000D02*
X146200000Y-95200000D01*
X137400000Y-104000000D02*
X136250000Y-104000000D01*
X191300000Y-99600000D02*
X191300000Y-87500000D01*
X190100000Y-86300000D02*
X163900000Y-86300000D01*
X156000000Y-88400000D02*
X149200000Y-95200000D01*
X202800000Y-104000000D02*
X200600000Y-104000000D01*
X161800000Y-88400000D02*
X156000000Y-88400000D01*
X163900000Y-86300000D02*
X161800000Y-88400000D01*
X200600000Y-104000000D02*
X198400000Y-101800000D01*
X198400000Y-101800000D02*
X193500000Y-101800000D01*
X193500000Y-101800000D02*
X191300000Y-99600000D01*
X191300000Y-87500000D02*
X190100000Y-86300000D01*
X136250000Y-105000000D02*
X137200000Y-105000000D01*
X137200000Y-105000000D02*
X146400000Y-95800000D01*
X146400000Y-95800000D02*
X149400000Y-95800000D01*
X149400000Y-95800000D02*
X156300000Y-88900000D01*
X156300000Y-88900000D02*
X162300000Y-88900000D01*
X162300000Y-88900000D02*
X165400000Y-92000000D01*
X165400000Y-92000000D02*
X177600000Y-92000000D01*
X190700000Y-96900000D02*
X185800000Y-92000000D01*
X190700000Y-99800000D02*
X190700000Y-96900000D01*
X193200000Y-102300000D02*
X190700000Y-99800000D01*
X198100000Y-102300000D02*
X193200000Y-102300000D01*
X200700000Y-104900000D02*
X198100000Y-102300000D01*
X202100000Y-104900000D02*
X200700000Y-104900000D01*
X207500000Y-103500000D02*
X207500000Y-104000000D01*
X192300000Y-99000000D02*
X194100000Y-100800000D01*
X192300000Y-86900000D02*
X192300000Y-99000000D01*
X204800000Y-100800000D02*
X207500000Y-103500000D01*
X194100000Y-100800000D02*
X204800000Y-100800000D01*
X190700000Y-85300000D02*
X192300000Y-86900000D01*
X163200000Y-85300000D02*
X190700000Y-85300000D01*
X161200000Y-87300000D02*
X163200000Y-85300000D01*
X155000000Y-87300000D02*
X161200000Y-87300000D01*
X150700000Y-91600000D02*
X155000000Y-87300000D01*
X212500000Y-81250000D02*
X214250000Y-83000000D01*
X153500000Y-81250000D02*
X212500000Y-81250000D01*
X150250000Y-83000000D02*
X151750000Y-83000000D01*
X151750000Y-83000000D02*
X153500000Y-81250000D01*
X214600000Y-101500000D02*
X212500000Y-101500000D01*
X216500000Y-99600000D02*
X214600000Y-101500000D01*
X222400000Y-92000000D02*
X221500000Y-92000000D01*
X226700000Y-87700000D02*
X222400000Y-92000000D01*
X226700000Y-83000000D02*
X226700000Y-87700000D01*
X224950000Y-81250000D02*
X226700000Y-83000000D01*
X221500000Y-81250000D02*
X224950000Y-81250000D01*
X221500000Y-92000000D02*
X216500000Y-97000000D01*
X219750000Y-83000000D02*
X221500000Y-81250000D01*
X216500000Y-97000000D02*
X216500000Y-99600000D01*
X214250000Y-83000000D02*
X219750000Y-83000000D01*
X212050000Y-93050000D02*
X212300000Y-92800000D01*
X212050000Y-97400000D02*
X212050000Y-93050000D01*
X211150000Y-98300000D02*
X212050000Y-97400000D01*
X211150000Y-103350000D02*
X211150000Y-98300000D01*
X211500000Y-103700000D02*
X211150000Y-103350000D01*
X211500000Y-106500000D02*
X211500000Y-103700000D01*
X212550000Y-93850000D02*
X213600000Y-92800000D01*
X212550000Y-97700000D02*
X212550000Y-93850000D01*
X211750000Y-98500000D02*
X212550000Y-97700000D01*
X211750000Y-102850000D02*
X211750000Y-98500000D01*
X212500000Y-103600000D02*
X211750000Y-102850000D01*
X212500000Y-106500000D02*
X212500000Y-103600000D01*
X222250000Y-82250000D02*
X219500000Y-85000000D01*
X224500000Y-82250000D02*
X222250000Y-82250000D01*
X225750000Y-83500000D02*
X224500000Y-82250000D01*
X196000000Y-93300000D02*
X196300000Y-93000000D01*
X204400000Y-93000000D02*
X206400000Y-91000000D01*
X225750000Y-87250000D02*
X225750000Y-83500000D01*
X196300000Y-93000000D02*
X204400000Y-93000000D01*
X206400000Y-91000000D02*
X222000000Y-91000000D01*
X219500000Y-85000000D02*
X214250000Y-85000000D01*
X222000000Y-91000000D02*
X225750000Y-87250000D01*
X150250000Y-85000000D02*
X151250000Y-85000000D01*
X151250000Y-85000000D02*
X154000000Y-82250000D01*
X154000000Y-82250000D02*
X210000000Y-82250000D01*
X210000000Y-82250000D02*
X213750000Y-86000000D01*
X213750000Y-86000000D02*
X219250000Y-86000000D01*
X222250000Y-83000000D02*
X224000000Y-83000000D01*
X219250000Y-86000000D02*
X222250000Y-83000000D01*
X263500000Y-91000000D02*
X261500000Y-91000000D01*
X261500000Y-91000000D02*
X260500000Y-92000000D01*
D44*
X257170189Y-63144376D02*
X257333850Y-63194022D01*
X257484672Y-63274638D01*
X257616870Y-63383130D01*
X257725362Y-63515328D01*
X257805978Y-63666150D01*
X257855624Y-63829811D01*
X257872386Y-64000000D01*
X257855624Y-64170189D01*
X257805978Y-64333850D01*
X257725362Y-64484672D01*
X257616870Y-64616870D01*
X257484672Y-64725362D01*
X257333850Y-64805978D01*
X257170189Y-64855624D01*
X256993766Y-64873000D01*
X256491089Y-64873000D01*
X256433423Y-64842177D01*
X256343508Y-64814902D01*
X256250000Y-64805692D01*
X255667250Y-64808000D01*
X255602250Y-64873000D01*
X255397750Y-64873000D01*
X255332750Y-64808000D01*
X254750000Y-64805692D01*
X254656492Y-64814902D01*
X254566577Y-64842177D01*
X254508911Y-64873000D01*
X253491089Y-64873000D01*
X253433423Y-64842177D01*
X253343508Y-64814902D01*
X253250000Y-64805692D01*
X252667250Y-64808000D01*
X252602250Y-64873000D01*
X252397750Y-64873000D01*
X252332750Y-64808000D01*
X251750000Y-64805692D01*
X251656492Y-64814902D01*
X251566577Y-64842177D01*
X251508911Y-64873000D01*
X249491089Y-64873000D01*
X249433423Y-64842177D01*
X249343508Y-64814902D01*
X249250000Y-64805692D01*
X248667250Y-64808000D01*
X248602250Y-64873000D01*
X248397750Y-64873000D01*
X248332750Y-64808000D01*
X247750000Y-64805692D01*
X247656492Y-64814902D01*
X247566577Y-64842177D01*
X247508911Y-64873000D01*
X246491089Y-64873000D01*
X246433423Y-64842177D01*
X246343508Y-64814902D01*
X246250000Y-64805692D01*
X245667250Y-64808000D01*
X245602250Y-64873000D01*
X245397750Y-64873000D01*
X245332750Y-64808000D01*
X244750000Y-64805692D01*
X244656492Y-64814902D01*
X244566577Y-64842177D01*
X244508911Y-64873000D01*
X121491089Y-64873000D01*
X121433423Y-64842177D01*
X121343508Y-64814902D01*
X121250000Y-64805692D01*
X120667250Y-64808000D01*
X120602250Y-64873000D01*
X120397750Y-64873000D01*
X120332750Y-64808000D01*
X119750000Y-64805692D01*
X119656492Y-64814902D01*
X119566577Y-64842177D01*
X119508911Y-64873000D01*
X118491089Y-64873000D01*
X118433423Y-64842177D01*
X118343508Y-64814902D01*
X118250000Y-64805692D01*
X117667250Y-64808000D01*
X117602250Y-64873000D01*
X117397750Y-64873000D01*
X117332750Y-64808000D01*
X116750000Y-64805692D01*
X116656492Y-64814902D01*
X116566577Y-64842177D01*
X116508911Y-64873000D01*
X114633174Y-64873000D01*
X114588922Y-64819078D01*
X114516289Y-64759470D01*
X114433423Y-64715177D01*
X114343508Y-64687902D01*
X114250000Y-64678692D01*
X113667250Y-64681000D01*
X113548000Y-64800250D01*
X113548000Y-64873000D01*
X113452000Y-64873000D01*
X113452000Y-64800250D01*
X113332750Y-64681000D01*
X112750000Y-64678692D01*
X112656492Y-64687902D01*
X112566577Y-64715177D01*
X112483711Y-64759470D01*
X112411078Y-64819078D01*
X112366826Y-64873000D01*
X111633174Y-64873000D01*
X111588922Y-64819078D01*
X111516289Y-64759470D01*
X111433423Y-64715177D01*
X111343508Y-64687902D01*
X111250000Y-64678692D01*
X110667250Y-64681000D01*
X110548000Y-64800250D01*
X110548000Y-64873000D01*
X110452000Y-64873000D01*
X110452000Y-64800250D01*
X110332750Y-64681000D01*
X109750000Y-64678692D01*
X109656492Y-64687902D01*
X109566577Y-64715177D01*
X109531425Y-64733966D01*
X109515328Y-64725362D01*
X109383130Y-64616870D01*
X109274638Y-64484672D01*
X109194022Y-64333850D01*
X109144376Y-64170189D01*
X109127614Y-64000000D01*
X109144376Y-63829811D01*
X109194022Y-63666150D01*
X109274638Y-63515328D01*
X109383130Y-63383130D01*
X109515328Y-63274638D01*
X109666150Y-63194022D01*
X109829811Y-63144376D01*
X110006234Y-63127000D01*
X256993766Y-63127000D01*
X257170189Y-63144376D01*
G04 #@! TA.AperFunction,Conductor*
D45*
G36*
X257170189Y-63144376D02*
G01*
X257333850Y-63194022D01*
X257484672Y-63274638D01*
X257616870Y-63383130D01*
X257725362Y-63515328D01*
X257805978Y-63666150D01*
X257855624Y-63829811D01*
X257872386Y-64000000D01*
X257855624Y-64170189D01*
X257805978Y-64333850D01*
X257725362Y-64484672D01*
X257616870Y-64616870D01*
X257484672Y-64725362D01*
X257333850Y-64805978D01*
X257170189Y-64855624D01*
X256993766Y-64873000D01*
X256491089Y-64873000D01*
X256433423Y-64842177D01*
X256343508Y-64814902D01*
X256250000Y-64805692D01*
X255667250Y-64808000D01*
X255602250Y-64873000D01*
X255397750Y-64873000D01*
X255332750Y-64808000D01*
X254750000Y-64805692D01*
X254656492Y-64814902D01*
X254566577Y-64842177D01*
X254508911Y-64873000D01*
X253491089Y-64873000D01*
X253433423Y-64842177D01*
X253343508Y-64814902D01*
X253250000Y-64805692D01*
X252667250Y-64808000D01*
X252602250Y-64873000D01*
X252397750Y-64873000D01*
X252332750Y-64808000D01*
X251750000Y-64805692D01*
X251656492Y-64814902D01*
X251566577Y-64842177D01*
X251508911Y-64873000D01*
X249491089Y-64873000D01*
X249433423Y-64842177D01*
X249343508Y-64814902D01*
X249250000Y-64805692D01*
X248667250Y-64808000D01*
X248602250Y-64873000D01*
X248397750Y-64873000D01*
X248332750Y-64808000D01*
X247750000Y-64805692D01*
X247656492Y-64814902D01*
X247566577Y-64842177D01*
X247508911Y-64873000D01*
X246491089Y-64873000D01*
X246433423Y-64842177D01*
X246343508Y-64814902D01*
X246250000Y-64805692D01*
X245667250Y-64808000D01*
X245602250Y-64873000D01*
X245397750Y-64873000D01*
X245332750Y-64808000D01*
X244750000Y-64805692D01*
X244656492Y-64814902D01*
X244566577Y-64842177D01*
X244508911Y-64873000D01*
X121491089Y-64873000D01*
X121433423Y-64842177D01*
X121343508Y-64814902D01*
X121250000Y-64805692D01*
X120667250Y-64808000D01*
X120602250Y-64873000D01*
X120397750Y-64873000D01*
X120332750Y-64808000D01*
X119750000Y-64805692D01*
X119656492Y-64814902D01*
X119566577Y-64842177D01*
X119508911Y-64873000D01*
X118491089Y-64873000D01*
X118433423Y-64842177D01*
X118343508Y-64814902D01*
X118250000Y-64805692D01*
X117667250Y-64808000D01*
X117602250Y-64873000D01*
X117397750Y-64873000D01*
X117332750Y-64808000D01*
X116750000Y-64805692D01*
X116656492Y-64814902D01*
X116566577Y-64842177D01*
X116508911Y-64873000D01*
X114633174Y-64873000D01*
X114588922Y-64819078D01*
X114516289Y-64759470D01*
X114433423Y-64715177D01*
X114343508Y-64687902D01*
X114250000Y-64678692D01*
X113667250Y-64681000D01*
X113548000Y-64800250D01*
X113548000Y-64873000D01*
X113452000Y-64873000D01*
X113452000Y-64800250D01*
X113332750Y-64681000D01*
X112750000Y-64678692D01*
X112656492Y-64687902D01*
X112566577Y-64715177D01*
X112483711Y-64759470D01*
X112411078Y-64819078D01*
X112366826Y-64873000D01*
X111633174Y-64873000D01*
X111588922Y-64819078D01*
X111516289Y-64759470D01*
X111433423Y-64715177D01*
X111343508Y-64687902D01*
X111250000Y-64678692D01*
X110667250Y-64681000D01*
X110548000Y-64800250D01*
X110548000Y-64873000D01*
X110452000Y-64873000D01*
X110452000Y-64800250D01*
X110332750Y-64681000D01*
X109750000Y-64678692D01*
X109656492Y-64687902D01*
X109566577Y-64715177D01*
X109531425Y-64733966D01*
X109515328Y-64725362D01*
X109383130Y-64616870D01*
X109274638Y-64484672D01*
X109194022Y-64333850D01*
X109144376Y-64170189D01*
X109127614Y-64000000D01*
X109144376Y-63829811D01*
X109194022Y-63666150D01*
X109274638Y-63515328D01*
X109383130Y-63383130D01*
X109515328Y-63274638D01*
X109666150Y-63194022D01*
X109829811Y-63144376D01*
X110006234Y-63127000D01*
X256993766Y-63127000D01*
X257170189Y-63144376D01*
G37*
G04 #@! TD.AperFunction*
D46*
X181988000Y-87197000D02*
X182141000Y-87350000D01*
X183200000Y-87350000D01*
X183200000Y-87330000D01*
X183500000Y-87330000D01*
X183500000Y-87350000D01*
X184559000Y-87350000D01*
X184712000Y-87197000D01*
X184713113Y-87029000D01*
X185293078Y-87029000D01*
X185293078Y-88250000D01*
X185304740Y-88368405D01*
X185339277Y-88482259D01*
X185395363Y-88587188D01*
X185470841Y-88679159D01*
X185562812Y-88754637D01*
X185667741Y-88810723D01*
X185781595Y-88845260D01*
X185900000Y-88856922D01*
X187400000Y-88856922D01*
X187518405Y-88845260D01*
X187632259Y-88810723D01*
X187737188Y-88754637D01*
X187829159Y-88679159D01*
X187904637Y-88587188D01*
X187960723Y-88482259D01*
X187962492Y-88476426D01*
X188101115Y-88504000D01*
X188298885Y-88504000D01*
X188492856Y-88465417D01*
X188675572Y-88389733D01*
X188840013Y-88279858D01*
X188979858Y-88140013D01*
X189089733Y-87975572D01*
X189165417Y-87792856D01*
X189204000Y-87598885D01*
X189204000Y-87401115D01*
X189165417Y-87207144D01*
X189091627Y-87029000D01*
X189798039Y-87029000D01*
X190571001Y-87801962D01*
X190571001Y-88074030D01*
X190475572Y-88010267D01*
X190292856Y-87934583D01*
X190098885Y-87896000D01*
X189901115Y-87896000D01*
X189707144Y-87934583D01*
X189524428Y-88010267D01*
X189359987Y-88120142D01*
X189220142Y-88259987D01*
X189110267Y-88424428D01*
X189034583Y-88607144D01*
X188996000Y-88801115D01*
X188996000Y-88998885D01*
X189005352Y-89045899D01*
X188912812Y-89095363D01*
X188820841Y-89170841D01*
X188745363Y-89262812D01*
X188689277Y-89367741D01*
X188654740Y-89481595D01*
X188643078Y-89600000D01*
X188643078Y-91100000D01*
X188654740Y-91218405D01*
X188689277Y-91332259D01*
X188745363Y-91437188D01*
X188820841Y-91529159D01*
X188912812Y-91604637D01*
X189017741Y-91660723D01*
X189131595Y-91695260D01*
X189250000Y-91706922D01*
X190571001Y-91706922D01*
X190571001Y-92286225D01*
X190303000Y-92288000D01*
X190150000Y-92441000D01*
X190150000Y-93500000D01*
X190170000Y-93500000D01*
X190170000Y-93800000D01*
X190150000Y-93800000D01*
X190150000Y-94859000D01*
X190263020Y-94972020D01*
X190192244Y-95361283D01*
X189769981Y-94939020D01*
X189850000Y-94859000D01*
X189850000Y-93800000D01*
X188791000Y-93800000D01*
X188710981Y-93880020D01*
X187730961Y-92900000D01*
X188635039Y-92900000D01*
X188638000Y-93347000D01*
X188791000Y-93500000D01*
X189850000Y-93500000D01*
X189850000Y-92441000D01*
X189697000Y-92288000D01*
X189250000Y-92285039D01*
X189130027Y-92296855D01*
X189014665Y-92331850D01*
X188908346Y-92388679D01*
X188815157Y-92465157D01*
X188738679Y-92558346D01*
X188681850Y-92664665D01*
X188646855Y-92780027D01*
X188635039Y-92900000D01*
X187730961Y-92900000D01*
X186804000Y-91973039D01*
X186804000Y-91901115D01*
X186765417Y-91707144D01*
X186689733Y-91524428D01*
X186579858Y-91359987D01*
X186440013Y-91220142D01*
X186275572Y-91110267D01*
X186092856Y-91034583D01*
X185898885Y-90996000D01*
X185701115Y-90996000D01*
X185507144Y-91034583D01*
X185324428Y-91110267D01*
X185159987Y-91220142D01*
X185020142Y-91359987D01*
X184910267Y-91524428D01*
X184834583Y-91707144D01*
X184796000Y-91901115D01*
X184796000Y-92098885D01*
X184834583Y-92292856D01*
X184910267Y-92475572D01*
X185020142Y-92640013D01*
X185159987Y-92779858D01*
X185324428Y-92889733D01*
X185507144Y-92965417D01*
X185701115Y-93004000D01*
X185773039Y-93004000D01*
X189875026Y-97105987D01*
X189362821Y-99923114D01*
X189364961Y-99600000D01*
X189353145Y-99480027D01*
X189318150Y-99364665D01*
X189261321Y-99258346D01*
X189184843Y-99165157D01*
X189091654Y-99088679D01*
X188985335Y-99031850D01*
X188869973Y-98996855D01*
X188750000Y-98985039D01*
X188303000Y-98988000D01*
X188150000Y-99141000D01*
X188150000Y-100200000D01*
X188170000Y-100200000D01*
X188170000Y-100500000D01*
X188150000Y-100500000D01*
X188150000Y-101559000D01*
X188303000Y-101712000D01*
X188750000Y-101714961D01*
X188869973Y-101703145D01*
X188985335Y-101668150D01*
X189052022Y-101632505D01*
X188926589Y-102322390D01*
X188868405Y-102304740D01*
X188750000Y-102293078D01*
X187250000Y-102293078D01*
X187131595Y-102304740D01*
X187017741Y-102339277D01*
X186912812Y-102395363D01*
X186820841Y-102470841D01*
X186745363Y-102562812D01*
X186689277Y-102667741D01*
X186654740Y-102781595D01*
X186643078Y-102900000D01*
X186643078Y-103054603D01*
X186579858Y-102959987D01*
X186440013Y-102820142D01*
X186275572Y-102710267D01*
X186092856Y-102634583D01*
X185898885Y-102596000D01*
X185701115Y-102596000D01*
X185507144Y-102634583D01*
X185324428Y-102710267D01*
X185159987Y-102820142D01*
X185020142Y-102959987D01*
X184910267Y-103124428D01*
X184834583Y-103307144D01*
X184796000Y-103501115D01*
X184796000Y-103502328D01*
X183155250Y-105143078D01*
X181944614Y-105143078D01*
X181965417Y-105092856D01*
X182004000Y-104898885D01*
X182004000Y-104701115D01*
X181965417Y-104507144D01*
X181889733Y-104324428D01*
X181779858Y-104159987D01*
X181640013Y-104020142D01*
X181475572Y-103910267D01*
X181292856Y-103834583D01*
X181098885Y-103796000D01*
X180901115Y-103796000D01*
X180707144Y-103834583D01*
X180524428Y-103910267D01*
X180359987Y-104020142D01*
X180220142Y-104159987D01*
X180110267Y-104324428D01*
X180034583Y-104507144D01*
X179996000Y-104701115D01*
X179996000Y-104898885D01*
X180034583Y-105092856D01*
X180052187Y-105135356D01*
X179653000Y-105138000D01*
X179500000Y-105291000D01*
X179500000Y-106350000D01*
X180559000Y-106350000D01*
X180712000Y-106197000D01*
X180714849Y-105766950D01*
X180901115Y-105804000D01*
X181098885Y-105804000D01*
X181292856Y-105765417D01*
X181293078Y-105765325D01*
X181293078Y-107221964D01*
X181275572Y-107210267D01*
X181092856Y-107134583D01*
X180898885Y-107096000D01*
X180713941Y-107096000D01*
X180712000Y-106803000D01*
X180559000Y-106650000D01*
X179500000Y-106650000D01*
X179500000Y-107709000D01*
X179653000Y-107862000D01*
X179823447Y-107863129D01*
X179816909Y-107896000D01*
X175203280Y-107896000D01*
X175025114Y-107878617D01*
X174858556Y-107828592D01*
X174704799Y-107747311D01*
X174569652Y-107637843D01*
X174458216Y-107504319D01*
X174374691Y-107351773D01*
X174342490Y-107250000D01*
X177985039Y-107250000D01*
X177996855Y-107369973D01*
X178031850Y-107485335D01*
X178088679Y-107591654D01*
X178165157Y-107684843D01*
X178258346Y-107761321D01*
X178364665Y-107818150D01*
X178480027Y-107853145D01*
X178600000Y-107864961D01*
X179047000Y-107862000D01*
X179200000Y-107709000D01*
X179200000Y-106650000D01*
X178141000Y-106650000D01*
X177988000Y-106803000D01*
X177985039Y-107250000D01*
X174342490Y-107250000D01*
X174322227Y-107185958D01*
X174302802Y-107013130D01*
X174317570Y-106834739D01*
X174490785Y-105882054D01*
X174601115Y-105904000D01*
X174798885Y-105904000D01*
X174992856Y-105865417D01*
X175175572Y-105789733D01*
X175340013Y-105679858D01*
X175479858Y-105540013D01*
X175589733Y-105375572D01*
X175665417Y-105192856D01*
X175702482Y-105006518D01*
X175850000Y-104859000D01*
X175850000Y-103800000D01*
X176150000Y-103800000D01*
X176150000Y-104859000D01*
X176303000Y-105012000D01*
X176618916Y-105014093D01*
X176634583Y-105092856D01*
X176710267Y-105275572D01*
X176820142Y-105440013D01*
X176959987Y-105579858D01*
X177124428Y-105689733D01*
X177307144Y-105765417D01*
X177501115Y-105804000D01*
X177698885Y-105804000D01*
X177892856Y-105765417D01*
X177987377Y-105726265D01*
X177985039Y-105750000D01*
X177988000Y-106197000D01*
X178141000Y-106350000D01*
X179200000Y-106350000D01*
X179200000Y-105291000D01*
X179047000Y-105138000D01*
X178600000Y-105135039D01*
X178545730Y-105140384D01*
X178565417Y-105092856D01*
X178604000Y-104898885D01*
X178604000Y-104701115D01*
X178565417Y-104507144D01*
X178489733Y-104324428D01*
X178379858Y-104159987D01*
X178240013Y-104020142D01*
X178075572Y-103910267D01*
X177892856Y-103834583D01*
X177698885Y-103796000D01*
X177501115Y-103796000D01*
X177307144Y-103834583D01*
X177262200Y-103853200D01*
X177209000Y-103800000D01*
X176150000Y-103800000D01*
X175850000Y-103800000D01*
X175830000Y-103800000D01*
X175830000Y-103500000D01*
X175850000Y-103500000D01*
X175850000Y-102441000D01*
X176150000Y-102441000D01*
X176150000Y-103500000D01*
X177209000Y-103500000D01*
X177362000Y-103347000D01*
X177364961Y-102900000D01*
X177353145Y-102780027D01*
X177318150Y-102664665D01*
X177261321Y-102558346D01*
X177184843Y-102465157D01*
X177091654Y-102388679D01*
X176985335Y-102331850D01*
X176869973Y-102296855D01*
X176750000Y-102285039D01*
X176303000Y-102288000D01*
X176150000Y-102441000D01*
X175850000Y-102441000D01*
X175697000Y-102288000D01*
X175250000Y-102285039D01*
X175142870Y-102295590D01*
X175249902Y-101706912D01*
X175250000Y-101706922D01*
X176750000Y-101706922D01*
X176868405Y-101695260D01*
X176982259Y-101660723D01*
X177087188Y-101604637D01*
X177179159Y-101529159D01*
X177254637Y-101437188D01*
X177310723Y-101332259D01*
X177345260Y-101218405D01*
X177356922Y-101100000D01*
X186635039Y-101100000D01*
X186646855Y-101219973D01*
X186681850Y-101335335D01*
X186738679Y-101441654D01*
X186815157Y-101534843D01*
X186908346Y-101611321D01*
X187014665Y-101668150D01*
X187130027Y-101703145D01*
X187250000Y-101714961D01*
X187697000Y-101712000D01*
X187850000Y-101559000D01*
X187850000Y-100500000D01*
X186791000Y-100500000D01*
X186638000Y-100653000D01*
X186635039Y-101100000D01*
X177356922Y-101100000D01*
X177356922Y-99600000D01*
X177345260Y-99481595D01*
X177344473Y-99479000D01*
X182659129Y-99479000D01*
X182659987Y-99479858D01*
X182824428Y-99589733D01*
X183007144Y-99665417D01*
X183201115Y-99704000D01*
X183398885Y-99704000D01*
X183592856Y-99665417D01*
X183750785Y-99600000D01*
X186635039Y-99600000D01*
X186638000Y-100047000D01*
X186791000Y-100200000D01*
X187850000Y-100200000D01*
X187850000Y-99141000D01*
X187697000Y-98988000D01*
X187250000Y-98985039D01*
X187130027Y-98996855D01*
X187014665Y-99031850D01*
X186908346Y-99088679D01*
X186815157Y-99165157D01*
X186738679Y-99258346D01*
X186681850Y-99364665D01*
X186646855Y-99480027D01*
X186635039Y-99600000D01*
X183750785Y-99600000D01*
X183775572Y-99589733D01*
X183940013Y-99479858D01*
X184079858Y-99340013D01*
X184189733Y-99175572D01*
X184265417Y-98992856D01*
X184304000Y-98798885D01*
X184304000Y-98601115D01*
X184265417Y-98407144D01*
X184246992Y-98362662D01*
X184347000Y-98362000D01*
X184500000Y-98209000D01*
X184500000Y-97150000D01*
X184800000Y-97150000D01*
X184800000Y-98209000D01*
X184953000Y-98362000D01*
X185400000Y-98364961D01*
X185519973Y-98353145D01*
X185635335Y-98318150D01*
X185741654Y-98261321D01*
X185834843Y-98184843D01*
X185911321Y-98091654D01*
X185968150Y-97985335D01*
X186003145Y-97869973D01*
X186014961Y-97750000D01*
X186012000Y-97303000D01*
X185859000Y-97150000D01*
X184800000Y-97150000D01*
X184500000Y-97150000D01*
X183441000Y-97150000D01*
X183288000Y-97303000D01*
X183285397Y-97696000D01*
X183201115Y-97696000D01*
X183007144Y-97734583D01*
X182824428Y-97810267D01*
X182684543Y-97903734D01*
X182695260Y-97868405D01*
X182706922Y-97750000D01*
X182706922Y-96302401D01*
X182892856Y-96265417D01*
X183075572Y-96189733D01*
X183132095Y-96151966D01*
X183159987Y-96179858D01*
X183285128Y-96263474D01*
X183288000Y-96697000D01*
X183441000Y-96850000D01*
X184500000Y-96850000D01*
X184500000Y-96830000D01*
X184800000Y-96830000D01*
X184800000Y-96850000D01*
X185859000Y-96850000D01*
X186012000Y-96697000D01*
X186014961Y-96250000D01*
X186003145Y-96130027D01*
X185968150Y-96014665D01*
X185911321Y-95908346D01*
X185834843Y-95815157D01*
X185741654Y-95738679D01*
X185635335Y-95681850D01*
X185519973Y-95646855D01*
X185400000Y-95635039D01*
X184953000Y-95638000D01*
X184800002Y-95790998D01*
X184800002Y-95638000D01*
X184776328Y-95638000D01*
X184804000Y-95498885D01*
X184804000Y-95301115D01*
X184765417Y-95107144D01*
X184689733Y-94924428D01*
X184579858Y-94759987D01*
X184440013Y-94620142D01*
X184275572Y-94510267D01*
X184092856Y-94434583D01*
X183898885Y-94396000D01*
X183897673Y-94396000D01*
X182627895Y-93126223D01*
X182603501Y-93096499D01*
X182484883Y-92999151D01*
X182349553Y-92926816D01*
X182202711Y-92882272D01*
X182088267Y-92871000D01*
X182088259Y-92871000D01*
X182050000Y-92867232D01*
X182011741Y-92871000D01*
X179354066Y-92871000D01*
X179345260Y-92781595D01*
X179310723Y-92667741D01*
X179254637Y-92562812D01*
X179179159Y-92470841D01*
X179087188Y-92395363D01*
X178982259Y-92339277D01*
X178868405Y-92304740D01*
X178750000Y-92293078D01*
X178565325Y-92293078D01*
X178565417Y-92292856D01*
X178604000Y-92098885D01*
X178604000Y-91901115D01*
X178566730Y-91713747D01*
X178750000Y-91714961D01*
X178869973Y-91703145D01*
X178985335Y-91668150D01*
X179091654Y-91611321D01*
X179184843Y-91534843D01*
X179261321Y-91441654D01*
X179318150Y-91335335D01*
X179353145Y-91219973D01*
X179364961Y-91100000D01*
X179362000Y-90653000D01*
X179209000Y-90500000D01*
X178150000Y-90500000D01*
X178150000Y-90520000D01*
X177850000Y-90520000D01*
X177850000Y-90500000D01*
X177830000Y-90500000D01*
X177830000Y-90200000D01*
X177850000Y-90200000D01*
X177850000Y-89141000D01*
X178150000Y-89141000D01*
X178150000Y-90200000D01*
X179209000Y-90200000D01*
X179362000Y-90047000D01*
X179364961Y-89600000D01*
X179353145Y-89480027D01*
X179318150Y-89364665D01*
X179261321Y-89258346D01*
X179184843Y-89165157D01*
X179091654Y-89088679D01*
X178985335Y-89031850D01*
X178869973Y-88996855D01*
X178750000Y-88985039D01*
X178303000Y-88988000D01*
X178150000Y-89141000D01*
X177850000Y-89141000D01*
X177697000Y-88988000D01*
X177562593Y-88987110D01*
X177696613Y-88250000D01*
X181985039Y-88250000D01*
X181996855Y-88369973D01*
X182031850Y-88485335D01*
X182088679Y-88591654D01*
X182165157Y-88684843D01*
X182258346Y-88761321D01*
X182364665Y-88818150D01*
X182480027Y-88853145D01*
X182600000Y-88864961D01*
X183047000Y-88862000D01*
X183200000Y-88709000D01*
X183200000Y-87650000D01*
X183500000Y-87650000D01*
X183500000Y-88709000D01*
X183653000Y-88862000D01*
X184100000Y-88864961D01*
X184219973Y-88853145D01*
X184335335Y-88818150D01*
X184441654Y-88761321D01*
X184534843Y-88684843D01*
X184611321Y-88591654D01*
X184668150Y-88485335D01*
X184703145Y-88369973D01*
X184714961Y-88250000D01*
X184712000Y-87803000D01*
X184559000Y-87650000D01*
X183500000Y-87650000D01*
X183200000Y-87650000D01*
X182141000Y-87650000D01*
X181988000Y-87803000D01*
X181985039Y-88250000D01*
X177696613Y-88250000D01*
X177918613Y-87029000D01*
X181986887Y-87029000D01*
X181988000Y-87197000D01*
G04 #@! TA.AperFunction,Conductor*
D45*
G36*
X181988000Y-87197000D02*
G01*
X182141000Y-87350000D01*
X183200000Y-87350000D01*
X183200000Y-87330000D01*
X183500000Y-87330000D01*
X183500000Y-87350000D01*
X184559000Y-87350000D01*
X184712000Y-87197000D01*
X184713113Y-87029000D01*
X185293078Y-87029000D01*
X185293078Y-88250000D01*
X185304740Y-88368405D01*
X185339277Y-88482259D01*
X185395363Y-88587188D01*
X185470841Y-88679159D01*
X185562812Y-88754637D01*
X185667741Y-88810723D01*
X185781595Y-88845260D01*
X185900000Y-88856922D01*
X187400000Y-88856922D01*
X187518405Y-88845260D01*
X187632259Y-88810723D01*
X187737188Y-88754637D01*
X187829159Y-88679159D01*
X187904637Y-88587188D01*
X187960723Y-88482259D01*
X187962492Y-88476426D01*
X188101115Y-88504000D01*
X188298885Y-88504000D01*
X188492856Y-88465417D01*
X188675572Y-88389733D01*
X188840013Y-88279858D01*
X188979858Y-88140013D01*
X189089733Y-87975572D01*
X189165417Y-87792856D01*
X189204000Y-87598885D01*
X189204000Y-87401115D01*
X189165417Y-87207144D01*
X189091627Y-87029000D01*
X189798039Y-87029000D01*
X190571001Y-87801962D01*
X190571001Y-88074030D01*
X190475572Y-88010267D01*
X190292856Y-87934583D01*
X190098885Y-87896000D01*
X189901115Y-87896000D01*
X189707144Y-87934583D01*
X189524428Y-88010267D01*
X189359987Y-88120142D01*
X189220142Y-88259987D01*
X189110267Y-88424428D01*
X189034583Y-88607144D01*
X188996000Y-88801115D01*
X188996000Y-88998885D01*
X189005352Y-89045899D01*
X188912812Y-89095363D01*
X188820841Y-89170841D01*
X188745363Y-89262812D01*
X188689277Y-89367741D01*
X188654740Y-89481595D01*
X188643078Y-89600000D01*
X188643078Y-91100000D01*
X188654740Y-91218405D01*
X188689277Y-91332259D01*
X188745363Y-91437188D01*
X188820841Y-91529159D01*
X188912812Y-91604637D01*
X189017741Y-91660723D01*
X189131595Y-91695260D01*
X189250000Y-91706922D01*
X190571001Y-91706922D01*
X190571001Y-92286225D01*
X190303000Y-92288000D01*
X190150000Y-92441000D01*
X190150000Y-93500000D01*
X190170000Y-93500000D01*
X190170000Y-93800000D01*
X190150000Y-93800000D01*
X190150000Y-94859000D01*
X190263020Y-94972020D01*
X190192244Y-95361283D01*
X189769981Y-94939020D01*
X189850000Y-94859000D01*
X189850000Y-93800000D01*
X188791000Y-93800000D01*
X188710981Y-93880020D01*
X187730961Y-92900000D01*
X188635039Y-92900000D01*
X188638000Y-93347000D01*
X188791000Y-93500000D01*
X189850000Y-93500000D01*
X189850000Y-92441000D01*
X189697000Y-92288000D01*
X189250000Y-92285039D01*
X189130027Y-92296855D01*
X189014665Y-92331850D01*
X188908346Y-92388679D01*
X188815157Y-92465157D01*
X188738679Y-92558346D01*
X188681850Y-92664665D01*
X188646855Y-92780027D01*
X188635039Y-92900000D01*
X187730961Y-92900000D01*
X186804000Y-91973039D01*
X186804000Y-91901115D01*
X186765417Y-91707144D01*
X186689733Y-91524428D01*
X186579858Y-91359987D01*
X186440013Y-91220142D01*
X186275572Y-91110267D01*
X186092856Y-91034583D01*
X185898885Y-90996000D01*
X185701115Y-90996000D01*
X185507144Y-91034583D01*
X185324428Y-91110267D01*
X185159987Y-91220142D01*
X185020142Y-91359987D01*
X184910267Y-91524428D01*
X184834583Y-91707144D01*
X184796000Y-91901115D01*
X184796000Y-92098885D01*
X184834583Y-92292856D01*
X184910267Y-92475572D01*
X185020142Y-92640013D01*
X185159987Y-92779858D01*
X185324428Y-92889733D01*
X185507144Y-92965417D01*
X185701115Y-93004000D01*
X185773039Y-93004000D01*
X189875026Y-97105987D01*
X189362821Y-99923114D01*
X189364961Y-99600000D01*
X189353145Y-99480027D01*
X189318150Y-99364665D01*
X189261321Y-99258346D01*
X189184843Y-99165157D01*
X189091654Y-99088679D01*
X188985335Y-99031850D01*
X188869973Y-98996855D01*
X188750000Y-98985039D01*
X188303000Y-98988000D01*
X188150000Y-99141000D01*
X188150000Y-100200000D01*
X188170000Y-100200000D01*
X188170000Y-100500000D01*
X188150000Y-100500000D01*
X188150000Y-101559000D01*
X188303000Y-101712000D01*
X188750000Y-101714961D01*
X188869973Y-101703145D01*
X188985335Y-101668150D01*
X189052022Y-101632505D01*
X188926589Y-102322390D01*
X188868405Y-102304740D01*
X188750000Y-102293078D01*
X187250000Y-102293078D01*
X187131595Y-102304740D01*
X187017741Y-102339277D01*
X186912812Y-102395363D01*
X186820841Y-102470841D01*
X186745363Y-102562812D01*
X186689277Y-102667741D01*
X186654740Y-102781595D01*
X186643078Y-102900000D01*
X186643078Y-103054603D01*
X186579858Y-102959987D01*
X186440013Y-102820142D01*
X186275572Y-102710267D01*
X186092856Y-102634583D01*
X185898885Y-102596000D01*
X185701115Y-102596000D01*
X185507144Y-102634583D01*
X185324428Y-102710267D01*
X185159987Y-102820142D01*
X185020142Y-102959987D01*
X184910267Y-103124428D01*
X184834583Y-103307144D01*
X184796000Y-103501115D01*
X184796000Y-103502328D01*
X183155250Y-105143078D01*
X181944614Y-105143078D01*
X181965417Y-105092856D01*
X182004000Y-104898885D01*
X182004000Y-104701115D01*
X181965417Y-104507144D01*
X181889733Y-104324428D01*
X181779858Y-104159987D01*
X181640013Y-104020142D01*
X181475572Y-103910267D01*
X181292856Y-103834583D01*
X181098885Y-103796000D01*
X180901115Y-103796000D01*
X180707144Y-103834583D01*
X180524428Y-103910267D01*
X180359987Y-104020142D01*
X180220142Y-104159987D01*
X180110267Y-104324428D01*
X180034583Y-104507144D01*
X179996000Y-104701115D01*
X179996000Y-104898885D01*
X180034583Y-105092856D01*
X180052187Y-105135356D01*
X179653000Y-105138000D01*
X179500000Y-105291000D01*
X179500000Y-106350000D01*
X180559000Y-106350000D01*
X180712000Y-106197000D01*
X180714849Y-105766950D01*
X180901115Y-105804000D01*
X181098885Y-105804000D01*
X181292856Y-105765417D01*
X181293078Y-105765325D01*
X181293078Y-107221964D01*
X181275572Y-107210267D01*
X181092856Y-107134583D01*
X180898885Y-107096000D01*
X180713941Y-107096000D01*
X180712000Y-106803000D01*
X180559000Y-106650000D01*
X179500000Y-106650000D01*
X179500000Y-107709000D01*
X179653000Y-107862000D01*
X179823447Y-107863129D01*
X179816909Y-107896000D01*
X175203280Y-107896000D01*
X175025114Y-107878617D01*
X174858556Y-107828592D01*
X174704799Y-107747311D01*
X174569652Y-107637843D01*
X174458216Y-107504319D01*
X174374691Y-107351773D01*
X174342490Y-107250000D01*
X177985039Y-107250000D01*
X177996855Y-107369973D01*
X178031850Y-107485335D01*
X178088679Y-107591654D01*
X178165157Y-107684843D01*
X178258346Y-107761321D01*
X178364665Y-107818150D01*
X178480027Y-107853145D01*
X178600000Y-107864961D01*
X179047000Y-107862000D01*
X179200000Y-107709000D01*
X179200000Y-106650000D01*
X178141000Y-106650000D01*
X177988000Y-106803000D01*
X177985039Y-107250000D01*
X174342490Y-107250000D01*
X174322227Y-107185958D01*
X174302802Y-107013130D01*
X174317570Y-106834739D01*
X174490785Y-105882054D01*
X174601115Y-105904000D01*
X174798885Y-105904000D01*
X174992856Y-105865417D01*
X175175572Y-105789733D01*
X175340013Y-105679858D01*
X175479858Y-105540013D01*
X175589733Y-105375572D01*
X175665417Y-105192856D01*
X175702482Y-105006518D01*
X175850000Y-104859000D01*
X175850000Y-103800000D01*
X176150000Y-103800000D01*
X176150000Y-104859000D01*
X176303000Y-105012000D01*
X176618916Y-105014093D01*
X176634583Y-105092856D01*
X176710267Y-105275572D01*
X176820142Y-105440013D01*
X176959987Y-105579858D01*
X177124428Y-105689733D01*
X177307144Y-105765417D01*
X177501115Y-105804000D01*
X177698885Y-105804000D01*
X177892856Y-105765417D01*
X177987377Y-105726265D01*
X177985039Y-105750000D01*
X177988000Y-106197000D01*
X178141000Y-106350000D01*
X179200000Y-106350000D01*
X179200000Y-105291000D01*
X179047000Y-105138000D01*
X178600000Y-105135039D01*
X178545730Y-105140384D01*
X178565417Y-105092856D01*
X178604000Y-104898885D01*
X178604000Y-104701115D01*
X178565417Y-104507144D01*
X178489733Y-104324428D01*
X178379858Y-104159987D01*
X178240013Y-104020142D01*
X178075572Y-103910267D01*
X177892856Y-103834583D01*
X177698885Y-103796000D01*
X177501115Y-103796000D01*
X177307144Y-103834583D01*
X177262200Y-103853200D01*
X177209000Y-103800000D01*
X176150000Y-103800000D01*
X175850000Y-103800000D01*
X175830000Y-103800000D01*
X175830000Y-103500000D01*
X175850000Y-103500000D01*
X175850000Y-102441000D01*
X176150000Y-102441000D01*
X176150000Y-103500000D01*
X177209000Y-103500000D01*
X177362000Y-103347000D01*
X177364961Y-102900000D01*
X177353145Y-102780027D01*
X177318150Y-102664665D01*
X177261321Y-102558346D01*
X177184843Y-102465157D01*
X177091654Y-102388679D01*
X176985335Y-102331850D01*
X176869973Y-102296855D01*
X176750000Y-102285039D01*
X176303000Y-102288000D01*
X176150000Y-102441000D01*
X175850000Y-102441000D01*
X175697000Y-102288000D01*
X175250000Y-102285039D01*
X175142870Y-102295590D01*
X175249902Y-101706912D01*
X175250000Y-101706922D01*
X176750000Y-101706922D01*
X176868405Y-101695260D01*
X176982259Y-101660723D01*
X177087188Y-101604637D01*
X177179159Y-101529159D01*
X177254637Y-101437188D01*
X177310723Y-101332259D01*
X177345260Y-101218405D01*
X177356922Y-101100000D01*
X186635039Y-101100000D01*
X186646855Y-101219973D01*
X186681850Y-101335335D01*
X186738679Y-101441654D01*
X186815157Y-101534843D01*
X186908346Y-101611321D01*
X187014665Y-101668150D01*
X187130027Y-101703145D01*
X187250000Y-101714961D01*
X187697000Y-101712000D01*
X187850000Y-101559000D01*
X187850000Y-100500000D01*
X186791000Y-100500000D01*
X186638000Y-100653000D01*
X186635039Y-101100000D01*
X177356922Y-101100000D01*
X177356922Y-99600000D01*
X177345260Y-99481595D01*
X177344473Y-99479000D01*
X182659129Y-99479000D01*
X182659987Y-99479858D01*
X182824428Y-99589733D01*
X183007144Y-99665417D01*
X183201115Y-99704000D01*
X183398885Y-99704000D01*
X183592856Y-99665417D01*
X183750785Y-99600000D01*
X186635039Y-99600000D01*
X186638000Y-100047000D01*
X186791000Y-100200000D01*
X187850000Y-100200000D01*
X187850000Y-99141000D01*
X187697000Y-98988000D01*
X187250000Y-98985039D01*
X187130027Y-98996855D01*
X187014665Y-99031850D01*
X186908346Y-99088679D01*
X186815157Y-99165157D01*
X186738679Y-99258346D01*
X186681850Y-99364665D01*
X186646855Y-99480027D01*
X186635039Y-99600000D01*
X183750785Y-99600000D01*
X183775572Y-99589733D01*
X183940013Y-99479858D01*
X184079858Y-99340013D01*
X184189733Y-99175572D01*
X184265417Y-98992856D01*
X184304000Y-98798885D01*
X184304000Y-98601115D01*
X184265417Y-98407144D01*
X184246992Y-98362662D01*
X184347000Y-98362000D01*
X184500000Y-98209000D01*
X184500000Y-97150000D01*
X184800000Y-97150000D01*
X184800000Y-98209000D01*
X184953000Y-98362000D01*
X185400000Y-98364961D01*
X185519973Y-98353145D01*
X185635335Y-98318150D01*
X185741654Y-98261321D01*
X185834843Y-98184843D01*
X185911321Y-98091654D01*
X185968150Y-97985335D01*
X186003145Y-97869973D01*
X186014961Y-97750000D01*
X186012000Y-97303000D01*
X185859000Y-97150000D01*
X184800000Y-97150000D01*
X184500000Y-97150000D01*
X183441000Y-97150000D01*
X183288000Y-97303000D01*
X183285397Y-97696000D01*
X183201115Y-97696000D01*
X183007144Y-97734583D01*
X182824428Y-97810267D01*
X182684543Y-97903734D01*
X182695260Y-97868405D01*
X182706922Y-97750000D01*
X182706922Y-96302401D01*
X182892856Y-96265417D01*
X183075572Y-96189733D01*
X183132095Y-96151966D01*
X183159987Y-96179858D01*
X183285128Y-96263474D01*
X183288000Y-96697000D01*
X183441000Y-96850000D01*
X184500000Y-96850000D01*
X184500000Y-96830000D01*
X184800000Y-96830000D01*
X184800000Y-96850000D01*
X185859000Y-96850000D01*
X186012000Y-96697000D01*
X186014961Y-96250000D01*
X186003145Y-96130027D01*
X185968150Y-96014665D01*
X185911321Y-95908346D01*
X185834843Y-95815157D01*
X185741654Y-95738679D01*
X185635335Y-95681850D01*
X185519973Y-95646855D01*
X185400000Y-95635039D01*
X184953000Y-95638000D01*
X184800002Y-95790998D01*
X184800002Y-95638000D01*
X184776328Y-95638000D01*
X184804000Y-95498885D01*
X184804000Y-95301115D01*
X184765417Y-95107144D01*
X184689733Y-94924428D01*
X184579858Y-94759987D01*
X184440013Y-94620142D01*
X184275572Y-94510267D01*
X184092856Y-94434583D01*
X183898885Y-94396000D01*
X183897673Y-94396000D01*
X182627895Y-93126223D01*
X182603501Y-93096499D01*
X182484883Y-92999151D01*
X182349553Y-92926816D01*
X182202711Y-92882272D01*
X182088267Y-92871000D01*
X182088259Y-92871000D01*
X182050000Y-92867232D01*
X182011741Y-92871000D01*
X179354066Y-92871000D01*
X179345260Y-92781595D01*
X179310723Y-92667741D01*
X179254637Y-92562812D01*
X179179159Y-92470841D01*
X179087188Y-92395363D01*
X178982259Y-92339277D01*
X178868405Y-92304740D01*
X178750000Y-92293078D01*
X178565325Y-92293078D01*
X178565417Y-92292856D01*
X178604000Y-92098885D01*
X178604000Y-91901115D01*
X178566730Y-91713747D01*
X178750000Y-91714961D01*
X178869973Y-91703145D01*
X178985335Y-91668150D01*
X179091654Y-91611321D01*
X179184843Y-91534843D01*
X179261321Y-91441654D01*
X179318150Y-91335335D01*
X179353145Y-91219973D01*
X179364961Y-91100000D01*
X179362000Y-90653000D01*
X179209000Y-90500000D01*
X178150000Y-90500000D01*
X178150000Y-90520000D01*
X177850000Y-90520000D01*
X177850000Y-90500000D01*
X177830000Y-90500000D01*
X177830000Y-90200000D01*
X177850000Y-90200000D01*
X177850000Y-89141000D01*
X178150000Y-89141000D01*
X178150000Y-90200000D01*
X179209000Y-90200000D01*
X179362000Y-90047000D01*
X179364961Y-89600000D01*
X179353145Y-89480027D01*
X179318150Y-89364665D01*
X179261321Y-89258346D01*
X179184843Y-89165157D01*
X179091654Y-89088679D01*
X178985335Y-89031850D01*
X178869973Y-88996855D01*
X178750000Y-88985039D01*
X178303000Y-88988000D01*
X178150000Y-89141000D01*
X177850000Y-89141000D01*
X177697000Y-88988000D01*
X177562593Y-88987110D01*
X177696613Y-88250000D01*
X181985039Y-88250000D01*
X181996855Y-88369973D01*
X182031850Y-88485335D01*
X182088679Y-88591654D01*
X182165157Y-88684843D01*
X182258346Y-88761321D01*
X182364665Y-88818150D01*
X182480027Y-88853145D01*
X182600000Y-88864961D01*
X183047000Y-88862000D01*
X183200000Y-88709000D01*
X183200000Y-87650000D01*
X183500000Y-87650000D01*
X183500000Y-88709000D01*
X183653000Y-88862000D01*
X184100000Y-88864961D01*
X184219973Y-88853145D01*
X184335335Y-88818150D01*
X184441654Y-88761321D01*
X184534843Y-88684843D01*
X184611321Y-88591654D01*
X184668150Y-88485335D01*
X184703145Y-88369973D01*
X184714961Y-88250000D01*
X184712000Y-87803000D01*
X184559000Y-87650000D01*
X183500000Y-87650000D01*
X183200000Y-87650000D01*
X182141000Y-87650000D01*
X181988000Y-87803000D01*
X181985039Y-88250000D01*
X177696613Y-88250000D01*
X177918613Y-87029000D01*
X181986887Y-87029000D01*
X181988000Y-87197000D01*
G37*
G04 #@! TD.AperFunction*
D44*
X270170189Y-63144376D02*
X270333850Y-63194022D01*
X270484672Y-63274638D01*
X270616870Y-63383130D01*
X270725362Y-63515328D01*
X270805978Y-63666150D01*
X270855624Y-63829811D01*
X270873000Y-64006234D01*
X270873000Y-75687292D01*
X270801151Y-75673000D01*
X270598849Y-75673000D01*
X270400435Y-75712467D01*
X270213533Y-75789885D01*
X270045326Y-75902277D01*
X269902277Y-76045326D01*
X269789885Y-76213533D01*
X269712467Y-76400435D01*
X269673000Y-76598849D01*
X269673000Y-76801151D01*
X269712467Y-76999565D01*
X269789885Y-77186467D01*
X269902277Y-77354674D01*
X270045326Y-77497723D01*
X270213533Y-77610115D01*
X270400435Y-77687533D01*
X270598849Y-77727000D01*
X270801151Y-77727000D01*
X270873000Y-77712708D01*
X270873000Y-78690992D01*
X270855684Y-78867120D01*
X270806213Y-79030512D01*
X270722924Y-79186663D01*
X270194664Y-79979052D01*
X270082199Y-80116354D01*
X269949944Y-80225055D01*
X269798999Y-80305838D01*
X269635188Y-80355586D01*
X269458571Y-80373000D01*
X258006234Y-80373000D01*
X257829811Y-80355624D01*
X257666150Y-80305978D01*
X257515328Y-80225362D01*
X257383130Y-80116870D01*
X257274638Y-79984672D01*
X257194022Y-79833850D01*
X257144376Y-79670189D01*
X257127000Y-79493766D01*
X257127000Y-73300000D01*
X264961928Y-73300000D01*
X264974188Y-73424482D01*
X265010498Y-73544180D01*
X265069463Y-73654494D01*
X265148815Y-73751185D01*
X265245506Y-73830537D01*
X265355820Y-73889502D01*
X265475518Y-73925812D01*
X265600000Y-73938072D01*
X266114250Y-73935000D01*
X266273000Y-73776250D01*
X266273000Y-72627000D01*
X265123750Y-72627000D01*
X264965000Y-72785750D01*
X264961928Y-73300000D01*
X257127000Y-73300000D01*
X257127000Y-71700000D01*
X264961928Y-71700000D01*
X264965000Y-72214250D01*
X265123750Y-72373000D01*
X266273000Y-72373000D01*
X266273000Y-71223750D01*
X266527000Y-71223750D01*
X266527000Y-72373000D01*
X266547000Y-72373000D01*
X266547000Y-72627000D01*
X266527000Y-72627000D01*
X266527000Y-73776250D01*
X266685750Y-73935000D01*
X267200000Y-73938072D01*
X267324482Y-73925812D01*
X267444180Y-73889502D01*
X267554494Y-73830537D01*
X267651185Y-73751185D01*
X267669889Y-73728394D01*
X267724062Y-73764591D01*
X267983759Y-73872162D01*
X268259453Y-73927000D01*
X268540547Y-73927000D01*
X268816241Y-73872162D01*
X269075938Y-73764591D01*
X269309660Y-73608424D01*
X269508424Y-73409660D01*
X269664591Y-73175938D01*
X269772162Y-72916241D01*
X269827000Y-72640547D01*
X269827000Y-72359453D01*
X269772162Y-72083759D01*
X269664591Y-71824062D01*
X269508424Y-71590340D01*
X269309660Y-71391576D01*
X269075938Y-71235409D01*
X268816241Y-71127838D01*
X268540547Y-71073000D01*
X268259453Y-71073000D01*
X267983759Y-71127838D01*
X267724062Y-71235409D01*
X267669889Y-71271606D01*
X267651185Y-71248815D01*
X267554494Y-71169463D01*
X267444180Y-71110498D01*
X267324482Y-71074188D01*
X267200000Y-71061928D01*
X266685750Y-71065000D01*
X266527000Y-71223750D01*
X266273000Y-71223750D01*
X266114250Y-71065000D01*
X265600000Y-71061928D01*
X265475518Y-71074188D01*
X265355820Y-71110498D01*
X265245506Y-71169463D01*
X265148815Y-71248815D01*
X265069463Y-71345506D01*
X265010498Y-71455820D01*
X264974188Y-71575518D01*
X264961928Y-71700000D01*
X257127000Y-71700000D01*
X257127000Y-66800000D01*
X264961928Y-66800000D01*
X264974188Y-66924482D01*
X265010498Y-67044180D01*
X265069463Y-67154494D01*
X265148815Y-67251185D01*
X265245506Y-67330537D01*
X265355820Y-67389502D01*
X265475518Y-67425812D01*
X265600000Y-67438072D01*
X266114250Y-67435000D01*
X266273000Y-67276250D01*
X266273000Y-66127000D01*
X265123750Y-66127000D01*
X264965000Y-66285750D01*
X264961928Y-66800000D01*
X257127000Y-66800000D01*
X257127000Y-65750000D01*
X257126201Y-65735781D01*
X257107397Y-65568890D01*
X257101069Y-65541164D01*
X257045600Y-65382642D01*
X257033261Y-65357019D01*
X256943908Y-65214815D01*
X256932094Y-65200000D01*
X264961928Y-65200000D01*
X264965000Y-65714250D01*
X265123750Y-65873000D01*
X266273000Y-65873000D01*
X266273000Y-64723750D01*
X266527000Y-64723750D01*
X266527000Y-65873000D01*
X266547000Y-65873000D01*
X266547000Y-66127000D01*
X266527000Y-66127000D01*
X266527000Y-67276250D01*
X266685750Y-67435000D01*
X267200000Y-67438072D01*
X267324482Y-67425812D01*
X267444180Y-67389502D01*
X267554494Y-67330537D01*
X267651185Y-67251185D01*
X267669889Y-67228394D01*
X267724062Y-67264591D01*
X267983759Y-67372162D01*
X268259453Y-67427000D01*
X268540547Y-67427000D01*
X268816241Y-67372162D01*
X269075938Y-67264591D01*
X269309660Y-67108424D01*
X269508424Y-66909660D01*
X269664591Y-66675938D01*
X269772162Y-66416241D01*
X269827000Y-66140547D01*
X269827000Y-65859453D01*
X269772162Y-65583759D01*
X269664591Y-65324062D01*
X269508424Y-65090340D01*
X269309660Y-64891576D01*
X269075938Y-64735409D01*
X268816241Y-64627838D01*
X268540547Y-64573000D01*
X268259453Y-64573000D01*
X267983759Y-64627838D01*
X267724062Y-64735409D01*
X267669889Y-64771606D01*
X267651185Y-64748815D01*
X267554494Y-64669463D01*
X267444180Y-64610498D01*
X267324482Y-64574188D01*
X267200000Y-64561928D01*
X266685750Y-64565000D01*
X266527000Y-64723750D01*
X266273000Y-64723750D01*
X266114250Y-64565000D01*
X265600000Y-64561928D01*
X265475518Y-64574188D01*
X265355820Y-64610498D01*
X265245506Y-64669463D01*
X265148815Y-64748815D01*
X265069463Y-64845506D01*
X265010498Y-64955820D01*
X264974188Y-65075518D01*
X264961928Y-65200000D01*
X256932094Y-65200000D01*
X256926177Y-65192580D01*
X256867842Y-65134245D01*
X256839502Y-65040820D01*
X256780537Y-64930506D01*
X256701185Y-64833815D01*
X256604494Y-64754463D01*
X256494180Y-64695498D01*
X256374482Y-64659188D01*
X256250000Y-64646928D01*
X255785750Y-64650000D01*
X255780683Y-64655068D01*
X255763545Y-64637930D01*
X255689419Y-64519960D01*
X255643403Y-64388451D01*
X255627000Y-64242872D01*
X255627000Y-64006234D01*
X255644376Y-63829811D01*
X255694022Y-63666150D01*
X255774638Y-63515328D01*
X255883130Y-63383130D01*
X256015328Y-63274638D01*
X256166150Y-63194022D01*
X256329811Y-63144376D01*
X256506234Y-63127000D01*
X269993766Y-63127000D01*
X270170189Y-63144376D01*
G04 #@! TA.AperFunction,Conductor*
D45*
G36*
X270170189Y-63144376D02*
G01*
X270333850Y-63194022D01*
X270484672Y-63274638D01*
X270616870Y-63383130D01*
X270725362Y-63515328D01*
X270805978Y-63666150D01*
X270855624Y-63829811D01*
X270873000Y-64006234D01*
X270873000Y-75687292D01*
X270801151Y-75673000D01*
X270598849Y-75673000D01*
X270400435Y-75712467D01*
X270213533Y-75789885D01*
X270045326Y-75902277D01*
X269902277Y-76045326D01*
X269789885Y-76213533D01*
X269712467Y-76400435D01*
X269673000Y-76598849D01*
X269673000Y-76801151D01*
X269712467Y-76999565D01*
X269789885Y-77186467D01*
X269902277Y-77354674D01*
X270045326Y-77497723D01*
X270213533Y-77610115D01*
X270400435Y-77687533D01*
X270598849Y-77727000D01*
X270801151Y-77727000D01*
X270873000Y-77712708D01*
X270873000Y-78690992D01*
X270855684Y-78867120D01*
X270806213Y-79030512D01*
X270722924Y-79186663D01*
X270194664Y-79979052D01*
X270082199Y-80116354D01*
X269949944Y-80225055D01*
X269798999Y-80305838D01*
X269635188Y-80355586D01*
X269458571Y-80373000D01*
X258006234Y-80373000D01*
X257829811Y-80355624D01*
X257666150Y-80305978D01*
X257515328Y-80225362D01*
X257383130Y-80116870D01*
X257274638Y-79984672D01*
X257194022Y-79833850D01*
X257144376Y-79670189D01*
X257127000Y-79493766D01*
X257127000Y-73300000D01*
X264961928Y-73300000D01*
X264974188Y-73424482D01*
X265010498Y-73544180D01*
X265069463Y-73654494D01*
X265148815Y-73751185D01*
X265245506Y-73830537D01*
X265355820Y-73889502D01*
X265475518Y-73925812D01*
X265600000Y-73938072D01*
X266114250Y-73935000D01*
X266273000Y-73776250D01*
X266273000Y-72627000D01*
X265123750Y-72627000D01*
X264965000Y-72785750D01*
X264961928Y-73300000D01*
X257127000Y-73300000D01*
X257127000Y-71700000D01*
X264961928Y-71700000D01*
X264965000Y-72214250D01*
X265123750Y-72373000D01*
X266273000Y-72373000D01*
X266273000Y-71223750D01*
X266527000Y-71223750D01*
X266527000Y-72373000D01*
X266547000Y-72373000D01*
X266547000Y-72627000D01*
X266527000Y-72627000D01*
X266527000Y-73776250D01*
X266685750Y-73935000D01*
X267200000Y-73938072D01*
X267324482Y-73925812D01*
X267444180Y-73889502D01*
X267554494Y-73830537D01*
X267651185Y-73751185D01*
X267669889Y-73728394D01*
X267724062Y-73764591D01*
X267983759Y-73872162D01*
X268259453Y-73927000D01*
X268540547Y-73927000D01*
X268816241Y-73872162D01*
X269075938Y-73764591D01*
X269309660Y-73608424D01*
X269508424Y-73409660D01*
X269664591Y-73175938D01*
X269772162Y-72916241D01*
X269827000Y-72640547D01*
X269827000Y-72359453D01*
X269772162Y-72083759D01*
X269664591Y-71824062D01*
X269508424Y-71590340D01*
X269309660Y-71391576D01*
X269075938Y-71235409D01*
X268816241Y-71127838D01*
X268540547Y-71073000D01*
X268259453Y-71073000D01*
X267983759Y-71127838D01*
X267724062Y-71235409D01*
X267669889Y-71271606D01*
X267651185Y-71248815D01*
X267554494Y-71169463D01*
X267444180Y-71110498D01*
X267324482Y-71074188D01*
X267200000Y-71061928D01*
X266685750Y-71065000D01*
X266527000Y-71223750D01*
X266273000Y-71223750D01*
X266114250Y-71065000D01*
X265600000Y-71061928D01*
X265475518Y-71074188D01*
X265355820Y-71110498D01*
X265245506Y-71169463D01*
X265148815Y-71248815D01*
X265069463Y-71345506D01*
X265010498Y-71455820D01*
X264974188Y-71575518D01*
X264961928Y-71700000D01*
X257127000Y-71700000D01*
X257127000Y-66800000D01*
X264961928Y-66800000D01*
X264974188Y-66924482D01*
X265010498Y-67044180D01*
X265069463Y-67154494D01*
X265148815Y-67251185D01*
X265245506Y-67330537D01*
X265355820Y-67389502D01*
X265475518Y-67425812D01*
X265600000Y-67438072D01*
X266114250Y-67435000D01*
X266273000Y-67276250D01*
X266273000Y-66127000D01*
X265123750Y-66127000D01*
X264965000Y-66285750D01*
X264961928Y-66800000D01*
X257127000Y-66800000D01*
X257127000Y-65750000D01*
X257126201Y-65735781D01*
X257107397Y-65568890D01*
X257101069Y-65541164D01*
X257045600Y-65382642D01*
X257033261Y-65357019D01*
X256943908Y-65214815D01*
X256932094Y-65200000D01*
X264961928Y-65200000D01*
X264965000Y-65714250D01*
X265123750Y-65873000D01*
X266273000Y-65873000D01*
X266273000Y-64723750D01*
X266527000Y-64723750D01*
X266527000Y-65873000D01*
X266547000Y-65873000D01*
X266547000Y-66127000D01*
X266527000Y-66127000D01*
X266527000Y-67276250D01*
X266685750Y-67435000D01*
X267200000Y-67438072D01*
X267324482Y-67425812D01*
X267444180Y-67389502D01*
X267554494Y-67330537D01*
X267651185Y-67251185D01*
X267669889Y-67228394D01*
X267724062Y-67264591D01*
X267983759Y-67372162D01*
X268259453Y-67427000D01*
X268540547Y-67427000D01*
X268816241Y-67372162D01*
X269075938Y-67264591D01*
X269309660Y-67108424D01*
X269508424Y-66909660D01*
X269664591Y-66675938D01*
X269772162Y-66416241D01*
X269827000Y-66140547D01*
X269827000Y-65859453D01*
X269772162Y-65583759D01*
X269664591Y-65324062D01*
X269508424Y-65090340D01*
X269309660Y-64891576D01*
X269075938Y-64735409D01*
X268816241Y-64627838D01*
X268540547Y-64573000D01*
X268259453Y-64573000D01*
X267983759Y-64627838D01*
X267724062Y-64735409D01*
X267669889Y-64771606D01*
X267651185Y-64748815D01*
X267554494Y-64669463D01*
X267444180Y-64610498D01*
X267324482Y-64574188D01*
X267200000Y-64561928D01*
X266685750Y-64565000D01*
X266527000Y-64723750D01*
X266273000Y-64723750D01*
X266114250Y-64565000D01*
X265600000Y-64561928D01*
X265475518Y-64574188D01*
X265355820Y-64610498D01*
X265245506Y-64669463D01*
X265148815Y-64748815D01*
X265069463Y-64845506D01*
X265010498Y-64955820D01*
X264974188Y-65075518D01*
X264961928Y-65200000D01*
X256932094Y-65200000D01*
X256926177Y-65192580D01*
X256867842Y-65134245D01*
X256839502Y-65040820D01*
X256780537Y-64930506D01*
X256701185Y-64833815D01*
X256604494Y-64754463D01*
X256494180Y-64695498D01*
X256374482Y-64659188D01*
X256250000Y-64646928D01*
X255785750Y-64650000D01*
X255780683Y-64655068D01*
X255763545Y-64637930D01*
X255689419Y-64519960D01*
X255643403Y-64388451D01*
X255627000Y-64242872D01*
X255627000Y-64006234D01*
X255644376Y-63829811D01*
X255694022Y-63666150D01*
X255774638Y-63515328D01*
X255883130Y-63383130D01*
X256015328Y-63274638D01*
X256166150Y-63194022D01*
X256329811Y-63144376D01*
X256506234Y-63127000D01*
X269993766Y-63127000D01*
X270170189Y-63144376D01*
G37*
G04 #@! TD.AperFunction*
D44*
X109170189Y-63144376D02*
X109333850Y-63194022D01*
X109484672Y-63274638D01*
X109616870Y-63383130D01*
X109725362Y-63515328D01*
X109805978Y-63666150D01*
X109855624Y-63829811D01*
X109873000Y-64006234D01*
X109873000Y-64491672D01*
X109869176Y-64520717D01*
X109750000Y-64519928D01*
X109625518Y-64532188D01*
X109505820Y-64568498D01*
X109395506Y-64627463D01*
X109298815Y-64706815D01*
X109219463Y-64803506D01*
X109160498Y-64913820D01*
X109136077Y-64994324D01*
X109069134Y-65045692D01*
X109045692Y-65069134D01*
X108966232Y-65172687D01*
X108949654Y-65201399D01*
X108899704Y-65321989D01*
X108891123Y-65354013D01*
X108874086Y-65483423D01*
X108873000Y-65500000D01*
X108873000Y-72500000D01*
X108874086Y-72516577D01*
X108891123Y-72645987D01*
X108899704Y-72678011D01*
X108949654Y-72798601D01*
X108966232Y-72827313D01*
X109045692Y-72930866D01*
X109069134Y-72954308D01*
X109172687Y-73033768D01*
X109201399Y-73050346D01*
X109321989Y-73100296D01*
X109354013Y-73108877D01*
X109459554Y-73122772D01*
X109505820Y-73147502D01*
X109625518Y-73183812D01*
X109703659Y-73191508D01*
X109762976Y-73237024D01*
X109822077Y-73314045D01*
X109859231Y-73403743D01*
X109873000Y-73508328D01*
X109873000Y-79324947D01*
X109830537Y-79245506D01*
X109751185Y-79148815D01*
X109654494Y-79069463D01*
X109544180Y-79010498D01*
X109424482Y-78974188D01*
X109300000Y-78961928D01*
X108285750Y-78965000D01*
X108127000Y-79123750D01*
X108127000Y-80473000D01*
X108147000Y-80473000D01*
X108147000Y-80727000D01*
X108127000Y-80727000D01*
X108127000Y-80747000D01*
X107873000Y-80747000D01*
X107873000Y-80727000D01*
X106223750Y-80727000D01*
X106154682Y-80796068D01*
X105988699Y-80792748D01*
X105814856Y-80772329D01*
X105654100Y-80720697D01*
X105506294Y-80639061D01*
X105376979Y-80530478D01*
X105271013Y-80399029D01*
X105192347Y-80249618D01*
X105143939Y-80087857D01*
X105127000Y-79913640D01*
X105127000Y-79600000D01*
X106061928Y-79600000D01*
X106065000Y-80314250D01*
X106223750Y-80473000D01*
X107873000Y-80473000D01*
X107873000Y-79123750D01*
X107714250Y-78965000D01*
X106700000Y-78961928D01*
X106575518Y-78974188D01*
X106455820Y-79010498D01*
X106345506Y-79069463D01*
X106248815Y-79148815D01*
X106169463Y-79245506D01*
X106110498Y-79355820D01*
X106074188Y-79475518D01*
X106061928Y-79600000D01*
X105127000Y-79600000D01*
X105127000Y-64006234D01*
X105144376Y-63829811D01*
X105194022Y-63666150D01*
X105274638Y-63515328D01*
X105383130Y-63383130D01*
X105515328Y-63274638D01*
X105666150Y-63194022D01*
X105829811Y-63144376D01*
X106006234Y-63127000D01*
X108993766Y-63127000D01*
X109170189Y-63144376D01*
G04 #@! TA.AperFunction,Conductor*
D45*
G36*
X109170189Y-63144376D02*
G01*
X109333850Y-63194022D01*
X109484672Y-63274638D01*
X109616870Y-63383130D01*
X109725362Y-63515328D01*
X109805978Y-63666150D01*
X109855624Y-63829811D01*
X109873000Y-64006234D01*
X109873000Y-64491672D01*
X109869176Y-64520717D01*
X109750000Y-64519928D01*
X109625518Y-64532188D01*
X109505820Y-64568498D01*
X109395506Y-64627463D01*
X109298815Y-64706815D01*
X109219463Y-64803506D01*
X109160498Y-64913820D01*
X109136077Y-64994324D01*
X109069134Y-65045692D01*
X109045692Y-65069134D01*
X108966232Y-65172687D01*
X108949654Y-65201399D01*
X108899704Y-65321989D01*
X108891123Y-65354013D01*
X108874086Y-65483423D01*
X108873000Y-65500000D01*
X108873000Y-72500000D01*
X108874086Y-72516577D01*
X108891123Y-72645987D01*
X108899704Y-72678011D01*
X108949654Y-72798601D01*
X108966232Y-72827313D01*
X109045692Y-72930866D01*
X109069134Y-72954308D01*
X109172687Y-73033768D01*
X109201399Y-73050346D01*
X109321989Y-73100296D01*
X109354013Y-73108877D01*
X109459554Y-73122772D01*
X109505820Y-73147502D01*
X109625518Y-73183812D01*
X109703659Y-73191508D01*
X109762976Y-73237024D01*
X109822077Y-73314045D01*
X109859231Y-73403743D01*
X109873000Y-73508328D01*
X109873000Y-79324947D01*
X109830537Y-79245506D01*
X109751185Y-79148815D01*
X109654494Y-79069463D01*
X109544180Y-79010498D01*
X109424482Y-78974188D01*
X109300000Y-78961928D01*
X108285750Y-78965000D01*
X108127000Y-79123750D01*
X108127000Y-80473000D01*
X108147000Y-80473000D01*
X108147000Y-80727000D01*
X108127000Y-80727000D01*
X108127000Y-80747000D01*
X107873000Y-80747000D01*
X107873000Y-80727000D01*
X106223750Y-80727000D01*
X106154682Y-80796068D01*
X105988699Y-80792748D01*
X105814856Y-80772329D01*
X105654100Y-80720697D01*
X105506294Y-80639061D01*
X105376979Y-80530478D01*
X105271013Y-80399029D01*
X105192347Y-80249618D01*
X105143939Y-80087857D01*
X105127000Y-79913640D01*
X105127000Y-79600000D01*
X106061928Y-79600000D01*
X106065000Y-80314250D01*
X106223750Y-80473000D01*
X107873000Y-80473000D01*
X107873000Y-79123750D01*
X107714250Y-78965000D01*
X106700000Y-78961928D01*
X106575518Y-78974188D01*
X106455820Y-79010498D01*
X106345506Y-79069463D01*
X106248815Y-79148815D01*
X106169463Y-79245506D01*
X106110498Y-79355820D01*
X106074188Y-79475518D01*
X106061928Y-79600000D01*
X105127000Y-79600000D01*
X105127000Y-64006234D01*
X105144376Y-63829811D01*
X105194022Y-63666150D01*
X105274638Y-63515328D01*
X105383130Y-63383130D01*
X105515328Y-63274638D01*
X105666150Y-63194022D01*
X105829811Y-63144376D01*
X106006234Y-63127000D01*
X108993766Y-63127000D01*
X109170189Y-63144376D01*
G37*
G04 #@! TD.AperFunction*
M02*
