G04 #@! TF.GenerationSoftware,KiCad,Pcbnew,(5.1.9)-1*
G04 #@! TF.CreationDate,2021-02-21T21:58:38-05:00*
G04 #@! TF.ProjectId,FSAE Main Panel,46534145-204d-4616-996e-2050616e656c,rev?*
G04 #@! TF.SameCoordinates,Original*
G04 #@! TF.FileFunction,Soldermask,Bot*
G04 #@! TF.FilePolarity,Negative*
%FSLAX46Y46*%
G04 Gerber Fmt 4.6, Leading zero omitted, Abs format (unit mm)*
G04 Created by KiCad (PCBNEW (5.1.9)-1) date 2021-02-21 21:58:38*
%MOMM*%
%LPD*%
G01*
G04 APERTURE LIST*
%ADD10C,0.010000*%
%ADD11R,1.450000X0.400000*%
%ADD12R,1.500000X0.400000*%
%ADD13R,0.400000X1.500000*%
%ADD14R,0.400000X1.750000*%
%ADD15R,1.800000X1.900000*%
%ADD16R,2.100000X1.600000*%
%ADD17R,0.400000X1.350000*%
%ADD18O,2.000000X2.600000*%
%ADD19R,2.000000X2.600000*%
%ADD20C,3.200000*%
%ADD21R,2.340000X3.040000*%
%ADD22R,1.600000X0.300000*%
%ADD23R,1.500000X1.500000*%
%ADD24R,0.600000X0.500000*%
%ADD25R,0.800000X0.750000*%
%ADD26R,0.750000X0.800000*%
%ADD27R,0.500000X0.600000*%
%ADD28C,1.600000*%
%ADD29R,1.600000X1.600000*%
%ADD30R,1.600000X1.000000*%
%ADD31R,1.000000X1.600000*%
%ADD32R,1.400000X1.000000*%
%ADD33R,1.400000X1.200000*%
%ADD34R,1.100000X1.100000*%
%ADD35R,3.200000X1.500000*%
%ADD36O,2.600000X2.000000*%
%ADD37R,2.600000X2.000000*%
%ADD38O,1.000000X1.000000*%
%ADD39R,1.000000X1.000000*%
%ADD40R,1.700000X1.250000*%
%ADD41R,0.900000X0.500000*%
%ADD42R,0.500000X0.900000*%
%ADD43C,2.400000*%
%ADD44R,0.250000X1.300000*%
%ADD45R,1.300000X0.250000*%
%ADD46R,3.800000X2.000000*%
%ADD47R,1.500000X2.000000*%
%ADD48R,2.540000X3.000000*%
%ADD49R,1.600000X1.300000*%
%ADD50R,3.200000X2.000000*%
%ADD51R,0.650000X1.060000*%
G04 APERTURE END LIST*
D10*
G36*
X189824449Y-63162361D02*
G01*
X189291580Y-63372920D01*
X188873710Y-63717153D01*
X188657133Y-64030626D01*
X188612222Y-64155934D01*
X188574964Y-64358073D01*
X188545259Y-64647080D01*
X188523011Y-65032996D01*
X188508122Y-65525859D01*
X188500495Y-66135707D01*
X188500033Y-66872580D01*
X188506638Y-67746516D01*
X188520213Y-68767553D01*
X188540660Y-69945732D01*
X188567882Y-71291090D01*
X188580889Y-71889285D01*
X188597239Y-72725139D01*
X188609070Y-73535292D01*
X188616306Y-74294692D01*
X188618870Y-74978289D01*
X188616685Y-75561031D01*
X188609676Y-76017867D01*
X188597765Y-76323745D01*
X188594578Y-76367120D01*
X188527021Y-77171027D01*
X188150475Y-77111942D01*
X187871649Y-77058611D01*
X187542435Y-76976376D01*
X187149062Y-76860320D01*
X186677760Y-76705525D01*
X186114759Y-76507074D01*
X185446289Y-76260049D01*
X184658580Y-75959532D01*
X183737862Y-75600606D01*
X182670364Y-75178354D01*
X182104285Y-74952734D01*
X180417604Y-74282306D01*
X178879131Y-73678039D01*
X177470740Y-73133643D01*
X176174306Y-72642829D01*
X174971700Y-72199308D01*
X173844799Y-71796789D01*
X172775474Y-71428983D01*
X171745600Y-71089601D01*
X170737051Y-70772353D01*
X169731699Y-70470950D01*
X168711420Y-70179102D01*
X167658086Y-69890519D01*
X167045714Y-69727650D01*
X166410675Y-69561029D01*
X165915534Y-69435120D01*
X165524763Y-69344363D01*
X165202830Y-69283201D01*
X164914206Y-69246075D01*
X164623361Y-69227427D01*
X164294763Y-69221698D01*
X163892884Y-69223330D01*
X163825357Y-69223857D01*
X162901336Y-69261375D01*
X161808360Y-69360769D01*
X160546198Y-69522076D01*
X159114621Y-69745334D01*
X157513399Y-70030579D01*
X155742300Y-70377849D01*
X153801096Y-70787183D01*
X152667500Y-71037294D01*
X151871737Y-71216577D01*
X151135739Y-71385342D01*
X150434108Y-71549975D01*
X149741449Y-71716863D01*
X149032364Y-71892393D01*
X148281457Y-72082951D01*
X147463333Y-72294924D01*
X146552593Y-72534699D01*
X145523842Y-72808662D01*
X144351683Y-73123200D01*
X144049643Y-73204510D01*
X142917450Y-73523282D01*
X141735755Y-73881337D01*
X140535716Y-74267716D01*
X139348492Y-74671460D01*
X138205242Y-75081608D01*
X137137123Y-75487202D01*
X136175296Y-75877282D01*
X135350917Y-76240889D01*
X135158967Y-76331647D01*
X134337738Y-76763500D01*
X133691047Y-77187225D01*
X133212570Y-77609019D01*
X132895983Y-78035081D01*
X132734961Y-78471610D01*
X132710357Y-78731567D01*
X132783085Y-79236655D01*
X133004722Y-79754439D01*
X133380445Y-80290958D01*
X133915430Y-80852248D01*
X134614857Y-81444344D01*
X135483902Y-82073283D01*
X135702158Y-82219705D01*
X136188930Y-82537885D01*
X136555391Y-82764989D01*
X136829028Y-82915164D01*
X137037326Y-83002559D01*
X137207774Y-83041322D01*
X137309637Y-83047142D01*
X137615395Y-83003841D01*
X137866173Y-82845847D01*
X137933406Y-82781978D01*
X138117512Y-82550658D01*
X138189837Y-82296725D01*
X138196554Y-82124299D01*
X138152990Y-81791242D01*
X138041835Y-81543399D01*
X138037804Y-81538326D01*
X137905948Y-81418348D01*
X137654469Y-81225132D01*
X137316662Y-80983071D01*
X136925820Y-80716563D01*
X136826485Y-80650791D01*
X136381055Y-80347076D01*
X135936614Y-80025787D01*
X135543207Y-79724186D01*
X135250876Y-79479538D01*
X135238985Y-79468714D01*
X134971384Y-79214455D01*
X134823128Y-79042769D01*
X134772872Y-78921671D01*
X134799273Y-78819178D01*
X134802143Y-78814106D01*
X134939122Y-78686320D01*
X135220963Y-78506162D01*
X135622884Y-78285590D01*
X136120106Y-78036560D01*
X136687847Y-77771028D01*
X137301329Y-77500952D01*
X137935771Y-77238288D01*
X138566392Y-76994994D01*
X138591331Y-76985781D01*
X139926347Y-76513631D01*
X141389889Y-76032525D01*
X142961202Y-75547389D01*
X144619534Y-75063150D01*
X146344130Y-74584733D01*
X148114235Y-74117065D01*
X149909095Y-73665073D01*
X151707957Y-73233683D01*
X153490066Y-72827821D01*
X155234668Y-72452414D01*
X156921008Y-72112388D01*
X158528334Y-71812669D01*
X160035890Y-71558185D01*
X161422923Y-71353861D01*
X162668678Y-71204623D01*
X163131498Y-71160700D01*
X163522316Y-71128594D01*
X163850812Y-71109774D01*
X164147312Y-71108383D01*
X164442140Y-71128565D01*
X164765622Y-71174464D01*
X165148085Y-71250223D01*
X165619852Y-71359985D01*
X166211250Y-71507895D01*
X166825976Y-71665504D01*
X168035648Y-71987699D01*
X169252532Y-72334605D01*
X170494194Y-72712334D01*
X171778205Y-73126999D01*
X173122133Y-73584710D01*
X174543547Y-74091580D01*
X176060015Y-74653722D01*
X177689105Y-75277246D01*
X179448387Y-75968265D01*
X181128955Y-76641389D01*
X182345764Y-77129940D01*
X183410054Y-77550966D01*
X184335800Y-77909026D01*
X185136976Y-78208682D01*
X185827557Y-78454493D01*
X186421516Y-78651020D01*
X186932828Y-78802823D01*
X187375467Y-78914463D01*
X187763408Y-78990500D01*
X188110625Y-79035494D01*
X188431092Y-79054006D01*
X188525235Y-79055078D01*
X189103072Y-79004705D01*
X189562836Y-78843212D01*
X189918066Y-78557183D01*
X190182300Y-78133204D01*
X190369077Y-77557858D01*
X190447064Y-77150714D01*
X190477467Y-76848560D01*
X190501448Y-76384866D01*
X190519013Y-75779408D01*
X190530165Y-75051960D01*
X190534910Y-74222298D01*
X190533251Y-73310197D01*
X190525193Y-72335432D01*
X190510741Y-71317778D01*
X190489899Y-70277010D01*
X190462672Y-69232903D01*
X190445127Y-68668928D01*
X190423719Y-67950048D01*
X190407840Y-67270356D01*
X190397774Y-66656367D01*
X190393807Y-66134596D01*
X190396223Y-65731559D01*
X190405306Y-65473769D01*
X190410254Y-65421697D01*
X190468179Y-64986609D01*
X190889982Y-65047304D01*
X191674962Y-65200267D01*
X192597646Y-65450546D01*
X193646231Y-65792671D01*
X194808916Y-66221172D01*
X196073900Y-66730581D01*
X197429383Y-67315427D01*
X198863562Y-67970241D01*
X200364637Y-68689554D01*
X201920806Y-69467895D01*
X203520268Y-70299795D01*
X205151222Y-71179784D01*
X206801867Y-72102394D01*
X208460401Y-73062153D01*
X209439427Y-73644565D01*
X211062683Y-74638177D01*
X212698346Y-75673671D01*
X214319291Y-76732627D01*
X215898393Y-77796624D01*
X217408527Y-78847242D01*
X218822568Y-79866061D01*
X220113391Y-80834660D01*
X220703214Y-81293657D01*
X221050334Y-81560380D01*
X221301796Y-81729700D01*
X221499146Y-81822920D01*
X221683931Y-81861343D01*
X221821442Y-81867037D01*
X222226936Y-81790829D01*
X222528543Y-81574191D01*
X222705570Y-81237923D01*
X222744285Y-80939440D01*
X222691579Y-80564353D01*
X222564722Y-80348614D01*
X222432530Y-80228905D01*
X222184416Y-80023374D01*
X221849726Y-79754885D01*
X221457809Y-79446302D01*
X221038012Y-79120489D01*
X220619683Y-78800312D01*
X220232171Y-78508633D01*
X219904823Y-78268318D01*
X219785752Y-78183578D01*
X219595193Y-78049249D01*
X219286858Y-77831142D01*
X218890852Y-77550585D01*
X218437279Y-77228909D01*
X217956244Y-76887441D01*
X217926109Y-76866039D01*
X216892885Y-76144915D01*
X215751069Y-75370323D01*
X214551367Y-74575629D01*
X213344489Y-73794200D01*
X212181139Y-73059403D01*
X211541071Y-72664528D01*
X211066566Y-72374314D01*
X210631861Y-72107614D01*
X210266170Y-71882417D01*
X209998704Y-71716707D01*
X209862857Y-71631193D01*
X209609132Y-71475716D01*
X209415465Y-71366068D01*
X209257182Y-71277414D01*
X208984134Y-71120788D01*
X208637863Y-70920335D01*
X208259908Y-70700199D01*
X207891811Y-70484523D01*
X207575112Y-70297451D01*
X207504285Y-70255266D01*
X207066478Y-70003019D01*
X206490775Y-69685296D01*
X205802800Y-69315222D01*
X205028177Y-68905918D01*
X204192530Y-68470508D01*
X203321482Y-68022116D01*
X202440657Y-67573865D01*
X201575679Y-67138877D01*
X200752171Y-66730276D01*
X199995758Y-66361185D01*
X199332062Y-66044727D01*
X198841071Y-65818410D01*
X197447561Y-65208980D01*
X196131048Y-64669033D01*
X194902613Y-64202175D01*
X193773337Y-63812015D01*
X192754302Y-63502160D01*
X191856587Y-63276218D01*
X191091276Y-63137797D01*
X190469447Y-63090505D01*
X190462657Y-63090505D01*
X189824449Y-63162361D01*
G37*
X189824449Y-63162361D02*
X189291580Y-63372920D01*
X188873710Y-63717153D01*
X188657133Y-64030626D01*
X188612222Y-64155934D01*
X188574964Y-64358073D01*
X188545259Y-64647080D01*
X188523011Y-65032996D01*
X188508122Y-65525859D01*
X188500495Y-66135707D01*
X188500033Y-66872580D01*
X188506638Y-67746516D01*
X188520213Y-68767553D01*
X188540660Y-69945732D01*
X188567882Y-71291090D01*
X188580889Y-71889285D01*
X188597239Y-72725139D01*
X188609070Y-73535292D01*
X188616306Y-74294692D01*
X188618870Y-74978289D01*
X188616685Y-75561031D01*
X188609676Y-76017867D01*
X188597765Y-76323745D01*
X188594578Y-76367120D01*
X188527021Y-77171027D01*
X188150475Y-77111942D01*
X187871649Y-77058611D01*
X187542435Y-76976376D01*
X187149062Y-76860320D01*
X186677760Y-76705525D01*
X186114759Y-76507074D01*
X185446289Y-76260049D01*
X184658580Y-75959532D01*
X183737862Y-75600606D01*
X182670364Y-75178354D01*
X182104285Y-74952734D01*
X180417604Y-74282306D01*
X178879131Y-73678039D01*
X177470740Y-73133643D01*
X176174306Y-72642829D01*
X174971700Y-72199308D01*
X173844799Y-71796789D01*
X172775474Y-71428983D01*
X171745600Y-71089601D01*
X170737051Y-70772353D01*
X169731699Y-70470950D01*
X168711420Y-70179102D01*
X167658086Y-69890519D01*
X167045714Y-69727650D01*
X166410675Y-69561029D01*
X165915534Y-69435120D01*
X165524763Y-69344363D01*
X165202830Y-69283201D01*
X164914206Y-69246075D01*
X164623361Y-69227427D01*
X164294763Y-69221698D01*
X163892884Y-69223330D01*
X163825357Y-69223857D01*
X162901336Y-69261375D01*
X161808360Y-69360769D01*
X160546198Y-69522076D01*
X159114621Y-69745334D01*
X157513399Y-70030579D01*
X155742300Y-70377849D01*
X153801096Y-70787183D01*
X152667500Y-71037294D01*
X151871737Y-71216577D01*
X151135739Y-71385342D01*
X150434108Y-71549975D01*
X149741449Y-71716863D01*
X149032364Y-71892393D01*
X148281457Y-72082951D01*
X147463333Y-72294924D01*
X146552593Y-72534699D01*
X145523842Y-72808662D01*
X144351683Y-73123200D01*
X144049643Y-73204510D01*
X142917450Y-73523282D01*
X141735755Y-73881337D01*
X140535716Y-74267716D01*
X139348492Y-74671460D01*
X138205242Y-75081608D01*
X137137123Y-75487202D01*
X136175296Y-75877282D01*
X135350917Y-76240889D01*
X135158967Y-76331647D01*
X134337738Y-76763500D01*
X133691047Y-77187225D01*
X133212570Y-77609019D01*
X132895983Y-78035081D01*
X132734961Y-78471610D01*
X132710357Y-78731567D01*
X132783085Y-79236655D01*
X133004722Y-79754439D01*
X133380445Y-80290958D01*
X133915430Y-80852248D01*
X134614857Y-81444344D01*
X135483902Y-82073283D01*
X135702158Y-82219705D01*
X136188930Y-82537885D01*
X136555391Y-82764989D01*
X136829028Y-82915164D01*
X137037326Y-83002559D01*
X137207774Y-83041322D01*
X137309637Y-83047142D01*
X137615395Y-83003841D01*
X137866173Y-82845847D01*
X137933406Y-82781978D01*
X138117512Y-82550658D01*
X138189837Y-82296725D01*
X138196554Y-82124299D01*
X138152990Y-81791242D01*
X138041835Y-81543399D01*
X138037804Y-81538326D01*
X137905948Y-81418348D01*
X137654469Y-81225132D01*
X137316662Y-80983071D01*
X136925820Y-80716563D01*
X136826485Y-80650791D01*
X136381055Y-80347076D01*
X135936614Y-80025787D01*
X135543207Y-79724186D01*
X135250876Y-79479538D01*
X135238985Y-79468714D01*
X134971384Y-79214455D01*
X134823128Y-79042769D01*
X134772872Y-78921671D01*
X134799273Y-78819178D01*
X134802143Y-78814106D01*
X134939122Y-78686320D01*
X135220963Y-78506162D01*
X135622884Y-78285590D01*
X136120106Y-78036560D01*
X136687847Y-77771028D01*
X137301329Y-77500952D01*
X137935771Y-77238288D01*
X138566392Y-76994994D01*
X138591331Y-76985781D01*
X139926347Y-76513631D01*
X141389889Y-76032525D01*
X142961202Y-75547389D01*
X144619534Y-75063150D01*
X146344130Y-74584733D01*
X148114235Y-74117065D01*
X149909095Y-73665073D01*
X151707957Y-73233683D01*
X153490066Y-72827821D01*
X155234668Y-72452414D01*
X156921008Y-72112388D01*
X158528334Y-71812669D01*
X160035890Y-71558185D01*
X161422923Y-71353861D01*
X162668678Y-71204623D01*
X163131498Y-71160700D01*
X163522316Y-71128594D01*
X163850812Y-71109774D01*
X164147312Y-71108383D01*
X164442140Y-71128565D01*
X164765622Y-71174464D01*
X165148085Y-71250223D01*
X165619852Y-71359985D01*
X166211250Y-71507895D01*
X166825976Y-71665504D01*
X168035648Y-71987699D01*
X169252532Y-72334605D01*
X170494194Y-72712334D01*
X171778205Y-73126999D01*
X173122133Y-73584710D01*
X174543547Y-74091580D01*
X176060015Y-74653722D01*
X177689105Y-75277246D01*
X179448387Y-75968265D01*
X181128955Y-76641389D01*
X182345764Y-77129940D01*
X183410054Y-77550966D01*
X184335800Y-77909026D01*
X185136976Y-78208682D01*
X185827557Y-78454493D01*
X186421516Y-78651020D01*
X186932828Y-78802823D01*
X187375467Y-78914463D01*
X187763408Y-78990500D01*
X188110625Y-79035494D01*
X188431092Y-79054006D01*
X188525235Y-79055078D01*
X189103072Y-79004705D01*
X189562836Y-78843212D01*
X189918066Y-78557183D01*
X190182300Y-78133204D01*
X190369077Y-77557858D01*
X190447064Y-77150714D01*
X190477467Y-76848560D01*
X190501448Y-76384866D01*
X190519013Y-75779408D01*
X190530165Y-75051960D01*
X190534910Y-74222298D01*
X190533251Y-73310197D01*
X190525193Y-72335432D01*
X190510741Y-71317778D01*
X190489899Y-70277010D01*
X190462672Y-69232903D01*
X190445127Y-68668928D01*
X190423719Y-67950048D01*
X190407840Y-67270356D01*
X190397774Y-66656367D01*
X190393807Y-66134596D01*
X190396223Y-65731559D01*
X190405306Y-65473769D01*
X190410254Y-65421697D01*
X190468179Y-64986609D01*
X190889982Y-65047304D01*
X191674962Y-65200267D01*
X192597646Y-65450546D01*
X193646231Y-65792671D01*
X194808916Y-66221172D01*
X196073900Y-66730581D01*
X197429383Y-67315427D01*
X198863562Y-67970241D01*
X200364637Y-68689554D01*
X201920806Y-69467895D01*
X203520268Y-70299795D01*
X205151222Y-71179784D01*
X206801867Y-72102394D01*
X208460401Y-73062153D01*
X209439427Y-73644565D01*
X211062683Y-74638177D01*
X212698346Y-75673671D01*
X214319291Y-76732627D01*
X215898393Y-77796624D01*
X217408527Y-78847242D01*
X218822568Y-79866061D01*
X220113391Y-80834660D01*
X220703214Y-81293657D01*
X221050334Y-81560380D01*
X221301796Y-81729700D01*
X221499146Y-81822920D01*
X221683931Y-81861343D01*
X221821442Y-81867037D01*
X222226936Y-81790829D01*
X222528543Y-81574191D01*
X222705570Y-81237923D01*
X222744285Y-80939440D01*
X222691579Y-80564353D01*
X222564722Y-80348614D01*
X222432530Y-80228905D01*
X222184416Y-80023374D01*
X221849726Y-79754885D01*
X221457809Y-79446302D01*
X221038012Y-79120489D01*
X220619683Y-78800312D01*
X220232171Y-78508633D01*
X219904823Y-78268318D01*
X219785752Y-78183578D01*
X219595193Y-78049249D01*
X219286858Y-77831142D01*
X218890852Y-77550585D01*
X218437279Y-77228909D01*
X217956244Y-76887441D01*
X217926109Y-76866039D01*
X216892885Y-76144915D01*
X215751069Y-75370323D01*
X214551367Y-74575629D01*
X213344489Y-73794200D01*
X212181139Y-73059403D01*
X211541071Y-72664528D01*
X211066566Y-72374314D01*
X210631861Y-72107614D01*
X210266170Y-71882417D01*
X209998704Y-71716707D01*
X209862857Y-71631193D01*
X209609132Y-71475716D01*
X209415465Y-71366068D01*
X209257182Y-71277414D01*
X208984134Y-71120788D01*
X208637863Y-70920335D01*
X208259908Y-70700199D01*
X207891811Y-70484523D01*
X207575112Y-70297451D01*
X207504285Y-70255266D01*
X207066478Y-70003019D01*
X206490775Y-69685296D01*
X205802800Y-69315222D01*
X205028177Y-68905918D01*
X204192530Y-68470508D01*
X203321482Y-68022116D01*
X202440657Y-67573865D01*
X201575679Y-67138877D01*
X200752171Y-66730276D01*
X199995758Y-66361185D01*
X199332062Y-66044727D01*
X198841071Y-65818410D01*
X197447561Y-65208980D01*
X196131048Y-64669033D01*
X194902613Y-64202175D01*
X193773337Y-63812015D01*
X192754302Y-63502160D01*
X191856587Y-63276218D01*
X191091276Y-63137797D01*
X190469447Y-63090505D01*
X190462657Y-63090505D01*
X189824449Y-63162361D01*
G36*
X182591293Y-64869593D02*
G01*
X181811527Y-65084423D01*
X181289184Y-65335973D01*
X180969513Y-65552952D01*
X180618022Y-65842527D01*
X180263297Y-66174599D01*
X179933928Y-66519069D01*
X179658504Y-66845836D01*
X179465613Y-67124802D01*
X179383844Y-67325867D01*
X179382857Y-67343046D01*
X179450615Y-67380956D01*
X179660437Y-67409499D01*
X180022141Y-67429210D01*
X180545547Y-67440627D01*
X181235916Y-67444285D01*
X183088975Y-67444285D01*
X183276987Y-67683305D01*
X183432600Y-68015750D01*
X183465000Y-68287830D01*
X183458360Y-68424927D01*
X183426780Y-68551924D01*
X183352766Y-68692050D01*
X183218825Y-68868534D01*
X183007465Y-69104604D01*
X182701192Y-69423489D01*
X182312874Y-69817740D01*
X181160749Y-70982142D01*
X180226446Y-70982142D01*
X179758892Y-70991311D01*
X179447058Y-71018073D01*
X179301726Y-71061313D01*
X179292143Y-71078820D01*
X179339873Y-71263665D01*
X179491929Y-71508876D01*
X179761605Y-71832789D01*
X180093649Y-72184107D01*
X180382221Y-72466553D01*
X180632179Y-72665051D01*
X180872434Y-72778940D01*
X181131901Y-72807561D01*
X181439492Y-72750254D01*
X181824121Y-72606359D01*
X182314701Y-72375217D01*
X182812533Y-72122064D01*
X183907506Y-71507923D01*
X184842792Y-70878243D01*
X185614538Y-70236943D01*
X186218892Y-69587941D01*
X186651999Y-68935156D01*
X186910007Y-68282505D01*
X186979937Y-67884223D01*
X186994025Y-67540642D01*
X186949777Y-67263319D01*
X186828642Y-66955916D01*
X186782718Y-66860106D01*
X186431695Y-66329145D01*
X185923064Y-65831190D01*
X185280255Y-65387336D01*
X184947807Y-65208058D01*
X184191599Y-64930286D01*
X183395373Y-64817839D01*
X182591293Y-64869593D01*
G37*
X182591293Y-64869593D02*
X181811527Y-65084423D01*
X181289184Y-65335973D01*
X180969513Y-65552952D01*
X180618022Y-65842527D01*
X180263297Y-66174599D01*
X179933928Y-66519069D01*
X179658504Y-66845836D01*
X179465613Y-67124802D01*
X179383844Y-67325867D01*
X179382857Y-67343046D01*
X179450615Y-67380956D01*
X179660437Y-67409499D01*
X180022141Y-67429210D01*
X180545547Y-67440627D01*
X181235916Y-67444285D01*
X183088975Y-67444285D01*
X183276987Y-67683305D01*
X183432600Y-68015750D01*
X183465000Y-68287830D01*
X183458360Y-68424927D01*
X183426780Y-68551924D01*
X183352766Y-68692050D01*
X183218825Y-68868534D01*
X183007465Y-69104604D01*
X182701192Y-69423489D01*
X182312874Y-69817740D01*
X181160749Y-70982142D01*
X180226446Y-70982142D01*
X179758892Y-70991311D01*
X179447058Y-71018073D01*
X179301726Y-71061313D01*
X179292143Y-71078820D01*
X179339873Y-71263665D01*
X179491929Y-71508876D01*
X179761605Y-71832789D01*
X180093649Y-72184107D01*
X180382221Y-72466553D01*
X180632179Y-72665051D01*
X180872434Y-72778940D01*
X181131901Y-72807561D01*
X181439492Y-72750254D01*
X181824121Y-72606359D01*
X182314701Y-72375217D01*
X182812533Y-72122064D01*
X183907506Y-71507923D01*
X184842792Y-70878243D01*
X185614538Y-70236943D01*
X186218892Y-69587941D01*
X186651999Y-68935156D01*
X186910007Y-68282505D01*
X186979937Y-67884223D01*
X186994025Y-67540642D01*
X186949777Y-67263319D01*
X186828642Y-66955916D01*
X186782718Y-66860106D01*
X186431695Y-66329145D01*
X185923064Y-65831190D01*
X185280255Y-65387336D01*
X184947807Y-65208058D01*
X184191599Y-64930286D01*
X183395373Y-64817839D01*
X182591293Y-64869593D01*
G36*
X179292143Y-70347142D02*
G01*
X180176607Y-70342163D01*
X181061071Y-70337183D01*
X181954837Y-69343253D01*
X182340085Y-68901520D01*
X182612691Y-68559423D01*
X182766168Y-68325661D01*
X182796791Y-68214304D01*
X182752534Y-68166309D01*
X182646469Y-68130851D01*
X182455514Y-68106178D01*
X182156586Y-68090538D01*
X181726603Y-68082177D01*
X181142482Y-68079344D01*
X181018561Y-68079285D01*
X179292143Y-68079285D01*
X179292143Y-70347142D01*
G37*
X179292143Y-70347142D02*
X180176607Y-70342163D01*
X181061071Y-70337183D01*
X181954837Y-69343253D01*
X182340085Y-68901520D01*
X182612691Y-68559423D01*
X182766168Y-68325661D01*
X182796791Y-68214304D01*
X182752534Y-68166309D01*
X182646469Y-68130851D01*
X182455514Y-68106178D01*
X182156586Y-68090538D01*
X181726603Y-68082177D01*
X181142482Y-68079344D01*
X181018561Y-68079285D01*
X179292143Y-68079285D01*
X179292143Y-70347142D01*
D11*
X164950000Y-99450000D03*
X164950000Y-100100000D03*
X164950000Y-100750000D03*
X164950000Y-101400000D03*
X164950000Y-102050000D03*
X164950000Y-102700000D03*
X164950000Y-103350000D03*
X170850000Y-103350000D03*
X170850000Y-102700000D03*
X170850000Y-102050000D03*
X170850000Y-101400000D03*
X170850000Y-100750000D03*
X170850000Y-100100000D03*
X170850000Y-99450000D03*
D12*
X203600000Y-88400000D03*
X203600000Y-89050000D03*
X203600000Y-89700000D03*
X203600000Y-90350000D03*
X203600000Y-91000000D03*
X203600000Y-91650000D03*
X203600000Y-92300000D03*
X203600000Y-92950000D03*
X197700000Y-92950000D03*
X197700000Y-92300000D03*
X197700000Y-91650000D03*
X197700000Y-91000000D03*
X197700000Y-90350000D03*
X197700000Y-89700000D03*
X197700000Y-89050000D03*
X197700000Y-88400000D03*
D13*
X129825000Y-105050000D03*
X130475000Y-105050000D03*
X131125000Y-105050000D03*
X131775000Y-105050000D03*
X132425000Y-105050000D03*
X133075000Y-105050000D03*
X133725000Y-105050000D03*
X134375000Y-105050000D03*
X134375000Y-99150000D03*
X133725000Y-99150000D03*
X133075000Y-99150000D03*
X132425000Y-99150000D03*
X131775000Y-99150000D03*
X131125000Y-99150000D03*
X130475000Y-99150000D03*
X129825000Y-99150000D03*
D14*
X243525000Y-103600000D03*
X242875000Y-103600000D03*
X242225000Y-103600000D03*
X241575000Y-103600000D03*
X240925000Y-103600000D03*
X240275000Y-103600000D03*
X239625000Y-103600000D03*
X238975000Y-103600000D03*
X238325000Y-103600000D03*
X237675000Y-103600000D03*
X237025000Y-103600000D03*
X236375000Y-103600000D03*
X235725000Y-103600000D03*
X235075000Y-103600000D03*
X235075000Y-110800000D03*
X235725000Y-110800000D03*
X236375000Y-110800000D03*
X237025000Y-110800000D03*
X237675000Y-110800000D03*
X238325000Y-110800000D03*
X238975000Y-110800000D03*
X239625000Y-110800000D03*
X240275000Y-110800000D03*
X240925000Y-110800000D03*
X241575000Y-110800000D03*
X242225000Y-110800000D03*
X242875000Y-110800000D03*
X243525000Y-110800000D03*
D15*
X196850000Y-118600000D03*
X194200000Y-118600000D03*
X199150000Y-118600000D03*
X201800000Y-118600000D03*
D16*
X201100000Y-116050000D03*
X194900000Y-116050000D03*
D17*
X196700000Y-115925000D03*
X197350000Y-115925000D03*
X198000000Y-115925000D03*
X198650000Y-115925000D03*
X199300000Y-115925000D03*
D18*
X166220000Y-115200000D03*
X168760000Y-115200000D03*
X171300000Y-115200000D03*
X173840000Y-115200000D03*
X176380000Y-115200000D03*
X178920000Y-115200000D03*
X181460000Y-115200000D03*
D19*
X184000000Y-115200000D03*
D20*
X158000000Y-114100000D03*
X216000000Y-114100000D03*
X249000000Y-83100000D03*
X125000000Y-83000000D03*
X219000000Y-78500000D03*
X155000000Y-78500000D03*
D21*
X219000000Y-88000000D03*
D22*
X221800000Y-92225000D03*
X221800000Y-91575000D03*
X221800000Y-90925000D03*
X221800000Y-90275000D03*
X221800000Y-89625000D03*
X221800000Y-88975000D03*
X221800000Y-88325000D03*
X221800000Y-87675000D03*
X221800000Y-87025000D03*
X221800000Y-86375000D03*
X221800000Y-85725000D03*
X221800000Y-85075000D03*
X221800000Y-84425000D03*
X221800000Y-83775000D03*
X216200000Y-83775000D03*
X216200000Y-84425000D03*
X216200000Y-85075000D03*
X216200000Y-85725000D03*
X216200000Y-86375000D03*
X216200000Y-87025000D03*
X216200000Y-87675000D03*
X216200000Y-88325000D03*
X216200000Y-88975000D03*
X216200000Y-89625000D03*
X216200000Y-90275000D03*
X216200000Y-90925000D03*
X216200000Y-91575000D03*
X216200000Y-92225000D03*
D23*
X236350000Y-83000000D03*
X239650000Y-83000000D03*
X236350000Y-86000000D03*
X239650000Y-86000000D03*
D24*
X226350000Y-108100000D03*
X225250000Y-108100000D03*
X225250000Y-102700000D03*
X226350000Y-102700000D03*
D25*
X211550000Y-112300000D03*
X210050000Y-112300000D03*
D26*
X202500000Y-99650000D03*
X202500000Y-101150000D03*
D27*
X204700000Y-115550000D03*
X204700000Y-114450000D03*
D24*
X210450000Y-118200000D03*
X211550000Y-118200000D03*
D25*
X201510000Y-114030000D03*
X203010000Y-114030000D03*
X196650000Y-108870000D03*
X198150000Y-108870000D03*
D26*
X186000000Y-107550000D03*
X186000000Y-106050000D03*
X182500000Y-107550000D03*
X182500000Y-106050000D03*
X179000000Y-106050000D03*
X179000000Y-107550000D03*
X175500000Y-107550000D03*
X175500000Y-106050000D03*
X172000000Y-106050000D03*
X172000000Y-107550000D03*
X168500000Y-107550000D03*
X168500000Y-106050000D03*
D25*
X163150000Y-97800000D03*
X164650000Y-97800000D03*
X164650000Y-95800000D03*
X163150000Y-95800000D03*
D26*
X191800000Y-117900000D03*
X191800000Y-116400000D03*
X127800000Y-104850000D03*
X127800000Y-106350000D03*
X125800000Y-104850000D03*
X125800000Y-106350000D03*
D28*
X254600000Y-110400000D03*
D29*
X256600000Y-110400000D03*
D30*
X261300000Y-102700000D03*
X261300000Y-99700000D03*
D26*
X263500000Y-99550000D03*
X263500000Y-101050000D03*
X260500000Y-94500000D03*
X260500000Y-93000000D03*
D31*
X266000000Y-76750000D03*
X269000000Y-76750000D03*
D28*
X268400000Y-72500000D03*
D29*
X266400000Y-72500000D03*
X266400000Y-66000000D03*
D28*
X268400000Y-66000000D03*
X254500000Y-103750000D03*
D29*
X256500000Y-103750000D03*
D31*
X256500000Y-97750000D03*
X253500000Y-97750000D03*
D29*
X250000000Y-99250000D03*
D28*
X248000000Y-99250000D03*
D29*
X250000000Y-108200000D03*
D28*
X248000000Y-108200000D03*
D25*
X239150000Y-99100000D03*
X237650000Y-99100000D03*
X237650000Y-100700000D03*
X239150000Y-100700000D03*
D26*
X246400000Y-113750000D03*
X246400000Y-112250000D03*
D25*
X241750000Y-99100000D03*
X243250000Y-99100000D03*
X241750000Y-100600000D03*
X243250000Y-100600000D03*
D26*
X235900000Y-97350000D03*
X235900000Y-95850000D03*
D27*
X231600000Y-116850000D03*
X231600000Y-115750000D03*
D24*
X239150000Y-117900000D03*
X240250000Y-117900000D03*
D25*
X205250000Y-84900000D03*
X203750000Y-84900000D03*
X205250000Y-86600000D03*
X203750000Y-86600000D03*
X150250000Y-93800000D03*
X151750000Y-93800000D03*
X214650000Y-94200000D03*
X216150000Y-94200000D03*
X150250000Y-95800000D03*
X151750000Y-95800000D03*
X216150000Y-95900000D03*
X214650000Y-95900000D03*
D32*
X197200000Y-110800000D03*
X197200000Y-112700000D03*
X199400000Y-112700000D03*
D33*
X199400000Y-110980000D03*
D34*
X231610000Y-98650000D03*
X231610000Y-95850000D03*
D35*
X190500000Y-113070000D03*
X190500000Y-108870000D03*
D36*
X269000000Y-116780000D03*
X269000000Y-114240000D03*
X269000000Y-111700000D03*
X269000000Y-109160000D03*
X269000000Y-106620000D03*
X269000000Y-104080000D03*
X269000000Y-101540000D03*
D37*
X269000000Y-99000000D03*
X108000000Y-80600000D03*
D36*
X108000000Y-83140000D03*
X108000000Y-85680000D03*
X108000000Y-88220000D03*
X108000000Y-90760000D03*
X108000000Y-93300000D03*
X108000000Y-95840000D03*
X108000000Y-98380000D03*
D18*
X150860000Y-115200000D03*
X148320000Y-115200000D03*
X145780000Y-115200000D03*
X143240000Y-115200000D03*
X140700000Y-115200000D03*
X138160000Y-115200000D03*
X135620000Y-115200000D03*
X133080000Y-115200000D03*
X130540000Y-115200000D03*
D19*
X128000000Y-115200000D03*
D38*
X226180000Y-100170000D03*
X226180000Y-98900000D03*
X224910000Y-100170000D03*
X224910000Y-98900000D03*
X223640000Y-100170000D03*
X223640000Y-98900000D03*
X222370000Y-100170000D03*
X222370000Y-98900000D03*
X221100000Y-100170000D03*
D39*
X221100000Y-98900000D03*
D40*
X194210000Y-108870000D03*
X194210000Y-113130000D03*
D41*
X184200000Y-109150000D03*
X184200000Y-110650000D03*
X186000000Y-109150000D03*
X186000000Y-110650000D03*
X180800000Y-110650000D03*
X180800000Y-109150000D03*
X182500000Y-109150000D03*
X182500000Y-110650000D03*
X177300000Y-110650000D03*
X177300000Y-109150000D03*
X179000000Y-109150000D03*
X179000000Y-110650000D03*
X173800000Y-110650000D03*
X173800000Y-109150000D03*
X175500000Y-109150000D03*
X175500000Y-110650000D03*
X170300000Y-110650000D03*
X170300000Y-109150000D03*
X172000000Y-110650000D03*
X172000000Y-109150000D03*
X166800000Y-110650000D03*
X166800000Y-109150000D03*
X168500000Y-109150000D03*
X168500000Y-110650000D03*
X190000000Y-116400000D03*
X190000000Y-117900000D03*
X219100000Y-98950000D03*
X219100000Y-97450000D03*
X269500000Y-81000000D03*
X269500000Y-79500000D03*
X269500000Y-84500000D03*
X269500000Y-83000000D03*
D42*
X242650000Y-114200000D03*
X241150000Y-114200000D03*
D41*
X235900000Y-100650000D03*
X235900000Y-99150000D03*
X234000000Y-95850000D03*
X234000000Y-97350000D03*
X239700000Y-114050000D03*
X239700000Y-115550000D03*
X231400000Y-112950000D03*
X231400000Y-114450000D03*
X188500000Y-86150000D03*
X188500000Y-84650000D03*
X190300000Y-86150000D03*
X190300000Y-87650000D03*
X184000000Y-102550000D03*
X184000000Y-101050000D03*
X185800000Y-101050000D03*
X185800000Y-102550000D03*
D42*
X185750000Y-98700000D03*
X187250000Y-98700000D03*
X187250000Y-96600000D03*
X185750000Y-96600000D03*
X185750000Y-94600000D03*
X187250000Y-94600000D03*
D43*
X156500000Y-101000000D03*
X144000000Y-101000000D03*
X156500000Y-106000000D03*
X144000000Y-106000000D03*
X110600000Y-112800000D03*
X123100000Y-112800000D03*
X110600000Y-107800000D03*
X123100000Y-107800000D03*
D44*
X212550000Y-99850000D03*
X212050000Y-99850000D03*
X211550000Y-99850000D03*
X211050000Y-99850000D03*
X210550000Y-99850000D03*
X210050000Y-99850000D03*
X209550000Y-99850000D03*
X209050000Y-99850000D03*
X208550000Y-99850000D03*
X208050000Y-99850000D03*
X207550000Y-99850000D03*
X207050000Y-99850000D03*
D45*
X205450000Y-101450000D03*
X205450000Y-101950000D03*
X205450000Y-102450000D03*
X205450000Y-102950000D03*
X205450000Y-103450000D03*
X205450000Y-103950000D03*
X205450000Y-104450000D03*
X205450000Y-104950000D03*
X205450000Y-105450000D03*
X205450000Y-105950000D03*
X205450000Y-106450000D03*
X205450000Y-106950000D03*
D44*
X207050000Y-108550000D03*
X207550000Y-108550000D03*
X208050000Y-108550000D03*
X208550000Y-108550000D03*
X209050000Y-108550000D03*
X209550000Y-108550000D03*
X210050000Y-108550000D03*
X210550000Y-108550000D03*
X211050000Y-108550000D03*
X211550000Y-108550000D03*
X212050000Y-108550000D03*
X212550000Y-108550000D03*
D45*
X214150000Y-106950000D03*
X214150000Y-106450000D03*
X214150000Y-105950000D03*
X214150000Y-105450000D03*
X214150000Y-104950000D03*
X214150000Y-104450000D03*
X214150000Y-103950000D03*
X214150000Y-103450000D03*
X214150000Y-102950000D03*
X214150000Y-102450000D03*
X214150000Y-101950000D03*
X214150000Y-101450000D03*
D46*
X254250000Y-88100000D03*
D47*
X254250000Y-94400000D03*
X251950000Y-94400000D03*
X256550000Y-94400000D03*
D22*
X152200000Y-92225000D03*
X152200000Y-91575000D03*
X152200000Y-90925000D03*
X152200000Y-90275000D03*
X152200000Y-89625000D03*
X152200000Y-88975000D03*
X152200000Y-88325000D03*
X152200000Y-87675000D03*
X152200000Y-87025000D03*
X152200000Y-86375000D03*
X152200000Y-85725000D03*
X152200000Y-85075000D03*
X152200000Y-84425000D03*
X152200000Y-83775000D03*
X157800000Y-83775000D03*
X157800000Y-84425000D03*
X157800000Y-85075000D03*
X157800000Y-85725000D03*
X157800000Y-86375000D03*
X157800000Y-87025000D03*
X157800000Y-87675000D03*
X157800000Y-88325000D03*
X157800000Y-88975000D03*
X157800000Y-89625000D03*
X157800000Y-90275000D03*
X157800000Y-90925000D03*
X157800000Y-91575000D03*
X157800000Y-92225000D03*
D21*
X155000000Y-88000000D03*
D48*
X230200000Y-105400000D03*
D30*
X225200000Y-104100000D03*
X225200000Y-106700000D03*
D49*
X210050000Y-116500000D03*
X206750000Y-116500000D03*
X206750000Y-114500000D03*
X210050000Y-114500000D03*
X237000000Y-115800000D03*
X233700000Y-115800000D03*
X233700000Y-117800000D03*
X237000000Y-117800000D03*
D50*
X263500000Y-88800000D03*
X263500000Y-81000000D03*
D51*
X263500000Y-94600000D03*
X262550000Y-94600000D03*
X264450000Y-94600000D03*
X264450000Y-92400000D03*
X263500000Y-92400000D03*
X262550000Y-92400000D03*
M02*
