M48
INCH,TZ
T1C0.0157
T2C0.0256
T3C0.0315
T4C0.0472
T5C0.0512
%
G90
G05
T1
X43898Y-33819
X45157Y-40787
X47638Y-32126
X49252Y-43425
X50319Y-40768
X50854Y-43799
X51772Y-33031
X51850Y-37008
X52008Y-38307
X52441Y-38307
X52874Y-38307
X53642Y-40551
X53642Y-40945
X53642Y-41339
X56220Y-31693
X56614Y-31496
X57008Y-31299
X57402Y-31102
X57677Y-35354
X57795Y-30906
X58189Y-30709
X58583Y-30512
X58976Y-30709
X59154Y-32677
X59154Y-33071
X59154Y-33465
X59331Y-36063
X59724Y-38189
X61496Y-43189
X62953Y-30906
X62992Y-32677
X62992Y-33071
X62992Y-33465
X62992Y-37205
X63346Y-30709
X63740Y-30512
X63819Y-39055
X64134Y-30709
X64213Y-42402
X64449Y-37283
X64528Y-30906
X64642Y-43890
X64921Y-31102
X65197Y-38504
X65315Y-31299
X65709Y-31496
X65882Y-41957
X65906Y-42598
X66339Y-41299
X66898Y-42311
X67874Y-40906
X67902Y-40004
X68307Y-39488
X68780Y-38819
X68780Y-41299
X69921Y-36220
X69921Y-41260
X71181Y-42559
X71260Y-41260
X71890Y-37520
X72165Y-38858
X72362Y-37559
X72480Y-42047
X72520Y-42575
X73150Y-36220
X73150Y-40787
X73228Y-44882
X73622Y-31398
X73622Y-35079
X73720Y-44882
X74016Y-41378
X74094Y-34449
X74094Y-45984
X74606Y-41811
X74606Y-42244
X74803Y-35000
X75000Y-45118
X75957Y-45980
X76850Y-36457
X76996Y-45067
X77165Y-36732
X77165Y-37165
X77283Y-34685
X77441Y-45059
X77913Y-34291
X78504Y-43110
X78543Y-45098
X79134Y-40157
X79528Y-41929
X79567Y-41299
X79685Y-33110
X79724Y-38701
X79843Y-40945
X79921Y-41732
X80000Y-43740
X80098Y-45394
X80315Y-40945
X80591Y-45906
X80906Y-42717
X81024Y-36575
X81102Y-37795
X81417Y-33150
X81496Y-31496
X81693Y-40945
X81693Y-41929
X81772Y-36339
X81791Y-37795
X81890Y-31299
X82087Y-39961
X82087Y-41535
X82185Y-36614
X82283Y-31102
X82480Y-41929
X82677Y-30906
X82677Y-36614
X82677Y-39961
X82874Y-41339
X82894Y-38386
X83071Y-30709
X83268Y-41929
X83346Y-45197
X83465Y-30512
X83465Y-45758
X83583Y-36535
X83661Y-39961
X83661Y-40354
X83661Y-41929
X83701Y-43858
X83858Y-30709
X84016Y-37992
X84094Y-36535
X84252Y-30906
X84291Y-42992
X84350Y-32677
X84350Y-33071
X84350Y-33465
X84843Y-36654
X84882Y-38937
X84882Y-40433
X85079Y-41220
X85354Y-43858
X85472Y-40906
X85630Y-36929
X85669Y-40551
X86260Y-39331
X86457Y-41102
X86811Y-38110
X87205Y-37953
X87756Y-44409
X88150Y-30906
X88189Y-32677
X88189Y-33071
X88189Y-33465
X88228Y-36614
X88307Y-42717
X88543Y-30709
X88937Y-30512
X89016Y-44528
X89331Y-30709
X89488Y-40433
X89528Y-42559
X89724Y-30906
X89961Y-33031
X90118Y-31102
X90197Y-33661
X90433Y-40591
X90512Y-42402
X90591Y-37283
X90748Y-46024
X91732Y-32677
X91732Y-33465
X92126Y-34094
X92126Y-37008
X93346Y-38543
X93543Y-45118
X94370Y-45945
X94646Y-39016
X95197Y-32087
X95748Y-38543
X97008Y-43622
X97480Y-44803
X99803Y-39252
X100118Y-33858
X101969Y-38976
X102421Y-35728
X102559Y-36220
X103346Y-30217
X103563Y-40256
X103740Y-29823
X103740Y-35827
X103740Y-37894
X104134Y-30217
X104134Y-44921
X104626Y-35728
X106201Y-33661
X106575Y-30197
T2
X87047Y-38937
X87047Y-39437
X87547Y-38937
X87547Y-39437
X88047Y-38937
X88047Y-39437
X88547Y-38937
X88547Y-39437
X89047Y-38937
X89047Y-39437
T3
X97638Y-39075
X97638Y-42598
X98425Y-39075
X98425Y-42598
X100197Y-40846
X100236Y-43465
X100984Y-40846
X101024Y-43465
X104882Y-25984
X104882Y-28543
X105669Y-25984
X105669Y-28543
T4
X42520Y-31732
X42520Y-32732
X42520Y-33732
X42520Y-34732
X42520Y-35732
X42520Y-36732
X42520Y-37732
X42520Y-38732
X50394Y-45354
X51394Y-45354
X52394Y-45354
X53394Y-45354
X54394Y-45354
X55394Y-45354
X56394Y-45354
X57394Y-45354
X58394Y-45354
X59394Y-45354
X65441Y-45354
X66441Y-45354
X67441Y-45354
X68441Y-45354
X69441Y-45354
X70441Y-45354
X71441Y-45354
X72441Y-45354
X105906Y-38976
X105906Y-39976
X105906Y-40976
X105906Y-41976
X105906Y-42976
X105906Y-43976
X105906Y-44976
X105906Y-45976
T5
X43543Y-42441
X43543Y-44409
X48465Y-42441
X48465Y-44409
X56693Y-39764
X56693Y-41732
X61614Y-39764
X61614Y-41732
T0
M30
