G04 #@! TF.GenerationSoftware,KiCad,Pcbnew,(5.1.9)-1*
G04 #@! TF.CreationDate,2021-02-16T17:27:55-05:00*
G04 #@! TF.ProjectId,FSAE Main Panel,46534145-204d-4616-996e-2050616e656c,rev?*
G04 #@! TF.SameCoordinates,Original*
G04 #@! TF.FileFunction,Legend,Bot*
G04 #@! TF.FilePolarity,Positive*
%FSLAX46Y46*%
G04 Gerber Fmt 4.6, Leading zero omitted, Abs format (unit mm)*
G04 Created by KiCad (PCBNEW (5.1.9)-1) date 2021-02-16 17:27:55*
%MOMM*%
%LPD*%
G01*
G04 APERTURE LIST*
%ADD10C,0.350000*%
%ADD11C,0.650000*%
%ADD12C,0.200000*%
%ADD13C,0.120000*%
%ADD14C,0.150000*%
%ADD15C,0.400000*%
%ADD16C,0.550000*%
%ADD17C,0.250000*%
G04 APERTURE END LIST*
D10*
X127796309Y-66729761D02*
X127796309Y-64729761D01*
X127320119Y-64729761D01*
X127034404Y-64825000D01*
X126843928Y-65015476D01*
X126748690Y-65205952D01*
X126653452Y-65586904D01*
X126653452Y-65872619D01*
X126748690Y-66253571D01*
X126843928Y-66444047D01*
X127034404Y-66634523D01*
X127320119Y-66729761D01*
X127796309Y-66729761D01*
X125034404Y-66634523D02*
X125224880Y-66729761D01*
X125605833Y-66729761D01*
X125796309Y-66634523D01*
X125891547Y-66444047D01*
X125891547Y-65682142D01*
X125796309Y-65491666D01*
X125605833Y-65396428D01*
X125224880Y-65396428D01*
X125034404Y-65491666D01*
X124939166Y-65682142D01*
X124939166Y-65872619D01*
X125891547Y-66063095D01*
X124177261Y-66634523D02*
X123986785Y-66729761D01*
X123605833Y-66729761D01*
X123415357Y-66634523D01*
X123320119Y-66444047D01*
X123320119Y-66348809D01*
X123415357Y-66158333D01*
X123605833Y-66063095D01*
X123891547Y-66063095D01*
X124082023Y-65967857D01*
X124177261Y-65777380D01*
X124177261Y-65682142D01*
X124082023Y-65491666D01*
X123891547Y-65396428D01*
X123605833Y-65396428D01*
X123415357Y-65491666D01*
X122462976Y-66729761D02*
X122462976Y-65396428D01*
X122462976Y-64729761D02*
X122558214Y-64825000D01*
X122462976Y-64920238D01*
X122367738Y-64825000D01*
X122462976Y-64729761D01*
X122462976Y-64920238D01*
X120653452Y-65396428D02*
X120653452Y-67015476D01*
X120748690Y-67205952D01*
X120843928Y-67301190D01*
X121034404Y-67396428D01*
X121320119Y-67396428D01*
X121510595Y-67301190D01*
X120653452Y-66634523D02*
X120843928Y-66729761D01*
X121224880Y-66729761D01*
X121415357Y-66634523D01*
X121510595Y-66539285D01*
X121605833Y-66348809D01*
X121605833Y-65777380D01*
X121510595Y-65586904D01*
X121415357Y-65491666D01*
X121224880Y-65396428D01*
X120843928Y-65396428D01*
X120653452Y-65491666D01*
X119701071Y-65396428D02*
X119701071Y-66729761D01*
X119701071Y-65586904D02*
X119605833Y-65491666D01*
X119415357Y-65396428D01*
X119129642Y-65396428D01*
X118939166Y-65491666D01*
X118843928Y-65682142D01*
X118843928Y-66729761D01*
X117129642Y-66634523D02*
X117320119Y-66729761D01*
X117701071Y-66729761D01*
X117891547Y-66634523D01*
X117986785Y-66444047D01*
X117986785Y-65682142D01*
X117891547Y-65491666D01*
X117701071Y-65396428D01*
X117320119Y-65396428D01*
X117129642Y-65491666D01*
X117034404Y-65682142D01*
X117034404Y-65872619D01*
X117986785Y-66063095D01*
X115320119Y-66729761D02*
X115320119Y-64729761D01*
X115320119Y-66634523D02*
X115510595Y-66729761D01*
X115891547Y-66729761D01*
X116082023Y-66634523D01*
X116177261Y-66539285D01*
X116272500Y-66348809D01*
X116272500Y-65777380D01*
X116177261Y-65586904D01*
X116082023Y-65491666D01*
X115891547Y-65396428D01*
X115510595Y-65396428D01*
X115320119Y-65491666D01*
X112177261Y-65682142D02*
X111891547Y-65777380D01*
X111796309Y-65872619D01*
X111701071Y-66063095D01*
X111701071Y-66348809D01*
X111796309Y-66539285D01*
X111891547Y-66634523D01*
X112082023Y-66729761D01*
X112843928Y-66729761D01*
X112843928Y-64729761D01*
X112177261Y-64729761D01*
X111986785Y-64825000D01*
X111891547Y-64920238D01*
X111796309Y-65110714D01*
X111796309Y-65301190D01*
X111891547Y-65491666D01*
X111986785Y-65586904D01*
X112177261Y-65682142D01*
X112843928Y-65682142D01*
X111034404Y-65396428D02*
X110558214Y-66729761D01*
X110082023Y-65396428D02*
X110558214Y-66729761D01*
X110748690Y-67205952D01*
X110843928Y-67301190D01*
X111034404Y-67396428D01*
X109320119Y-66539285D02*
X109224880Y-66634523D01*
X109320119Y-66729761D01*
X109415357Y-66634523D01*
X109320119Y-66539285D01*
X109320119Y-66729761D01*
X109320119Y-65491666D02*
X109224880Y-65586904D01*
X109320119Y-65682142D01*
X109415357Y-65586904D01*
X109320119Y-65491666D01*
X109320119Y-65682142D01*
X127891547Y-69508333D02*
X126939166Y-69508333D01*
X128082023Y-70079761D02*
X127415357Y-68079761D01*
X126748690Y-70079761D01*
X125796309Y-70079761D02*
X125986785Y-69984523D01*
X126082023Y-69794047D01*
X126082023Y-68079761D01*
X124272500Y-69984523D02*
X124462976Y-70079761D01*
X124843928Y-70079761D01*
X125034404Y-69984523D01*
X125129642Y-69794047D01*
X125129642Y-69032142D01*
X125034404Y-68841666D01*
X124843928Y-68746428D01*
X124462976Y-68746428D01*
X124272500Y-68841666D01*
X124177261Y-69032142D01*
X124177261Y-69222619D01*
X125129642Y-69413095D01*
X123510595Y-70079761D02*
X122462976Y-68746428D01*
X123510595Y-68746428D02*
X122462976Y-70079761D01*
X120177261Y-70079761D02*
X120177261Y-68079761D01*
X119415357Y-68079761D01*
X119224880Y-68175000D01*
X119129642Y-68270238D01*
X119034404Y-68460714D01*
X119034404Y-68746428D01*
X119129642Y-68936904D01*
X119224880Y-69032142D01*
X119415357Y-69127380D01*
X120177261Y-69127380D01*
X117891547Y-70079761D02*
X118082023Y-69984523D01*
X118177261Y-69889285D01*
X118272500Y-69698809D01*
X118272500Y-69127380D01*
X118177261Y-68936904D01*
X118082023Y-68841666D01*
X117891547Y-68746428D01*
X117605833Y-68746428D01*
X117415357Y-68841666D01*
X117320119Y-68936904D01*
X117224880Y-69127380D01*
X117224880Y-69698809D01*
X117320119Y-69889285D01*
X117415357Y-69984523D01*
X117605833Y-70079761D01*
X117891547Y-70079761D01*
X115510595Y-70079761D02*
X115510595Y-68079761D01*
X115510595Y-69984523D02*
X115701071Y-70079761D01*
X116082023Y-70079761D01*
X116272500Y-69984523D01*
X116367738Y-69889285D01*
X116462976Y-69698809D01*
X116462976Y-69127380D01*
X116367738Y-68936904D01*
X116272500Y-68841666D01*
X116082023Y-68746428D01*
X115701071Y-68746428D01*
X115510595Y-68841666D01*
X113701071Y-68746428D02*
X113701071Y-70365476D01*
X113796309Y-70555952D01*
X113891547Y-70651190D01*
X114082023Y-70746428D01*
X114367738Y-70746428D01*
X114558214Y-70651190D01*
X113701071Y-69984523D02*
X113891547Y-70079761D01*
X114272500Y-70079761D01*
X114462976Y-69984523D01*
X114558214Y-69889285D01*
X114653452Y-69698809D01*
X114653452Y-69127380D01*
X114558214Y-68936904D01*
X114462976Y-68841666D01*
X114272500Y-68746428D01*
X113891547Y-68746428D01*
X113701071Y-68841666D01*
X112462976Y-70079761D02*
X112653452Y-69984523D01*
X112748690Y-69889285D01*
X112843928Y-69698809D01*
X112843928Y-69127380D01*
X112748690Y-68936904D01*
X112653452Y-68841666D01*
X112462976Y-68746428D01*
X112177261Y-68746428D01*
X111986785Y-68841666D01*
X111891547Y-68936904D01*
X111796309Y-69127380D01*
X111796309Y-69698809D01*
X111891547Y-69889285D01*
X111986785Y-69984523D01*
X112177261Y-70079761D01*
X112462976Y-70079761D01*
X110939166Y-70079761D02*
X110939166Y-68746428D01*
X110939166Y-69127380D02*
X110843928Y-68936904D01*
X110748690Y-68841666D01*
X110558214Y-68746428D01*
X110367738Y-68746428D01*
X109796309Y-69984523D02*
X109605833Y-70079761D01*
X109224880Y-70079761D01*
X109034404Y-69984523D01*
X108939166Y-69794047D01*
X108939166Y-69698809D01*
X109034404Y-69508333D01*
X109224880Y-69413095D01*
X109510595Y-69413095D01*
X109701071Y-69317857D01*
X109796309Y-69127380D01*
X109796309Y-69032142D01*
X109701071Y-68841666D01*
X109510595Y-68746428D01*
X109224880Y-68746428D01*
X109034404Y-68841666D01*
X108082023Y-70079761D02*
X108082023Y-68079761D01*
X107891547Y-69317857D02*
X107320119Y-70079761D01*
X107320119Y-68746428D02*
X108082023Y-69508333D01*
X106462976Y-70079761D02*
X106462976Y-68746428D01*
X106462976Y-68079761D02*
X106558214Y-68175000D01*
X106462976Y-68270238D01*
X106367738Y-68175000D01*
X106462976Y-68079761D01*
X106462976Y-68270238D01*
D11*
X205500000Y-79583333D02*
X205500000Y-82416666D01*
X205333333Y-82750000D01*
X205166666Y-82916666D01*
X204833333Y-83083333D01*
X204166666Y-83083333D01*
X203833333Y-82916666D01*
X203666666Y-82750000D01*
X203500000Y-82416666D01*
X203500000Y-79583333D01*
X199833333Y-82750000D02*
X200000000Y-82916666D01*
X200500000Y-83083333D01*
X200833333Y-83083333D01*
X201333333Y-82916666D01*
X201666666Y-82583333D01*
X201833333Y-82250000D01*
X202000000Y-81583333D01*
X202000000Y-81083333D01*
X201833333Y-80416666D01*
X201666666Y-80083333D01*
X201333333Y-79750000D01*
X200833333Y-79583333D01*
X200500000Y-79583333D01*
X200000000Y-79750000D01*
X199833333Y-79916666D01*
X197666666Y-79583333D02*
X197000000Y-79583333D01*
X196666666Y-79750000D01*
X196333333Y-80083333D01*
X196166666Y-80750000D01*
X196166666Y-81916666D01*
X196333333Y-82583333D01*
X196666666Y-82916666D01*
X197000000Y-83083333D01*
X197666666Y-83083333D01*
X198000000Y-82916666D01*
X198333333Y-82583333D01*
X198500000Y-81916666D01*
X198500000Y-80750000D01*
X198333333Y-80083333D01*
X198000000Y-79750000D01*
X197666666Y-79583333D01*
X194666666Y-83083333D02*
X194666666Y-79583333D01*
X192666666Y-83083333D01*
X192666666Y-79583333D01*
X191000000Y-83083333D02*
X191000000Y-79583333D01*
X189000000Y-83083333D01*
X189000000Y-79583333D01*
X182666666Y-83083333D02*
X183833333Y-81416666D01*
X184666666Y-83083333D02*
X184666666Y-79583333D01*
X183333333Y-79583333D01*
X183000000Y-79750000D01*
X182833333Y-79916666D01*
X182666666Y-80250000D01*
X182666666Y-80750000D01*
X182833333Y-81083333D01*
X183000000Y-81250000D01*
X183333333Y-81416666D01*
X184666666Y-81416666D01*
X181333333Y-82083333D02*
X179666666Y-82083333D01*
X181666666Y-83083333D02*
X180500000Y-79583333D01*
X179333333Y-83083333D01*
X176166666Y-82750000D02*
X176333333Y-82916666D01*
X176833333Y-83083333D01*
X177166666Y-83083333D01*
X177666666Y-82916666D01*
X178000000Y-82583333D01*
X178166666Y-82250000D01*
X178333333Y-81583333D01*
X178333333Y-81083333D01*
X178166666Y-80416666D01*
X178000000Y-80083333D01*
X177666666Y-79750000D01*
X177166666Y-79583333D01*
X176833333Y-79583333D01*
X176333333Y-79750000D01*
X176166666Y-79916666D01*
X174666666Y-83083333D02*
X174666666Y-79583333D01*
X173000000Y-83083333D02*
X173000000Y-79583333D01*
X171000000Y-83083333D01*
X171000000Y-79583333D01*
X167500000Y-79750000D02*
X167833333Y-79583333D01*
X168333333Y-79583333D01*
X168833333Y-79750000D01*
X169166666Y-80083333D01*
X169333333Y-80416666D01*
X169500000Y-81083333D01*
X169500000Y-81583333D01*
X169333333Y-82250000D01*
X169166666Y-82583333D01*
X168833333Y-82916666D01*
X168333333Y-83083333D01*
X168000000Y-83083333D01*
X167500000Y-82916666D01*
X167333333Y-82750000D01*
X167333333Y-81583333D01*
X168000000Y-81583333D01*
D12*
X114630000Y-98357142D02*
X114677619Y-98404761D01*
X114820476Y-98452380D01*
X114915714Y-98452380D01*
X115058571Y-98404761D01*
X115153809Y-98309523D01*
X115201428Y-98214285D01*
X115249047Y-98023809D01*
X115249047Y-97880952D01*
X115201428Y-97690476D01*
X115153809Y-97595238D01*
X115058571Y-97500000D01*
X114915714Y-97452380D01*
X114820476Y-97452380D01*
X114677619Y-97500000D01*
X114630000Y-97547619D01*
X113725238Y-98452380D02*
X114201428Y-98452380D01*
X114201428Y-97452380D01*
X113391904Y-98452380D02*
X113391904Y-97452380D01*
X112820476Y-98452380D02*
X113249047Y-97880952D01*
X112820476Y-97452380D02*
X113391904Y-98023809D01*
X115058571Y-95904761D02*
X114915714Y-95952380D01*
X114677619Y-95952380D01*
X114582380Y-95904761D01*
X114534761Y-95857142D01*
X114487142Y-95761904D01*
X114487142Y-95666666D01*
X114534761Y-95571428D01*
X114582380Y-95523809D01*
X114677619Y-95476190D01*
X114868095Y-95428571D01*
X114963333Y-95380952D01*
X115010952Y-95333333D01*
X115058571Y-95238095D01*
X115058571Y-95142857D01*
X115010952Y-95047619D01*
X114963333Y-95000000D01*
X114868095Y-94952380D01*
X114630000Y-94952380D01*
X114487142Y-95000000D01*
X114058571Y-95428571D02*
X113725238Y-95428571D01*
X113582380Y-95952380D02*
X114058571Y-95952380D01*
X114058571Y-94952380D01*
X113582380Y-94952380D01*
X113296666Y-94952380D02*
X112725238Y-94952380D01*
X113010952Y-95952380D02*
X113010952Y-94952380D01*
X114630000Y-93357142D02*
X114677619Y-93404761D01*
X114820476Y-93452380D01*
X114915714Y-93452380D01*
X115058571Y-93404761D01*
X115153809Y-93309523D01*
X115201428Y-93214285D01*
X115249047Y-93023809D01*
X115249047Y-92880952D01*
X115201428Y-92690476D01*
X115153809Y-92595238D01*
X115058571Y-92500000D01*
X114915714Y-92452380D01*
X114820476Y-92452380D01*
X114677619Y-92500000D01*
X114630000Y-92547619D01*
X113725238Y-93452380D02*
X114201428Y-93452380D01*
X114201428Y-92452380D01*
X112820476Y-93452380D02*
X113153809Y-92976190D01*
X113391904Y-93452380D02*
X113391904Y-92452380D01*
X113010952Y-92452380D01*
X112915714Y-92500000D01*
X112868095Y-92547619D01*
X112820476Y-92642857D01*
X112820476Y-92785714D01*
X112868095Y-92880952D01*
X112915714Y-92928571D01*
X113010952Y-92976190D01*
X113391904Y-92976190D01*
X116820476Y-90428571D02*
X117153809Y-90428571D01*
X117153809Y-90952380D02*
X117153809Y-89952380D01*
X116677619Y-89952380D01*
X115725238Y-90952380D02*
X116058571Y-90476190D01*
X116296666Y-90952380D02*
X116296666Y-89952380D01*
X115915714Y-89952380D01*
X115820476Y-90000000D01*
X115772857Y-90047619D01*
X115725238Y-90142857D01*
X115725238Y-90285714D01*
X115772857Y-90380952D01*
X115820476Y-90428571D01*
X115915714Y-90476190D01*
X116296666Y-90476190D01*
X115344285Y-90666666D02*
X114868095Y-90666666D01*
X115439523Y-90952380D02*
X115106190Y-89952380D01*
X114772857Y-90952380D01*
X114439523Y-90952380D02*
X114439523Y-89952380D01*
X114106190Y-90666666D01*
X113772857Y-89952380D01*
X113772857Y-90952380D01*
X113296666Y-90428571D02*
X112963333Y-90428571D01*
X112820476Y-90952380D02*
X113296666Y-90952380D01*
X113296666Y-89952380D01*
X112820476Y-89952380D01*
X114915714Y-88357142D02*
X114963333Y-88404761D01*
X115106190Y-88452380D01*
X115201428Y-88452380D01*
X115344285Y-88404761D01*
X115439523Y-88309523D01*
X115487142Y-88214285D01*
X115534761Y-88023809D01*
X115534761Y-87880952D01*
X115487142Y-87690476D01*
X115439523Y-87595238D01*
X115344285Y-87500000D01*
X115201428Y-87452380D01*
X115106190Y-87452380D01*
X114963333Y-87500000D01*
X114915714Y-87547619D01*
X114296666Y-87452380D02*
X114106190Y-87452380D01*
X114010952Y-87500000D01*
X113915714Y-87595238D01*
X113868095Y-87785714D01*
X113868095Y-88119047D01*
X113915714Y-88309523D01*
X114010952Y-88404761D01*
X114106190Y-88452380D01*
X114296666Y-88452380D01*
X114391904Y-88404761D01*
X114487142Y-88309523D01*
X114534761Y-88119047D01*
X114534761Y-87785714D01*
X114487142Y-87595238D01*
X114391904Y-87500000D01*
X114296666Y-87452380D01*
X113439523Y-88452380D02*
X113439523Y-87452380D01*
X112868095Y-88452380D01*
X112868095Y-87452380D01*
X116153809Y-85952380D02*
X116153809Y-84952380D01*
X115582380Y-85952380D01*
X115582380Y-84952380D01*
X115106190Y-85428571D02*
X114772857Y-85428571D01*
X114630000Y-85952380D02*
X115106190Y-85952380D01*
X115106190Y-84952380D01*
X114630000Y-84952380D01*
X114201428Y-84952380D02*
X114201428Y-85761904D01*
X114153809Y-85857142D01*
X114106190Y-85904761D01*
X114010952Y-85952380D01*
X113820476Y-85952380D01*
X113725238Y-85904761D01*
X113677619Y-85857142D01*
X113630000Y-85761904D01*
X113630000Y-84952380D01*
X113296666Y-84952380D02*
X112725238Y-84952380D01*
X113010952Y-85952380D02*
X113010952Y-84952380D01*
X114915714Y-82500000D02*
X115010952Y-82452380D01*
X115153809Y-82452380D01*
X115296666Y-82500000D01*
X115391904Y-82595238D01*
X115439523Y-82690476D01*
X115487142Y-82880952D01*
X115487142Y-83023809D01*
X115439523Y-83214285D01*
X115391904Y-83309523D01*
X115296666Y-83404761D01*
X115153809Y-83452380D01*
X115058571Y-83452380D01*
X114915714Y-83404761D01*
X114868095Y-83357142D01*
X114868095Y-83023809D01*
X115058571Y-83023809D01*
X114439523Y-83452380D02*
X114439523Y-82452380D01*
X113868095Y-83452380D01*
X113868095Y-82452380D01*
X113391904Y-83452380D02*
X113391904Y-82452380D01*
X113153809Y-82452380D01*
X113010952Y-82500000D01*
X112915714Y-82595238D01*
X112868095Y-82690476D01*
X112820476Y-82880952D01*
X112820476Y-83023809D01*
X112868095Y-83214285D01*
X112915714Y-83309523D01*
X113010952Y-83404761D01*
X113153809Y-83452380D01*
X113391904Y-83452380D01*
X113725238Y-79952380D02*
X114201428Y-79952380D01*
X114249047Y-80428571D01*
X114201428Y-80380952D01*
X114106190Y-80333333D01*
X113868095Y-80333333D01*
X113772857Y-80380952D01*
X113725238Y-80428571D01*
X113677619Y-80523809D01*
X113677619Y-80761904D01*
X113725238Y-80857142D01*
X113772857Y-80904761D01*
X113868095Y-80952380D01*
X114106190Y-80952380D01*
X114201428Y-80904761D01*
X114249047Y-80857142D01*
X113391904Y-79952380D02*
X113058571Y-80952380D01*
X112725238Y-79952380D01*
X151357142Y-114439523D02*
X151404761Y-114391904D01*
X151452380Y-114249047D01*
X151452380Y-114153809D01*
X151404761Y-114010952D01*
X151309523Y-113915714D01*
X151214285Y-113868095D01*
X151023809Y-113820476D01*
X150880952Y-113820476D01*
X150690476Y-113868095D01*
X150595238Y-113915714D01*
X150500000Y-114010952D01*
X150452380Y-114153809D01*
X150452380Y-114249047D01*
X150500000Y-114391904D01*
X150547619Y-114439523D01*
X151166666Y-114820476D02*
X151166666Y-115296666D01*
X151452380Y-114725238D02*
X150452380Y-115058571D01*
X151452380Y-115391904D01*
X151452380Y-116201428D02*
X151452380Y-115725238D01*
X150452380Y-115725238D01*
X148857142Y-114439523D02*
X148904761Y-114391904D01*
X148952380Y-114249047D01*
X148952380Y-114153809D01*
X148904761Y-114010952D01*
X148809523Y-113915714D01*
X148714285Y-113868095D01*
X148523809Y-113820476D01*
X148380952Y-113820476D01*
X148190476Y-113868095D01*
X148095238Y-113915714D01*
X148000000Y-114010952D01*
X147952380Y-114153809D01*
X147952380Y-114249047D01*
X148000000Y-114391904D01*
X148047619Y-114439523D01*
X148952380Y-115391904D02*
X148952380Y-114820476D01*
X148952380Y-115106190D02*
X147952380Y-115106190D01*
X148095238Y-115010952D01*
X148190476Y-114915714D01*
X148238095Y-114820476D01*
X146357142Y-114439523D02*
X146404761Y-114391904D01*
X146452380Y-114249047D01*
X146452380Y-114153809D01*
X146404761Y-114010952D01*
X146309523Y-113915714D01*
X146214285Y-113868095D01*
X146023809Y-113820476D01*
X145880952Y-113820476D01*
X145690476Y-113868095D01*
X145595238Y-113915714D01*
X145500000Y-114010952D01*
X145452380Y-114153809D01*
X145452380Y-114249047D01*
X145500000Y-114391904D01*
X145547619Y-114439523D01*
X145547619Y-114820476D02*
X145500000Y-114868095D01*
X145452380Y-114963333D01*
X145452380Y-115201428D01*
X145500000Y-115296666D01*
X145547619Y-115344285D01*
X145642857Y-115391904D01*
X145738095Y-115391904D01*
X145880952Y-115344285D01*
X146452380Y-114772857D01*
X146452380Y-115391904D01*
X143857142Y-114439523D02*
X143904761Y-114391904D01*
X143952380Y-114249047D01*
X143952380Y-114153809D01*
X143904761Y-114010952D01*
X143809523Y-113915714D01*
X143714285Y-113868095D01*
X143523809Y-113820476D01*
X143380952Y-113820476D01*
X143190476Y-113868095D01*
X143095238Y-113915714D01*
X143000000Y-114010952D01*
X142952380Y-114153809D01*
X142952380Y-114249047D01*
X143000000Y-114391904D01*
X143047619Y-114439523D01*
X142952380Y-114772857D02*
X142952380Y-115391904D01*
X143333333Y-115058571D01*
X143333333Y-115201428D01*
X143380952Y-115296666D01*
X143428571Y-115344285D01*
X143523809Y-115391904D01*
X143761904Y-115391904D01*
X143857142Y-115344285D01*
X143904761Y-115296666D01*
X143952380Y-115201428D01*
X143952380Y-114915714D01*
X143904761Y-114820476D01*
X143857142Y-114772857D01*
X141357142Y-114439523D02*
X141404761Y-114391904D01*
X141452380Y-114249047D01*
X141452380Y-114153809D01*
X141404761Y-114010952D01*
X141309523Y-113915714D01*
X141214285Y-113868095D01*
X141023809Y-113820476D01*
X140880952Y-113820476D01*
X140690476Y-113868095D01*
X140595238Y-113915714D01*
X140500000Y-114010952D01*
X140452380Y-114153809D01*
X140452380Y-114249047D01*
X140500000Y-114391904D01*
X140547619Y-114439523D01*
X140785714Y-115296666D02*
X141452380Y-115296666D01*
X140404761Y-115058571D02*
X141119047Y-114820476D01*
X141119047Y-115439523D01*
X138857142Y-114439523D02*
X138904761Y-114391904D01*
X138952380Y-114249047D01*
X138952380Y-114153809D01*
X138904761Y-114010952D01*
X138809523Y-113915714D01*
X138714285Y-113868095D01*
X138523809Y-113820476D01*
X138380952Y-113820476D01*
X138190476Y-113868095D01*
X138095238Y-113915714D01*
X138000000Y-114010952D01*
X137952380Y-114153809D01*
X137952380Y-114249047D01*
X138000000Y-114391904D01*
X138047619Y-114439523D01*
X137952380Y-115344285D02*
X137952380Y-114868095D01*
X138428571Y-114820476D01*
X138380952Y-114868095D01*
X138333333Y-114963333D01*
X138333333Y-115201428D01*
X138380952Y-115296666D01*
X138428571Y-115344285D01*
X138523809Y-115391904D01*
X138761904Y-115391904D01*
X138857142Y-115344285D01*
X138904761Y-115296666D01*
X138952380Y-115201428D01*
X138952380Y-114963333D01*
X138904761Y-114868095D01*
X138857142Y-114820476D01*
X136357142Y-114439523D02*
X136404761Y-114391904D01*
X136452380Y-114249047D01*
X136452380Y-114153809D01*
X136404761Y-114010952D01*
X136309523Y-113915714D01*
X136214285Y-113868095D01*
X136023809Y-113820476D01*
X135880952Y-113820476D01*
X135690476Y-113868095D01*
X135595238Y-113915714D01*
X135500000Y-114010952D01*
X135452380Y-114153809D01*
X135452380Y-114249047D01*
X135500000Y-114391904D01*
X135547619Y-114439523D01*
X135452380Y-115296666D02*
X135452380Y-115106190D01*
X135500000Y-115010952D01*
X135547619Y-114963333D01*
X135690476Y-114868095D01*
X135880952Y-114820476D01*
X136261904Y-114820476D01*
X136357142Y-114868095D01*
X136404761Y-114915714D01*
X136452380Y-115010952D01*
X136452380Y-115201428D01*
X136404761Y-115296666D01*
X136357142Y-115344285D01*
X136261904Y-115391904D01*
X136023809Y-115391904D01*
X135928571Y-115344285D01*
X135880952Y-115296666D01*
X135833333Y-115201428D01*
X135833333Y-115010952D01*
X135880952Y-114915714D01*
X135928571Y-114868095D01*
X136023809Y-114820476D01*
X133857142Y-114439523D02*
X133904761Y-114391904D01*
X133952380Y-114249047D01*
X133952380Y-114153809D01*
X133904761Y-114010952D01*
X133809523Y-113915714D01*
X133714285Y-113868095D01*
X133523809Y-113820476D01*
X133380952Y-113820476D01*
X133190476Y-113868095D01*
X133095238Y-113915714D01*
X133000000Y-114010952D01*
X132952380Y-114153809D01*
X132952380Y-114249047D01*
X133000000Y-114391904D01*
X133047619Y-114439523D01*
X132952380Y-114772857D02*
X132952380Y-115439523D01*
X133952380Y-115010952D01*
X131357142Y-114439523D02*
X131404761Y-114391904D01*
X131452380Y-114249047D01*
X131452380Y-114153809D01*
X131404761Y-114010952D01*
X131309523Y-113915714D01*
X131214285Y-113868095D01*
X131023809Y-113820476D01*
X130880952Y-113820476D01*
X130690476Y-113868095D01*
X130595238Y-113915714D01*
X130500000Y-114010952D01*
X130452380Y-114153809D01*
X130452380Y-114249047D01*
X130500000Y-114391904D01*
X130547619Y-114439523D01*
X130880952Y-115010952D02*
X130833333Y-114915714D01*
X130785714Y-114868095D01*
X130690476Y-114820476D01*
X130642857Y-114820476D01*
X130547619Y-114868095D01*
X130500000Y-114915714D01*
X130452380Y-115010952D01*
X130452380Y-115201428D01*
X130500000Y-115296666D01*
X130547619Y-115344285D01*
X130642857Y-115391904D01*
X130690476Y-115391904D01*
X130785714Y-115344285D01*
X130833333Y-115296666D01*
X130880952Y-115201428D01*
X130880952Y-115010952D01*
X130928571Y-114915714D01*
X130976190Y-114868095D01*
X131071428Y-114820476D01*
X131261904Y-114820476D01*
X131357142Y-114868095D01*
X131404761Y-114915714D01*
X131452380Y-115010952D01*
X131452380Y-115201428D01*
X131404761Y-115296666D01*
X131357142Y-115344285D01*
X131261904Y-115391904D01*
X131071428Y-115391904D01*
X130976190Y-115344285D01*
X130928571Y-115296666D01*
X130880952Y-115201428D01*
X128857142Y-114439523D02*
X128904761Y-114391904D01*
X128952380Y-114249047D01*
X128952380Y-114153809D01*
X128904761Y-114010952D01*
X128809523Y-113915714D01*
X128714285Y-113868095D01*
X128523809Y-113820476D01*
X128380952Y-113820476D01*
X128190476Y-113868095D01*
X128095238Y-113915714D01*
X128000000Y-114010952D01*
X127952380Y-114153809D01*
X127952380Y-114249047D01*
X128000000Y-114391904D01*
X128047619Y-114439523D01*
X128952380Y-114915714D02*
X128952380Y-115106190D01*
X128904761Y-115201428D01*
X128857142Y-115249047D01*
X128714285Y-115344285D01*
X128523809Y-115391904D01*
X128142857Y-115391904D01*
X128047619Y-115344285D01*
X128000000Y-115296666D01*
X127952380Y-115201428D01*
X127952380Y-115010952D01*
X128000000Y-114915714D01*
X128047619Y-114868095D01*
X128142857Y-114820476D01*
X128380952Y-114820476D01*
X128476190Y-114868095D01*
X128523809Y-114915714D01*
X128571428Y-115010952D01*
X128571428Y-115201428D01*
X128523809Y-115296666D01*
X128476190Y-115344285D01*
X128380952Y-115391904D01*
D13*
X185370000Y-112180000D02*
X185370000Y-118180000D01*
X185370000Y-118180000D02*
X164850000Y-118180000D01*
X164850000Y-118180000D02*
X164850000Y-112180000D01*
X164850000Y-112180000D02*
X185370000Y-112180000D01*
X184000000Y-118180000D02*
X184000000Y-117180000D01*
X184000000Y-117180000D02*
X178920000Y-117180000D01*
X178920000Y-117180000D02*
X178920000Y-118180000D01*
X184000000Y-117180000D02*
X183750000Y-116750000D01*
X183750000Y-116750000D02*
X178920000Y-116750000D01*
X178920000Y-116750000D02*
X178920000Y-117180000D01*
X183750000Y-118180000D02*
X183750000Y-117180000D01*
X166220000Y-118180000D02*
X166220000Y-117180000D01*
X166220000Y-117180000D02*
X171300000Y-117180000D01*
X171300000Y-117180000D02*
X171300000Y-118180000D01*
X166220000Y-117180000D02*
X166470000Y-116750000D01*
X166470000Y-116750000D02*
X171300000Y-116750000D01*
X171300000Y-116750000D02*
X171300000Y-117180000D01*
X166470000Y-118180000D02*
X166470000Y-117180000D01*
X184800000Y-112180000D02*
X184800000Y-112800000D01*
X184800000Y-112800000D02*
X183200000Y-112800000D01*
X183200000Y-112800000D02*
X183200000Y-112180000D01*
X182260000Y-112180000D02*
X182260000Y-112800000D01*
X182260000Y-112800000D02*
X180660000Y-112800000D01*
X180660000Y-112800000D02*
X180660000Y-112180000D01*
X179720000Y-112180000D02*
X179720000Y-112800000D01*
X179720000Y-112800000D02*
X178120000Y-112800000D01*
X178120000Y-112800000D02*
X178120000Y-112180000D01*
X177180000Y-112180000D02*
X177180000Y-112800000D01*
X177180000Y-112800000D02*
X175580000Y-112800000D01*
X175580000Y-112800000D02*
X175580000Y-112180000D01*
X174640000Y-112180000D02*
X174640000Y-112800000D01*
X174640000Y-112800000D02*
X173040000Y-112800000D01*
X173040000Y-112800000D02*
X173040000Y-112180000D01*
X172100000Y-112180000D02*
X172100000Y-112800000D01*
X172100000Y-112800000D02*
X170500000Y-112800000D01*
X170500000Y-112800000D02*
X170500000Y-112180000D01*
X169560000Y-112180000D02*
X169560000Y-112800000D01*
X169560000Y-112800000D02*
X167960000Y-112800000D01*
X167960000Y-112800000D02*
X167960000Y-112180000D01*
X167020000Y-112180000D02*
X167020000Y-112800000D01*
X167020000Y-112800000D02*
X165420000Y-112800000D01*
X165420000Y-112800000D02*
X165420000Y-112180000D01*
D14*
X221400000Y-92500000D02*
X221400000Y-93050000D01*
X221400000Y-93050000D02*
X216600000Y-93050000D01*
X216600000Y-93050000D02*
X216600000Y-92500000D01*
X216600000Y-83500000D02*
X216600000Y-82950000D01*
X216600000Y-82950000D02*
X221400000Y-82950000D01*
X221400000Y-82950000D02*
X221400000Y-83500000D01*
D13*
X235500000Y-83850000D02*
X235500000Y-82150000D01*
X235550000Y-82150000D02*
X239600000Y-82150000D01*
X235550000Y-83850000D02*
X239600000Y-83850000D01*
X235500000Y-86850000D02*
X235500000Y-85150000D01*
X235550000Y-85150000D02*
X239600000Y-85150000D01*
X235550000Y-86850000D02*
X239600000Y-86850000D01*
X210450000Y-112900000D02*
X211150000Y-112900000D01*
X211150000Y-111700000D02*
X210450000Y-111700000D01*
X203100000Y-100750000D02*
X203100000Y-100050000D01*
X201900000Y-100050000D02*
X201900000Y-100750000D01*
X202610000Y-113430000D02*
X201910000Y-113430000D01*
X201910000Y-114630000D02*
X202610000Y-114630000D01*
X197750000Y-108270000D02*
X197050000Y-108270000D01*
X197050000Y-109470000D02*
X197750000Y-109470000D01*
X185400000Y-106450000D02*
X185400000Y-107150000D01*
X186600000Y-107150000D02*
X186600000Y-106450000D01*
X181900000Y-106450000D02*
X181900000Y-107150000D01*
X183100000Y-107150000D02*
X183100000Y-106450000D01*
X179600000Y-107150000D02*
X179600000Y-106450000D01*
X178400000Y-106450000D02*
X178400000Y-107150000D01*
X174900000Y-106450000D02*
X174900000Y-107150000D01*
X176100000Y-107150000D02*
X176100000Y-106450000D01*
X172600000Y-107150000D02*
X172600000Y-106450000D01*
X171400000Y-106450000D02*
X171400000Y-107150000D01*
X167900000Y-106450000D02*
X167900000Y-107150000D01*
X169100000Y-107150000D02*
X169100000Y-106450000D01*
X164250000Y-97200000D02*
X163550000Y-97200000D01*
X163550000Y-98400000D02*
X164250000Y-98400000D01*
X163550000Y-96400000D02*
X164250000Y-96400000D01*
X164250000Y-95200000D02*
X163550000Y-95200000D01*
X191200000Y-116800000D02*
X191200000Y-117500000D01*
X192400000Y-117500000D02*
X192400000Y-116800000D01*
X128400000Y-105950000D02*
X128400000Y-105250000D01*
X127200000Y-105250000D02*
X127200000Y-105950000D01*
X126400000Y-105950000D02*
X126400000Y-105250000D01*
X125200000Y-105250000D02*
X125200000Y-105950000D01*
X255600000Y-107850000D02*
X255600000Y-112950000D01*
X255560000Y-107850000D02*
X255560000Y-109420000D01*
X255560000Y-111380000D02*
X255560000Y-112950000D01*
X255520000Y-107851000D02*
X255520000Y-109420000D01*
X255520000Y-111380000D02*
X255520000Y-112949000D01*
X255480000Y-107852000D02*
X255480000Y-109420000D01*
X255480000Y-111380000D02*
X255480000Y-112948000D01*
X255440000Y-107854000D02*
X255440000Y-109420000D01*
X255440000Y-111380000D02*
X255440000Y-112946000D01*
X255400000Y-107857000D02*
X255400000Y-109420000D01*
X255400000Y-111380000D02*
X255400000Y-112943000D01*
X255360000Y-107861000D02*
X255360000Y-109420000D01*
X255360000Y-111380000D02*
X255360000Y-112939000D01*
X255320000Y-107865000D02*
X255320000Y-109420000D01*
X255320000Y-111380000D02*
X255320000Y-112935000D01*
X255280000Y-107869000D02*
X255280000Y-109420000D01*
X255280000Y-111380000D02*
X255280000Y-112931000D01*
X255240000Y-107875000D02*
X255240000Y-109420000D01*
X255240000Y-111380000D02*
X255240000Y-112925000D01*
X255200000Y-107881000D02*
X255200000Y-109420000D01*
X255200000Y-111380000D02*
X255200000Y-112919000D01*
X255160000Y-107887000D02*
X255160000Y-109420000D01*
X255160000Y-111380000D02*
X255160000Y-112913000D01*
X255120000Y-107894000D02*
X255120000Y-109420000D01*
X255120000Y-111380000D02*
X255120000Y-112906000D01*
X255080000Y-107902000D02*
X255080000Y-109420000D01*
X255080000Y-111380000D02*
X255080000Y-112898000D01*
X255040000Y-107911000D02*
X255040000Y-109420000D01*
X255040000Y-111380000D02*
X255040000Y-112889000D01*
X255000000Y-107920000D02*
X255000000Y-109420000D01*
X255000000Y-111380000D02*
X255000000Y-112880000D01*
X254960000Y-107930000D02*
X254960000Y-109420000D01*
X254960000Y-111380000D02*
X254960000Y-112870000D01*
X254920000Y-107940000D02*
X254920000Y-109420000D01*
X254920000Y-111380000D02*
X254920000Y-112860000D01*
X254879000Y-107952000D02*
X254879000Y-109420000D01*
X254879000Y-111380000D02*
X254879000Y-112848000D01*
X254839000Y-107964000D02*
X254839000Y-109420000D01*
X254839000Y-111380000D02*
X254839000Y-112836000D01*
X254799000Y-107976000D02*
X254799000Y-109420000D01*
X254799000Y-111380000D02*
X254799000Y-112824000D01*
X254759000Y-107990000D02*
X254759000Y-109420000D01*
X254759000Y-111380000D02*
X254759000Y-112810000D01*
X254719000Y-108004000D02*
X254719000Y-109420000D01*
X254719000Y-111380000D02*
X254719000Y-112796000D01*
X254679000Y-108018000D02*
X254679000Y-109420000D01*
X254679000Y-111380000D02*
X254679000Y-112782000D01*
X254639000Y-108034000D02*
X254639000Y-109420000D01*
X254639000Y-111380000D02*
X254639000Y-112766000D01*
X254599000Y-108050000D02*
X254599000Y-109420000D01*
X254599000Y-111380000D02*
X254599000Y-112750000D01*
X254559000Y-108067000D02*
X254559000Y-109420000D01*
X254559000Y-111380000D02*
X254559000Y-112733000D01*
X254519000Y-108085000D02*
X254519000Y-109420000D01*
X254519000Y-111380000D02*
X254519000Y-112715000D01*
X254479000Y-108104000D02*
X254479000Y-109420000D01*
X254479000Y-111380000D02*
X254479000Y-112696000D01*
X254439000Y-108124000D02*
X254439000Y-109420000D01*
X254439000Y-111380000D02*
X254439000Y-112676000D01*
X254399000Y-108144000D02*
X254399000Y-109420000D01*
X254399000Y-111380000D02*
X254399000Y-112656000D01*
X254359000Y-108166000D02*
X254359000Y-109420000D01*
X254359000Y-111380000D02*
X254359000Y-112634000D01*
X254319000Y-108188000D02*
X254319000Y-109420000D01*
X254319000Y-111380000D02*
X254319000Y-112612000D01*
X254279000Y-108211000D02*
X254279000Y-109420000D01*
X254279000Y-111380000D02*
X254279000Y-112589000D01*
X254239000Y-108235000D02*
X254239000Y-109420000D01*
X254239000Y-111380000D02*
X254239000Y-112565000D01*
X254199000Y-108260000D02*
X254199000Y-109420000D01*
X254199000Y-111380000D02*
X254199000Y-112540000D01*
X254159000Y-108287000D02*
X254159000Y-109420000D01*
X254159000Y-111380000D02*
X254159000Y-112513000D01*
X254119000Y-108314000D02*
X254119000Y-109420000D01*
X254119000Y-111380000D02*
X254119000Y-112486000D01*
X254079000Y-108342000D02*
X254079000Y-109420000D01*
X254079000Y-111380000D02*
X254079000Y-112458000D01*
X254039000Y-108372000D02*
X254039000Y-109420000D01*
X254039000Y-111380000D02*
X254039000Y-112428000D01*
X253999000Y-108403000D02*
X253999000Y-109420000D01*
X253999000Y-111380000D02*
X253999000Y-112397000D01*
X253959000Y-108435000D02*
X253959000Y-109420000D01*
X253959000Y-111380000D02*
X253959000Y-112365000D01*
X253919000Y-108468000D02*
X253919000Y-109420000D01*
X253919000Y-111380000D02*
X253919000Y-112332000D01*
X253879000Y-108503000D02*
X253879000Y-109420000D01*
X253879000Y-111380000D02*
X253879000Y-112297000D01*
X253839000Y-108539000D02*
X253839000Y-109420000D01*
X253839000Y-111380000D02*
X253839000Y-112261000D01*
X253799000Y-108577000D02*
X253799000Y-109420000D01*
X253799000Y-111380000D02*
X253799000Y-112223000D01*
X253759000Y-108617000D02*
X253759000Y-109420000D01*
X253759000Y-111380000D02*
X253759000Y-112183000D01*
X253719000Y-108658000D02*
X253719000Y-109420000D01*
X253719000Y-111380000D02*
X253719000Y-112142000D01*
X253679000Y-108701000D02*
X253679000Y-109420000D01*
X253679000Y-111380000D02*
X253679000Y-112099000D01*
X253639000Y-108746000D02*
X253639000Y-109420000D01*
X253639000Y-111380000D02*
X253639000Y-112054000D01*
X253599000Y-108794000D02*
X253599000Y-112006000D01*
X253559000Y-108844000D02*
X253559000Y-111956000D01*
X253519000Y-108896000D02*
X253519000Y-111904000D01*
X253479000Y-108952000D02*
X253479000Y-111848000D01*
X253439000Y-109010000D02*
X253439000Y-111790000D01*
X253399000Y-109073000D02*
X253399000Y-111727000D01*
X253359000Y-109139000D02*
X253359000Y-111661000D01*
X253319000Y-109211000D02*
X253319000Y-111589000D01*
X253279000Y-109288000D02*
X253279000Y-111512000D01*
X253239000Y-109372000D02*
X253239000Y-111428000D01*
X253199000Y-109466000D02*
X253199000Y-111334000D01*
X253159000Y-109571000D02*
X253159000Y-111229000D01*
X253119000Y-109693000D02*
X253119000Y-111107000D01*
X253079000Y-109841000D02*
X253079000Y-110959000D01*
X253039000Y-110046000D02*
X253039000Y-110754000D01*
X258800000Y-110400000D02*
X257600000Y-110400000D01*
X258200000Y-109750000D02*
X258200000Y-111050000D01*
X253294278Y-111579723D02*
G75*
G02*
X253294420Y-109220000I2305722J1179723D01*
G01*
X253294278Y-111579723D02*
G75*
G03*
X257905580Y-111580000I2305722J1179723D01*
G01*
X253294278Y-109220277D02*
G75*
G02*
X257905580Y-109220000I2305722J-1179723D01*
G01*
X260280000Y-102200000D02*
X260280000Y-100200000D01*
X262320000Y-100200000D02*
X262320000Y-102200000D01*
X264100000Y-100650000D02*
X264100000Y-99950000D01*
X262900000Y-99950000D02*
X262900000Y-100650000D01*
X259900000Y-93400000D02*
X259900000Y-94100000D01*
X261100000Y-94100000D02*
X261100000Y-93400000D01*
X266500000Y-75730000D02*
X268500000Y-75730000D01*
X268500000Y-77770000D02*
X266500000Y-77770000D01*
X267400000Y-75050000D02*
X267400000Y-69950000D01*
X267440000Y-75050000D02*
X267440000Y-73480000D01*
X267440000Y-71520000D02*
X267440000Y-69950000D01*
X267480000Y-75049000D02*
X267480000Y-73480000D01*
X267480000Y-71520000D02*
X267480000Y-69951000D01*
X267520000Y-75048000D02*
X267520000Y-73480000D01*
X267520000Y-71520000D02*
X267520000Y-69952000D01*
X267560000Y-75046000D02*
X267560000Y-73480000D01*
X267560000Y-71520000D02*
X267560000Y-69954000D01*
X267600000Y-75043000D02*
X267600000Y-73480000D01*
X267600000Y-71520000D02*
X267600000Y-69957000D01*
X267640000Y-75039000D02*
X267640000Y-73480000D01*
X267640000Y-71520000D02*
X267640000Y-69961000D01*
X267680000Y-75035000D02*
X267680000Y-73480000D01*
X267680000Y-71520000D02*
X267680000Y-69965000D01*
X267720000Y-75031000D02*
X267720000Y-73480000D01*
X267720000Y-71520000D02*
X267720000Y-69969000D01*
X267760000Y-75025000D02*
X267760000Y-73480000D01*
X267760000Y-71520000D02*
X267760000Y-69975000D01*
X267800000Y-75019000D02*
X267800000Y-73480000D01*
X267800000Y-71520000D02*
X267800000Y-69981000D01*
X267840000Y-75013000D02*
X267840000Y-73480000D01*
X267840000Y-71520000D02*
X267840000Y-69987000D01*
X267880000Y-75006000D02*
X267880000Y-73480000D01*
X267880000Y-71520000D02*
X267880000Y-69994000D01*
X267920000Y-74998000D02*
X267920000Y-73480000D01*
X267920000Y-71520000D02*
X267920000Y-70002000D01*
X267960000Y-74989000D02*
X267960000Y-73480000D01*
X267960000Y-71520000D02*
X267960000Y-70011000D01*
X268000000Y-74980000D02*
X268000000Y-73480000D01*
X268000000Y-71520000D02*
X268000000Y-70020000D01*
X268040000Y-74970000D02*
X268040000Y-73480000D01*
X268040000Y-71520000D02*
X268040000Y-70030000D01*
X268080000Y-74960000D02*
X268080000Y-73480000D01*
X268080000Y-71520000D02*
X268080000Y-70040000D01*
X268121000Y-74948000D02*
X268121000Y-73480000D01*
X268121000Y-71520000D02*
X268121000Y-70052000D01*
X268161000Y-74936000D02*
X268161000Y-73480000D01*
X268161000Y-71520000D02*
X268161000Y-70064000D01*
X268201000Y-74924000D02*
X268201000Y-73480000D01*
X268201000Y-71520000D02*
X268201000Y-70076000D01*
X268241000Y-74910000D02*
X268241000Y-73480000D01*
X268241000Y-71520000D02*
X268241000Y-70090000D01*
X268281000Y-74896000D02*
X268281000Y-73480000D01*
X268281000Y-71520000D02*
X268281000Y-70104000D01*
X268321000Y-74882000D02*
X268321000Y-73480000D01*
X268321000Y-71520000D02*
X268321000Y-70118000D01*
X268361000Y-74866000D02*
X268361000Y-73480000D01*
X268361000Y-71520000D02*
X268361000Y-70134000D01*
X268401000Y-74850000D02*
X268401000Y-73480000D01*
X268401000Y-71520000D02*
X268401000Y-70150000D01*
X268441000Y-74833000D02*
X268441000Y-73480000D01*
X268441000Y-71520000D02*
X268441000Y-70167000D01*
X268481000Y-74815000D02*
X268481000Y-73480000D01*
X268481000Y-71520000D02*
X268481000Y-70185000D01*
X268521000Y-74796000D02*
X268521000Y-73480000D01*
X268521000Y-71520000D02*
X268521000Y-70204000D01*
X268561000Y-74776000D02*
X268561000Y-73480000D01*
X268561000Y-71520000D02*
X268561000Y-70224000D01*
X268601000Y-74756000D02*
X268601000Y-73480000D01*
X268601000Y-71520000D02*
X268601000Y-70244000D01*
X268641000Y-74734000D02*
X268641000Y-73480000D01*
X268641000Y-71520000D02*
X268641000Y-70266000D01*
X268681000Y-74712000D02*
X268681000Y-73480000D01*
X268681000Y-71520000D02*
X268681000Y-70288000D01*
X268721000Y-74689000D02*
X268721000Y-73480000D01*
X268721000Y-71520000D02*
X268721000Y-70311000D01*
X268761000Y-74665000D02*
X268761000Y-73480000D01*
X268761000Y-71520000D02*
X268761000Y-70335000D01*
X268801000Y-74640000D02*
X268801000Y-73480000D01*
X268801000Y-71520000D02*
X268801000Y-70360000D01*
X268841000Y-74613000D02*
X268841000Y-73480000D01*
X268841000Y-71520000D02*
X268841000Y-70387000D01*
X268881000Y-74586000D02*
X268881000Y-73480000D01*
X268881000Y-71520000D02*
X268881000Y-70414000D01*
X268921000Y-74558000D02*
X268921000Y-73480000D01*
X268921000Y-71520000D02*
X268921000Y-70442000D01*
X268961000Y-74528000D02*
X268961000Y-73480000D01*
X268961000Y-71520000D02*
X268961000Y-70472000D01*
X269001000Y-74497000D02*
X269001000Y-73480000D01*
X269001000Y-71520000D02*
X269001000Y-70503000D01*
X269041000Y-74465000D02*
X269041000Y-73480000D01*
X269041000Y-71520000D02*
X269041000Y-70535000D01*
X269081000Y-74432000D02*
X269081000Y-73480000D01*
X269081000Y-71520000D02*
X269081000Y-70568000D01*
X269121000Y-74397000D02*
X269121000Y-73480000D01*
X269121000Y-71520000D02*
X269121000Y-70603000D01*
X269161000Y-74361000D02*
X269161000Y-73480000D01*
X269161000Y-71520000D02*
X269161000Y-70639000D01*
X269201000Y-74323000D02*
X269201000Y-73480000D01*
X269201000Y-71520000D02*
X269201000Y-70677000D01*
X269241000Y-74283000D02*
X269241000Y-73480000D01*
X269241000Y-71520000D02*
X269241000Y-70717000D01*
X269281000Y-74242000D02*
X269281000Y-73480000D01*
X269281000Y-71520000D02*
X269281000Y-70758000D01*
X269321000Y-74199000D02*
X269321000Y-73480000D01*
X269321000Y-71520000D02*
X269321000Y-70801000D01*
X269361000Y-74154000D02*
X269361000Y-73480000D01*
X269361000Y-71520000D02*
X269361000Y-70846000D01*
X269401000Y-74106000D02*
X269401000Y-70894000D01*
X269441000Y-74056000D02*
X269441000Y-70944000D01*
X269481000Y-74004000D02*
X269481000Y-70996000D01*
X269521000Y-73948000D02*
X269521000Y-71052000D01*
X269561000Y-73890000D02*
X269561000Y-71110000D01*
X269601000Y-73827000D02*
X269601000Y-71173000D01*
X269641000Y-73761000D02*
X269641000Y-71239000D01*
X269681000Y-73689000D02*
X269681000Y-71311000D01*
X269721000Y-73612000D02*
X269721000Y-71388000D01*
X269761000Y-73528000D02*
X269761000Y-71472000D01*
X269801000Y-73434000D02*
X269801000Y-71566000D01*
X269841000Y-73329000D02*
X269841000Y-71671000D01*
X269881000Y-73207000D02*
X269881000Y-71793000D01*
X269921000Y-73059000D02*
X269921000Y-71941000D01*
X269961000Y-72854000D02*
X269961000Y-72146000D01*
X264200000Y-72500000D02*
X265400000Y-72500000D01*
X264800000Y-73150000D02*
X264800000Y-71850000D01*
X269705722Y-71320277D02*
G75*
G02*
X269705580Y-73680000I-2305722J-1179723D01*
G01*
X269705722Y-71320277D02*
G75*
G03*
X265094420Y-71320000I-2305722J-1179723D01*
G01*
X269705722Y-73679723D02*
G75*
G02*
X265094420Y-73680000I-2305722J1179723D01*
G01*
X264800000Y-66650000D02*
X264800000Y-65350000D01*
X264200000Y-66000000D02*
X265400000Y-66000000D01*
X269961000Y-66354000D02*
X269961000Y-65646000D01*
X269921000Y-66559000D02*
X269921000Y-65441000D01*
X269881000Y-66707000D02*
X269881000Y-65293000D01*
X269841000Y-66829000D02*
X269841000Y-65171000D01*
X269801000Y-66934000D02*
X269801000Y-65066000D01*
X269761000Y-67028000D02*
X269761000Y-64972000D01*
X269721000Y-67112000D02*
X269721000Y-64888000D01*
X269681000Y-67189000D02*
X269681000Y-64811000D01*
X269641000Y-67261000D02*
X269641000Y-64739000D01*
X269601000Y-67327000D02*
X269601000Y-64673000D01*
X269561000Y-67390000D02*
X269561000Y-64610000D01*
X269521000Y-67448000D02*
X269521000Y-64552000D01*
X269481000Y-67504000D02*
X269481000Y-64496000D01*
X269441000Y-67556000D02*
X269441000Y-64444000D01*
X269401000Y-67606000D02*
X269401000Y-64394000D01*
X269361000Y-65020000D02*
X269361000Y-64346000D01*
X269361000Y-67654000D02*
X269361000Y-66980000D01*
X269321000Y-65020000D02*
X269321000Y-64301000D01*
X269321000Y-67699000D02*
X269321000Y-66980000D01*
X269281000Y-65020000D02*
X269281000Y-64258000D01*
X269281000Y-67742000D02*
X269281000Y-66980000D01*
X269241000Y-65020000D02*
X269241000Y-64217000D01*
X269241000Y-67783000D02*
X269241000Y-66980000D01*
X269201000Y-65020000D02*
X269201000Y-64177000D01*
X269201000Y-67823000D02*
X269201000Y-66980000D01*
X269161000Y-65020000D02*
X269161000Y-64139000D01*
X269161000Y-67861000D02*
X269161000Y-66980000D01*
X269121000Y-65020000D02*
X269121000Y-64103000D01*
X269121000Y-67897000D02*
X269121000Y-66980000D01*
X269081000Y-65020000D02*
X269081000Y-64068000D01*
X269081000Y-67932000D02*
X269081000Y-66980000D01*
X269041000Y-65020000D02*
X269041000Y-64035000D01*
X269041000Y-67965000D02*
X269041000Y-66980000D01*
X269001000Y-65020000D02*
X269001000Y-64003000D01*
X269001000Y-67997000D02*
X269001000Y-66980000D01*
X268961000Y-65020000D02*
X268961000Y-63972000D01*
X268961000Y-68028000D02*
X268961000Y-66980000D01*
X268921000Y-65020000D02*
X268921000Y-63942000D01*
X268921000Y-68058000D02*
X268921000Y-66980000D01*
X268881000Y-65020000D02*
X268881000Y-63914000D01*
X268881000Y-68086000D02*
X268881000Y-66980000D01*
X268841000Y-65020000D02*
X268841000Y-63887000D01*
X268841000Y-68113000D02*
X268841000Y-66980000D01*
X268801000Y-65020000D02*
X268801000Y-63860000D01*
X268801000Y-68140000D02*
X268801000Y-66980000D01*
X268761000Y-65020000D02*
X268761000Y-63835000D01*
X268761000Y-68165000D02*
X268761000Y-66980000D01*
X268721000Y-65020000D02*
X268721000Y-63811000D01*
X268721000Y-68189000D02*
X268721000Y-66980000D01*
X268681000Y-65020000D02*
X268681000Y-63788000D01*
X268681000Y-68212000D02*
X268681000Y-66980000D01*
X268641000Y-65020000D02*
X268641000Y-63766000D01*
X268641000Y-68234000D02*
X268641000Y-66980000D01*
X268601000Y-65020000D02*
X268601000Y-63744000D01*
X268601000Y-68256000D02*
X268601000Y-66980000D01*
X268561000Y-65020000D02*
X268561000Y-63724000D01*
X268561000Y-68276000D02*
X268561000Y-66980000D01*
X268521000Y-65020000D02*
X268521000Y-63704000D01*
X268521000Y-68296000D02*
X268521000Y-66980000D01*
X268481000Y-65020000D02*
X268481000Y-63685000D01*
X268481000Y-68315000D02*
X268481000Y-66980000D01*
X268441000Y-65020000D02*
X268441000Y-63667000D01*
X268441000Y-68333000D02*
X268441000Y-66980000D01*
X268401000Y-65020000D02*
X268401000Y-63650000D01*
X268401000Y-68350000D02*
X268401000Y-66980000D01*
X268361000Y-65020000D02*
X268361000Y-63634000D01*
X268361000Y-68366000D02*
X268361000Y-66980000D01*
X268321000Y-65020000D02*
X268321000Y-63618000D01*
X268321000Y-68382000D02*
X268321000Y-66980000D01*
X268281000Y-65020000D02*
X268281000Y-63604000D01*
X268281000Y-68396000D02*
X268281000Y-66980000D01*
X268241000Y-65020000D02*
X268241000Y-63590000D01*
X268241000Y-68410000D02*
X268241000Y-66980000D01*
X268201000Y-65020000D02*
X268201000Y-63576000D01*
X268201000Y-68424000D02*
X268201000Y-66980000D01*
X268161000Y-65020000D02*
X268161000Y-63564000D01*
X268161000Y-68436000D02*
X268161000Y-66980000D01*
X268121000Y-65020000D02*
X268121000Y-63552000D01*
X268121000Y-68448000D02*
X268121000Y-66980000D01*
X268080000Y-65020000D02*
X268080000Y-63540000D01*
X268080000Y-68460000D02*
X268080000Y-66980000D01*
X268040000Y-65020000D02*
X268040000Y-63530000D01*
X268040000Y-68470000D02*
X268040000Y-66980000D01*
X268000000Y-65020000D02*
X268000000Y-63520000D01*
X268000000Y-68480000D02*
X268000000Y-66980000D01*
X267960000Y-65020000D02*
X267960000Y-63511000D01*
X267960000Y-68489000D02*
X267960000Y-66980000D01*
X267920000Y-65020000D02*
X267920000Y-63502000D01*
X267920000Y-68498000D02*
X267920000Y-66980000D01*
X267880000Y-65020000D02*
X267880000Y-63494000D01*
X267880000Y-68506000D02*
X267880000Y-66980000D01*
X267840000Y-65020000D02*
X267840000Y-63487000D01*
X267840000Y-68513000D02*
X267840000Y-66980000D01*
X267800000Y-65020000D02*
X267800000Y-63481000D01*
X267800000Y-68519000D02*
X267800000Y-66980000D01*
X267760000Y-65020000D02*
X267760000Y-63475000D01*
X267760000Y-68525000D02*
X267760000Y-66980000D01*
X267720000Y-65020000D02*
X267720000Y-63469000D01*
X267720000Y-68531000D02*
X267720000Y-66980000D01*
X267680000Y-65020000D02*
X267680000Y-63465000D01*
X267680000Y-68535000D02*
X267680000Y-66980000D01*
X267640000Y-65020000D02*
X267640000Y-63461000D01*
X267640000Y-68539000D02*
X267640000Y-66980000D01*
X267600000Y-65020000D02*
X267600000Y-63457000D01*
X267600000Y-68543000D02*
X267600000Y-66980000D01*
X267560000Y-65020000D02*
X267560000Y-63454000D01*
X267560000Y-68546000D02*
X267560000Y-66980000D01*
X267520000Y-65020000D02*
X267520000Y-63452000D01*
X267520000Y-68548000D02*
X267520000Y-66980000D01*
X267480000Y-65020000D02*
X267480000Y-63451000D01*
X267480000Y-68549000D02*
X267480000Y-66980000D01*
X267440000Y-65020000D02*
X267440000Y-63450000D01*
X267440000Y-68550000D02*
X267440000Y-66980000D01*
X267400000Y-68550000D02*
X267400000Y-63450000D01*
X269705722Y-67179723D02*
G75*
G02*
X265094420Y-67180000I-2305722J1179723D01*
G01*
X269705722Y-64820277D02*
G75*
G03*
X265094420Y-64820000I-2305722J-1179723D01*
G01*
X269705722Y-64820277D02*
G75*
G02*
X269705580Y-67180000I-2305722J-1179723D01*
G01*
X255500000Y-101200000D02*
X255500000Y-106300000D01*
X255460000Y-101200000D02*
X255460000Y-102770000D01*
X255460000Y-104730000D02*
X255460000Y-106300000D01*
X255420000Y-101201000D02*
X255420000Y-102770000D01*
X255420000Y-104730000D02*
X255420000Y-106299000D01*
X255380000Y-101202000D02*
X255380000Y-102770000D01*
X255380000Y-104730000D02*
X255380000Y-106298000D01*
X255340000Y-101204000D02*
X255340000Y-102770000D01*
X255340000Y-104730000D02*
X255340000Y-106296000D01*
X255300000Y-101207000D02*
X255300000Y-102770000D01*
X255300000Y-104730000D02*
X255300000Y-106293000D01*
X255260000Y-101211000D02*
X255260000Y-102770000D01*
X255260000Y-104730000D02*
X255260000Y-106289000D01*
X255220000Y-101215000D02*
X255220000Y-102770000D01*
X255220000Y-104730000D02*
X255220000Y-106285000D01*
X255180000Y-101219000D02*
X255180000Y-102770000D01*
X255180000Y-104730000D02*
X255180000Y-106281000D01*
X255140000Y-101225000D02*
X255140000Y-102770000D01*
X255140000Y-104730000D02*
X255140000Y-106275000D01*
X255100000Y-101231000D02*
X255100000Y-102770000D01*
X255100000Y-104730000D02*
X255100000Y-106269000D01*
X255060000Y-101237000D02*
X255060000Y-102770000D01*
X255060000Y-104730000D02*
X255060000Y-106263000D01*
X255020000Y-101244000D02*
X255020000Y-102770000D01*
X255020000Y-104730000D02*
X255020000Y-106256000D01*
X254980000Y-101252000D02*
X254980000Y-102770000D01*
X254980000Y-104730000D02*
X254980000Y-106248000D01*
X254940000Y-101261000D02*
X254940000Y-102770000D01*
X254940000Y-104730000D02*
X254940000Y-106239000D01*
X254900000Y-101270000D02*
X254900000Y-102770000D01*
X254900000Y-104730000D02*
X254900000Y-106230000D01*
X254860000Y-101280000D02*
X254860000Y-102770000D01*
X254860000Y-104730000D02*
X254860000Y-106220000D01*
X254820000Y-101290000D02*
X254820000Y-102770000D01*
X254820000Y-104730000D02*
X254820000Y-106210000D01*
X254779000Y-101302000D02*
X254779000Y-102770000D01*
X254779000Y-104730000D02*
X254779000Y-106198000D01*
X254739000Y-101314000D02*
X254739000Y-102770000D01*
X254739000Y-104730000D02*
X254739000Y-106186000D01*
X254699000Y-101326000D02*
X254699000Y-102770000D01*
X254699000Y-104730000D02*
X254699000Y-106174000D01*
X254659000Y-101340000D02*
X254659000Y-102770000D01*
X254659000Y-104730000D02*
X254659000Y-106160000D01*
X254619000Y-101354000D02*
X254619000Y-102770000D01*
X254619000Y-104730000D02*
X254619000Y-106146000D01*
X254579000Y-101368000D02*
X254579000Y-102770000D01*
X254579000Y-104730000D02*
X254579000Y-106132000D01*
X254539000Y-101384000D02*
X254539000Y-102770000D01*
X254539000Y-104730000D02*
X254539000Y-106116000D01*
X254499000Y-101400000D02*
X254499000Y-102770000D01*
X254499000Y-104730000D02*
X254499000Y-106100000D01*
X254459000Y-101417000D02*
X254459000Y-102770000D01*
X254459000Y-104730000D02*
X254459000Y-106083000D01*
X254419000Y-101435000D02*
X254419000Y-102770000D01*
X254419000Y-104730000D02*
X254419000Y-106065000D01*
X254379000Y-101454000D02*
X254379000Y-102770000D01*
X254379000Y-104730000D02*
X254379000Y-106046000D01*
X254339000Y-101474000D02*
X254339000Y-102770000D01*
X254339000Y-104730000D02*
X254339000Y-106026000D01*
X254299000Y-101494000D02*
X254299000Y-102770000D01*
X254299000Y-104730000D02*
X254299000Y-106006000D01*
X254259000Y-101516000D02*
X254259000Y-102770000D01*
X254259000Y-104730000D02*
X254259000Y-105984000D01*
X254219000Y-101538000D02*
X254219000Y-102770000D01*
X254219000Y-104730000D02*
X254219000Y-105962000D01*
X254179000Y-101561000D02*
X254179000Y-102770000D01*
X254179000Y-104730000D02*
X254179000Y-105939000D01*
X254139000Y-101585000D02*
X254139000Y-102770000D01*
X254139000Y-104730000D02*
X254139000Y-105915000D01*
X254099000Y-101610000D02*
X254099000Y-102770000D01*
X254099000Y-104730000D02*
X254099000Y-105890000D01*
X254059000Y-101637000D02*
X254059000Y-102770000D01*
X254059000Y-104730000D02*
X254059000Y-105863000D01*
X254019000Y-101664000D02*
X254019000Y-102770000D01*
X254019000Y-104730000D02*
X254019000Y-105836000D01*
X253979000Y-101692000D02*
X253979000Y-102770000D01*
X253979000Y-104730000D02*
X253979000Y-105808000D01*
X253939000Y-101722000D02*
X253939000Y-102770000D01*
X253939000Y-104730000D02*
X253939000Y-105778000D01*
X253899000Y-101753000D02*
X253899000Y-102770000D01*
X253899000Y-104730000D02*
X253899000Y-105747000D01*
X253859000Y-101785000D02*
X253859000Y-102770000D01*
X253859000Y-104730000D02*
X253859000Y-105715000D01*
X253819000Y-101818000D02*
X253819000Y-102770000D01*
X253819000Y-104730000D02*
X253819000Y-105682000D01*
X253779000Y-101853000D02*
X253779000Y-102770000D01*
X253779000Y-104730000D02*
X253779000Y-105647000D01*
X253739000Y-101889000D02*
X253739000Y-102770000D01*
X253739000Y-104730000D02*
X253739000Y-105611000D01*
X253699000Y-101927000D02*
X253699000Y-102770000D01*
X253699000Y-104730000D02*
X253699000Y-105573000D01*
X253659000Y-101967000D02*
X253659000Y-102770000D01*
X253659000Y-104730000D02*
X253659000Y-105533000D01*
X253619000Y-102008000D02*
X253619000Y-102770000D01*
X253619000Y-104730000D02*
X253619000Y-105492000D01*
X253579000Y-102051000D02*
X253579000Y-102770000D01*
X253579000Y-104730000D02*
X253579000Y-105449000D01*
X253539000Y-102096000D02*
X253539000Y-102770000D01*
X253539000Y-104730000D02*
X253539000Y-105404000D01*
X253499000Y-102144000D02*
X253499000Y-105356000D01*
X253459000Y-102194000D02*
X253459000Y-105306000D01*
X253419000Y-102246000D02*
X253419000Y-105254000D01*
X253379000Y-102302000D02*
X253379000Y-105198000D01*
X253339000Y-102360000D02*
X253339000Y-105140000D01*
X253299000Y-102423000D02*
X253299000Y-105077000D01*
X253259000Y-102489000D02*
X253259000Y-105011000D01*
X253219000Y-102561000D02*
X253219000Y-104939000D01*
X253179000Y-102638000D02*
X253179000Y-104862000D01*
X253139000Y-102722000D02*
X253139000Y-104778000D01*
X253099000Y-102816000D02*
X253099000Y-104684000D01*
X253059000Y-102921000D02*
X253059000Y-104579000D01*
X253019000Y-103043000D02*
X253019000Y-104457000D01*
X252979000Y-103191000D02*
X252979000Y-104309000D01*
X252939000Y-103396000D02*
X252939000Y-104104000D01*
X258700000Y-103750000D02*
X257500000Y-103750000D01*
X258100000Y-103100000D02*
X258100000Y-104400000D01*
X253194278Y-104929723D02*
G75*
G02*
X253194420Y-102570000I2305722J1179723D01*
G01*
X253194278Y-104929723D02*
G75*
G03*
X257805580Y-104930000I2305722J1179723D01*
G01*
X253194278Y-102570277D02*
G75*
G02*
X257805580Y-102570000I2305722J-1179723D01*
G01*
X256000000Y-98770000D02*
X254000000Y-98770000D01*
X254000000Y-96730000D02*
X256000000Y-96730000D01*
X251600000Y-98600000D02*
X251600000Y-99900000D01*
X252200000Y-99250000D02*
X251000000Y-99250000D01*
X246439000Y-98896000D02*
X246439000Y-99604000D01*
X246479000Y-98691000D02*
X246479000Y-99809000D01*
X246519000Y-98543000D02*
X246519000Y-99957000D01*
X246559000Y-98421000D02*
X246559000Y-100079000D01*
X246599000Y-98316000D02*
X246599000Y-100184000D01*
X246639000Y-98222000D02*
X246639000Y-100278000D01*
X246679000Y-98138000D02*
X246679000Y-100362000D01*
X246719000Y-98061000D02*
X246719000Y-100439000D01*
X246759000Y-97989000D02*
X246759000Y-100511000D01*
X246799000Y-97923000D02*
X246799000Y-100577000D01*
X246839000Y-97860000D02*
X246839000Y-100640000D01*
X246879000Y-97802000D02*
X246879000Y-100698000D01*
X246919000Y-97746000D02*
X246919000Y-100754000D01*
X246959000Y-97694000D02*
X246959000Y-100806000D01*
X246999000Y-97644000D02*
X246999000Y-100856000D01*
X247039000Y-100230000D02*
X247039000Y-100904000D01*
X247039000Y-97596000D02*
X247039000Y-98270000D01*
X247079000Y-100230000D02*
X247079000Y-100949000D01*
X247079000Y-97551000D02*
X247079000Y-98270000D01*
X247119000Y-100230000D02*
X247119000Y-100992000D01*
X247119000Y-97508000D02*
X247119000Y-98270000D01*
X247159000Y-100230000D02*
X247159000Y-101033000D01*
X247159000Y-97467000D02*
X247159000Y-98270000D01*
X247199000Y-100230000D02*
X247199000Y-101073000D01*
X247199000Y-97427000D02*
X247199000Y-98270000D01*
X247239000Y-100230000D02*
X247239000Y-101111000D01*
X247239000Y-97389000D02*
X247239000Y-98270000D01*
X247279000Y-100230000D02*
X247279000Y-101147000D01*
X247279000Y-97353000D02*
X247279000Y-98270000D01*
X247319000Y-100230000D02*
X247319000Y-101182000D01*
X247319000Y-97318000D02*
X247319000Y-98270000D01*
X247359000Y-100230000D02*
X247359000Y-101215000D01*
X247359000Y-97285000D02*
X247359000Y-98270000D01*
X247399000Y-100230000D02*
X247399000Y-101247000D01*
X247399000Y-97253000D02*
X247399000Y-98270000D01*
X247439000Y-100230000D02*
X247439000Y-101278000D01*
X247439000Y-97222000D02*
X247439000Y-98270000D01*
X247479000Y-100230000D02*
X247479000Y-101308000D01*
X247479000Y-97192000D02*
X247479000Y-98270000D01*
X247519000Y-100230000D02*
X247519000Y-101336000D01*
X247519000Y-97164000D02*
X247519000Y-98270000D01*
X247559000Y-100230000D02*
X247559000Y-101363000D01*
X247559000Y-97137000D02*
X247559000Y-98270000D01*
X247599000Y-100230000D02*
X247599000Y-101390000D01*
X247599000Y-97110000D02*
X247599000Y-98270000D01*
X247639000Y-100230000D02*
X247639000Y-101415000D01*
X247639000Y-97085000D02*
X247639000Y-98270000D01*
X247679000Y-100230000D02*
X247679000Y-101439000D01*
X247679000Y-97061000D02*
X247679000Y-98270000D01*
X247719000Y-100230000D02*
X247719000Y-101462000D01*
X247719000Y-97038000D02*
X247719000Y-98270000D01*
X247759000Y-100230000D02*
X247759000Y-101484000D01*
X247759000Y-97016000D02*
X247759000Y-98270000D01*
X247799000Y-100230000D02*
X247799000Y-101506000D01*
X247799000Y-96994000D02*
X247799000Y-98270000D01*
X247839000Y-100230000D02*
X247839000Y-101526000D01*
X247839000Y-96974000D02*
X247839000Y-98270000D01*
X247879000Y-100230000D02*
X247879000Y-101546000D01*
X247879000Y-96954000D02*
X247879000Y-98270000D01*
X247919000Y-100230000D02*
X247919000Y-101565000D01*
X247919000Y-96935000D02*
X247919000Y-98270000D01*
X247959000Y-100230000D02*
X247959000Y-101583000D01*
X247959000Y-96917000D02*
X247959000Y-98270000D01*
X247999000Y-100230000D02*
X247999000Y-101600000D01*
X247999000Y-96900000D02*
X247999000Y-98270000D01*
X248039000Y-100230000D02*
X248039000Y-101616000D01*
X248039000Y-96884000D02*
X248039000Y-98270000D01*
X248079000Y-100230000D02*
X248079000Y-101632000D01*
X248079000Y-96868000D02*
X248079000Y-98270000D01*
X248119000Y-100230000D02*
X248119000Y-101646000D01*
X248119000Y-96854000D02*
X248119000Y-98270000D01*
X248159000Y-100230000D02*
X248159000Y-101660000D01*
X248159000Y-96840000D02*
X248159000Y-98270000D01*
X248199000Y-100230000D02*
X248199000Y-101674000D01*
X248199000Y-96826000D02*
X248199000Y-98270000D01*
X248239000Y-100230000D02*
X248239000Y-101686000D01*
X248239000Y-96814000D02*
X248239000Y-98270000D01*
X248279000Y-100230000D02*
X248279000Y-101698000D01*
X248279000Y-96802000D02*
X248279000Y-98270000D01*
X248320000Y-100230000D02*
X248320000Y-101710000D01*
X248320000Y-96790000D02*
X248320000Y-98270000D01*
X248360000Y-100230000D02*
X248360000Y-101720000D01*
X248360000Y-96780000D02*
X248360000Y-98270000D01*
X248400000Y-100230000D02*
X248400000Y-101730000D01*
X248400000Y-96770000D02*
X248400000Y-98270000D01*
X248440000Y-100230000D02*
X248440000Y-101739000D01*
X248440000Y-96761000D02*
X248440000Y-98270000D01*
X248480000Y-100230000D02*
X248480000Y-101748000D01*
X248480000Y-96752000D02*
X248480000Y-98270000D01*
X248520000Y-100230000D02*
X248520000Y-101756000D01*
X248520000Y-96744000D02*
X248520000Y-98270000D01*
X248560000Y-100230000D02*
X248560000Y-101763000D01*
X248560000Y-96737000D02*
X248560000Y-98270000D01*
X248600000Y-100230000D02*
X248600000Y-101769000D01*
X248600000Y-96731000D02*
X248600000Y-98270000D01*
X248640000Y-100230000D02*
X248640000Y-101775000D01*
X248640000Y-96725000D02*
X248640000Y-98270000D01*
X248680000Y-100230000D02*
X248680000Y-101781000D01*
X248680000Y-96719000D02*
X248680000Y-98270000D01*
X248720000Y-100230000D02*
X248720000Y-101785000D01*
X248720000Y-96715000D02*
X248720000Y-98270000D01*
X248760000Y-100230000D02*
X248760000Y-101789000D01*
X248760000Y-96711000D02*
X248760000Y-98270000D01*
X248800000Y-100230000D02*
X248800000Y-101793000D01*
X248800000Y-96707000D02*
X248800000Y-98270000D01*
X248840000Y-100230000D02*
X248840000Y-101796000D01*
X248840000Y-96704000D02*
X248840000Y-98270000D01*
X248880000Y-100230000D02*
X248880000Y-101798000D01*
X248880000Y-96702000D02*
X248880000Y-98270000D01*
X248920000Y-100230000D02*
X248920000Y-101799000D01*
X248920000Y-96701000D02*
X248920000Y-98270000D01*
X248960000Y-100230000D02*
X248960000Y-101800000D01*
X248960000Y-96700000D02*
X248960000Y-98270000D01*
X249000000Y-96700000D02*
X249000000Y-101800000D01*
X246694278Y-98070277D02*
G75*
G02*
X251305580Y-98070000I2305722J-1179723D01*
G01*
X246694278Y-100429723D02*
G75*
G03*
X251305580Y-100430000I2305722J1179723D01*
G01*
X246694278Y-100429723D02*
G75*
G02*
X246694420Y-98070000I2305722J1179723D01*
G01*
X251600000Y-107550000D02*
X251600000Y-108850000D01*
X252200000Y-108200000D02*
X251000000Y-108200000D01*
X246439000Y-107846000D02*
X246439000Y-108554000D01*
X246479000Y-107641000D02*
X246479000Y-108759000D01*
X246519000Y-107493000D02*
X246519000Y-108907000D01*
X246559000Y-107371000D02*
X246559000Y-109029000D01*
X246599000Y-107266000D02*
X246599000Y-109134000D01*
X246639000Y-107172000D02*
X246639000Y-109228000D01*
X246679000Y-107088000D02*
X246679000Y-109312000D01*
X246719000Y-107011000D02*
X246719000Y-109389000D01*
X246759000Y-106939000D02*
X246759000Y-109461000D01*
X246799000Y-106873000D02*
X246799000Y-109527000D01*
X246839000Y-106810000D02*
X246839000Y-109590000D01*
X246879000Y-106752000D02*
X246879000Y-109648000D01*
X246919000Y-106696000D02*
X246919000Y-109704000D01*
X246959000Y-106644000D02*
X246959000Y-109756000D01*
X246999000Y-106594000D02*
X246999000Y-109806000D01*
X247039000Y-109180000D02*
X247039000Y-109854000D01*
X247039000Y-106546000D02*
X247039000Y-107220000D01*
X247079000Y-109180000D02*
X247079000Y-109899000D01*
X247079000Y-106501000D02*
X247079000Y-107220000D01*
X247119000Y-109180000D02*
X247119000Y-109942000D01*
X247119000Y-106458000D02*
X247119000Y-107220000D01*
X247159000Y-109180000D02*
X247159000Y-109983000D01*
X247159000Y-106417000D02*
X247159000Y-107220000D01*
X247199000Y-109180000D02*
X247199000Y-110023000D01*
X247199000Y-106377000D02*
X247199000Y-107220000D01*
X247239000Y-109180000D02*
X247239000Y-110061000D01*
X247239000Y-106339000D02*
X247239000Y-107220000D01*
X247279000Y-109180000D02*
X247279000Y-110097000D01*
X247279000Y-106303000D02*
X247279000Y-107220000D01*
X247319000Y-109180000D02*
X247319000Y-110132000D01*
X247319000Y-106268000D02*
X247319000Y-107220000D01*
X247359000Y-109180000D02*
X247359000Y-110165000D01*
X247359000Y-106235000D02*
X247359000Y-107220000D01*
X247399000Y-109180000D02*
X247399000Y-110197000D01*
X247399000Y-106203000D02*
X247399000Y-107220000D01*
X247439000Y-109180000D02*
X247439000Y-110228000D01*
X247439000Y-106172000D02*
X247439000Y-107220000D01*
X247479000Y-109180000D02*
X247479000Y-110258000D01*
X247479000Y-106142000D02*
X247479000Y-107220000D01*
X247519000Y-109180000D02*
X247519000Y-110286000D01*
X247519000Y-106114000D02*
X247519000Y-107220000D01*
X247559000Y-109180000D02*
X247559000Y-110313000D01*
X247559000Y-106087000D02*
X247559000Y-107220000D01*
X247599000Y-109180000D02*
X247599000Y-110340000D01*
X247599000Y-106060000D02*
X247599000Y-107220000D01*
X247639000Y-109180000D02*
X247639000Y-110365000D01*
X247639000Y-106035000D02*
X247639000Y-107220000D01*
X247679000Y-109180000D02*
X247679000Y-110389000D01*
X247679000Y-106011000D02*
X247679000Y-107220000D01*
X247719000Y-109180000D02*
X247719000Y-110412000D01*
X247719000Y-105988000D02*
X247719000Y-107220000D01*
X247759000Y-109180000D02*
X247759000Y-110434000D01*
X247759000Y-105966000D02*
X247759000Y-107220000D01*
X247799000Y-109180000D02*
X247799000Y-110456000D01*
X247799000Y-105944000D02*
X247799000Y-107220000D01*
X247839000Y-109180000D02*
X247839000Y-110476000D01*
X247839000Y-105924000D02*
X247839000Y-107220000D01*
X247879000Y-109180000D02*
X247879000Y-110496000D01*
X247879000Y-105904000D02*
X247879000Y-107220000D01*
X247919000Y-109180000D02*
X247919000Y-110515000D01*
X247919000Y-105885000D02*
X247919000Y-107220000D01*
X247959000Y-109180000D02*
X247959000Y-110533000D01*
X247959000Y-105867000D02*
X247959000Y-107220000D01*
X247999000Y-109180000D02*
X247999000Y-110550000D01*
X247999000Y-105850000D02*
X247999000Y-107220000D01*
X248039000Y-109180000D02*
X248039000Y-110566000D01*
X248039000Y-105834000D02*
X248039000Y-107220000D01*
X248079000Y-109180000D02*
X248079000Y-110582000D01*
X248079000Y-105818000D02*
X248079000Y-107220000D01*
X248119000Y-109180000D02*
X248119000Y-110596000D01*
X248119000Y-105804000D02*
X248119000Y-107220000D01*
X248159000Y-109180000D02*
X248159000Y-110610000D01*
X248159000Y-105790000D02*
X248159000Y-107220000D01*
X248199000Y-109180000D02*
X248199000Y-110624000D01*
X248199000Y-105776000D02*
X248199000Y-107220000D01*
X248239000Y-109180000D02*
X248239000Y-110636000D01*
X248239000Y-105764000D02*
X248239000Y-107220000D01*
X248279000Y-109180000D02*
X248279000Y-110648000D01*
X248279000Y-105752000D02*
X248279000Y-107220000D01*
X248320000Y-109180000D02*
X248320000Y-110660000D01*
X248320000Y-105740000D02*
X248320000Y-107220000D01*
X248360000Y-109180000D02*
X248360000Y-110670000D01*
X248360000Y-105730000D02*
X248360000Y-107220000D01*
X248400000Y-109180000D02*
X248400000Y-110680000D01*
X248400000Y-105720000D02*
X248400000Y-107220000D01*
X248440000Y-109180000D02*
X248440000Y-110689000D01*
X248440000Y-105711000D02*
X248440000Y-107220000D01*
X248480000Y-109180000D02*
X248480000Y-110698000D01*
X248480000Y-105702000D02*
X248480000Y-107220000D01*
X248520000Y-109180000D02*
X248520000Y-110706000D01*
X248520000Y-105694000D02*
X248520000Y-107220000D01*
X248560000Y-109180000D02*
X248560000Y-110713000D01*
X248560000Y-105687000D02*
X248560000Y-107220000D01*
X248600000Y-109180000D02*
X248600000Y-110719000D01*
X248600000Y-105681000D02*
X248600000Y-107220000D01*
X248640000Y-109180000D02*
X248640000Y-110725000D01*
X248640000Y-105675000D02*
X248640000Y-107220000D01*
X248680000Y-109180000D02*
X248680000Y-110731000D01*
X248680000Y-105669000D02*
X248680000Y-107220000D01*
X248720000Y-109180000D02*
X248720000Y-110735000D01*
X248720000Y-105665000D02*
X248720000Y-107220000D01*
X248760000Y-109180000D02*
X248760000Y-110739000D01*
X248760000Y-105661000D02*
X248760000Y-107220000D01*
X248800000Y-109180000D02*
X248800000Y-110743000D01*
X248800000Y-105657000D02*
X248800000Y-107220000D01*
X248840000Y-109180000D02*
X248840000Y-110746000D01*
X248840000Y-105654000D02*
X248840000Y-107220000D01*
X248880000Y-109180000D02*
X248880000Y-110748000D01*
X248880000Y-105652000D02*
X248880000Y-107220000D01*
X248920000Y-109180000D02*
X248920000Y-110749000D01*
X248920000Y-105651000D02*
X248920000Y-107220000D01*
X248960000Y-109180000D02*
X248960000Y-110750000D01*
X248960000Y-105650000D02*
X248960000Y-107220000D01*
X249000000Y-105650000D02*
X249000000Y-110750000D01*
X246694278Y-107020277D02*
G75*
G02*
X251305580Y-107020000I2305722J-1179723D01*
G01*
X246694278Y-109379723D02*
G75*
G03*
X251305580Y-109380000I2305722J1179723D01*
G01*
X246694278Y-109379723D02*
G75*
G02*
X246694420Y-107020000I2305722J1179723D01*
G01*
X238050000Y-99700000D02*
X238750000Y-99700000D01*
X238750000Y-98500000D02*
X238050000Y-98500000D01*
X238750000Y-100100000D02*
X238050000Y-100100000D01*
X238050000Y-101300000D02*
X238750000Y-101300000D01*
X245800000Y-112650000D02*
X245800000Y-113350000D01*
X247000000Y-113350000D02*
X247000000Y-112650000D01*
X242850000Y-98500000D02*
X242150000Y-98500000D01*
X242150000Y-99700000D02*
X242850000Y-99700000D01*
X242850000Y-100000000D02*
X242150000Y-100000000D01*
X242150000Y-101200000D02*
X242850000Y-101200000D01*
X235300000Y-96250000D02*
X235300000Y-96950000D01*
X236500000Y-96950000D02*
X236500000Y-96250000D01*
X204150000Y-85500000D02*
X204850000Y-85500000D01*
X204850000Y-84300000D02*
X204150000Y-84300000D01*
X204150000Y-87200000D02*
X204850000Y-87200000D01*
X204850000Y-86000000D02*
X204150000Y-86000000D01*
X151350000Y-93200000D02*
X150650000Y-93200000D01*
X150650000Y-94400000D02*
X151350000Y-94400000D01*
X215750000Y-93600000D02*
X215050000Y-93600000D01*
X215050000Y-94800000D02*
X215750000Y-94800000D01*
X151350000Y-95200000D02*
X150650000Y-95200000D01*
X150650000Y-96400000D02*
X151350000Y-96400000D01*
X215050000Y-96500000D02*
X215750000Y-96500000D01*
X215750000Y-95300000D02*
X215050000Y-95300000D01*
X199500000Y-113300000D02*
X197100000Y-113300000D01*
X197100000Y-110200000D02*
X200050000Y-110200000D01*
X230610000Y-95050000D02*
X232610000Y-95050000D01*
X232610000Y-95050000D02*
X232610000Y-98900000D01*
X230610000Y-95050000D02*
X230610000Y-98900000D01*
X265980000Y-97630000D02*
X271980000Y-97630000D01*
X271980000Y-97630000D02*
X271980000Y-118150000D01*
X271980000Y-118150000D02*
X265980000Y-118150000D01*
X265980000Y-118150000D02*
X265980000Y-97630000D01*
X271980000Y-99000000D02*
X270980000Y-99000000D01*
X270980000Y-99000000D02*
X270980000Y-104080000D01*
X270980000Y-104080000D02*
X271980000Y-104080000D01*
X270980000Y-99000000D02*
X270550000Y-99250000D01*
X270550000Y-99250000D02*
X270550000Y-104080000D01*
X270550000Y-104080000D02*
X270980000Y-104080000D01*
X271980000Y-99250000D02*
X270980000Y-99250000D01*
X271980000Y-116780000D02*
X270980000Y-116780000D01*
X270980000Y-116780000D02*
X270980000Y-111700000D01*
X270980000Y-111700000D02*
X271980000Y-111700000D01*
X270980000Y-116780000D02*
X270550000Y-116530000D01*
X270550000Y-116530000D02*
X270550000Y-111700000D01*
X270550000Y-111700000D02*
X270980000Y-111700000D01*
X271980000Y-116530000D02*
X270980000Y-116530000D01*
X265980000Y-98200000D02*
X266600000Y-98200000D01*
X266600000Y-98200000D02*
X266600000Y-99800000D01*
X266600000Y-99800000D02*
X265980000Y-99800000D01*
X265980000Y-100740000D02*
X266600000Y-100740000D01*
X266600000Y-100740000D02*
X266600000Y-102340000D01*
X266600000Y-102340000D02*
X265980000Y-102340000D01*
X265980000Y-103280000D02*
X266600000Y-103280000D01*
X266600000Y-103280000D02*
X266600000Y-104880000D01*
X266600000Y-104880000D02*
X265980000Y-104880000D01*
X265980000Y-105820000D02*
X266600000Y-105820000D01*
X266600000Y-105820000D02*
X266600000Y-107420000D01*
X266600000Y-107420000D02*
X265980000Y-107420000D01*
X265980000Y-108360000D02*
X266600000Y-108360000D01*
X266600000Y-108360000D02*
X266600000Y-109960000D01*
X266600000Y-109960000D02*
X265980000Y-109960000D01*
X265980000Y-110900000D02*
X266600000Y-110900000D01*
X266600000Y-110900000D02*
X266600000Y-112500000D01*
X266600000Y-112500000D02*
X265980000Y-112500000D01*
X265980000Y-113440000D02*
X266600000Y-113440000D01*
X266600000Y-113440000D02*
X266600000Y-115040000D01*
X266600000Y-115040000D02*
X265980000Y-115040000D01*
X265980000Y-115980000D02*
X266600000Y-115980000D01*
X266600000Y-115980000D02*
X266600000Y-117580000D01*
X266600000Y-117580000D02*
X265980000Y-117580000D01*
X105600000Y-99180000D02*
X104980000Y-99180000D01*
X105600000Y-97580000D02*
X105600000Y-99180000D01*
X104980000Y-97580000D02*
X105600000Y-97580000D01*
X105600000Y-96640000D02*
X104980000Y-96640000D01*
X105600000Y-95040000D02*
X105600000Y-96640000D01*
X104980000Y-95040000D02*
X105600000Y-95040000D01*
X105600000Y-94100000D02*
X104980000Y-94100000D01*
X105600000Y-92500000D02*
X105600000Y-94100000D01*
X104980000Y-92500000D02*
X105600000Y-92500000D01*
X105600000Y-91560000D02*
X104980000Y-91560000D01*
X105600000Y-89960000D02*
X105600000Y-91560000D01*
X104980000Y-89960000D02*
X105600000Y-89960000D01*
X105600000Y-89020000D02*
X104980000Y-89020000D01*
X105600000Y-87420000D02*
X105600000Y-89020000D01*
X104980000Y-87420000D02*
X105600000Y-87420000D01*
X105600000Y-86480000D02*
X104980000Y-86480000D01*
X105600000Y-84880000D02*
X105600000Y-86480000D01*
X104980000Y-84880000D02*
X105600000Y-84880000D01*
X105600000Y-83940000D02*
X104980000Y-83940000D01*
X105600000Y-82340000D02*
X105600000Y-83940000D01*
X104980000Y-82340000D02*
X105600000Y-82340000D01*
X105600000Y-81400000D02*
X104980000Y-81400000D01*
X105600000Y-79800000D02*
X105600000Y-81400000D01*
X104980000Y-79800000D02*
X105600000Y-79800000D01*
X110980000Y-98130000D02*
X109980000Y-98130000D01*
X109550000Y-93300000D02*
X109980000Y-93300000D01*
X109550000Y-98130000D02*
X109550000Y-93300000D01*
X109980000Y-98380000D02*
X109550000Y-98130000D01*
X109980000Y-93300000D02*
X110980000Y-93300000D01*
X109980000Y-98380000D02*
X109980000Y-93300000D01*
X110980000Y-98380000D02*
X109980000Y-98380000D01*
X110980000Y-80850000D02*
X109980000Y-80850000D01*
X109550000Y-85680000D02*
X109980000Y-85680000D01*
X109550000Y-80850000D02*
X109550000Y-85680000D01*
X109980000Y-80600000D02*
X109550000Y-80850000D01*
X109980000Y-85680000D02*
X110980000Y-85680000D01*
X109980000Y-80600000D02*
X109980000Y-85680000D01*
X110980000Y-80600000D02*
X109980000Y-80600000D01*
X104980000Y-99750000D02*
X104980000Y-79230000D01*
X110980000Y-99750000D02*
X104980000Y-99750000D01*
X110980000Y-79230000D02*
X110980000Y-99750000D01*
X104980000Y-79230000D02*
X110980000Y-79230000D01*
X126630000Y-118220000D02*
X126630000Y-112220000D01*
X126630000Y-112220000D02*
X152230000Y-112220000D01*
X152230000Y-112220000D02*
X152230000Y-118220000D01*
X152230000Y-118220000D02*
X126630000Y-118220000D01*
X128000000Y-112220000D02*
X128000000Y-113220000D01*
X128000000Y-113220000D02*
X133080000Y-113220000D01*
X133080000Y-113220000D02*
X133080000Y-112220000D01*
X128000000Y-113220000D02*
X128250000Y-113650000D01*
X128250000Y-113650000D02*
X133080000Y-113650000D01*
X133080000Y-113650000D02*
X133080000Y-113220000D01*
X128250000Y-112220000D02*
X128250000Y-113220000D01*
X150860000Y-112220000D02*
X150860000Y-113220000D01*
X150860000Y-113220000D02*
X145780000Y-113220000D01*
X145780000Y-113220000D02*
X145780000Y-112220000D01*
X150860000Y-113220000D02*
X150610000Y-113650000D01*
X150610000Y-113650000D02*
X145780000Y-113650000D01*
X145780000Y-113650000D02*
X145780000Y-113220000D01*
X150610000Y-112220000D02*
X150610000Y-113220000D01*
X127200000Y-118220000D02*
X127200000Y-117600000D01*
X127200000Y-117600000D02*
X128800000Y-117600000D01*
X128800000Y-117600000D02*
X128800000Y-118220000D01*
X129740000Y-118220000D02*
X129740000Y-117600000D01*
X129740000Y-117600000D02*
X131340000Y-117600000D01*
X131340000Y-117600000D02*
X131340000Y-118220000D01*
X132280000Y-118220000D02*
X132280000Y-117600000D01*
X132280000Y-117600000D02*
X133880000Y-117600000D01*
X133880000Y-117600000D02*
X133880000Y-118220000D01*
X134820000Y-118220000D02*
X134820000Y-117600000D01*
X134820000Y-117600000D02*
X136420000Y-117600000D01*
X136420000Y-117600000D02*
X136420000Y-118220000D01*
X137360000Y-118220000D02*
X137360000Y-117600000D01*
X137360000Y-117600000D02*
X138960000Y-117600000D01*
X138960000Y-117600000D02*
X138960000Y-118220000D01*
X139900000Y-118220000D02*
X139900000Y-117600000D01*
X139900000Y-117600000D02*
X141500000Y-117600000D01*
X141500000Y-117600000D02*
X141500000Y-118220000D01*
X142440000Y-118220000D02*
X142440000Y-117600000D01*
X142440000Y-117600000D02*
X144040000Y-117600000D01*
X144040000Y-117600000D02*
X144040000Y-118220000D01*
X144980000Y-118220000D02*
X144980000Y-117600000D01*
X144980000Y-117600000D02*
X146580000Y-117600000D01*
X146580000Y-117600000D02*
X146580000Y-118220000D01*
X147520000Y-118220000D02*
X147520000Y-117600000D01*
X147520000Y-117600000D02*
X149120000Y-117600000D01*
X149120000Y-117600000D02*
X149120000Y-118220000D01*
X150060000Y-118220000D02*
X150060000Y-117600000D01*
X150060000Y-117600000D02*
X151660000Y-117600000D01*
X151660000Y-117600000D02*
X151660000Y-118220000D01*
X226875000Y-97770000D02*
X226875000Y-98592470D01*
X226875000Y-100477530D02*
X226875000Y-101300000D01*
X226875000Y-99207530D02*
X226875000Y-99862470D01*
X221860000Y-97770000D02*
X226875000Y-97770000D01*
X220405000Y-101300000D02*
X226875000Y-101300000D01*
X221860000Y-97770000D02*
X221860000Y-98336529D01*
X221860000Y-99463471D02*
X221860000Y-99606529D01*
X221806529Y-99660000D02*
X221663471Y-99660000D01*
X220536529Y-99660000D02*
X220405000Y-99660000D01*
X220405000Y-99660000D02*
X220405000Y-99862470D01*
X220405000Y-100477530D02*
X220405000Y-101300000D01*
X221100000Y-97770000D02*
X220340000Y-97770000D01*
X220340000Y-97770000D02*
X220340000Y-98900000D01*
X193140000Y-109500000D02*
X193140000Y-112500000D01*
X195280000Y-112500000D02*
X195280000Y-109500000D01*
X183520000Y-109400000D02*
X183520000Y-110400000D01*
X184880000Y-110400000D02*
X184880000Y-109400000D01*
X185320000Y-109400000D02*
X185320000Y-110400000D01*
X186680000Y-110400000D02*
X186680000Y-109400000D01*
X181480000Y-110400000D02*
X181480000Y-109400000D01*
X180120000Y-109400000D02*
X180120000Y-110400000D01*
X181820000Y-109400000D02*
X181820000Y-110400000D01*
X183180000Y-110400000D02*
X183180000Y-109400000D01*
X177980000Y-110400000D02*
X177980000Y-109400000D01*
X176620000Y-109400000D02*
X176620000Y-110400000D01*
X178320000Y-109400000D02*
X178320000Y-110400000D01*
X179680000Y-110400000D02*
X179680000Y-109400000D01*
X174480000Y-110400000D02*
X174480000Y-109400000D01*
X173120000Y-109400000D02*
X173120000Y-110400000D01*
X174820000Y-109400000D02*
X174820000Y-110400000D01*
X176180000Y-110400000D02*
X176180000Y-109400000D01*
X170980000Y-110400000D02*
X170980000Y-109400000D01*
X169620000Y-109400000D02*
X169620000Y-110400000D01*
X172680000Y-110400000D02*
X172680000Y-109400000D01*
X171320000Y-109400000D02*
X171320000Y-110400000D01*
X167480000Y-110400000D02*
X167480000Y-109400000D01*
X166120000Y-109400000D02*
X166120000Y-110400000D01*
X167820000Y-109400000D02*
X167820000Y-110400000D01*
X169180000Y-110400000D02*
X169180000Y-109400000D01*
X189320000Y-116650000D02*
X189320000Y-117650000D01*
X190680000Y-117650000D02*
X190680000Y-116650000D01*
X219780000Y-98700000D02*
X219780000Y-97700000D01*
X218420000Y-97700000D02*
X218420000Y-98700000D01*
X270180000Y-80750000D02*
X270180000Y-79750000D01*
X268820000Y-79750000D02*
X268820000Y-80750000D01*
X270180000Y-84250000D02*
X270180000Y-83250000D01*
X268820000Y-83250000D02*
X268820000Y-84250000D01*
X242400000Y-113520000D02*
X241400000Y-113520000D01*
X241400000Y-114880000D02*
X242400000Y-114880000D01*
X236580000Y-100400000D02*
X236580000Y-99400000D01*
X235220000Y-99400000D02*
X235220000Y-100400000D01*
X233320000Y-96100000D02*
X233320000Y-97100000D01*
X234680000Y-97100000D02*
X234680000Y-96100000D01*
X239020000Y-114300000D02*
X239020000Y-115300000D01*
X240380000Y-115300000D02*
X240380000Y-114300000D01*
X230720000Y-113200000D02*
X230720000Y-114200000D01*
X232080000Y-114200000D02*
X232080000Y-113200000D01*
X189180000Y-85900000D02*
X189180000Y-84900000D01*
X187820000Y-84900000D02*
X187820000Y-85900000D01*
X189620000Y-86400000D02*
X189620000Y-87400000D01*
X190980000Y-87400000D02*
X190980000Y-86400000D01*
X184680000Y-102300000D02*
X184680000Y-101300000D01*
X183320000Y-101300000D02*
X183320000Y-102300000D01*
X185120000Y-101300000D02*
X185120000Y-102300000D01*
X186480000Y-102300000D02*
X186480000Y-101300000D01*
X186000000Y-99380000D02*
X187000000Y-99380000D01*
X187000000Y-98020000D02*
X186000000Y-98020000D01*
X187000000Y-95920000D02*
X186000000Y-95920000D01*
X186000000Y-97280000D02*
X187000000Y-97280000D01*
X186000000Y-95280000D02*
X187000000Y-95280000D01*
X187000000Y-93920000D02*
X186000000Y-93920000D01*
D15*
X154550000Y-103500000D02*
G75*
G03*
X154550000Y-103500000I-4300000J0D01*
G01*
D14*
X156500000Y-107500000D02*
X156500000Y-110000000D01*
X156500000Y-110000000D02*
X144000000Y-110000000D01*
X144000000Y-110000000D02*
X144000000Y-107500000D01*
X144000000Y-99500000D02*
X144000000Y-97000000D01*
X144000000Y-97000000D02*
X156500000Y-97000000D01*
X156500000Y-97000000D02*
X156500000Y-99500000D01*
X156500000Y-102500000D02*
X156500000Y-104500000D01*
X144000000Y-104500000D02*
X144000000Y-102500000D01*
X110600000Y-111300000D02*
X110600000Y-109300000D01*
X123100000Y-109300000D02*
X123100000Y-111300000D01*
X123100000Y-103800000D02*
X123100000Y-106300000D01*
X110600000Y-103800000D02*
X123100000Y-103800000D01*
X110600000Y-106300000D02*
X110600000Y-103800000D01*
X110600000Y-116800000D02*
X110600000Y-114300000D01*
X123100000Y-116800000D02*
X110600000Y-116800000D01*
X123100000Y-114300000D02*
X123100000Y-116800000D01*
D15*
X121150000Y-110300000D02*
G75*
G03*
X121150000Y-110300000I-4300000J0D01*
G01*
D14*
X213425000Y-100575000D02*
X213425000Y-101000000D01*
X206175000Y-100575000D02*
X206175000Y-101100000D01*
X206175000Y-107825000D02*
X206175000Y-107300000D01*
X213425000Y-107825000D02*
X213425000Y-107300000D01*
X213425000Y-100575000D02*
X212900000Y-100575000D01*
X213425000Y-107825000D02*
X212900000Y-107825000D01*
X206175000Y-107825000D02*
X206700000Y-107825000D01*
X206175000Y-100575000D02*
X206700000Y-100575000D01*
X213425000Y-101000000D02*
X214800000Y-101000000D01*
X170225000Y-98775000D02*
X170225000Y-98900000D01*
X165575000Y-98775000D02*
X165575000Y-99000000D01*
X165575000Y-104025000D02*
X165575000Y-103800000D01*
X170225000Y-104025000D02*
X170225000Y-103800000D01*
X170225000Y-98775000D02*
X165575000Y-98775000D01*
X170225000Y-104025000D02*
X165575000Y-104025000D01*
X170225000Y-98900000D02*
X171575000Y-98900000D01*
X134825000Y-99900000D02*
X134825000Y-104300000D01*
X129300000Y-98325000D02*
X129300000Y-104300000D01*
D13*
X257660000Y-95350000D02*
X257660000Y-89340000D01*
X250840000Y-93100000D02*
X250840000Y-89340000D01*
X257660000Y-89340000D02*
X256400000Y-89340000D01*
X250840000Y-89340000D02*
X252100000Y-89340000D01*
D14*
X244250000Y-110250000D02*
X244250000Y-111650000D01*
X244800000Y-110250000D02*
X244250000Y-110250000D01*
X233800000Y-110250000D02*
X234300000Y-110250000D01*
X233800000Y-104150000D02*
X234350000Y-104150000D01*
X244800000Y-104150000D02*
X244300000Y-104150000D01*
X244800000Y-110250000D02*
X244800000Y-104150000D01*
X233800000Y-110250000D02*
X233800000Y-104150000D01*
X204425000Y-87875000D02*
X198450000Y-87875000D01*
X202850000Y-93400000D02*
X198450000Y-93400000D01*
X157400000Y-82950000D02*
X157400000Y-83500000D01*
X152600000Y-82950000D02*
X157400000Y-82950000D01*
X152600000Y-83500000D02*
X152600000Y-82950000D01*
X152600000Y-93050000D02*
X152600000Y-92500000D01*
X157400000Y-93050000D02*
X152600000Y-93050000D01*
X157400000Y-92500000D02*
X157400000Y-93050000D01*
D13*
X211050000Y-117350000D02*
X205750000Y-117350000D01*
X211050000Y-113650000D02*
X211050000Y-117350000D01*
X238000000Y-114950000D02*
X238000000Y-118650000D01*
X238000000Y-118650000D02*
X232700000Y-118650000D01*
X259350000Y-86950000D02*
X261450000Y-89050000D01*
X267650000Y-86950000D02*
X265550000Y-89050000D01*
X267650000Y-86950000D02*
X267650000Y-82850000D01*
X267650000Y-82850000D02*
X265550000Y-80750000D01*
X259350000Y-82850000D02*
X259350000Y-86950000D01*
X265110000Y-92600000D02*
X265110000Y-94400000D01*
X261890000Y-94400000D02*
X261890000Y-91950000D01*
D14*
X204583333Y-118202380D02*
X204583333Y-118916666D01*
X204630952Y-119059523D01*
X204726190Y-119154761D01*
X204869047Y-119202380D01*
X204964285Y-119202380D01*
X203678571Y-118535714D02*
X203678571Y-119202380D01*
X203916666Y-118154761D02*
X204154761Y-118869047D01*
X203535714Y-118869047D01*
D16*
X164083333Y-106809523D02*
X164083333Y-109666666D01*
X164273809Y-110238095D01*
X164654761Y-110619047D01*
X165226190Y-110809523D01*
X165607142Y-110809523D01*
X160464285Y-106809523D02*
X161226190Y-106809523D01*
X161607142Y-107000000D01*
X161797619Y-107190476D01*
X162178571Y-107761904D01*
X162369047Y-108523809D01*
X162369047Y-110047619D01*
X162178571Y-110428571D01*
X161988095Y-110619047D01*
X161607142Y-110809523D01*
X160845238Y-110809523D01*
X160464285Y-110619047D01*
X160273809Y-110428571D01*
X160083333Y-110047619D01*
X160083333Y-109095238D01*
X160273809Y-108714285D01*
X160464285Y-108523809D01*
X160845238Y-108333333D01*
X161607142Y-108333333D01*
X161988095Y-108523809D01*
X162178571Y-108714285D01*
X162369047Y-109095238D01*
D14*
X214214285Y-87952380D02*
X214214285Y-88761904D01*
X214166666Y-88857142D01*
X214119047Y-88904761D01*
X214023809Y-88952380D01*
X213833333Y-88952380D01*
X213738095Y-88904761D01*
X213690476Y-88857142D01*
X213642857Y-88761904D01*
X213642857Y-87952380D01*
X212690476Y-87952380D02*
X213166666Y-87952380D01*
X213214285Y-88428571D01*
X213166666Y-88380952D01*
X213071428Y-88333333D01*
X212833333Y-88333333D01*
X212738095Y-88380952D01*
X212690476Y-88428571D01*
X212642857Y-88523809D01*
X212642857Y-88761904D01*
X212690476Y-88857142D01*
X212738095Y-88904761D01*
X212833333Y-88952380D01*
X213071428Y-88952380D01*
X213166666Y-88904761D01*
X213214285Y-88857142D01*
X212023809Y-87952380D02*
X211928571Y-87952380D01*
X211833333Y-88000000D01*
X211785714Y-88047619D01*
X211738095Y-88142857D01*
X211690476Y-88333333D01*
X211690476Y-88571428D01*
X211738095Y-88761904D01*
X211785714Y-88857142D01*
X211833333Y-88904761D01*
X211928571Y-88952380D01*
X212023809Y-88952380D01*
X212119047Y-88904761D01*
X212166666Y-88857142D01*
X212214285Y-88761904D01*
X212261904Y-88571428D01*
X212261904Y-88333333D01*
X212214285Y-88142857D01*
X212166666Y-88047619D01*
X212119047Y-88000000D01*
X212023809Y-87952380D01*
X211357142Y-87952380D02*
X210738095Y-87952380D01*
X211071428Y-88333333D01*
X210928571Y-88333333D01*
X210833333Y-88380952D01*
X210785714Y-88428571D01*
X210738095Y-88523809D01*
X210738095Y-88761904D01*
X210785714Y-88857142D01*
X210833333Y-88904761D01*
X210928571Y-88952380D01*
X211214285Y-88952380D01*
X211309523Y-88904761D01*
X211357142Y-88857142D01*
X244290476Y-83452380D02*
X244290476Y-82452380D01*
X244052380Y-82452380D01*
X243909523Y-82500000D01*
X243814285Y-82595238D01*
X243766666Y-82690476D01*
X243719047Y-82880952D01*
X243719047Y-83023809D01*
X243766666Y-83214285D01*
X243814285Y-83309523D01*
X243909523Y-83404761D01*
X244052380Y-83452380D01*
X244290476Y-83452380D01*
X242814285Y-82452380D02*
X243290476Y-82452380D01*
X243338095Y-82928571D01*
X243290476Y-82880952D01*
X243195238Y-82833333D01*
X242957142Y-82833333D01*
X242861904Y-82880952D01*
X242814285Y-82928571D01*
X242766666Y-83023809D01*
X242766666Y-83261904D01*
X242814285Y-83357142D01*
X242861904Y-83404761D01*
X242957142Y-83452380D01*
X243195238Y-83452380D01*
X243290476Y-83404761D01*
X243338095Y-83357142D01*
X242433333Y-82452380D02*
X241814285Y-82452380D01*
X242147619Y-82833333D01*
X242004761Y-82833333D01*
X241909523Y-82880952D01*
X241861904Y-82928571D01*
X241814285Y-83023809D01*
X241814285Y-83261904D01*
X241861904Y-83357142D01*
X241909523Y-83404761D01*
X242004761Y-83452380D01*
X242290476Y-83452380D01*
X242385714Y-83404761D01*
X242433333Y-83357142D01*
X241433333Y-82547619D02*
X241385714Y-82500000D01*
X241290476Y-82452380D01*
X241052380Y-82452380D01*
X240957142Y-82500000D01*
X240909523Y-82547619D01*
X240861904Y-82642857D01*
X240861904Y-82738095D01*
X240909523Y-82880952D01*
X241480952Y-83452380D01*
X240861904Y-83452380D01*
X244390476Y-86452380D02*
X244390476Y-85452380D01*
X244152380Y-85452380D01*
X244009523Y-85500000D01*
X243914285Y-85595238D01*
X243866666Y-85690476D01*
X243819047Y-85880952D01*
X243819047Y-86023809D01*
X243866666Y-86214285D01*
X243914285Y-86309523D01*
X244009523Y-86404761D01*
X244152380Y-86452380D01*
X244390476Y-86452380D01*
X242914285Y-85452380D02*
X243390476Y-85452380D01*
X243438095Y-85928571D01*
X243390476Y-85880952D01*
X243295238Y-85833333D01*
X243057142Y-85833333D01*
X242961904Y-85880952D01*
X242914285Y-85928571D01*
X242866666Y-86023809D01*
X242866666Y-86261904D01*
X242914285Y-86357142D01*
X242961904Y-86404761D01*
X243057142Y-86452380D01*
X243295238Y-86452380D01*
X243390476Y-86404761D01*
X243438095Y-86357142D01*
X242533333Y-85452380D02*
X241914285Y-85452380D01*
X242247619Y-85833333D01*
X242104761Y-85833333D01*
X242009523Y-85880952D01*
X241961904Y-85928571D01*
X241914285Y-86023809D01*
X241914285Y-86261904D01*
X241961904Y-86357142D01*
X242009523Y-86404761D01*
X242104761Y-86452380D01*
X242390476Y-86452380D01*
X242485714Y-86404761D01*
X242533333Y-86357142D01*
X241580952Y-85452380D02*
X240961904Y-85452380D01*
X241295238Y-85833333D01*
X241152380Y-85833333D01*
X241057142Y-85880952D01*
X241009523Y-85928571D01*
X240961904Y-86023809D01*
X240961904Y-86261904D01*
X241009523Y-86357142D01*
X241057142Y-86404761D01*
X241152380Y-86452380D01*
X241438095Y-86452380D01*
X241533333Y-86404761D01*
X241580952Y-86357142D01*
X230869047Y-109357142D02*
X230916666Y-109404761D01*
X231059523Y-109452380D01*
X231154761Y-109452380D01*
X231297619Y-109404761D01*
X231392857Y-109309523D01*
X231440476Y-109214285D01*
X231488095Y-109023809D01*
X231488095Y-108880952D01*
X231440476Y-108690476D01*
X231392857Y-108595238D01*
X231297619Y-108500000D01*
X231154761Y-108452380D01*
X231059523Y-108452380D01*
X230916666Y-108500000D01*
X230869047Y-108547619D01*
X229916666Y-109452380D02*
X230488095Y-109452380D01*
X230202380Y-109452380D02*
X230202380Y-108452380D01*
X230297619Y-108595238D01*
X230392857Y-108690476D01*
X230488095Y-108738095D01*
X229297619Y-108452380D02*
X229202380Y-108452380D01*
X229107142Y-108500000D01*
X229059523Y-108547619D01*
X229011904Y-108642857D01*
X228964285Y-108833333D01*
X228964285Y-109071428D01*
X229011904Y-109261904D01*
X229059523Y-109357142D01*
X229107142Y-109404761D01*
X229202380Y-109452380D01*
X229297619Y-109452380D01*
X229392857Y-109404761D01*
X229440476Y-109357142D01*
X229488095Y-109261904D01*
X229535714Y-109071428D01*
X229535714Y-108833333D01*
X229488095Y-108642857D01*
X229440476Y-108547619D01*
X229392857Y-108500000D01*
X229297619Y-108452380D01*
X228630952Y-108452380D02*
X228011904Y-108452380D01*
X228345238Y-108833333D01*
X228202380Y-108833333D01*
X228107142Y-108880952D01*
X228059523Y-108928571D01*
X228011904Y-109023809D01*
X228011904Y-109261904D01*
X228059523Y-109357142D01*
X228107142Y-109404761D01*
X228202380Y-109452380D01*
X228488095Y-109452380D01*
X228583333Y-109404761D01*
X228630952Y-109357142D01*
X230619047Y-102107142D02*
X230666666Y-102154761D01*
X230809523Y-102202380D01*
X230904761Y-102202380D01*
X231047619Y-102154761D01*
X231142857Y-102059523D01*
X231190476Y-101964285D01*
X231238095Y-101773809D01*
X231238095Y-101630952D01*
X231190476Y-101440476D01*
X231142857Y-101345238D01*
X231047619Y-101250000D01*
X230904761Y-101202380D01*
X230809523Y-101202380D01*
X230666666Y-101250000D01*
X230619047Y-101297619D01*
X229666666Y-102202380D02*
X230238095Y-102202380D01*
X229952380Y-102202380D02*
X229952380Y-101202380D01*
X230047619Y-101345238D01*
X230142857Y-101440476D01*
X230238095Y-101488095D01*
X229047619Y-101202380D02*
X228952380Y-101202380D01*
X228857142Y-101250000D01*
X228809523Y-101297619D01*
X228761904Y-101392857D01*
X228714285Y-101583333D01*
X228714285Y-101821428D01*
X228761904Y-102011904D01*
X228809523Y-102107142D01*
X228857142Y-102154761D01*
X228952380Y-102202380D01*
X229047619Y-102202380D01*
X229142857Y-102154761D01*
X229190476Y-102107142D01*
X229238095Y-102011904D01*
X229285714Y-101821428D01*
X229285714Y-101583333D01*
X229238095Y-101392857D01*
X229190476Y-101297619D01*
X229142857Y-101250000D01*
X229047619Y-101202380D01*
X227857142Y-101535714D02*
X227857142Y-102202380D01*
X228095238Y-101154761D02*
X228333333Y-101869047D01*
X227714285Y-101869047D01*
X211119047Y-110857142D02*
X211166666Y-110904761D01*
X211309523Y-110952380D01*
X211404761Y-110952380D01*
X211547619Y-110904761D01*
X211642857Y-110809523D01*
X211690476Y-110714285D01*
X211738095Y-110523809D01*
X211738095Y-110380952D01*
X211690476Y-110190476D01*
X211642857Y-110095238D01*
X211547619Y-110000000D01*
X211404761Y-109952380D01*
X211309523Y-109952380D01*
X211166666Y-110000000D01*
X211119047Y-110047619D01*
X210166666Y-110952380D02*
X210738095Y-110952380D01*
X210452380Y-110952380D02*
X210452380Y-109952380D01*
X210547619Y-110095238D01*
X210642857Y-110190476D01*
X210738095Y-110238095D01*
X209547619Y-109952380D02*
X209452380Y-109952380D01*
X209357142Y-110000000D01*
X209309523Y-110047619D01*
X209261904Y-110142857D01*
X209214285Y-110333333D01*
X209214285Y-110571428D01*
X209261904Y-110761904D01*
X209309523Y-110857142D01*
X209357142Y-110904761D01*
X209452380Y-110952380D01*
X209547619Y-110952380D01*
X209642857Y-110904761D01*
X209690476Y-110857142D01*
X209738095Y-110761904D01*
X209785714Y-110571428D01*
X209785714Y-110333333D01*
X209738095Y-110142857D01*
X209690476Y-110047619D01*
X209642857Y-110000000D01*
X209547619Y-109952380D01*
X208309523Y-109952380D02*
X208785714Y-109952380D01*
X208833333Y-110428571D01*
X208785714Y-110380952D01*
X208690476Y-110333333D01*
X208452380Y-110333333D01*
X208357142Y-110380952D01*
X208309523Y-110428571D01*
X208261904Y-110523809D01*
X208261904Y-110761904D01*
X208309523Y-110857142D01*
X208357142Y-110904761D01*
X208452380Y-110952380D01*
X208690476Y-110952380D01*
X208785714Y-110904761D01*
X208833333Y-110857142D01*
X200619047Y-100607142D02*
X200666666Y-100654761D01*
X200809523Y-100702380D01*
X200904761Y-100702380D01*
X201047619Y-100654761D01*
X201142857Y-100559523D01*
X201190476Y-100464285D01*
X201238095Y-100273809D01*
X201238095Y-100130952D01*
X201190476Y-99940476D01*
X201142857Y-99845238D01*
X201047619Y-99750000D01*
X200904761Y-99702380D01*
X200809523Y-99702380D01*
X200666666Y-99750000D01*
X200619047Y-99797619D01*
X199666666Y-100702380D02*
X200238095Y-100702380D01*
X199952380Y-100702380D02*
X199952380Y-99702380D01*
X200047619Y-99845238D01*
X200142857Y-99940476D01*
X200238095Y-99988095D01*
X199047619Y-99702380D02*
X198952380Y-99702380D01*
X198857142Y-99750000D01*
X198809523Y-99797619D01*
X198761904Y-99892857D01*
X198714285Y-100083333D01*
X198714285Y-100321428D01*
X198761904Y-100511904D01*
X198809523Y-100607142D01*
X198857142Y-100654761D01*
X198952380Y-100702380D01*
X199047619Y-100702380D01*
X199142857Y-100654761D01*
X199190476Y-100607142D01*
X199238095Y-100511904D01*
X199285714Y-100321428D01*
X199285714Y-100083333D01*
X199238095Y-99892857D01*
X199190476Y-99797619D01*
X199142857Y-99750000D01*
X199047619Y-99702380D01*
X197857142Y-99702380D02*
X198047619Y-99702380D01*
X198142857Y-99750000D01*
X198190476Y-99797619D01*
X198285714Y-99940476D01*
X198333333Y-100130952D01*
X198333333Y-100511904D01*
X198285714Y-100607142D01*
X198238095Y-100654761D01*
X198142857Y-100702380D01*
X197952380Y-100702380D01*
X197857142Y-100654761D01*
X197809523Y-100607142D01*
X197761904Y-100511904D01*
X197761904Y-100273809D01*
X197809523Y-100178571D01*
X197857142Y-100130952D01*
X197952380Y-100083333D01*
X198142857Y-100083333D01*
X198238095Y-100130952D01*
X198285714Y-100178571D01*
X198333333Y-100273809D01*
X204857142Y-110630952D02*
X204904761Y-110583333D01*
X204952380Y-110440476D01*
X204952380Y-110345238D01*
X204904761Y-110202380D01*
X204809523Y-110107142D01*
X204714285Y-110059523D01*
X204523809Y-110011904D01*
X204380952Y-110011904D01*
X204190476Y-110059523D01*
X204095238Y-110107142D01*
X204000000Y-110202380D01*
X203952380Y-110345238D01*
X203952380Y-110440476D01*
X204000000Y-110583333D01*
X204047619Y-110630952D01*
X204952380Y-111583333D02*
X204952380Y-111011904D01*
X204952380Y-111297619D02*
X203952380Y-111297619D01*
X204095238Y-111202380D01*
X204190476Y-111107142D01*
X204238095Y-111011904D01*
X204952380Y-112535714D02*
X204952380Y-111964285D01*
X204952380Y-112250000D02*
X203952380Y-112250000D01*
X204095238Y-112154761D01*
X204190476Y-112059523D01*
X204238095Y-111964285D01*
X203952380Y-113154761D02*
X203952380Y-113250000D01*
X204000000Y-113345238D01*
X204047619Y-113392857D01*
X204142857Y-113440476D01*
X204333333Y-113488095D01*
X204571428Y-113488095D01*
X204761904Y-113440476D01*
X204857142Y-113392857D01*
X204904761Y-113345238D01*
X204952380Y-113250000D01*
X204952380Y-113154761D01*
X204904761Y-113059523D01*
X204857142Y-113011904D01*
X204761904Y-112964285D01*
X204571428Y-112916666D01*
X204333333Y-112916666D01*
X204142857Y-112964285D01*
X204047619Y-113011904D01*
X204000000Y-113059523D01*
X203952380Y-113154761D01*
X215369047Y-118607142D02*
X215416666Y-118654761D01*
X215559523Y-118702380D01*
X215654761Y-118702380D01*
X215797619Y-118654761D01*
X215892857Y-118559523D01*
X215940476Y-118464285D01*
X215988095Y-118273809D01*
X215988095Y-118130952D01*
X215940476Y-117940476D01*
X215892857Y-117845238D01*
X215797619Y-117750000D01*
X215654761Y-117702380D01*
X215559523Y-117702380D01*
X215416666Y-117750000D01*
X215369047Y-117797619D01*
X214416666Y-118702380D02*
X214988095Y-118702380D01*
X214702380Y-118702380D02*
X214702380Y-117702380D01*
X214797619Y-117845238D01*
X214892857Y-117940476D01*
X214988095Y-117988095D01*
X213464285Y-118702380D02*
X214035714Y-118702380D01*
X213750000Y-118702380D02*
X213750000Y-117702380D01*
X213845238Y-117845238D01*
X213940476Y-117940476D01*
X214035714Y-117988095D01*
X212511904Y-118702380D02*
X213083333Y-118702380D01*
X212797619Y-118702380D02*
X212797619Y-117702380D01*
X212892857Y-117845238D01*
X212988095Y-117940476D01*
X213083333Y-117988095D01*
X202357142Y-110130952D02*
X202404761Y-110083333D01*
X202452380Y-109940476D01*
X202452380Y-109845238D01*
X202404761Y-109702380D01*
X202309523Y-109607142D01*
X202214285Y-109559523D01*
X202023809Y-109511904D01*
X201880952Y-109511904D01*
X201690476Y-109559523D01*
X201595238Y-109607142D01*
X201500000Y-109702380D01*
X201452380Y-109845238D01*
X201452380Y-109940476D01*
X201500000Y-110083333D01*
X201547619Y-110130952D01*
X201547619Y-110511904D02*
X201500000Y-110559523D01*
X201452380Y-110654761D01*
X201452380Y-110892857D01*
X201500000Y-110988095D01*
X201547619Y-111035714D01*
X201642857Y-111083333D01*
X201738095Y-111083333D01*
X201880952Y-111035714D01*
X202452380Y-110464285D01*
X202452380Y-111083333D01*
X201452380Y-111702380D02*
X201452380Y-111797619D01*
X201500000Y-111892857D01*
X201547619Y-111940476D01*
X201642857Y-111988095D01*
X201833333Y-112035714D01*
X202071428Y-112035714D01*
X202261904Y-111988095D01*
X202357142Y-111940476D01*
X202404761Y-111892857D01*
X202452380Y-111797619D01*
X202452380Y-111702380D01*
X202404761Y-111607142D01*
X202357142Y-111559523D01*
X202261904Y-111511904D01*
X202071428Y-111464285D01*
X201833333Y-111464285D01*
X201642857Y-111511904D01*
X201547619Y-111559523D01*
X201500000Y-111607142D01*
X201452380Y-111702380D01*
X201452380Y-112369047D02*
X201452380Y-112988095D01*
X201833333Y-112654761D01*
X201833333Y-112797619D01*
X201880952Y-112892857D01*
X201928571Y-112940476D01*
X202023809Y-112988095D01*
X202261904Y-112988095D01*
X202357142Y-112940476D01*
X202404761Y-112892857D01*
X202452380Y-112797619D01*
X202452380Y-112511904D01*
X202404761Y-112416666D01*
X202357142Y-112369047D01*
X198119047Y-107357142D02*
X198166666Y-107404761D01*
X198309523Y-107452380D01*
X198404761Y-107452380D01*
X198547619Y-107404761D01*
X198642857Y-107309523D01*
X198690476Y-107214285D01*
X198738095Y-107023809D01*
X198738095Y-106880952D01*
X198690476Y-106690476D01*
X198642857Y-106595238D01*
X198547619Y-106500000D01*
X198404761Y-106452380D01*
X198309523Y-106452380D01*
X198166666Y-106500000D01*
X198119047Y-106547619D01*
X197738095Y-106547619D02*
X197690476Y-106500000D01*
X197595238Y-106452380D01*
X197357142Y-106452380D01*
X197261904Y-106500000D01*
X197214285Y-106547619D01*
X197166666Y-106642857D01*
X197166666Y-106738095D01*
X197214285Y-106880952D01*
X197785714Y-107452380D01*
X197166666Y-107452380D01*
X196547619Y-106452380D02*
X196452380Y-106452380D01*
X196357142Y-106500000D01*
X196309523Y-106547619D01*
X196261904Y-106642857D01*
X196214285Y-106833333D01*
X196214285Y-107071428D01*
X196261904Y-107261904D01*
X196309523Y-107357142D01*
X196357142Y-107404761D01*
X196452380Y-107452380D01*
X196547619Y-107452380D01*
X196642857Y-107404761D01*
X196690476Y-107357142D01*
X196738095Y-107261904D01*
X196785714Y-107071428D01*
X196785714Y-106833333D01*
X196738095Y-106642857D01*
X196690476Y-106547619D01*
X196642857Y-106500000D01*
X196547619Y-106452380D01*
X195357142Y-106785714D02*
X195357142Y-107452380D01*
X195595238Y-106404761D02*
X195833333Y-107119047D01*
X195214285Y-107119047D01*
X161319047Y-98157142D02*
X161366666Y-98204761D01*
X161509523Y-98252380D01*
X161604761Y-98252380D01*
X161747619Y-98204761D01*
X161842857Y-98109523D01*
X161890476Y-98014285D01*
X161938095Y-97823809D01*
X161938095Y-97680952D01*
X161890476Y-97490476D01*
X161842857Y-97395238D01*
X161747619Y-97300000D01*
X161604761Y-97252380D01*
X161509523Y-97252380D01*
X161366666Y-97300000D01*
X161319047Y-97347619D01*
X160938095Y-97347619D02*
X160890476Y-97300000D01*
X160795238Y-97252380D01*
X160557142Y-97252380D01*
X160461904Y-97300000D01*
X160414285Y-97347619D01*
X160366666Y-97442857D01*
X160366666Y-97538095D01*
X160414285Y-97680952D01*
X160985714Y-98252380D01*
X160366666Y-98252380D01*
X159414285Y-98252380D02*
X159985714Y-98252380D01*
X159700000Y-98252380D02*
X159700000Y-97252380D01*
X159795238Y-97395238D01*
X159890476Y-97490476D01*
X159985714Y-97538095D01*
X158461904Y-98252380D02*
X159033333Y-98252380D01*
X158747619Y-98252380D02*
X158747619Y-97252380D01*
X158842857Y-97395238D01*
X158938095Y-97490476D01*
X159033333Y-97538095D01*
X161319047Y-96257142D02*
X161366666Y-96304761D01*
X161509523Y-96352380D01*
X161604761Y-96352380D01*
X161747619Y-96304761D01*
X161842857Y-96209523D01*
X161890476Y-96114285D01*
X161938095Y-95923809D01*
X161938095Y-95780952D01*
X161890476Y-95590476D01*
X161842857Y-95495238D01*
X161747619Y-95400000D01*
X161604761Y-95352380D01*
X161509523Y-95352380D01*
X161366666Y-95400000D01*
X161319047Y-95447619D01*
X160938095Y-95447619D02*
X160890476Y-95400000D01*
X160795238Y-95352380D01*
X160557142Y-95352380D01*
X160461904Y-95400000D01*
X160414285Y-95447619D01*
X160366666Y-95542857D01*
X160366666Y-95638095D01*
X160414285Y-95780952D01*
X160985714Y-96352380D01*
X160366666Y-96352380D01*
X159414285Y-96352380D02*
X159985714Y-96352380D01*
X159700000Y-96352380D02*
X159700000Y-95352380D01*
X159795238Y-95495238D01*
X159890476Y-95590476D01*
X159985714Y-95638095D01*
X159033333Y-95447619D02*
X158985714Y-95400000D01*
X158890476Y-95352380D01*
X158652380Y-95352380D01*
X158557142Y-95400000D01*
X158509523Y-95447619D01*
X158461904Y-95542857D01*
X158461904Y-95638095D01*
X158509523Y-95780952D01*
X159080952Y-96352380D01*
X158461904Y-96352380D01*
X188857142Y-116030952D02*
X188904761Y-115983333D01*
X188952380Y-115840476D01*
X188952380Y-115745238D01*
X188904761Y-115602380D01*
X188809523Y-115507142D01*
X188714285Y-115459523D01*
X188523809Y-115411904D01*
X188380952Y-115411904D01*
X188190476Y-115459523D01*
X188095238Y-115507142D01*
X188000000Y-115602380D01*
X187952380Y-115745238D01*
X187952380Y-115840476D01*
X188000000Y-115983333D01*
X188047619Y-116030952D01*
X188047619Y-116411904D02*
X188000000Y-116459523D01*
X187952380Y-116554761D01*
X187952380Y-116792857D01*
X188000000Y-116888095D01*
X188047619Y-116935714D01*
X188142857Y-116983333D01*
X188238095Y-116983333D01*
X188380952Y-116935714D01*
X188952380Y-116364285D01*
X188952380Y-116983333D01*
X188952380Y-117935714D02*
X188952380Y-117364285D01*
X188952380Y-117650000D02*
X187952380Y-117650000D01*
X188095238Y-117554761D01*
X188190476Y-117459523D01*
X188238095Y-117364285D01*
X187952380Y-118269047D02*
X187952380Y-118888095D01*
X188333333Y-118554761D01*
X188333333Y-118697619D01*
X188380952Y-118792857D01*
X188428571Y-118840476D01*
X188523809Y-118888095D01*
X188761904Y-118888095D01*
X188857142Y-118840476D01*
X188904761Y-118792857D01*
X188952380Y-118697619D01*
X188952380Y-118411904D01*
X188904761Y-118316666D01*
X188857142Y-118269047D01*
X127357142Y-100130952D02*
X127404761Y-100083333D01*
X127452380Y-99940476D01*
X127452380Y-99845238D01*
X127404761Y-99702380D01*
X127309523Y-99607142D01*
X127214285Y-99559523D01*
X127023809Y-99511904D01*
X126880952Y-99511904D01*
X126690476Y-99559523D01*
X126595238Y-99607142D01*
X126500000Y-99702380D01*
X126452380Y-99845238D01*
X126452380Y-99940476D01*
X126500000Y-100083333D01*
X126547619Y-100130952D01*
X126547619Y-100511904D02*
X126500000Y-100559523D01*
X126452380Y-100654761D01*
X126452380Y-100892857D01*
X126500000Y-100988095D01*
X126547619Y-101035714D01*
X126642857Y-101083333D01*
X126738095Y-101083333D01*
X126880952Y-101035714D01*
X127452380Y-100464285D01*
X127452380Y-101083333D01*
X127452380Y-102035714D02*
X127452380Y-101464285D01*
X127452380Y-101750000D02*
X126452380Y-101750000D01*
X126595238Y-101654761D01*
X126690476Y-101559523D01*
X126738095Y-101464285D01*
X126785714Y-102892857D02*
X127452380Y-102892857D01*
X126404761Y-102654761D02*
X127119047Y-102416666D01*
X127119047Y-103035714D01*
X125857142Y-100130952D02*
X125904761Y-100083333D01*
X125952380Y-99940476D01*
X125952380Y-99845238D01*
X125904761Y-99702380D01*
X125809523Y-99607142D01*
X125714285Y-99559523D01*
X125523809Y-99511904D01*
X125380952Y-99511904D01*
X125190476Y-99559523D01*
X125095238Y-99607142D01*
X125000000Y-99702380D01*
X124952380Y-99845238D01*
X124952380Y-99940476D01*
X125000000Y-100083333D01*
X125047619Y-100130952D01*
X125047619Y-100511904D02*
X125000000Y-100559523D01*
X124952380Y-100654761D01*
X124952380Y-100892857D01*
X125000000Y-100988095D01*
X125047619Y-101035714D01*
X125142857Y-101083333D01*
X125238095Y-101083333D01*
X125380952Y-101035714D01*
X125952380Y-100464285D01*
X125952380Y-101083333D01*
X125952380Y-102035714D02*
X125952380Y-101464285D01*
X125952380Y-101750000D02*
X124952380Y-101750000D01*
X125095238Y-101654761D01*
X125190476Y-101559523D01*
X125238095Y-101464285D01*
X124952380Y-102940476D02*
X124952380Y-102464285D01*
X125428571Y-102416666D01*
X125380952Y-102464285D01*
X125333333Y-102559523D01*
X125333333Y-102797619D01*
X125380952Y-102892857D01*
X125428571Y-102940476D01*
X125523809Y-102988095D01*
X125761904Y-102988095D01*
X125857142Y-102940476D01*
X125904761Y-102892857D01*
X125952380Y-102797619D01*
X125952380Y-102559523D01*
X125904761Y-102464285D01*
X125857142Y-102416666D01*
X257119047Y-114607142D02*
X257166666Y-114654761D01*
X257309523Y-114702380D01*
X257404761Y-114702380D01*
X257547619Y-114654761D01*
X257642857Y-114559523D01*
X257690476Y-114464285D01*
X257738095Y-114273809D01*
X257738095Y-114130952D01*
X257690476Y-113940476D01*
X257642857Y-113845238D01*
X257547619Y-113750000D01*
X257404761Y-113702380D01*
X257309523Y-113702380D01*
X257166666Y-113750000D01*
X257119047Y-113797619D01*
X256785714Y-113702380D02*
X256166666Y-113702380D01*
X256500000Y-114083333D01*
X256357142Y-114083333D01*
X256261904Y-114130952D01*
X256214285Y-114178571D01*
X256166666Y-114273809D01*
X256166666Y-114511904D01*
X256214285Y-114607142D01*
X256261904Y-114654761D01*
X256357142Y-114702380D01*
X256642857Y-114702380D01*
X256738095Y-114654761D01*
X256785714Y-114607142D01*
X255547619Y-113702380D02*
X255452380Y-113702380D01*
X255357142Y-113750000D01*
X255309523Y-113797619D01*
X255261904Y-113892857D01*
X255214285Y-114083333D01*
X255214285Y-114321428D01*
X255261904Y-114511904D01*
X255309523Y-114607142D01*
X255357142Y-114654761D01*
X255452380Y-114702380D01*
X255547619Y-114702380D01*
X255642857Y-114654761D01*
X255690476Y-114607142D01*
X255738095Y-114511904D01*
X255785714Y-114321428D01*
X255785714Y-114083333D01*
X255738095Y-113892857D01*
X255690476Y-113797619D01*
X255642857Y-113750000D01*
X255547619Y-113702380D01*
X254261904Y-114702380D02*
X254833333Y-114702380D01*
X254547619Y-114702380D02*
X254547619Y-113702380D01*
X254642857Y-113845238D01*
X254738095Y-113940476D01*
X254833333Y-113988095D01*
X262357142Y-104480952D02*
X262404761Y-104433333D01*
X262452380Y-104290476D01*
X262452380Y-104195238D01*
X262404761Y-104052380D01*
X262309523Y-103957142D01*
X262214285Y-103909523D01*
X262023809Y-103861904D01*
X261880952Y-103861904D01*
X261690476Y-103909523D01*
X261595238Y-103957142D01*
X261500000Y-104052380D01*
X261452380Y-104195238D01*
X261452380Y-104290476D01*
X261500000Y-104433333D01*
X261547619Y-104480952D01*
X261452380Y-104814285D02*
X261452380Y-105433333D01*
X261833333Y-105100000D01*
X261833333Y-105242857D01*
X261880952Y-105338095D01*
X261928571Y-105385714D01*
X262023809Y-105433333D01*
X262261904Y-105433333D01*
X262357142Y-105385714D01*
X262404761Y-105338095D01*
X262452380Y-105242857D01*
X262452380Y-104957142D01*
X262404761Y-104861904D01*
X262357142Y-104814285D01*
X261452380Y-106052380D02*
X261452380Y-106147619D01*
X261500000Y-106242857D01*
X261547619Y-106290476D01*
X261642857Y-106338095D01*
X261833333Y-106385714D01*
X262071428Y-106385714D01*
X262261904Y-106338095D01*
X262357142Y-106290476D01*
X262404761Y-106242857D01*
X262452380Y-106147619D01*
X262452380Y-106052380D01*
X262404761Y-105957142D01*
X262357142Y-105909523D01*
X262261904Y-105861904D01*
X262071428Y-105814285D01*
X261833333Y-105814285D01*
X261642857Y-105861904D01*
X261547619Y-105909523D01*
X261500000Y-105957142D01*
X261452380Y-106052380D01*
X261547619Y-106766666D02*
X261500000Y-106814285D01*
X261452380Y-106909523D01*
X261452380Y-107147619D01*
X261500000Y-107242857D01*
X261547619Y-107290476D01*
X261642857Y-107338095D01*
X261738095Y-107338095D01*
X261880952Y-107290476D01*
X262452380Y-106719047D01*
X262452380Y-107338095D01*
X264357142Y-103380952D02*
X264404761Y-103333333D01*
X264452380Y-103190476D01*
X264452380Y-103095238D01*
X264404761Y-102952380D01*
X264309523Y-102857142D01*
X264214285Y-102809523D01*
X264023809Y-102761904D01*
X263880952Y-102761904D01*
X263690476Y-102809523D01*
X263595238Y-102857142D01*
X263500000Y-102952380D01*
X263452380Y-103095238D01*
X263452380Y-103190476D01*
X263500000Y-103333333D01*
X263547619Y-103380952D01*
X263452380Y-103714285D02*
X263452380Y-104333333D01*
X263833333Y-104000000D01*
X263833333Y-104142857D01*
X263880952Y-104238095D01*
X263928571Y-104285714D01*
X264023809Y-104333333D01*
X264261904Y-104333333D01*
X264357142Y-104285714D01*
X264404761Y-104238095D01*
X264452380Y-104142857D01*
X264452380Y-103857142D01*
X264404761Y-103761904D01*
X264357142Y-103714285D01*
X263452380Y-104952380D02*
X263452380Y-105047619D01*
X263500000Y-105142857D01*
X263547619Y-105190476D01*
X263642857Y-105238095D01*
X263833333Y-105285714D01*
X264071428Y-105285714D01*
X264261904Y-105238095D01*
X264357142Y-105190476D01*
X264404761Y-105142857D01*
X264452380Y-105047619D01*
X264452380Y-104952380D01*
X264404761Y-104857142D01*
X264357142Y-104809523D01*
X264261904Y-104761904D01*
X264071428Y-104714285D01*
X263833333Y-104714285D01*
X263642857Y-104761904D01*
X263547619Y-104809523D01*
X263500000Y-104857142D01*
X263452380Y-104952380D01*
X263452380Y-105619047D02*
X263452380Y-106238095D01*
X263833333Y-105904761D01*
X263833333Y-106047619D01*
X263880952Y-106142857D01*
X263928571Y-106190476D01*
X264023809Y-106238095D01*
X264261904Y-106238095D01*
X264357142Y-106190476D01*
X264404761Y-106142857D01*
X264452380Y-106047619D01*
X264452380Y-105761904D01*
X264404761Y-105666666D01*
X264357142Y-105619047D01*
X259357142Y-92380952D02*
X259404761Y-92333333D01*
X259452380Y-92190476D01*
X259452380Y-92095238D01*
X259404761Y-91952380D01*
X259309523Y-91857142D01*
X259214285Y-91809523D01*
X259023809Y-91761904D01*
X258880952Y-91761904D01*
X258690476Y-91809523D01*
X258595238Y-91857142D01*
X258500000Y-91952380D01*
X258452380Y-92095238D01*
X258452380Y-92190476D01*
X258500000Y-92333333D01*
X258547619Y-92380952D01*
X258452380Y-92714285D02*
X258452380Y-93333333D01*
X258833333Y-93000000D01*
X258833333Y-93142857D01*
X258880952Y-93238095D01*
X258928571Y-93285714D01*
X259023809Y-93333333D01*
X259261904Y-93333333D01*
X259357142Y-93285714D01*
X259404761Y-93238095D01*
X259452380Y-93142857D01*
X259452380Y-92857142D01*
X259404761Y-92761904D01*
X259357142Y-92714285D01*
X258452380Y-93952380D02*
X258452380Y-94047619D01*
X258500000Y-94142857D01*
X258547619Y-94190476D01*
X258642857Y-94238095D01*
X258833333Y-94285714D01*
X259071428Y-94285714D01*
X259261904Y-94238095D01*
X259357142Y-94190476D01*
X259404761Y-94142857D01*
X259452380Y-94047619D01*
X259452380Y-93952380D01*
X259404761Y-93857142D01*
X259357142Y-93809523D01*
X259261904Y-93761904D01*
X259071428Y-93714285D01*
X258833333Y-93714285D01*
X258642857Y-93761904D01*
X258547619Y-93809523D01*
X258500000Y-93857142D01*
X258452380Y-93952380D01*
X258452380Y-95190476D02*
X258452380Y-94714285D01*
X258928571Y-94666666D01*
X258880952Y-94714285D01*
X258833333Y-94809523D01*
X258833333Y-95047619D01*
X258880952Y-95142857D01*
X258928571Y-95190476D01*
X259023809Y-95238095D01*
X259261904Y-95238095D01*
X259357142Y-95190476D01*
X259404761Y-95142857D01*
X259452380Y-95047619D01*
X259452380Y-94809523D01*
X259404761Y-94714285D01*
X259357142Y-94666666D01*
X267619047Y-79357142D02*
X267666666Y-79404761D01*
X267809523Y-79452380D01*
X267904761Y-79452380D01*
X268047619Y-79404761D01*
X268142857Y-79309523D01*
X268190476Y-79214285D01*
X268238095Y-79023809D01*
X268238095Y-78880952D01*
X268190476Y-78690476D01*
X268142857Y-78595238D01*
X268047619Y-78500000D01*
X267904761Y-78452380D01*
X267809523Y-78452380D01*
X267666666Y-78500000D01*
X267619047Y-78547619D01*
X267285714Y-78452380D02*
X266666666Y-78452380D01*
X267000000Y-78833333D01*
X266857142Y-78833333D01*
X266761904Y-78880952D01*
X266714285Y-78928571D01*
X266666666Y-79023809D01*
X266666666Y-79261904D01*
X266714285Y-79357142D01*
X266761904Y-79404761D01*
X266857142Y-79452380D01*
X267142857Y-79452380D01*
X267238095Y-79404761D01*
X267285714Y-79357142D01*
X266047619Y-78452380D02*
X265952380Y-78452380D01*
X265857142Y-78500000D01*
X265809523Y-78547619D01*
X265761904Y-78642857D01*
X265714285Y-78833333D01*
X265714285Y-79071428D01*
X265761904Y-79261904D01*
X265809523Y-79357142D01*
X265857142Y-79404761D01*
X265952380Y-79452380D01*
X266047619Y-79452380D01*
X266142857Y-79404761D01*
X266190476Y-79357142D01*
X266238095Y-79261904D01*
X266285714Y-79071428D01*
X266285714Y-78833333D01*
X266238095Y-78642857D01*
X266190476Y-78547619D01*
X266142857Y-78500000D01*
X266047619Y-78452380D01*
X264857142Y-78452380D02*
X265047619Y-78452380D01*
X265142857Y-78500000D01*
X265190476Y-78547619D01*
X265285714Y-78690476D01*
X265333333Y-78880952D01*
X265333333Y-79261904D01*
X265285714Y-79357142D01*
X265238095Y-79404761D01*
X265142857Y-79452380D01*
X264952380Y-79452380D01*
X264857142Y-79404761D01*
X264809523Y-79357142D01*
X264761904Y-79261904D01*
X264761904Y-79023809D01*
X264809523Y-78928571D01*
X264857142Y-78880952D01*
X264952380Y-78833333D01*
X265142857Y-78833333D01*
X265238095Y-78880952D01*
X265285714Y-78928571D01*
X265333333Y-79023809D01*
X263119047Y-72857142D02*
X263166666Y-72904761D01*
X263309523Y-72952380D01*
X263404761Y-72952380D01*
X263547619Y-72904761D01*
X263642857Y-72809523D01*
X263690476Y-72714285D01*
X263738095Y-72523809D01*
X263738095Y-72380952D01*
X263690476Y-72190476D01*
X263642857Y-72095238D01*
X263547619Y-72000000D01*
X263404761Y-71952380D01*
X263309523Y-71952380D01*
X263166666Y-72000000D01*
X263119047Y-72047619D01*
X262785714Y-71952380D02*
X262166666Y-71952380D01*
X262500000Y-72333333D01*
X262357142Y-72333333D01*
X262261904Y-72380952D01*
X262214285Y-72428571D01*
X262166666Y-72523809D01*
X262166666Y-72761904D01*
X262214285Y-72857142D01*
X262261904Y-72904761D01*
X262357142Y-72952380D01*
X262642857Y-72952380D01*
X262738095Y-72904761D01*
X262785714Y-72857142D01*
X261547619Y-71952380D02*
X261452380Y-71952380D01*
X261357142Y-72000000D01*
X261309523Y-72047619D01*
X261261904Y-72142857D01*
X261214285Y-72333333D01*
X261214285Y-72571428D01*
X261261904Y-72761904D01*
X261309523Y-72857142D01*
X261357142Y-72904761D01*
X261452380Y-72952380D01*
X261547619Y-72952380D01*
X261642857Y-72904761D01*
X261690476Y-72857142D01*
X261738095Y-72761904D01*
X261785714Y-72571428D01*
X261785714Y-72333333D01*
X261738095Y-72142857D01*
X261690476Y-72047619D01*
X261642857Y-72000000D01*
X261547619Y-71952380D01*
X260880952Y-71952380D02*
X260214285Y-71952380D01*
X260642857Y-72952380D01*
X263119047Y-66357142D02*
X263166666Y-66404761D01*
X263309523Y-66452380D01*
X263404761Y-66452380D01*
X263547619Y-66404761D01*
X263642857Y-66309523D01*
X263690476Y-66214285D01*
X263738095Y-66023809D01*
X263738095Y-65880952D01*
X263690476Y-65690476D01*
X263642857Y-65595238D01*
X263547619Y-65500000D01*
X263404761Y-65452380D01*
X263309523Y-65452380D01*
X263166666Y-65500000D01*
X263119047Y-65547619D01*
X262785714Y-65452380D02*
X262166666Y-65452380D01*
X262500000Y-65833333D01*
X262357142Y-65833333D01*
X262261904Y-65880952D01*
X262214285Y-65928571D01*
X262166666Y-66023809D01*
X262166666Y-66261904D01*
X262214285Y-66357142D01*
X262261904Y-66404761D01*
X262357142Y-66452380D01*
X262642857Y-66452380D01*
X262738095Y-66404761D01*
X262785714Y-66357142D01*
X261547619Y-65452380D02*
X261452380Y-65452380D01*
X261357142Y-65500000D01*
X261309523Y-65547619D01*
X261261904Y-65642857D01*
X261214285Y-65833333D01*
X261214285Y-66071428D01*
X261261904Y-66261904D01*
X261309523Y-66357142D01*
X261357142Y-66404761D01*
X261452380Y-66452380D01*
X261547619Y-66452380D01*
X261642857Y-66404761D01*
X261690476Y-66357142D01*
X261738095Y-66261904D01*
X261785714Y-66071428D01*
X261785714Y-65833333D01*
X261738095Y-65642857D01*
X261690476Y-65547619D01*
X261642857Y-65500000D01*
X261547619Y-65452380D01*
X260642857Y-65880952D02*
X260738095Y-65833333D01*
X260785714Y-65785714D01*
X260833333Y-65690476D01*
X260833333Y-65642857D01*
X260785714Y-65547619D01*
X260738095Y-65500000D01*
X260642857Y-65452380D01*
X260452380Y-65452380D01*
X260357142Y-65500000D01*
X260309523Y-65547619D01*
X260261904Y-65642857D01*
X260261904Y-65690476D01*
X260309523Y-65785714D01*
X260357142Y-65833333D01*
X260452380Y-65880952D01*
X260642857Y-65880952D01*
X260738095Y-65928571D01*
X260785714Y-65976190D01*
X260833333Y-66071428D01*
X260833333Y-66261904D01*
X260785714Y-66357142D01*
X260738095Y-66404761D01*
X260642857Y-66452380D01*
X260452380Y-66452380D01*
X260357142Y-66404761D01*
X260309523Y-66357142D01*
X260261904Y-66261904D01*
X260261904Y-66071428D01*
X260309523Y-65976190D01*
X260357142Y-65928571D01*
X260452380Y-65880952D01*
X257119047Y-100357142D02*
X257166666Y-100404761D01*
X257309523Y-100452380D01*
X257404761Y-100452380D01*
X257547619Y-100404761D01*
X257642857Y-100309523D01*
X257690476Y-100214285D01*
X257738095Y-100023809D01*
X257738095Y-99880952D01*
X257690476Y-99690476D01*
X257642857Y-99595238D01*
X257547619Y-99500000D01*
X257404761Y-99452380D01*
X257309523Y-99452380D01*
X257166666Y-99500000D01*
X257119047Y-99547619D01*
X256785714Y-99452380D02*
X256166666Y-99452380D01*
X256500000Y-99833333D01*
X256357142Y-99833333D01*
X256261904Y-99880952D01*
X256214285Y-99928571D01*
X256166666Y-100023809D01*
X256166666Y-100261904D01*
X256214285Y-100357142D01*
X256261904Y-100404761D01*
X256357142Y-100452380D01*
X256642857Y-100452380D01*
X256738095Y-100404761D01*
X256785714Y-100357142D01*
X255547619Y-99452380D02*
X255452380Y-99452380D01*
X255357142Y-99500000D01*
X255309523Y-99547619D01*
X255261904Y-99642857D01*
X255214285Y-99833333D01*
X255214285Y-100071428D01*
X255261904Y-100261904D01*
X255309523Y-100357142D01*
X255357142Y-100404761D01*
X255452380Y-100452380D01*
X255547619Y-100452380D01*
X255642857Y-100404761D01*
X255690476Y-100357142D01*
X255738095Y-100261904D01*
X255785714Y-100071428D01*
X255785714Y-99833333D01*
X255738095Y-99642857D01*
X255690476Y-99547619D01*
X255642857Y-99500000D01*
X255547619Y-99452380D01*
X254738095Y-100452380D02*
X254547619Y-100452380D01*
X254452380Y-100404761D01*
X254404761Y-100357142D01*
X254309523Y-100214285D01*
X254261904Y-100023809D01*
X254261904Y-99642857D01*
X254309523Y-99547619D01*
X254357142Y-99500000D01*
X254452380Y-99452380D01*
X254642857Y-99452380D01*
X254738095Y-99500000D01*
X254785714Y-99547619D01*
X254833333Y-99642857D01*
X254833333Y-99880952D01*
X254785714Y-99976190D01*
X254738095Y-100023809D01*
X254642857Y-100071428D01*
X254452380Y-100071428D01*
X254357142Y-100023809D01*
X254309523Y-99976190D01*
X254261904Y-99880952D01*
X260619047Y-97857142D02*
X260666666Y-97904761D01*
X260809523Y-97952380D01*
X260904761Y-97952380D01*
X261047619Y-97904761D01*
X261142857Y-97809523D01*
X261190476Y-97714285D01*
X261238095Y-97523809D01*
X261238095Y-97380952D01*
X261190476Y-97190476D01*
X261142857Y-97095238D01*
X261047619Y-97000000D01*
X260904761Y-96952380D01*
X260809523Y-96952380D01*
X260666666Y-97000000D01*
X260619047Y-97047619D01*
X260285714Y-96952380D02*
X259666666Y-96952380D01*
X260000000Y-97333333D01*
X259857142Y-97333333D01*
X259761904Y-97380952D01*
X259714285Y-97428571D01*
X259666666Y-97523809D01*
X259666666Y-97761904D01*
X259714285Y-97857142D01*
X259761904Y-97904761D01*
X259857142Y-97952380D01*
X260142857Y-97952380D01*
X260238095Y-97904761D01*
X260285714Y-97857142D01*
X258714285Y-97952380D02*
X259285714Y-97952380D01*
X259000000Y-97952380D02*
X259000000Y-96952380D01*
X259095238Y-97095238D01*
X259190476Y-97190476D01*
X259285714Y-97238095D01*
X258095238Y-96952380D02*
X258000000Y-96952380D01*
X257904761Y-97000000D01*
X257857142Y-97047619D01*
X257809523Y-97142857D01*
X257761904Y-97333333D01*
X257761904Y-97571428D01*
X257809523Y-97761904D01*
X257857142Y-97857142D01*
X257904761Y-97904761D01*
X258000000Y-97952380D01*
X258095238Y-97952380D01*
X258190476Y-97904761D01*
X258238095Y-97857142D01*
X258285714Y-97761904D01*
X258333333Y-97571428D01*
X258333333Y-97333333D01*
X258285714Y-97142857D01*
X258238095Y-97047619D01*
X258190476Y-97000000D01*
X258095238Y-96952380D01*
X250869047Y-103607142D02*
X250916666Y-103654761D01*
X251059523Y-103702380D01*
X251154761Y-103702380D01*
X251297619Y-103654761D01*
X251392857Y-103559523D01*
X251440476Y-103464285D01*
X251488095Y-103273809D01*
X251488095Y-103130952D01*
X251440476Y-102940476D01*
X251392857Y-102845238D01*
X251297619Y-102750000D01*
X251154761Y-102702380D01*
X251059523Y-102702380D01*
X250916666Y-102750000D01*
X250869047Y-102797619D01*
X250535714Y-102702380D02*
X249916666Y-102702380D01*
X250250000Y-103083333D01*
X250107142Y-103083333D01*
X250011904Y-103130952D01*
X249964285Y-103178571D01*
X249916666Y-103273809D01*
X249916666Y-103511904D01*
X249964285Y-103607142D01*
X250011904Y-103654761D01*
X250107142Y-103702380D01*
X250392857Y-103702380D01*
X250488095Y-103654761D01*
X250535714Y-103607142D01*
X248964285Y-103702380D02*
X249535714Y-103702380D01*
X249250000Y-103702380D02*
X249250000Y-102702380D01*
X249345238Y-102845238D01*
X249440476Y-102940476D01*
X249535714Y-102988095D01*
X248011904Y-103702380D02*
X248583333Y-103702380D01*
X248297619Y-103702380D02*
X248297619Y-102702380D01*
X248392857Y-102845238D01*
X248488095Y-102940476D01*
X248583333Y-102988095D01*
X251119047Y-112607142D02*
X251166666Y-112654761D01*
X251309523Y-112702380D01*
X251404761Y-112702380D01*
X251547619Y-112654761D01*
X251642857Y-112559523D01*
X251690476Y-112464285D01*
X251738095Y-112273809D01*
X251738095Y-112130952D01*
X251690476Y-111940476D01*
X251642857Y-111845238D01*
X251547619Y-111750000D01*
X251404761Y-111702380D01*
X251309523Y-111702380D01*
X251166666Y-111750000D01*
X251119047Y-111797619D01*
X250785714Y-111702380D02*
X250166666Y-111702380D01*
X250500000Y-112083333D01*
X250357142Y-112083333D01*
X250261904Y-112130952D01*
X250214285Y-112178571D01*
X250166666Y-112273809D01*
X250166666Y-112511904D01*
X250214285Y-112607142D01*
X250261904Y-112654761D01*
X250357142Y-112702380D01*
X250642857Y-112702380D01*
X250738095Y-112654761D01*
X250785714Y-112607142D01*
X249214285Y-112702380D02*
X249785714Y-112702380D01*
X249500000Y-112702380D02*
X249500000Y-111702380D01*
X249595238Y-111845238D01*
X249690476Y-111940476D01*
X249785714Y-111988095D01*
X248833333Y-111797619D02*
X248785714Y-111750000D01*
X248690476Y-111702380D01*
X248452380Y-111702380D01*
X248357142Y-111750000D01*
X248309523Y-111797619D01*
X248261904Y-111892857D01*
X248261904Y-111988095D01*
X248309523Y-112130952D01*
X248880952Y-112702380D01*
X248261904Y-112702380D01*
X240119047Y-95357142D02*
X240166666Y-95404761D01*
X240309523Y-95452380D01*
X240404761Y-95452380D01*
X240547619Y-95404761D01*
X240642857Y-95309523D01*
X240690476Y-95214285D01*
X240738095Y-95023809D01*
X240738095Y-94880952D01*
X240690476Y-94690476D01*
X240642857Y-94595238D01*
X240547619Y-94500000D01*
X240404761Y-94452380D01*
X240309523Y-94452380D01*
X240166666Y-94500000D01*
X240119047Y-94547619D01*
X239261904Y-94785714D02*
X239261904Y-95452380D01*
X239500000Y-94404761D02*
X239738095Y-95119047D01*
X239119047Y-95119047D01*
X238547619Y-94452380D02*
X238452380Y-94452380D01*
X238357142Y-94500000D01*
X238309523Y-94547619D01*
X238261904Y-94642857D01*
X238214285Y-94833333D01*
X238214285Y-95071428D01*
X238261904Y-95261904D01*
X238309523Y-95357142D01*
X238357142Y-95404761D01*
X238452380Y-95452380D01*
X238547619Y-95452380D01*
X238642857Y-95404761D01*
X238690476Y-95357142D01*
X238738095Y-95261904D01*
X238785714Y-95071428D01*
X238785714Y-94833333D01*
X238738095Y-94642857D01*
X238690476Y-94547619D01*
X238642857Y-94500000D01*
X238547619Y-94452380D01*
X237261904Y-95452380D02*
X237833333Y-95452380D01*
X237547619Y-95452380D02*
X237547619Y-94452380D01*
X237642857Y-94595238D01*
X237738095Y-94690476D01*
X237833333Y-94738095D01*
X240119047Y-96857142D02*
X240166666Y-96904761D01*
X240309523Y-96952380D01*
X240404761Y-96952380D01*
X240547619Y-96904761D01*
X240642857Y-96809523D01*
X240690476Y-96714285D01*
X240738095Y-96523809D01*
X240738095Y-96380952D01*
X240690476Y-96190476D01*
X240642857Y-96095238D01*
X240547619Y-96000000D01*
X240404761Y-95952380D01*
X240309523Y-95952380D01*
X240166666Y-96000000D01*
X240119047Y-96047619D01*
X239261904Y-96285714D02*
X239261904Y-96952380D01*
X239500000Y-95904761D02*
X239738095Y-96619047D01*
X239119047Y-96619047D01*
X238547619Y-95952380D02*
X238452380Y-95952380D01*
X238357142Y-96000000D01*
X238309523Y-96047619D01*
X238261904Y-96142857D01*
X238214285Y-96333333D01*
X238214285Y-96571428D01*
X238261904Y-96761904D01*
X238309523Y-96857142D01*
X238357142Y-96904761D01*
X238452380Y-96952380D01*
X238547619Y-96952380D01*
X238642857Y-96904761D01*
X238690476Y-96857142D01*
X238738095Y-96761904D01*
X238785714Y-96571428D01*
X238785714Y-96333333D01*
X238738095Y-96142857D01*
X238690476Y-96047619D01*
X238642857Y-96000000D01*
X238547619Y-95952380D01*
X237833333Y-96047619D02*
X237785714Y-96000000D01*
X237690476Y-95952380D01*
X237452380Y-95952380D01*
X237357142Y-96000000D01*
X237309523Y-96047619D01*
X237261904Y-96142857D01*
X237261904Y-96238095D01*
X237309523Y-96380952D01*
X237880952Y-96952380D01*
X237261904Y-96952380D01*
X248869047Y-115857142D02*
X248916666Y-115904761D01*
X249059523Y-115952380D01*
X249154761Y-115952380D01*
X249297619Y-115904761D01*
X249392857Y-115809523D01*
X249440476Y-115714285D01*
X249488095Y-115523809D01*
X249488095Y-115380952D01*
X249440476Y-115190476D01*
X249392857Y-115095238D01*
X249297619Y-115000000D01*
X249154761Y-114952380D01*
X249059523Y-114952380D01*
X248916666Y-115000000D01*
X248869047Y-115047619D01*
X248011904Y-115285714D02*
X248011904Y-115952380D01*
X248250000Y-114904761D02*
X248488095Y-115619047D01*
X247869047Y-115619047D01*
X247297619Y-114952380D02*
X247202380Y-114952380D01*
X247107142Y-115000000D01*
X247059523Y-115047619D01*
X247011904Y-115142857D01*
X246964285Y-115333333D01*
X246964285Y-115571428D01*
X247011904Y-115761904D01*
X247059523Y-115857142D01*
X247107142Y-115904761D01*
X247202380Y-115952380D01*
X247297619Y-115952380D01*
X247392857Y-115904761D01*
X247440476Y-115857142D01*
X247488095Y-115761904D01*
X247535714Y-115571428D01*
X247535714Y-115333333D01*
X247488095Y-115142857D01*
X247440476Y-115047619D01*
X247392857Y-115000000D01*
X247297619Y-114952380D01*
X246630952Y-114952380D02*
X246011904Y-114952380D01*
X246345238Y-115333333D01*
X246202380Y-115333333D01*
X246107142Y-115380952D01*
X246059523Y-115428571D01*
X246011904Y-115523809D01*
X246011904Y-115761904D01*
X246059523Y-115857142D01*
X246107142Y-115904761D01*
X246202380Y-115952380D01*
X246488095Y-115952380D01*
X246583333Y-115904761D01*
X246630952Y-115857142D01*
X244619047Y-95357142D02*
X244666666Y-95404761D01*
X244809523Y-95452380D01*
X244904761Y-95452380D01*
X245047619Y-95404761D01*
X245142857Y-95309523D01*
X245190476Y-95214285D01*
X245238095Y-95023809D01*
X245238095Y-94880952D01*
X245190476Y-94690476D01*
X245142857Y-94595238D01*
X245047619Y-94500000D01*
X244904761Y-94452380D01*
X244809523Y-94452380D01*
X244666666Y-94500000D01*
X244619047Y-94547619D01*
X243761904Y-94785714D02*
X243761904Y-95452380D01*
X244000000Y-94404761D02*
X244238095Y-95119047D01*
X243619047Y-95119047D01*
X243047619Y-94452380D02*
X242952380Y-94452380D01*
X242857142Y-94500000D01*
X242809523Y-94547619D01*
X242761904Y-94642857D01*
X242714285Y-94833333D01*
X242714285Y-95071428D01*
X242761904Y-95261904D01*
X242809523Y-95357142D01*
X242857142Y-95404761D01*
X242952380Y-95452380D01*
X243047619Y-95452380D01*
X243142857Y-95404761D01*
X243190476Y-95357142D01*
X243238095Y-95261904D01*
X243285714Y-95071428D01*
X243285714Y-94833333D01*
X243238095Y-94642857D01*
X243190476Y-94547619D01*
X243142857Y-94500000D01*
X243047619Y-94452380D01*
X241857142Y-94785714D02*
X241857142Y-95452380D01*
X242095238Y-94404761D02*
X242333333Y-95119047D01*
X241714285Y-95119047D01*
X244619047Y-96857142D02*
X244666666Y-96904761D01*
X244809523Y-96952380D01*
X244904761Y-96952380D01*
X245047619Y-96904761D01*
X245142857Y-96809523D01*
X245190476Y-96714285D01*
X245238095Y-96523809D01*
X245238095Y-96380952D01*
X245190476Y-96190476D01*
X245142857Y-96095238D01*
X245047619Y-96000000D01*
X244904761Y-95952380D01*
X244809523Y-95952380D01*
X244666666Y-96000000D01*
X244619047Y-96047619D01*
X243761904Y-96285714D02*
X243761904Y-96952380D01*
X244000000Y-95904761D02*
X244238095Y-96619047D01*
X243619047Y-96619047D01*
X243047619Y-95952380D02*
X242952380Y-95952380D01*
X242857142Y-96000000D01*
X242809523Y-96047619D01*
X242761904Y-96142857D01*
X242714285Y-96333333D01*
X242714285Y-96571428D01*
X242761904Y-96761904D01*
X242809523Y-96857142D01*
X242857142Y-96904761D01*
X242952380Y-96952380D01*
X243047619Y-96952380D01*
X243142857Y-96904761D01*
X243190476Y-96857142D01*
X243238095Y-96761904D01*
X243285714Y-96571428D01*
X243285714Y-96333333D01*
X243238095Y-96142857D01*
X243190476Y-96047619D01*
X243142857Y-96000000D01*
X243047619Y-95952380D01*
X241809523Y-95952380D02*
X242285714Y-95952380D01*
X242333333Y-96428571D01*
X242285714Y-96380952D01*
X242190476Y-96333333D01*
X241952380Y-96333333D01*
X241857142Y-96380952D01*
X241809523Y-96428571D01*
X241761904Y-96523809D01*
X241761904Y-96761904D01*
X241809523Y-96857142D01*
X241857142Y-96904761D01*
X241952380Y-96952380D01*
X242190476Y-96952380D01*
X242285714Y-96904761D01*
X242333333Y-96857142D01*
X236357142Y-89880952D02*
X236404761Y-89833333D01*
X236452380Y-89690476D01*
X236452380Y-89595238D01*
X236404761Y-89452380D01*
X236309523Y-89357142D01*
X236214285Y-89309523D01*
X236023809Y-89261904D01*
X235880952Y-89261904D01*
X235690476Y-89309523D01*
X235595238Y-89357142D01*
X235500000Y-89452380D01*
X235452380Y-89595238D01*
X235452380Y-89690476D01*
X235500000Y-89833333D01*
X235547619Y-89880952D01*
X235785714Y-90738095D02*
X236452380Y-90738095D01*
X235404761Y-90500000D02*
X236119047Y-90261904D01*
X236119047Y-90880952D01*
X235452380Y-91452380D02*
X235452380Y-91547619D01*
X235500000Y-91642857D01*
X235547619Y-91690476D01*
X235642857Y-91738095D01*
X235833333Y-91785714D01*
X236071428Y-91785714D01*
X236261904Y-91738095D01*
X236357142Y-91690476D01*
X236404761Y-91642857D01*
X236452380Y-91547619D01*
X236452380Y-91452380D01*
X236404761Y-91357142D01*
X236357142Y-91309523D01*
X236261904Y-91261904D01*
X236071428Y-91214285D01*
X235833333Y-91214285D01*
X235642857Y-91261904D01*
X235547619Y-91309523D01*
X235500000Y-91357142D01*
X235452380Y-91452380D01*
X235452380Y-92642857D02*
X235452380Y-92452380D01*
X235500000Y-92357142D01*
X235547619Y-92309523D01*
X235690476Y-92214285D01*
X235880952Y-92166666D01*
X236261904Y-92166666D01*
X236357142Y-92214285D01*
X236404761Y-92261904D01*
X236452380Y-92357142D01*
X236452380Y-92547619D01*
X236404761Y-92642857D01*
X236357142Y-92690476D01*
X236261904Y-92738095D01*
X236023809Y-92738095D01*
X235928571Y-92690476D01*
X235880952Y-92642857D01*
X235833333Y-92547619D01*
X235833333Y-92357142D01*
X235880952Y-92261904D01*
X235928571Y-92214285D01*
X236023809Y-92166666D01*
X229119047Y-116607142D02*
X229166666Y-116654761D01*
X229309523Y-116702380D01*
X229404761Y-116702380D01*
X229547619Y-116654761D01*
X229642857Y-116559523D01*
X229690476Y-116464285D01*
X229738095Y-116273809D01*
X229738095Y-116130952D01*
X229690476Y-115940476D01*
X229642857Y-115845238D01*
X229547619Y-115750000D01*
X229404761Y-115702380D01*
X229309523Y-115702380D01*
X229166666Y-115750000D01*
X229119047Y-115797619D01*
X228261904Y-116035714D02*
X228261904Y-116702380D01*
X228500000Y-115654761D02*
X228738095Y-116369047D01*
X228119047Y-116369047D01*
X227547619Y-115702380D02*
X227452380Y-115702380D01*
X227357142Y-115750000D01*
X227309523Y-115797619D01*
X227261904Y-115892857D01*
X227214285Y-116083333D01*
X227214285Y-116321428D01*
X227261904Y-116511904D01*
X227309523Y-116607142D01*
X227357142Y-116654761D01*
X227452380Y-116702380D01*
X227547619Y-116702380D01*
X227642857Y-116654761D01*
X227690476Y-116607142D01*
X227738095Y-116511904D01*
X227785714Y-116321428D01*
X227785714Y-116083333D01*
X227738095Y-115892857D01*
X227690476Y-115797619D01*
X227642857Y-115750000D01*
X227547619Y-115702380D01*
X226880952Y-115702380D02*
X226214285Y-115702380D01*
X226642857Y-116702380D01*
X244369047Y-118357142D02*
X244416666Y-118404761D01*
X244559523Y-118452380D01*
X244654761Y-118452380D01*
X244797619Y-118404761D01*
X244892857Y-118309523D01*
X244940476Y-118214285D01*
X244988095Y-118023809D01*
X244988095Y-117880952D01*
X244940476Y-117690476D01*
X244892857Y-117595238D01*
X244797619Y-117500000D01*
X244654761Y-117452380D01*
X244559523Y-117452380D01*
X244416666Y-117500000D01*
X244369047Y-117547619D01*
X243511904Y-117785714D02*
X243511904Y-118452380D01*
X243750000Y-117404761D02*
X243988095Y-118119047D01*
X243369047Y-118119047D01*
X242797619Y-117452380D02*
X242702380Y-117452380D01*
X242607142Y-117500000D01*
X242559523Y-117547619D01*
X242511904Y-117642857D01*
X242464285Y-117833333D01*
X242464285Y-118071428D01*
X242511904Y-118261904D01*
X242559523Y-118357142D01*
X242607142Y-118404761D01*
X242702380Y-118452380D01*
X242797619Y-118452380D01*
X242892857Y-118404761D01*
X242940476Y-118357142D01*
X242988095Y-118261904D01*
X243035714Y-118071428D01*
X243035714Y-117833333D01*
X242988095Y-117642857D01*
X242940476Y-117547619D01*
X242892857Y-117500000D01*
X242797619Y-117452380D01*
X241892857Y-117880952D02*
X241988095Y-117833333D01*
X242035714Y-117785714D01*
X242083333Y-117690476D01*
X242083333Y-117642857D01*
X242035714Y-117547619D01*
X241988095Y-117500000D01*
X241892857Y-117452380D01*
X241702380Y-117452380D01*
X241607142Y-117500000D01*
X241559523Y-117547619D01*
X241511904Y-117642857D01*
X241511904Y-117690476D01*
X241559523Y-117785714D01*
X241607142Y-117833333D01*
X241702380Y-117880952D01*
X241892857Y-117880952D01*
X241988095Y-117928571D01*
X242035714Y-117976190D01*
X242083333Y-118071428D01*
X242083333Y-118261904D01*
X242035714Y-118357142D01*
X241988095Y-118404761D01*
X241892857Y-118452380D01*
X241702380Y-118452380D01*
X241607142Y-118404761D01*
X241559523Y-118357142D01*
X241511904Y-118261904D01*
X241511904Y-118071428D01*
X241559523Y-117976190D01*
X241607142Y-117928571D01*
X241702380Y-117880952D01*
X202119047Y-85282142D02*
X202166666Y-85329761D01*
X202309523Y-85377380D01*
X202404761Y-85377380D01*
X202547619Y-85329761D01*
X202642857Y-85234523D01*
X202690476Y-85139285D01*
X202738095Y-84948809D01*
X202738095Y-84805952D01*
X202690476Y-84615476D01*
X202642857Y-84520238D01*
X202547619Y-84425000D01*
X202404761Y-84377380D01*
X202309523Y-84377380D01*
X202166666Y-84425000D01*
X202119047Y-84472619D01*
X201214285Y-84377380D02*
X201690476Y-84377380D01*
X201738095Y-84853571D01*
X201690476Y-84805952D01*
X201595238Y-84758333D01*
X201357142Y-84758333D01*
X201261904Y-84805952D01*
X201214285Y-84853571D01*
X201166666Y-84948809D01*
X201166666Y-85186904D01*
X201214285Y-85282142D01*
X201261904Y-85329761D01*
X201357142Y-85377380D01*
X201595238Y-85377380D01*
X201690476Y-85329761D01*
X201738095Y-85282142D01*
X200547619Y-84377380D02*
X200452380Y-84377380D01*
X200357142Y-84425000D01*
X200309523Y-84472619D01*
X200261904Y-84567857D01*
X200214285Y-84758333D01*
X200214285Y-84996428D01*
X200261904Y-85186904D01*
X200309523Y-85282142D01*
X200357142Y-85329761D01*
X200452380Y-85377380D01*
X200547619Y-85377380D01*
X200642857Y-85329761D01*
X200690476Y-85282142D01*
X200738095Y-85186904D01*
X200785714Y-84996428D01*
X200785714Y-84758333D01*
X200738095Y-84567857D01*
X200690476Y-84472619D01*
X200642857Y-84425000D01*
X200547619Y-84377380D01*
X199261904Y-85377380D02*
X199833333Y-85377380D01*
X199547619Y-85377380D02*
X199547619Y-84377380D01*
X199642857Y-84520238D01*
X199738095Y-84615476D01*
X199833333Y-84663095D01*
X202069047Y-86957142D02*
X202116666Y-87004761D01*
X202259523Y-87052380D01*
X202354761Y-87052380D01*
X202497619Y-87004761D01*
X202592857Y-86909523D01*
X202640476Y-86814285D01*
X202688095Y-86623809D01*
X202688095Y-86480952D01*
X202640476Y-86290476D01*
X202592857Y-86195238D01*
X202497619Y-86100000D01*
X202354761Y-86052380D01*
X202259523Y-86052380D01*
X202116666Y-86100000D01*
X202069047Y-86147619D01*
X201164285Y-86052380D02*
X201640476Y-86052380D01*
X201688095Y-86528571D01*
X201640476Y-86480952D01*
X201545238Y-86433333D01*
X201307142Y-86433333D01*
X201211904Y-86480952D01*
X201164285Y-86528571D01*
X201116666Y-86623809D01*
X201116666Y-86861904D01*
X201164285Y-86957142D01*
X201211904Y-87004761D01*
X201307142Y-87052380D01*
X201545238Y-87052380D01*
X201640476Y-87004761D01*
X201688095Y-86957142D01*
X200497619Y-86052380D02*
X200402380Y-86052380D01*
X200307142Y-86100000D01*
X200259523Y-86147619D01*
X200211904Y-86242857D01*
X200164285Y-86433333D01*
X200164285Y-86671428D01*
X200211904Y-86861904D01*
X200259523Y-86957142D01*
X200307142Y-87004761D01*
X200402380Y-87052380D01*
X200497619Y-87052380D01*
X200592857Y-87004761D01*
X200640476Y-86957142D01*
X200688095Y-86861904D01*
X200735714Y-86671428D01*
X200735714Y-86433333D01*
X200688095Y-86242857D01*
X200640476Y-86147619D01*
X200592857Y-86100000D01*
X200497619Y-86052380D01*
X199783333Y-86147619D02*
X199735714Y-86100000D01*
X199640476Y-86052380D01*
X199402380Y-86052380D01*
X199307142Y-86100000D01*
X199259523Y-86147619D01*
X199211904Y-86242857D01*
X199211904Y-86338095D01*
X199259523Y-86480952D01*
X199830952Y-87052380D01*
X199211904Y-87052380D01*
X155519047Y-94357142D02*
X155566666Y-94404761D01*
X155709523Y-94452380D01*
X155804761Y-94452380D01*
X155947619Y-94404761D01*
X156042857Y-94309523D01*
X156090476Y-94214285D01*
X156138095Y-94023809D01*
X156138095Y-93880952D01*
X156090476Y-93690476D01*
X156042857Y-93595238D01*
X155947619Y-93500000D01*
X155804761Y-93452380D01*
X155709523Y-93452380D01*
X155566666Y-93500000D01*
X155519047Y-93547619D01*
X154614285Y-93452380D02*
X155090476Y-93452380D01*
X155138095Y-93928571D01*
X155090476Y-93880952D01*
X154995238Y-93833333D01*
X154757142Y-93833333D01*
X154661904Y-93880952D01*
X154614285Y-93928571D01*
X154566666Y-94023809D01*
X154566666Y-94261904D01*
X154614285Y-94357142D01*
X154661904Y-94404761D01*
X154757142Y-94452380D01*
X154995238Y-94452380D01*
X155090476Y-94404761D01*
X155138095Y-94357142D01*
X153947619Y-93452380D02*
X153852380Y-93452380D01*
X153757142Y-93500000D01*
X153709523Y-93547619D01*
X153661904Y-93642857D01*
X153614285Y-93833333D01*
X153614285Y-94071428D01*
X153661904Y-94261904D01*
X153709523Y-94357142D01*
X153757142Y-94404761D01*
X153852380Y-94452380D01*
X153947619Y-94452380D01*
X154042857Y-94404761D01*
X154090476Y-94357142D01*
X154138095Y-94261904D01*
X154185714Y-94071428D01*
X154185714Y-93833333D01*
X154138095Y-93642857D01*
X154090476Y-93547619D01*
X154042857Y-93500000D01*
X153947619Y-93452380D01*
X152757142Y-93785714D02*
X152757142Y-94452380D01*
X152995238Y-93404761D02*
X153233333Y-94119047D01*
X152614285Y-94119047D01*
X212369047Y-94557142D02*
X212416666Y-94604761D01*
X212559523Y-94652380D01*
X212654761Y-94652380D01*
X212797619Y-94604761D01*
X212892857Y-94509523D01*
X212940476Y-94414285D01*
X212988095Y-94223809D01*
X212988095Y-94080952D01*
X212940476Y-93890476D01*
X212892857Y-93795238D01*
X212797619Y-93700000D01*
X212654761Y-93652380D01*
X212559523Y-93652380D01*
X212416666Y-93700000D01*
X212369047Y-93747619D01*
X211464285Y-93652380D02*
X211940476Y-93652380D01*
X211988095Y-94128571D01*
X211940476Y-94080952D01*
X211845238Y-94033333D01*
X211607142Y-94033333D01*
X211511904Y-94080952D01*
X211464285Y-94128571D01*
X211416666Y-94223809D01*
X211416666Y-94461904D01*
X211464285Y-94557142D01*
X211511904Y-94604761D01*
X211607142Y-94652380D01*
X211845238Y-94652380D01*
X211940476Y-94604761D01*
X211988095Y-94557142D01*
X210797619Y-93652380D02*
X210702380Y-93652380D01*
X210607142Y-93700000D01*
X210559523Y-93747619D01*
X210511904Y-93842857D01*
X210464285Y-94033333D01*
X210464285Y-94271428D01*
X210511904Y-94461904D01*
X210559523Y-94557142D01*
X210607142Y-94604761D01*
X210702380Y-94652380D01*
X210797619Y-94652380D01*
X210892857Y-94604761D01*
X210940476Y-94557142D01*
X210988095Y-94461904D01*
X211035714Y-94271428D01*
X211035714Y-94033333D01*
X210988095Y-93842857D01*
X210940476Y-93747619D01*
X210892857Y-93700000D01*
X210797619Y-93652380D01*
X209559523Y-93652380D02*
X210035714Y-93652380D01*
X210083333Y-94128571D01*
X210035714Y-94080952D01*
X209940476Y-94033333D01*
X209702380Y-94033333D01*
X209607142Y-94080952D01*
X209559523Y-94128571D01*
X209511904Y-94223809D01*
X209511904Y-94461904D01*
X209559523Y-94557142D01*
X209607142Y-94604761D01*
X209702380Y-94652380D01*
X209940476Y-94652380D01*
X210035714Y-94604761D01*
X210083333Y-94557142D01*
X155519047Y-96257142D02*
X155566666Y-96304761D01*
X155709523Y-96352380D01*
X155804761Y-96352380D01*
X155947619Y-96304761D01*
X156042857Y-96209523D01*
X156090476Y-96114285D01*
X156138095Y-95923809D01*
X156138095Y-95780952D01*
X156090476Y-95590476D01*
X156042857Y-95495238D01*
X155947619Y-95400000D01*
X155804761Y-95352380D01*
X155709523Y-95352380D01*
X155566666Y-95400000D01*
X155519047Y-95447619D01*
X154614285Y-95352380D02*
X155090476Y-95352380D01*
X155138095Y-95828571D01*
X155090476Y-95780952D01*
X154995238Y-95733333D01*
X154757142Y-95733333D01*
X154661904Y-95780952D01*
X154614285Y-95828571D01*
X154566666Y-95923809D01*
X154566666Y-96161904D01*
X154614285Y-96257142D01*
X154661904Y-96304761D01*
X154757142Y-96352380D01*
X154995238Y-96352380D01*
X155090476Y-96304761D01*
X155138095Y-96257142D01*
X153947619Y-95352380D02*
X153852380Y-95352380D01*
X153757142Y-95400000D01*
X153709523Y-95447619D01*
X153661904Y-95542857D01*
X153614285Y-95733333D01*
X153614285Y-95971428D01*
X153661904Y-96161904D01*
X153709523Y-96257142D01*
X153757142Y-96304761D01*
X153852380Y-96352380D01*
X153947619Y-96352380D01*
X154042857Y-96304761D01*
X154090476Y-96257142D01*
X154138095Y-96161904D01*
X154185714Y-95971428D01*
X154185714Y-95733333D01*
X154138095Y-95542857D01*
X154090476Y-95447619D01*
X154042857Y-95400000D01*
X153947619Y-95352380D01*
X152757142Y-95352380D02*
X152947619Y-95352380D01*
X153042857Y-95400000D01*
X153090476Y-95447619D01*
X153185714Y-95590476D01*
X153233333Y-95780952D01*
X153233333Y-96161904D01*
X153185714Y-96257142D01*
X153138095Y-96304761D01*
X153042857Y-96352380D01*
X152852380Y-96352380D01*
X152757142Y-96304761D01*
X152709523Y-96257142D01*
X152661904Y-96161904D01*
X152661904Y-95923809D01*
X152709523Y-95828571D01*
X152757142Y-95780952D01*
X152852380Y-95733333D01*
X153042857Y-95733333D01*
X153138095Y-95780952D01*
X153185714Y-95828571D01*
X153233333Y-95923809D01*
X212369047Y-96107142D02*
X212416666Y-96154761D01*
X212559523Y-96202380D01*
X212654761Y-96202380D01*
X212797619Y-96154761D01*
X212892857Y-96059523D01*
X212940476Y-95964285D01*
X212988095Y-95773809D01*
X212988095Y-95630952D01*
X212940476Y-95440476D01*
X212892857Y-95345238D01*
X212797619Y-95250000D01*
X212654761Y-95202380D01*
X212559523Y-95202380D01*
X212416666Y-95250000D01*
X212369047Y-95297619D01*
X211464285Y-95202380D02*
X211940476Y-95202380D01*
X211988095Y-95678571D01*
X211940476Y-95630952D01*
X211845238Y-95583333D01*
X211607142Y-95583333D01*
X211511904Y-95630952D01*
X211464285Y-95678571D01*
X211416666Y-95773809D01*
X211416666Y-96011904D01*
X211464285Y-96107142D01*
X211511904Y-96154761D01*
X211607142Y-96202380D01*
X211845238Y-96202380D01*
X211940476Y-96154761D01*
X211988095Y-96107142D01*
X210797619Y-95202380D02*
X210702380Y-95202380D01*
X210607142Y-95250000D01*
X210559523Y-95297619D01*
X210511904Y-95392857D01*
X210464285Y-95583333D01*
X210464285Y-95821428D01*
X210511904Y-96011904D01*
X210559523Y-96107142D01*
X210607142Y-96154761D01*
X210702380Y-96202380D01*
X210797619Y-96202380D01*
X210892857Y-96154761D01*
X210940476Y-96107142D01*
X210988095Y-96011904D01*
X211035714Y-95821428D01*
X211035714Y-95583333D01*
X210988095Y-95392857D01*
X210940476Y-95297619D01*
X210892857Y-95250000D01*
X210797619Y-95202380D01*
X210130952Y-95202380D02*
X209464285Y-95202380D01*
X209892857Y-96202380D01*
X200452380Y-105809523D02*
X199452380Y-105809523D01*
X199452380Y-106047619D01*
X199500000Y-106190476D01*
X199595238Y-106285714D01*
X199690476Y-106333333D01*
X199880952Y-106380952D01*
X200023809Y-106380952D01*
X200214285Y-106333333D01*
X200309523Y-106285714D01*
X200404761Y-106190476D01*
X200452380Y-106047619D01*
X200452380Y-105809523D01*
X199547619Y-106761904D02*
X199500000Y-106809523D01*
X199452380Y-106904761D01*
X199452380Y-107142857D01*
X199500000Y-107238095D01*
X199547619Y-107285714D01*
X199642857Y-107333333D01*
X199738095Y-107333333D01*
X199880952Y-107285714D01*
X200452380Y-106714285D01*
X200452380Y-107333333D01*
X199452380Y-107952380D02*
X199452380Y-108047619D01*
X199500000Y-108142857D01*
X199547619Y-108190476D01*
X199642857Y-108238095D01*
X199833333Y-108285714D01*
X200071428Y-108285714D01*
X200261904Y-108238095D01*
X200357142Y-108190476D01*
X200404761Y-108142857D01*
X200452380Y-108047619D01*
X200452380Y-107952380D01*
X200404761Y-107857142D01*
X200357142Y-107809523D01*
X200261904Y-107761904D01*
X200071428Y-107714285D01*
X199833333Y-107714285D01*
X199642857Y-107761904D01*
X199547619Y-107809523D01*
X199500000Y-107857142D01*
X199452380Y-107952380D01*
X200452380Y-109238095D02*
X200452380Y-108666666D01*
X200452380Y-108952380D02*
X199452380Y-108952380D01*
X199595238Y-108857142D01*
X199690476Y-108761904D01*
X199738095Y-108666666D01*
X231952380Y-89309523D02*
X230952380Y-89309523D01*
X230952380Y-89547619D01*
X231000000Y-89690476D01*
X231095238Y-89785714D01*
X231190476Y-89833333D01*
X231380952Y-89880952D01*
X231523809Y-89880952D01*
X231714285Y-89833333D01*
X231809523Y-89785714D01*
X231904761Y-89690476D01*
X231952380Y-89547619D01*
X231952380Y-89309523D01*
X231285714Y-90738095D02*
X231952380Y-90738095D01*
X230904761Y-90500000D02*
X231619047Y-90261904D01*
X231619047Y-90880952D01*
X230952380Y-91452380D02*
X230952380Y-91547619D01*
X231000000Y-91642857D01*
X231047619Y-91690476D01*
X231142857Y-91738095D01*
X231333333Y-91785714D01*
X231571428Y-91785714D01*
X231761904Y-91738095D01*
X231857142Y-91690476D01*
X231904761Y-91642857D01*
X231952380Y-91547619D01*
X231952380Y-91452380D01*
X231904761Y-91357142D01*
X231857142Y-91309523D01*
X231761904Y-91261904D01*
X231571428Y-91214285D01*
X231333333Y-91214285D01*
X231142857Y-91261904D01*
X231047619Y-91309523D01*
X231000000Y-91357142D01*
X230952380Y-91452380D01*
X231952380Y-92738095D02*
X231952380Y-92166666D01*
X231952380Y-92452380D02*
X230952380Y-92452380D01*
X231095238Y-92357142D01*
X231190476Y-92261904D01*
X231238095Y-92166666D01*
X190428571Y-104714285D02*
X190428571Y-104380952D01*
X190952380Y-104380952D02*
X189952380Y-104380952D01*
X189952380Y-104857142D01*
X190047619Y-105190476D02*
X190000000Y-105238095D01*
X189952380Y-105333333D01*
X189952380Y-105571428D01*
X190000000Y-105666666D01*
X190047619Y-105714285D01*
X190142857Y-105761904D01*
X190238095Y-105761904D01*
X190380952Y-105714285D01*
X190952380Y-105142857D01*
X190952380Y-105761904D01*
X189952380Y-106380952D02*
X189952380Y-106476190D01*
X190000000Y-106571428D01*
X190047619Y-106619047D01*
X190142857Y-106666666D01*
X190333333Y-106714285D01*
X190571428Y-106714285D01*
X190761904Y-106666666D01*
X190857142Y-106619047D01*
X190904761Y-106571428D01*
X190952380Y-106476190D01*
X190952380Y-106380952D01*
X190904761Y-106285714D01*
X190857142Y-106238095D01*
X190761904Y-106190476D01*
X190571428Y-106142857D01*
X190333333Y-106142857D01*
X190142857Y-106190476D01*
X190047619Y-106238095D01*
X190000000Y-106285714D01*
X189952380Y-106380952D01*
X190952380Y-107666666D02*
X190952380Y-107095238D01*
X190952380Y-107380952D02*
X189952380Y-107380952D01*
X190095238Y-107285714D01*
X190190476Y-107190476D01*
X190238095Y-107095238D01*
D16*
X262833333Y-114309523D02*
X262833333Y-117166666D01*
X263023809Y-117738095D01*
X263404761Y-118119047D01*
X263976190Y-118309523D01*
X264357142Y-118309523D01*
X258833333Y-118309523D02*
X261119047Y-118309523D01*
X259976190Y-118309523D02*
X259976190Y-114309523D01*
X260357142Y-114880952D01*
X260738095Y-115261904D01*
X261119047Y-115452380D01*
X109833333Y-73309523D02*
X109833333Y-76166666D01*
X110023809Y-76738095D01*
X110404761Y-77119047D01*
X110976190Y-77309523D01*
X111357142Y-77309523D01*
X108119047Y-73690476D02*
X107928571Y-73500000D01*
X107547619Y-73309523D01*
X106595238Y-73309523D01*
X106214285Y-73500000D01*
X106023809Y-73690476D01*
X105833333Y-74071428D01*
X105833333Y-74452380D01*
X106023809Y-75023809D01*
X108309523Y-77309523D01*
X105833333Y-77309523D01*
X140833333Y-106559523D02*
X140833333Y-109416666D01*
X141023809Y-109988095D01*
X141404761Y-110369047D01*
X141976190Y-110559523D01*
X142357142Y-110559523D01*
X139309523Y-106559523D02*
X136833333Y-106559523D01*
X138166666Y-108083333D01*
X137595238Y-108083333D01*
X137214285Y-108273809D01*
X137023809Y-108464285D01*
X136833333Y-108845238D01*
X136833333Y-109797619D01*
X137023809Y-110178571D01*
X137214285Y-110369047D01*
X137595238Y-110559523D01*
X138738095Y-110559523D01*
X139119047Y-110369047D01*
X139309523Y-110178571D01*
D17*
X228166666Y-94654761D02*
X228166666Y-96083333D01*
X228261904Y-96369047D01*
X228452380Y-96559523D01*
X228738095Y-96654761D01*
X228928571Y-96654761D01*
X226261904Y-94654761D02*
X227214285Y-94654761D01*
X227309523Y-95607142D01*
X227214285Y-95511904D01*
X227023809Y-95416666D01*
X226547619Y-95416666D01*
X226357142Y-95511904D01*
X226261904Y-95607142D01*
X226166666Y-95797619D01*
X226166666Y-96273809D01*
X226261904Y-96464285D01*
X226357142Y-96559523D01*
X226547619Y-96654761D01*
X227023809Y-96654761D01*
X227214285Y-96559523D01*
X227309523Y-96464285D01*
D14*
X225416666Y-95952380D02*
X225416666Y-96666666D01*
X225464285Y-96809523D01*
X225559523Y-96904761D01*
X225702380Y-96952380D01*
X225797619Y-96952380D01*
X225083333Y-95952380D02*
X224511904Y-95952380D01*
X224797619Y-96952380D02*
X224797619Y-95952380D01*
X224226190Y-96666666D02*
X223750000Y-96666666D01*
X224321428Y-96952380D02*
X223988095Y-95952380D01*
X223654761Y-96952380D01*
X222797619Y-96000000D02*
X222892857Y-95952380D01*
X223035714Y-95952380D01*
X223178571Y-96000000D01*
X223273809Y-96095238D01*
X223321428Y-96190476D01*
X223369047Y-96380952D01*
X223369047Y-96523809D01*
X223321428Y-96714285D01*
X223273809Y-96809523D01*
X223178571Y-96904761D01*
X223035714Y-96952380D01*
X222940476Y-96952380D01*
X222797619Y-96904761D01*
X222750000Y-96857142D01*
X222750000Y-96523809D01*
X222940476Y-96523809D01*
X194702380Y-104880952D02*
X194702380Y-104404761D01*
X193702380Y-104404761D01*
X193797619Y-105166666D02*
X193750000Y-105214285D01*
X193702380Y-105309523D01*
X193702380Y-105547619D01*
X193750000Y-105642857D01*
X193797619Y-105690476D01*
X193892857Y-105738095D01*
X193988095Y-105738095D01*
X194130952Y-105690476D01*
X194702380Y-105119047D01*
X194702380Y-105738095D01*
X193702380Y-106357142D02*
X193702380Y-106452380D01*
X193750000Y-106547619D01*
X193797619Y-106595238D01*
X193892857Y-106642857D01*
X194083333Y-106690476D01*
X194321428Y-106690476D01*
X194511904Y-106642857D01*
X194607142Y-106595238D01*
X194654761Y-106547619D01*
X194702380Y-106452380D01*
X194702380Y-106357142D01*
X194654761Y-106261904D01*
X194607142Y-106214285D01*
X194511904Y-106166666D01*
X194321428Y-106119047D01*
X194083333Y-106119047D01*
X193892857Y-106166666D01*
X193797619Y-106214285D01*
X193750000Y-106261904D01*
X193702380Y-106357142D01*
X194702380Y-107642857D02*
X194702380Y-107071428D01*
X194702380Y-107357142D02*
X193702380Y-107357142D01*
X193845238Y-107261904D01*
X193940476Y-107166666D01*
X193988095Y-107071428D01*
X187452380Y-116030952D02*
X186976190Y-115697619D01*
X187452380Y-115459523D02*
X186452380Y-115459523D01*
X186452380Y-115840476D01*
X186500000Y-115935714D01*
X186547619Y-115983333D01*
X186642857Y-116030952D01*
X186785714Y-116030952D01*
X186880952Y-115983333D01*
X186928571Y-115935714D01*
X186976190Y-115840476D01*
X186976190Y-115459523D01*
X186547619Y-116411904D02*
X186500000Y-116459523D01*
X186452380Y-116554761D01*
X186452380Y-116792857D01*
X186500000Y-116888095D01*
X186547619Y-116935714D01*
X186642857Y-116983333D01*
X186738095Y-116983333D01*
X186880952Y-116935714D01*
X187452380Y-116364285D01*
X187452380Y-116983333D01*
X187452380Y-117935714D02*
X187452380Y-117364285D01*
X187452380Y-117650000D02*
X186452380Y-117650000D01*
X186595238Y-117554761D01*
X186690476Y-117459523D01*
X186738095Y-117364285D01*
X186452380Y-118269047D02*
X186452380Y-118935714D01*
X187452380Y-118507142D01*
X217119047Y-98202380D02*
X217452380Y-97726190D01*
X217690476Y-98202380D02*
X217690476Y-97202380D01*
X217309523Y-97202380D01*
X217214285Y-97250000D01*
X217166666Y-97297619D01*
X217119047Y-97392857D01*
X217119047Y-97535714D01*
X217166666Y-97630952D01*
X217214285Y-97678571D01*
X217309523Y-97726190D01*
X217690476Y-97726190D01*
X216738095Y-97297619D02*
X216690476Y-97250000D01*
X216595238Y-97202380D01*
X216357142Y-97202380D01*
X216261904Y-97250000D01*
X216214285Y-97297619D01*
X216166666Y-97392857D01*
X216166666Y-97488095D01*
X216214285Y-97630952D01*
X216785714Y-98202380D01*
X216166666Y-98202380D01*
X215785714Y-97297619D02*
X215738095Y-97250000D01*
X215642857Y-97202380D01*
X215404761Y-97202380D01*
X215309523Y-97250000D01*
X215261904Y-97297619D01*
X215214285Y-97392857D01*
X215214285Y-97488095D01*
X215261904Y-97630952D01*
X215833333Y-98202380D01*
X215214285Y-98202380D01*
X214595238Y-97202380D02*
X214500000Y-97202380D01*
X214404761Y-97250000D01*
X214357142Y-97297619D01*
X214309523Y-97392857D01*
X214261904Y-97583333D01*
X214261904Y-97821428D01*
X214309523Y-98011904D01*
X214357142Y-98107142D01*
X214404761Y-98154761D01*
X214500000Y-98202380D01*
X214595238Y-98202380D01*
X214690476Y-98154761D01*
X214738095Y-98107142D01*
X214785714Y-98011904D01*
X214833333Y-97821428D01*
X214833333Y-97583333D01*
X214785714Y-97392857D01*
X214738095Y-97297619D01*
X214690476Y-97250000D01*
X214595238Y-97202380D01*
X271952380Y-78380952D02*
X271476190Y-78047619D01*
X271952380Y-77809523D02*
X270952380Y-77809523D01*
X270952380Y-78190476D01*
X271000000Y-78285714D01*
X271047619Y-78333333D01*
X271142857Y-78380952D01*
X271285714Y-78380952D01*
X271380952Y-78333333D01*
X271428571Y-78285714D01*
X271476190Y-78190476D01*
X271476190Y-77809523D01*
X270952380Y-78714285D02*
X270952380Y-79333333D01*
X271333333Y-79000000D01*
X271333333Y-79142857D01*
X271380952Y-79238095D01*
X271428571Y-79285714D01*
X271523809Y-79333333D01*
X271761904Y-79333333D01*
X271857142Y-79285714D01*
X271904761Y-79238095D01*
X271952380Y-79142857D01*
X271952380Y-78857142D01*
X271904761Y-78761904D01*
X271857142Y-78714285D01*
X270952380Y-79952380D02*
X270952380Y-80047619D01*
X271000000Y-80142857D01*
X271047619Y-80190476D01*
X271142857Y-80238095D01*
X271333333Y-80285714D01*
X271571428Y-80285714D01*
X271761904Y-80238095D01*
X271857142Y-80190476D01*
X271904761Y-80142857D01*
X271952380Y-80047619D01*
X271952380Y-79952380D01*
X271904761Y-79857142D01*
X271857142Y-79809523D01*
X271761904Y-79761904D01*
X271571428Y-79714285D01*
X271333333Y-79714285D01*
X271142857Y-79761904D01*
X271047619Y-79809523D01*
X271000000Y-79857142D01*
X270952380Y-79952380D01*
X271952380Y-81238095D02*
X271952380Y-80666666D01*
X271952380Y-80952380D02*
X270952380Y-80952380D01*
X271095238Y-80857142D01*
X271190476Y-80761904D01*
X271238095Y-80666666D01*
X271952380Y-82880952D02*
X271476190Y-82547619D01*
X271952380Y-82309523D02*
X270952380Y-82309523D01*
X270952380Y-82690476D01*
X271000000Y-82785714D01*
X271047619Y-82833333D01*
X271142857Y-82880952D01*
X271285714Y-82880952D01*
X271380952Y-82833333D01*
X271428571Y-82785714D01*
X271476190Y-82690476D01*
X271476190Y-82309523D01*
X270952380Y-83214285D02*
X270952380Y-83833333D01*
X271333333Y-83500000D01*
X271333333Y-83642857D01*
X271380952Y-83738095D01*
X271428571Y-83785714D01*
X271523809Y-83833333D01*
X271761904Y-83833333D01*
X271857142Y-83785714D01*
X271904761Y-83738095D01*
X271952380Y-83642857D01*
X271952380Y-83357142D01*
X271904761Y-83261904D01*
X271857142Y-83214285D01*
X270952380Y-84452380D02*
X270952380Y-84547619D01*
X271000000Y-84642857D01*
X271047619Y-84690476D01*
X271142857Y-84738095D01*
X271333333Y-84785714D01*
X271571428Y-84785714D01*
X271761904Y-84738095D01*
X271857142Y-84690476D01*
X271904761Y-84642857D01*
X271952380Y-84547619D01*
X271952380Y-84452380D01*
X271904761Y-84357142D01*
X271857142Y-84309523D01*
X271761904Y-84261904D01*
X271571428Y-84214285D01*
X271333333Y-84214285D01*
X271142857Y-84261904D01*
X271047619Y-84309523D01*
X271000000Y-84357142D01*
X270952380Y-84452380D01*
X271047619Y-85166666D02*
X271000000Y-85214285D01*
X270952380Y-85309523D01*
X270952380Y-85547619D01*
X271000000Y-85642857D01*
X271047619Y-85690476D01*
X271142857Y-85738095D01*
X271238095Y-85738095D01*
X271380952Y-85690476D01*
X271952380Y-85119047D01*
X271952380Y-85738095D01*
X243019047Y-113202380D02*
X243352380Y-112726190D01*
X243590476Y-113202380D02*
X243590476Y-112202380D01*
X243209523Y-112202380D01*
X243114285Y-112250000D01*
X243066666Y-112297619D01*
X243019047Y-112392857D01*
X243019047Y-112535714D01*
X243066666Y-112630952D01*
X243114285Y-112678571D01*
X243209523Y-112726190D01*
X243590476Y-112726190D01*
X242161904Y-112535714D02*
X242161904Y-113202380D01*
X242400000Y-112154761D02*
X242638095Y-112869047D01*
X242019047Y-112869047D01*
X241447619Y-112202380D02*
X241352380Y-112202380D01*
X241257142Y-112250000D01*
X241209523Y-112297619D01*
X241161904Y-112392857D01*
X241114285Y-112583333D01*
X241114285Y-112821428D01*
X241161904Y-113011904D01*
X241209523Y-113107142D01*
X241257142Y-113154761D01*
X241352380Y-113202380D01*
X241447619Y-113202380D01*
X241542857Y-113154761D01*
X241590476Y-113107142D01*
X241638095Y-113011904D01*
X241685714Y-112821428D01*
X241685714Y-112583333D01*
X241638095Y-112392857D01*
X241590476Y-112297619D01*
X241542857Y-112250000D01*
X241447619Y-112202380D01*
X240161904Y-113202380D02*
X240733333Y-113202380D01*
X240447619Y-113202380D02*
X240447619Y-112202380D01*
X240542857Y-112345238D01*
X240638095Y-112440476D01*
X240733333Y-112488095D01*
X234119047Y-100952380D02*
X234452380Y-100476190D01*
X234690476Y-100952380D02*
X234690476Y-99952380D01*
X234309523Y-99952380D01*
X234214285Y-100000000D01*
X234166666Y-100047619D01*
X234119047Y-100142857D01*
X234119047Y-100285714D01*
X234166666Y-100380952D01*
X234214285Y-100428571D01*
X234309523Y-100476190D01*
X234690476Y-100476190D01*
X233261904Y-100285714D02*
X233261904Y-100952380D01*
X233500000Y-99904761D02*
X233738095Y-100619047D01*
X233119047Y-100619047D01*
X232547619Y-99952380D02*
X232452380Y-99952380D01*
X232357142Y-100000000D01*
X232309523Y-100047619D01*
X232261904Y-100142857D01*
X232214285Y-100333333D01*
X232214285Y-100571428D01*
X232261904Y-100761904D01*
X232309523Y-100857142D01*
X232357142Y-100904761D01*
X232452380Y-100952380D01*
X232547619Y-100952380D01*
X232642857Y-100904761D01*
X232690476Y-100857142D01*
X232738095Y-100761904D01*
X232785714Y-100571428D01*
X232785714Y-100333333D01*
X232738095Y-100142857D01*
X232690476Y-100047619D01*
X232642857Y-100000000D01*
X232547619Y-99952380D01*
X231833333Y-100047619D02*
X231785714Y-100000000D01*
X231690476Y-99952380D01*
X231452380Y-99952380D01*
X231357142Y-100000000D01*
X231309523Y-100047619D01*
X231261904Y-100142857D01*
X231261904Y-100238095D01*
X231309523Y-100380952D01*
X231880952Y-100952380D01*
X231261904Y-100952380D01*
X234452380Y-89880952D02*
X233976190Y-89547619D01*
X234452380Y-89309523D02*
X233452380Y-89309523D01*
X233452380Y-89690476D01*
X233500000Y-89785714D01*
X233547619Y-89833333D01*
X233642857Y-89880952D01*
X233785714Y-89880952D01*
X233880952Y-89833333D01*
X233928571Y-89785714D01*
X233976190Y-89690476D01*
X233976190Y-89309523D01*
X233785714Y-90738095D02*
X234452380Y-90738095D01*
X233404761Y-90500000D02*
X234119047Y-90261904D01*
X234119047Y-90880952D01*
X233452380Y-91452380D02*
X233452380Y-91547619D01*
X233500000Y-91642857D01*
X233547619Y-91690476D01*
X233642857Y-91738095D01*
X233833333Y-91785714D01*
X234071428Y-91785714D01*
X234261904Y-91738095D01*
X234357142Y-91690476D01*
X234404761Y-91642857D01*
X234452380Y-91547619D01*
X234452380Y-91452380D01*
X234404761Y-91357142D01*
X234357142Y-91309523D01*
X234261904Y-91261904D01*
X234071428Y-91214285D01*
X233833333Y-91214285D01*
X233642857Y-91261904D01*
X233547619Y-91309523D01*
X233500000Y-91357142D01*
X233452380Y-91452380D01*
X233452380Y-92119047D02*
X233452380Y-92738095D01*
X233833333Y-92404761D01*
X233833333Y-92547619D01*
X233880952Y-92642857D01*
X233928571Y-92690476D01*
X234023809Y-92738095D01*
X234261904Y-92738095D01*
X234357142Y-92690476D01*
X234404761Y-92642857D01*
X234452380Y-92547619D01*
X234452380Y-92261904D01*
X234404761Y-92166666D01*
X234357142Y-92119047D01*
X244119047Y-116702380D02*
X244452380Y-116226190D01*
X244690476Y-116702380D02*
X244690476Y-115702380D01*
X244309523Y-115702380D01*
X244214285Y-115750000D01*
X244166666Y-115797619D01*
X244119047Y-115892857D01*
X244119047Y-116035714D01*
X244166666Y-116130952D01*
X244214285Y-116178571D01*
X244309523Y-116226190D01*
X244690476Y-116226190D01*
X243261904Y-116035714D02*
X243261904Y-116702380D01*
X243500000Y-115654761D02*
X243738095Y-116369047D01*
X243119047Y-116369047D01*
X242547619Y-115702380D02*
X242452380Y-115702380D01*
X242357142Y-115750000D01*
X242309523Y-115797619D01*
X242261904Y-115892857D01*
X242214285Y-116083333D01*
X242214285Y-116321428D01*
X242261904Y-116511904D01*
X242309523Y-116607142D01*
X242357142Y-116654761D01*
X242452380Y-116702380D01*
X242547619Y-116702380D01*
X242642857Y-116654761D01*
X242690476Y-116607142D01*
X242738095Y-116511904D01*
X242785714Y-116321428D01*
X242785714Y-116083333D01*
X242738095Y-115892857D01*
X242690476Y-115797619D01*
X242642857Y-115750000D01*
X242547619Y-115702380D01*
X241357142Y-116035714D02*
X241357142Y-116702380D01*
X241595238Y-115654761D02*
X241833333Y-116369047D01*
X241214285Y-116369047D01*
X229369047Y-113952380D02*
X229702380Y-113476190D01*
X229940476Y-113952380D02*
X229940476Y-112952380D01*
X229559523Y-112952380D01*
X229464285Y-113000000D01*
X229416666Y-113047619D01*
X229369047Y-113142857D01*
X229369047Y-113285714D01*
X229416666Y-113380952D01*
X229464285Y-113428571D01*
X229559523Y-113476190D01*
X229940476Y-113476190D01*
X228511904Y-113285714D02*
X228511904Y-113952380D01*
X228750000Y-112904761D02*
X228988095Y-113619047D01*
X228369047Y-113619047D01*
X227797619Y-112952380D02*
X227702380Y-112952380D01*
X227607142Y-113000000D01*
X227559523Y-113047619D01*
X227511904Y-113142857D01*
X227464285Y-113333333D01*
X227464285Y-113571428D01*
X227511904Y-113761904D01*
X227559523Y-113857142D01*
X227607142Y-113904761D01*
X227702380Y-113952380D01*
X227797619Y-113952380D01*
X227892857Y-113904761D01*
X227940476Y-113857142D01*
X227988095Y-113761904D01*
X228035714Y-113571428D01*
X228035714Y-113333333D01*
X227988095Y-113142857D01*
X227940476Y-113047619D01*
X227892857Y-113000000D01*
X227797619Y-112952380D01*
X226559523Y-112952380D02*
X227035714Y-112952380D01*
X227083333Y-113428571D01*
X227035714Y-113380952D01*
X226940476Y-113333333D01*
X226702380Y-113333333D01*
X226607142Y-113380952D01*
X226559523Y-113428571D01*
X226511904Y-113523809D01*
X226511904Y-113761904D01*
X226559523Y-113857142D01*
X226607142Y-113904761D01*
X226702380Y-113952380D01*
X226940476Y-113952380D01*
X227035714Y-113904761D01*
X227083333Y-113857142D01*
X187452380Y-84380952D02*
X186976190Y-84047619D01*
X187452380Y-83809523D02*
X186452380Y-83809523D01*
X186452380Y-84190476D01*
X186500000Y-84285714D01*
X186547619Y-84333333D01*
X186642857Y-84380952D01*
X186785714Y-84380952D01*
X186880952Y-84333333D01*
X186928571Y-84285714D01*
X186976190Y-84190476D01*
X186976190Y-83809523D01*
X186452380Y-85285714D02*
X186452380Y-84809523D01*
X186928571Y-84761904D01*
X186880952Y-84809523D01*
X186833333Y-84904761D01*
X186833333Y-85142857D01*
X186880952Y-85238095D01*
X186928571Y-85285714D01*
X187023809Y-85333333D01*
X187261904Y-85333333D01*
X187357142Y-85285714D01*
X187404761Y-85238095D01*
X187452380Y-85142857D01*
X187452380Y-84904761D01*
X187404761Y-84809523D01*
X187357142Y-84761904D01*
X186452380Y-86190476D02*
X186452380Y-86000000D01*
X186500000Y-85904761D01*
X186547619Y-85857142D01*
X186690476Y-85761904D01*
X186880952Y-85714285D01*
X187261904Y-85714285D01*
X187357142Y-85761904D01*
X187404761Y-85809523D01*
X187452380Y-85904761D01*
X187452380Y-86095238D01*
X187404761Y-86190476D01*
X187357142Y-86238095D01*
X187261904Y-86285714D01*
X187023809Y-86285714D01*
X186928571Y-86238095D01*
X186880952Y-86190476D01*
X186833333Y-86095238D01*
X186833333Y-85904761D01*
X186880952Y-85809523D01*
X186928571Y-85761904D01*
X187023809Y-85714285D01*
X186547619Y-86666666D02*
X186500000Y-86714285D01*
X186452380Y-86809523D01*
X186452380Y-87047619D01*
X186500000Y-87142857D01*
X186547619Y-87190476D01*
X186642857Y-87238095D01*
X186738095Y-87238095D01*
X186880952Y-87190476D01*
X187452380Y-86619047D01*
X187452380Y-87238095D01*
X192202380Y-85780952D02*
X191726190Y-85447619D01*
X192202380Y-85209523D02*
X191202380Y-85209523D01*
X191202380Y-85590476D01*
X191250000Y-85685714D01*
X191297619Y-85733333D01*
X191392857Y-85780952D01*
X191535714Y-85780952D01*
X191630952Y-85733333D01*
X191678571Y-85685714D01*
X191726190Y-85590476D01*
X191726190Y-85209523D01*
X191202380Y-86685714D02*
X191202380Y-86209523D01*
X191678571Y-86161904D01*
X191630952Y-86209523D01*
X191583333Y-86304761D01*
X191583333Y-86542857D01*
X191630952Y-86638095D01*
X191678571Y-86685714D01*
X191773809Y-86733333D01*
X192011904Y-86733333D01*
X192107142Y-86685714D01*
X192154761Y-86638095D01*
X192202380Y-86542857D01*
X192202380Y-86304761D01*
X192154761Y-86209523D01*
X192107142Y-86161904D01*
X191202380Y-87590476D02*
X191202380Y-87400000D01*
X191250000Y-87304761D01*
X191297619Y-87257142D01*
X191440476Y-87161904D01*
X191630952Y-87114285D01*
X192011904Y-87114285D01*
X192107142Y-87161904D01*
X192154761Y-87209523D01*
X192202380Y-87304761D01*
X192202380Y-87495238D01*
X192154761Y-87590476D01*
X192107142Y-87638095D01*
X192011904Y-87685714D01*
X191773809Y-87685714D01*
X191678571Y-87638095D01*
X191630952Y-87590476D01*
X191583333Y-87495238D01*
X191583333Y-87304761D01*
X191630952Y-87209523D01*
X191678571Y-87161904D01*
X191773809Y-87114285D01*
X191202380Y-88019047D02*
X191202380Y-88638095D01*
X191583333Y-88304761D01*
X191583333Y-88447619D01*
X191630952Y-88542857D01*
X191678571Y-88590476D01*
X191773809Y-88638095D01*
X192011904Y-88638095D01*
X192107142Y-88590476D01*
X192154761Y-88542857D01*
X192202380Y-88447619D01*
X192202380Y-88161904D01*
X192154761Y-88066666D01*
X192107142Y-88019047D01*
X182952380Y-100880952D02*
X182476190Y-100547619D01*
X182952380Y-100309523D02*
X181952380Y-100309523D01*
X181952380Y-100690476D01*
X182000000Y-100785714D01*
X182047619Y-100833333D01*
X182142857Y-100880952D01*
X182285714Y-100880952D01*
X182380952Y-100833333D01*
X182428571Y-100785714D01*
X182476190Y-100690476D01*
X182476190Y-100309523D01*
X181952380Y-101785714D02*
X181952380Y-101309523D01*
X182428571Y-101261904D01*
X182380952Y-101309523D01*
X182333333Y-101404761D01*
X182333333Y-101642857D01*
X182380952Y-101738095D01*
X182428571Y-101785714D01*
X182523809Y-101833333D01*
X182761904Y-101833333D01*
X182857142Y-101785714D01*
X182904761Y-101738095D01*
X182952380Y-101642857D01*
X182952380Y-101404761D01*
X182904761Y-101309523D01*
X182857142Y-101261904D01*
X181952380Y-102690476D02*
X181952380Y-102500000D01*
X182000000Y-102404761D01*
X182047619Y-102357142D01*
X182190476Y-102261904D01*
X182380952Y-102214285D01*
X182761904Y-102214285D01*
X182857142Y-102261904D01*
X182904761Y-102309523D01*
X182952380Y-102404761D01*
X182952380Y-102595238D01*
X182904761Y-102690476D01*
X182857142Y-102738095D01*
X182761904Y-102785714D01*
X182523809Y-102785714D01*
X182428571Y-102738095D01*
X182380952Y-102690476D01*
X182333333Y-102595238D01*
X182333333Y-102404761D01*
X182380952Y-102309523D01*
X182428571Y-102261904D01*
X182523809Y-102214285D01*
X182285714Y-103642857D02*
X182952380Y-103642857D01*
X181904761Y-103404761D02*
X182619047Y-103166666D01*
X182619047Y-103785714D01*
X187702380Y-100680952D02*
X187226190Y-100347619D01*
X187702380Y-100109523D02*
X186702380Y-100109523D01*
X186702380Y-100490476D01*
X186750000Y-100585714D01*
X186797619Y-100633333D01*
X186892857Y-100680952D01*
X187035714Y-100680952D01*
X187130952Y-100633333D01*
X187178571Y-100585714D01*
X187226190Y-100490476D01*
X187226190Y-100109523D01*
X186702380Y-101585714D02*
X186702380Y-101109523D01*
X187178571Y-101061904D01*
X187130952Y-101109523D01*
X187083333Y-101204761D01*
X187083333Y-101442857D01*
X187130952Y-101538095D01*
X187178571Y-101585714D01*
X187273809Y-101633333D01*
X187511904Y-101633333D01*
X187607142Y-101585714D01*
X187654761Y-101538095D01*
X187702380Y-101442857D01*
X187702380Y-101204761D01*
X187654761Y-101109523D01*
X187607142Y-101061904D01*
X186702380Y-102490476D02*
X186702380Y-102300000D01*
X186750000Y-102204761D01*
X186797619Y-102157142D01*
X186940476Y-102061904D01*
X187130952Y-102014285D01*
X187511904Y-102014285D01*
X187607142Y-102061904D01*
X187654761Y-102109523D01*
X187702380Y-102204761D01*
X187702380Y-102395238D01*
X187654761Y-102490476D01*
X187607142Y-102538095D01*
X187511904Y-102585714D01*
X187273809Y-102585714D01*
X187178571Y-102538095D01*
X187130952Y-102490476D01*
X187083333Y-102395238D01*
X187083333Y-102204761D01*
X187130952Y-102109523D01*
X187178571Y-102061904D01*
X187273809Y-102014285D01*
X186702380Y-103490476D02*
X186702380Y-103014285D01*
X187178571Y-102966666D01*
X187130952Y-103014285D01*
X187083333Y-103109523D01*
X187083333Y-103347619D01*
X187130952Y-103442857D01*
X187178571Y-103490476D01*
X187273809Y-103538095D01*
X187511904Y-103538095D01*
X187607142Y-103490476D01*
X187654761Y-103442857D01*
X187702380Y-103347619D01*
X187702380Y-103109523D01*
X187654761Y-103014285D01*
X187607142Y-102966666D01*
X191119047Y-98952380D02*
X191452380Y-98476190D01*
X191690476Y-98952380D02*
X191690476Y-97952380D01*
X191309523Y-97952380D01*
X191214285Y-98000000D01*
X191166666Y-98047619D01*
X191119047Y-98142857D01*
X191119047Y-98285714D01*
X191166666Y-98380952D01*
X191214285Y-98428571D01*
X191309523Y-98476190D01*
X191690476Y-98476190D01*
X190214285Y-97952380D02*
X190690476Y-97952380D01*
X190738095Y-98428571D01*
X190690476Y-98380952D01*
X190595238Y-98333333D01*
X190357142Y-98333333D01*
X190261904Y-98380952D01*
X190214285Y-98428571D01*
X190166666Y-98523809D01*
X190166666Y-98761904D01*
X190214285Y-98857142D01*
X190261904Y-98904761D01*
X190357142Y-98952380D01*
X190595238Y-98952380D01*
X190690476Y-98904761D01*
X190738095Y-98857142D01*
X189309523Y-97952380D02*
X189500000Y-97952380D01*
X189595238Y-98000000D01*
X189642857Y-98047619D01*
X189738095Y-98190476D01*
X189785714Y-98380952D01*
X189785714Y-98761904D01*
X189738095Y-98857142D01*
X189690476Y-98904761D01*
X189595238Y-98952380D01*
X189404761Y-98952380D01*
X189309523Y-98904761D01*
X189261904Y-98857142D01*
X189214285Y-98761904D01*
X189214285Y-98523809D01*
X189261904Y-98428571D01*
X189309523Y-98380952D01*
X189404761Y-98333333D01*
X189595238Y-98333333D01*
X189690476Y-98380952D01*
X189738095Y-98428571D01*
X189785714Y-98523809D01*
X188357142Y-97952380D02*
X188547619Y-97952380D01*
X188642857Y-98000000D01*
X188690476Y-98047619D01*
X188785714Y-98190476D01*
X188833333Y-98380952D01*
X188833333Y-98761904D01*
X188785714Y-98857142D01*
X188738095Y-98904761D01*
X188642857Y-98952380D01*
X188452380Y-98952380D01*
X188357142Y-98904761D01*
X188309523Y-98857142D01*
X188261904Y-98761904D01*
X188261904Y-98523809D01*
X188309523Y-98428571D01*
X188357142Y-98380952D01*
X188452380Y-98333333D01*
X188642857Y-98333333D01*
X188738095Y-98380952D01*
X188785714Y-98428571D01*
X188833333Y-98523809D01*
X191619047Y-96952380D02*
X191952380Y-96476190D01*
X192190476Y-96952380D02*
X192190476Y-95952380D01*
X191809523Y-95952380D01*
X191714285Y-96000000D01*
X191666666Y-96047619D01*
X191619047Y-96142857D01*
X191619047Y-96285714D01*
X191666666Y-96380952D01*
X191714285Y-96428571D01*
X191809523Y-96476190D01*
X192190476Y-96476190D01*
X190714285Y-95952380D02*
X191190476Y-95952380D01*
X191238095Y-96428571D01*
X191190476Y-96380952D01*
X191095238Y-96333333D01*
X190857142Y-96333333D01*
X190761904Y-96380952D01*
X190714285Y-96428571D01*
X190666666Y-96523809D01*
X190666666Y-96761904D01*
X190714285Y-96857142D01*
X190761904Y-96904761D01*
X190857142Y-96952380D01*
X191095238Y-96952380D01*
X191190476Y-96904761D01*
X191238095Y-96857142D01*
X189809523Y-95952380D02*
X190000000Y-95952380D01*
X190095238Y-96000000D01*
X190142857Y-96047619D01*
X190238095Y-96190476D01*
X190285714Y-96380952D01*
X190285714Y-96761904D01*
X190238095Y-96857142D01*
X190190476Y-96904761D01*
X190095238Y-96952380D01*
X189904761Y-96952380D01*
X189809523Y-96904761D01*
X189761904Y-96857142D01*
X189714285Y-96761904D01*
X189714285Y-96523809D01*
X189761904Y-96428571D01*
X189809523Y-96380952D01*
X189904761Y-96333333D01*
X190095238Y-96333333D01*
X190190476Y-96380952D01*
X190238095Y-96428571D01*
X190285714Y-96523809D01*
X189380952Y-95952380D02*
X188714285Y-95952380D01*
X189142857Y-96952380D01*
X191619047Y-94952380D02*
X191952380Y-94476190D01*
X192190476Y-94952380D02*
X192190476Y-93952380D01*
X191809523Y-93952380D01*
X191714285Y-94000000D01*
X191666666Y-94047619D01*
X191619047Y-94142857D01*
X191619047Y-94285714D01*
X191666666Y-94380952D01*
X191714285Y-94428571D01*
X191809523Y-94476190D01*
X192190476Y-94476190D01*
X190714285Y-93952380D02*
X191190476Y-93952380D01*
X191238095Y-94428571D01*
X191190476Y-94380952D01*
X191095238Y-94333333D01*
X190857142Y-94333333D01*
X190761904Y-94380952D01*
X190714285Y-94428571D01*
X190666666Y-94523809D01*
X190666666Y-94761904D01*
X190714285Y-94857142D01*
X190761904Y-94904761D01*
X190857142Y-94952380D01*
X191095238Y-94952380D01*
X191190476Y-94904761D01*
X191238095Y-94857142D01*
X189809523Y-93952380D02*
X190000000Y-93952380D01*
X190095238Y-94000000D01*
X190142857Y-94047619D01*
X190238095Y-94190476D01*
X190285714Y-94380952D01*
X190285714Y-94761904D01*
X190238095Y-94857142D01*
X190190476Y-94904761D01*
X190095238Y-94952380D01*
X189904761Y-94952380D01*
X189809523Y-94904761D01*
X189761904Y-94857142D01*
X189714285Y-94761904D01*
X189714285Y-94523809D01*
X189761904Y-94428571D01*
X189809523Y-94380952D01*
X189904761Y-94333333D01*
X190095238Y-94333333D01*
X190190476Y-94380952D01*
X190238095Y-94428571D01*
X190285714Y-94523809D01*
X189142857Y-94380952D02*
X189238095Y-94333333D01*
X189285714Y-94285714D01*
X189333333Y-94190476D01*
X189333333Y-94142857D01*
X189285714Y-94047619D01*
X189238095Y-94000000D01*
X189142857Y-93952380D01*
X188952380Y-93952380D01*
X188857142Y-94000000D01*
X188809523Y-94047619D01*
X188761904Y-94142857D01*
X188761904Y-94190476D01*
X188809523Y-94285714D01*
X188857142Y-94333333D01*
X188952380Y-94380952D01*
X189142857Y-94380952D01*
X189238095Y-94428571D01*
X189285714Y-94476190D01*
X189333333Y-94571428D01*
X189333333Y-94761904D01*
X189285714Y-94857142D01*
X189238095Y-94904761D01*
X189142857Y-94952380D01*
X188952380Y-94952380D01*
X188857142Y-94904761D01*
X188809523Y-94857142D01*
X188761904Y-94761904D01*
X188761904Y-94571428D01*
X188809523Y-94476190D01*
X188857142Y-94428571D01*
X188952380Y-94380952D01*
D10*
X146666666Y-96059523D02*
X146380952Y-96154761D01*
X145904761Y-96154761D01*
X145714285Y-96059523D01*
X145619047Y-95964285D01*
X145523809Y-95773809D01*
X145523809Y-95583333D01*
X145619047Y-95392857D01*
X145714285Y-95297619D01*
X145904761Y-95202380D01*
X146285714Y-95107142D01*
X146476190Y-95011904D01*
X146571428Y-94916666D01*
X146666666Y-94726190D01*
X146666666Y-94535714D01*
X146571428Y-94345238D01*
X146476190Y-94250000D01*
X146285714Y-94154761D01*
X145809523Y-94154761D01*
X145523809Y-94250000D01*
X144857142Y-94154761D02*
X144380952Y-96154761D01*
X144000000Y-94726190D01*
X143619047Y-96154761D01*
X143142857Y-94154761D01*
X141333333Y-96154761D02*
X142476190Y-96154761D01*
X141904761Y-96154761D02*
X141904761Y-94154761D01*
X142095238Y-94440476D01*
X142285714Y-94630952D01*
X142476190Y-94726190D01*
X117166666Y-103059523D02*
X116880952Y-103154761D01*
X116404761Y-103154761D01*
X116214285Y-103059523D01*
X116119047Y-102964285D01*
X116023809Y-102773809D01*
X116023809Y-102583333D01*
X116119047Y-102392857D01*
X116214285Y-102297619D01*
X116404761Y-102202380D01*
X116785714Y-102107142D01*
X116976190Y-102011904D01*
X117071428Y-101916666D01*
X117166666Y-101726190D01*
X117166666Y-101535714D01*
X117071428Y-101345238D01*
X116976190Y-101250000D01*
X116785714Y-101154761D01*
X116309523Y-101154761D01*
X116023809Y-101250000D01*
X115357142Y-101154761D02*
X114880952Y-103154761D01*
X114500000Y-101726190D01*
X114119047Y-103154761D01*
X113642857Y-101154761D01*
X112976190Y-101345238D02*
X112880952Y-101250000D01*
X112690476Y-101154761D01*
X112214285Y-101154761D01*
X112023809Y-101250000D01*
X111928571Y-101345238D01*
X111833333Y-101535714D01*
X111833333Y-101726190D01*
X111928571Y-102011904D01*
X113071428Y-103154761D01*
X111833333Y-103154761D01*
D14*
X206714285Y-97452380D02*
X206714285Y-98261904D01*
X206666666Y-98357142D01*
X206619047Y-98404761D01*
X206523809Y-98452380D01*
X206333333Y-98452380D01*
X206238095Y-98404761D01*
X206190476Y-98357142D01*
X206142857Y-98261904D01*
X206142857Y-97452380D01*
X205142857Y-98452380D02*
X205714285Y-98452380D01*
X205428571Y-98452380D02*
X205428571Y-97452380D01*
X205523809Y-97595238D01*
X205619047Y-97690476D01*
X205714285Y-97738095D01*
X204523809Y-97452380D02*
X204428571Y-97452380D01*
X204333333Y-97500000D01*
X204285714Y-97547619D01*
X204238095Y-97642857D01*
X204190476Y-97833333D01*
X204190476Y-98071428D01*
X204238095Y-98261904D01*
X204285714Y-98357142D01*
X204333333Y-98404761D01*
X204428571Y-98452380D01*
X204523809Y-98452380D01*
X204619047Y-98404761D01*
X204666666Y-98357142D01*
X204714285Y-98261904D01*
X204761904Y-98071428D01*
X204761904Y-97833333D01*
X204714285Y-97642857D01*
X204666666Y-97547619D01*
X204619047Y-97500000D01*
X204523809Y-97452380D01*
X203238095Y-98452380D02*
X203809523Y-98452380D01*
X203523809Y-98452380D02*
X203523809Y-97452380D01*
X203619047Y-97595238D01*
X203714285Y-97690476D01*
X203809523Y-97738095D01*
X169514285Y-97352380D02*
X169514285Y-98161904D01*
X169466666Y-98257142D01*
X169419047Y-98304761D01*
X169323809Y-98352380D01*
X169133333Y-98352380D01*
X169038095Y-98304761D01*
X168990476Y-98257142D01*
X168942857Y-98161904D01*
X168942857Y-97352380D01*
X168514285Y-97447619D02*
X168466666Y-97400000D01*
X168371428Y-97352380D01*
X168133333Y-97352380D01*
X168038095Y-97400000D01*
X167990476Y-97447619D01*
X167942857Y-97542857D01*
X167942857Y-97638095D01*
X167990476Y-97780952D01*
X168561904Y-98352380D01*
X167942857Y-98352380D01*
X167323809Y-97352380D02*
X167228571Y-97352380D01*
X167133333Y-97400000D01*
X167085714Y-97447619D01*
X167038095Y-97542857D01*
X166990476Y-97733333D01*
X166990476Y-97971428D01*
X167038095Y-98161904D01*
X167085714Y-98257142D01*
X167133333Y-98304761D01*
X167228571Y-98352380D01*
X167323809Y-98352380D01*
X167419047Y-98304761D01*
X167466666Y-98257142D01*
X167514285Y-98161904D01*
X167561904Y-97971428D01*
X167561904Y-97733333D01*
X167514285Y-97542857D01*
X167466666Y-97447619D01*
X167419047Y-97400000D01*
X167323809Y-97352380D01*
X166038095Y-98352380D02*
X166609523Y-98352380D01*
X166323809Y-98352380D02*
X166323809Y-97352380D01*
X166419047Y-97495238D01*
X166514285Y-97590476D01*
X166609523Y-97638095D01*
X131214285Y-96452380D02*
X131214285Y-97261904D01*
X131166666Y-97357142D01*
X131119047Y-97404761D01*
X131023809Y-97452380D01*
X130833333Y-97452380D01*
X130738095Y-97404761D01*
X130690476Y-97357142D01*
X130642857Y-97261904D01*
X130642857Y-96452380D01*
X130214285Y-96547619D02*
X130166666Y-96500000D01*
X130071428Y-96452380D01*
X129833333Y-96452380D01*
X129738095Y-96500000D01*
X129690476Y-96547619D01*
X129642857Y-96642857D01*
X129642857Y-96738095D01*
X129690476Y-96880952D01*
X130261904Y-97452380D01*
X129642857Y-97452380D01*
X129023809Y-96452380D02*
X128928571Y-96452380D01*
X128833333Y-96500000D01*
X128785714Y-96547619D01*
X128738095Y-96642857D01*
X128690476Y-96833333D01*
X128690476Y-97071428D01*
X128738095Y-97261904D01*
X128785714Y-97357142D01*
X128833333Y-97404761D01*
X128928571Y-97452380D01*
X129023809Y-97452380D01*
X129119047Y-97404761D01*
X129166666Y-97357142D01*
X129214285Y-97261904D01*
X129261904Y-97071428D01*
X129261904Y-96833333D01*
X129214285Y-96642857D01*
X129166666Y-96547619D01*
X129119047Y-96500000D01*
X129023809Y-96452380D01*
X128309523Y-96547619D02*
X128261904Y-96500000D01*
X128166666Y-96452380D01*
X127928571Y-96452380D01*
X127833333Y-96500000D01*
X127785714Y-96547619D01*
X127738095Y-96642857D01*
X127738095Y-96738095D01*
X127785714Y-96880952D01*
X128357142Y-97452380D01*
X127738095Y-97452380D01*
X249714285Y-91952380D02*
X249714285Y-92761904D01*
X249666666Y-92857142D01*
X249619047Y-92904761D01*
X249523809Y-92952380D01*
X249333333Y-92952380D01*
X249238095Y-92904761D01*
X249190476Y-92857142D01*
X249142857Y-92761904D01*
X249142857Y-91952380D01*
X248761904Y-91952380D02*
X248142857Y-91952380D01*
X248476190Y-92333333D01*
X248333333Y-92333333D01*
X248238095Y-92380952D01*
X248190476Y-92428571D01*
X248142857Y-92523809D01*
X248142857Y-92761904D01*
X248190476Y-92857142D01*
X248238095Y-92904761D01*
X248333333Y-92952380D01*
X248619047Y-92952380D01*
X248714285Y-92904761D01*
X248761904Y-92857142D01*
X247523809Y-91952380D02*
X247428571Y-91952380D01*
X247333333Y-92000000D01*
X247285714Y-92047619D01*
X247238095Y-92142857D01*
X247190476Y-92333333D01*
X247190476Y-92571428D01*
X247238095Y-92761904D01*
X247285714Y-92857142D01*
X247333333Y-92904761D01*
X247428571Y-92952380D01*
X247523809Y-92952380D01*
X247619047Y-92904761D01*
X247666666Y-92857142D01*
X247714285Y-92761904D01*
X247761904Y-92571428D01*
X247761904Y-92333333D01*
X247714285Y-92142857D01*
X247666666Y-92047619D01*
X247619047Y-92000000D01*
X247523809Y-91952380D01*
X246809523Y-92047619D02*
X246761904Y-92000000D01*
X246666666Y-91952380D01*
X246428571Y-91952380D01*
X246333333Y-92000000D01*
X246285714Y-92047619D01*
X246238095Y-92142857D01*
X246238095Y-92238095D01*
X246285714Y-92380952D01*
X246857142Y-92952380D01*
X246238095Y-92952380D01*
X232464285Y-110202380D02*
X232464285Y-111011904D01*
X232416666Y-111107142D01*
X232369047Y-111154761D01*
X232273809Y-111202380D01*
X232083333Y-111202380D01*
X231988095Y-111154761D01*
X231940476Y-111107142D01*
X231892857Y-111011904D01*
X231892857Y-110202380D01*
X230988095Y-110535714D02*
X230988095Y-111202380D01*
X231226190Y-110154761D02*
X231464285Y-110869047D01*
X230845238Y-110869047D01*
X230273809Y-110202380D02*
X230178571Y-110202380D01*
X230083333Y-110250000D01*
X230035714Y-110297619D01*
X229988095Y-110392857D01*
X229940476Y-110583333D01*
X229940476Y-110821428D01*
X229988095Y-111011904D01*
X230035714Y-111107142D01*
X230083333Y-111154761D01*
X230178571Y-111202380D01*
X230273809Y-111202380D01*
X230369047Y-111154761D01*
X230416666Y-111107142D01*
X230464285Y-111011904D01*
X230511904Y-110821428D01*
X230511904Y-110583333D01*
X230464285Y-110392857D01*
X230416666Y-110297619D01*
X230369047Y-110250000D01*
X230273809Y-110202380D01*
X228988095Y-111202380D02*
X229559523Y-111202380D01*
X229273809Y-111202380D02*
X229273809Y-110202380D01*
X229369047Y-110345238D01*
X229464285Y-110440476D01*
X229559523Y-110488095D01*
X202339285Y-93902380D02*
X202339285Y-94711904D01*
X202291666Y-94807142D01*
X202244047Y-94854761D01*
X202148809Y-94902380D01*
X201958333Y-94902380D01*
X201863095Y-94854761D01*
X201815476Y-94807142D01*
X201767857Y-94711904D01*
X201767857Y-93902380D01*
X200815476Y-93902380D02*
X201291666Y-93902380D01*
X201339285Y-94378571D01*
X201291666Y-94330952D01*
X201196428Y-94283333D01*
X200958333Y-94283333D01*
X200863095Y-94330952D01*
X200815476Y-94378571D01*
X200767857Y-94473809D01*
X200767857Y-94711904D01*
X200815476Y-94807142D01*
X200863095Y-94854761D01*
X200958333Y-94902380D01*
X201196428Y-94902380D01*
X201291666Y-94854761D01*
X201339285Y-94807142D01*
X200148809Y-93902380D02*
X200053571Y-93902380D01*
X199958333Y-93950000D01*
X199910714Y-93997619D01*
X199863095Y-94092857D01*
X199815476Y-94283333D01*
X199815476Y-94521428D01*
X199863095Y-94711904D01*
X199910714Y-94807142D01*
X199958333Y-94854761D01*
X200053571Y-94902380D01*
X200148809Y-94902380D01*
X200244047Y-94854761D01*
X200291666Y-94807142D01*
X200339285Y-94711904D01*
X200386904Y-94521428D01*
X200386904Y-94283333D01*
X200339285Y-94092857D01*
X200291666Y-93997619D01*
X200244047Y-93950000D01*
X200148809Y-93902380D01*
X198863095Y-94902380D02*
X199434523Y-94902380D01*
X199148809Y-94902380D02*
X199148809Y-93902380D01*
X199244047Y-94045238D01*
X199339285Y-94140476D01*
X199434523Y-94188095D01*
X156714285Y-81452380D02*
X156714285Y-82261904D01*
X156666666Y-82357142D01*
X156619047Y-82404761D01*
X156523809Y-82452380D01*
X156333333Y-82452380D01*
X156238095Y-82404761D01*
X156190476Y-82357142D01*
X156142857Y-82261904D01*
X156142857Y-81452380D01*
X155190476Y-81452380D02*
X155666666Y-81452380D01*
X155714285Y-81928571D01*
X155666666Y-81880952D01*
X155571428Y-81833333D01*
X155333333Y-81833333D01*
X155238095Y-81880952D01*
X155190476Y-81928571D01*
X155142857Y-82023809D01*
X155142857Y-82261904D01*
X155190476Y-82357142D01*
X155238095Y-82404761D01*
X155333333Y-82452380D01*
X155571428Y-82452380D01*
X155666666Y-82404761D01*
X155714285Y-82357142D01*
X154523809Y-81452380D02*
X154428571Y-81452380D01*
X154333333Y-81500000D01*
X154285714Y-81547619D01*
X154238095Y-81642857D01*
X154190476Y-81833333D01*
X154190476Y-82071428D01*
X154238095Y-82261904D01*
X154285714Y-82357142D01*
X154333333Y-82404761D01*
X154428571Y-82452380D01*
X154523809Y-82452380D01*
X154619047Y-82404761D01*
X154666666Y-82357142D01*
X154714285Y-82261904D01*
X154761904Y-82071428D01*
X154761904Y-81833333D01*
X154714285Y-81642857D01*
X154666666Y-81547619D01*
X154619047Y-81500000D01*
X154523809Y-81452380D01*
X153809523Y-81547619D02*
X153761904Y-81500000D01*
X153666666Y-81452380D01*
X153428571Y-81452380D01*
X153333333Y-81500000D01*
X153285714Y-81547619D01*
X153238095Y-81642857D01*
X153238095Y-81738095D01*
X153285714Y-81880952D01*
X153857142Y-82452380D01*
X153238095Y-82452380D01*
X223428571Y-105226190D02*
X223428571Y-105702380D01*
X223761904Y-104702380D02*
X223428571Y-105226190D01*
X223095238Y-104702380D01*
X222238095Y-105702380D02*
X222809523Y-105702380D01*
X222523809Y-105702380D02*
X222523809Y-104702380D01*
X222619047Y-104845238D01*
X222714285Y-104940476D01*
X222809523Y-104988095D01*
X221619047Y-104702380D02*
X221523809Y-104702380D01*
X221428571Y-104750000D01*
X221380952Y-104797619D01*
X221333333Y-104892857D01*
X221285714Y-105083333D01*
X221285714Y-105321428D01*
X221333333Y-105511904D01*
X221380952Y-105607142D01*
X221428571Y-105654761D01*
X221523809Y-105702380D01*
X221619047Y-105702380D01*
X221714285Y-105654761D01*
X221761904Y-105607142D01*
X221809523Y-105511904D01*
X221857142Y-105321428D01*
X221857142Y-105083333D01*
X221809523Y-104892857D01*
X221761904Y-104797619D01*
X221714285Y-104750000D01*
X221619047Y-104702380D01*
X220333333Y-105702380D02*
X220904761Y-105702380D01*
X220619047Y-105702380D02*
X220619047Y-104702380D01*
X220714285Y-104845238D01*
X220809523Y-104940476D01*
X220904761Y-104988095D01*
X208928571Y-112476190D02*
X208928571Y-112952380D01*
X209261904Y-111952380D02*
X208928571Y-112476190D01*
X208595238Y-111952380D01*
X207738095Y-112952380D02*
X208309523Y-112952380D01*
X208023809Y-112952380D02*
X208023809Y-111952380D01*
X208119047Y-112095238D01*
X208214285Y-112190476D01*
X208309523Y-112238095D01*
X207119047Y-111952380D02*
X207023809Y-111952380D01*
X206928571Y-112000000D01*
X206880952Y-112047619D01*
X206833333Y-112142857D01*
X206785714Y-112333333D01*
X206785714Y-112571428D01*
X206833333Y-112761904D01*
X206880952Y-112857142D01*
X206928571Y-112904761D01*
X207023809Y-112952380D01*
X207119047Y-112952380D01*
X207214285Y-112904761D01*
X207261904Y-112857142D01*
X207309523Y-112761904D01*
X207357142Y-112571428D01*
X207357142Y-112333333D01*
X207309523Y-112142857D01*
X207261904Y-112047619D01*
X207214285Y-112000000D01*
X207119047Y-111952380D01*
X206404761Y-112047619D02*
X206357142Y-112000000D01*
X206261904Y-111952380D01*
X206023809Y-111952380D01*
X205928571Y-112000000D01*
X205880952Y-112047619D01*
X205833333Y-112142857D01*
X205833333Y-112238095D01*
X205880952Y-112380952D01*
X206452380Y-112952380D01*
X205833333Y-112952380D01*
X236778571Y-113976190D02*
X236778571Y-114452380D01*
X237111904Y-113452380D02*
X236778571Y-113976190D01*
X236445238Y-113452380D01*
X235683333Y-113785714D02*
X235683333Y-114452380D01*
X235921428Y-113404761D02*
X236159523Y-114119047D01*
X235540476Y-114119047D01*
X234969047Y-113452380D02*
X234873809Y-113452380D01*
X234778571Y-113500000D01*
X234730952Y-113547619D01*
X234683333Y-113642857D01*
X234635714Y-113833333D01*
X234635714Y-114071428D01*
X234683333Y-114261904D01*
X234730952Y-114357142D01*
X234778571Y-114404761D01*
X234873809Y-114452380D01*
X234969047Y-114452380D01*
X235064285Y-114404761D01*
X235111904Y-114357142D01*
X235159523Y-114261904D01*
X235207142Y-114071428D01*
X235207142Y-113833333D01*
X235159523Y-113642857D01*
X235111904Y-113547619D01*
X235064285Y-113500000D01*
X234969047Y-113452380D01*
X233683333Y-114452380D02*
X234254761Y-114452380D01*
X233969047Y-114452380D02*
X233969047Y-113452380D01*
X234064285Y-113595238D01*
X234159523Y-113690476D01*
X234254761Y-113738095D01*
X271119047Y-89952380D02*
X271595238Y-89952380D01*
X271595238Y-88952380D01*
X270880952Y-88952380D02*
X270261904Y-88952380D01*
X270595238Y-89333333D01*
X270452380Y-89333333D01*
X270357142Y-89380952D01*
X270309523Y-89428571D01*
X270261904Y-89523809D01*
X270261904Y-89761904D01*
X270309523Y-89857142D01*
X270357142Y-89904761D01*
X270452380Y-89952380D01*
X270738095Y-89952380D01*
X270833333Y-89904761D01*
X270880952Y-89857142D01*
X269642857Y-88952380D02*
X269547619Y-88952380D01*
X269452380Y-89000000D01*
X269404761Y-89047619D01*
X269357142Y-89142857D01*
X269309523Y-89333333D01*
X269309523Y-89571428D01*
X269357142Y-89761904D01*
X269404761Y-89857142D01*
X269452380Y-89904761D01*
X269547619Y-89952380D01*
X269642857Y-89952380D01*
X269738095Y-89904761D01*
X269785714Y-89857142D01*
X269833333Y-89761904D01*
X269880952Y-89571428D01*
X269880952Y-89333333D01*
X269833333Y-89142857D01*
X269785714Y-89047619D01*
X269738095Y-89000000D01*
X269642857Y-88952380D01*
X268357142Y-89952380D02*
X268928571Y-89952380D01*
X268642857Y-89952380D02*
X268642857Y-88952380D01*
X268738095Y-89095238D01*
X268833333Y-89190476D01*
X268928571Y-89238095D01*
X269214285Y-92952380D02*
X269214285Y-93761904D01*
X269166666Y-93857142D01*
X269119047Y-93904761D01*
X269023809Y-93952380D01*
X268833333Y-93952380D01*
X268738095Y-93904761D01*
X268690476Y-93857142D01*
X268642857Y-93761904D01*
X268642857Y-92952380D01*
X268261904Y-92952380D02*
X267642857Y-92952380D01*
X267976190Y-93333333D01*
X267833333Y-93333333D01*
X267738095Y-93380952D01*
X267690476Y-93428571D01*
X267642857Y-93523809D01*
X267642857Y-93761904D01*
X267690476Y-93857142D01*
X267738095Y-93904761D01*
X267833333Y-93952380D01*
X268119047Y-93952380D01*
X268214285Y-93904761D01*
X268261904Y-93857142D01*
X267023809Y-92952380D02*
X266928571Y-92952380D01*
X266833333Y-93000000D01*
X266785714Y-93047619D01*
X266738095Y-93142857D01*
X266690476Y-93333333D01*
X266690476Y-93571428D01*
X266738095Y-93761904D01*
X266785714Y-93857142D01*
X266833333Y-93904761D01*
X266928571Y-93952380D01*
X267023809Y-93952380D01*
X267119047Y-93904761D01*
X267166666Y-93857142D01*
X267214285Y-93761904D01*
X267261904Y-93571428D01*
X267261904Y-93333333D01*
X267214285Y-93142857D01*
X267166666Y-93047619D01*
X267119047Y-93000000D01*
X267023809Y-92952380D01*
X265738095Y-93952380D02*
X266309523Y-93952380D01*
X266023809Y-93952380D02*
X266023809Y-92952380D01*
X266119047Y-93095238D01*
X266214285Y-93190476D01*
X266309523Y-93238095D01*
M02*
